<svg width="207" height="229" viewBox="0 0 207 229" fill="none" xmlns="http://www.w3.org/2000/svg">
<g opacity="0.8">
<path opacity="0.1" d="M212.441 162.598C217.057 124.926 194.707 74.8507 171.53 54.1789C129.699 16.8464 94.9454 24.0661 67.9179 37.4379C40.8904 50.8097 37.0214 95.4422 18.3612 115.639C-0.298859 135.835 -10.9248 162.999 17.3986 190.045C45.722 217.091 68.5597 203.343 98.1665 201.633C127.773 199.924 167.025 213.419 188.258 201.676C203.099 193.482 210.405 179.252 212.441 162.598Z" fill="white"/>
<path d="M5.06345 162.647H92.6191L225.64 205.583" stroke="#5D696F" stroke-linecap="round" stroke-linejoin="round"/>
<path d="M44.9322 159.389H38.8849V59.3869H51.3682L45.9812 39.9431H29.814L24.427 59.3869H36.9103V159.389H30.8445C29.2935 159.39 27.8049 160 26.6985 161.087C25.592 162.173 24.9559 163.651 24.9268 165.202C24.9268 165.202 24.9268 165.232 24.9268 165.245C24.9268 165.245 24.9268 165.282 24.9268 165.294C25.1058 166.689 30.8322 167.812 37.8853 167.812C44.9383 167.812 50.6647 166.689 50.8437 165.294C50.8388 163.728 50.2142 162.228 49.1064 161.122C47.9987 160.015 46.4979 159.392 44.9322 159.389Z" fill="#5D696F"/>
<path d="M125.515 15.5875V133.336L214.169 147.924V1L125.515 15.5875ZM211.867 49.304L166.821 51.8587V10.9471L211.867 3.7768V49.304ZM166.821 56.1596L211.867 54.0925V95.2262L166.821 93.1219V56.1596ZM163.168 92.9492L127.002 91.2646V57.9862L163.138 56.3324L163.168 92.9492ZM163.168 11.5272V52.0808L127.002 54.111V17.2782L163.168 11.5272ZM127.002 95.1398L163.138 97.2193V137.397L127.002 131.645V95.1398ZM166.791 137.977V97.4291L211.836 100.021V145.147L166.791 137.977Z" fill="#5D696F" stroke="#5D696F" stroke-linecap="round" stroke-linejoin="round"/>
<path d="M94.9393 219.892C134.114 219.892 165.871 209.999 165.871 197.795C165.871 185.591 134.114 175.698 94.9393 175.698C55.7647 175.698 24.0074 185.591 24.0074 197.795C24.0074 209.999 55.7647 219.892 94.9393 219.892Z" fill="#D1BBA4"/>
<path opacity="0.5" d="M94.9393 219.892C134.114 219.892 165.871 209.999 165.871 197.795C165.871 185.591 134.114 175.698 94.9393 175.698C55.7647 175.698 24.0074 185.591 24.0074 197.795C24.0074 209.999 55.7647 219.892 94.9393 219.892Z" fill="white"/>
<path d="M88.9476 100.36C88.9476 100.36 72.873 98.4536 62.2964 106.704C51.7199 114.954 42.6243 149.429 42.8341 165.942C43.0439 182.455 49.1838 190.693 64.6228 197.456C80.0618 204.219 108.823 201.689 124.898 196.61C140.972 191.532 146.261 173.779 146.051 164.251C145.841 154.724 135.265 143.734 131.667 141.42C128.07 139.106 117.919 134.231 112.847 126.61C107.774 118.99 100.363 102.477 88.9476 100.36Z" fill="#D1BBA4"/>
<path opacity="0.13" d="M127.847 195.469C121.769 194.648 114.562 193 109.107 189.687C97.5865 182.695 94.711 169.527 90.5951 164.591C86.4793 159.654 79.0745 160.068 75.7855 154.718C72.4966 149.368 77.8404 109.882 68.3807 107.413C66.461 106.859 64.4735 106.574 62.4754 106.568C62.4198 106.617 62.352 106.654 62.2964 106.704C51.7199 114.954 42.6243 149.429 42.8341 165.942C43.0439 182.455 49.1838 190.693 64.6228 197.456C80.0618 204.219 108.823 201.689 124.898 196.61C125.904 196.291 126.889 195.91 127.847 195.469Z" fill="black"/>
<path d="M88.9476 100.36C88.9476 100.36 72.873 98.4536 62.2964 106.704C51.7199 114.954 42.6243 149.429 42.8341 165.942C43.0439 182.455 49.1838 190.693 64.6228 197.456C80.0618 204.219 108.823 201.689 124.898 196.61C140.972 191.532 146.261 173.779 146.051 164.251C145.841 154.724 135.265 143.734 131.667 141.42C128.07 139.106 117.919 134.231 112.847 126.61C107.774 118.99 100.363 102.477 88.9476 100.36Z" stroke="#5D696F" stroke-linecap="round" stroke-linejoin="round"/>
<path d="M82.6165 107.814C82.6165 107.814 72.1263 109.82 70.2751 111.671C68.4239 113.522 60.7106 142.524 60.7106 142.524C62.855 142.002 65.1046 142.109 67.1898 142.833C70.2751 144.067 70.5836 147.307 70.8922 148.849C71.1398 150.691 71.2943 152.545 71.355 154.403C71.355 154.403 102.535 151.62 109.169 150.083C115.802 148.547 125.898 147.831 125.898 147.831C125.898 147.831 108.842 109.363 106.219 107.975C103.597 106.586 92.6438 106.432 91.1011 106.741C89.5585 107.049 82.6165 107.814 82.6165 107.814Z" fill="#5D696F" stroke="#5D696F" stroke-linecap="round" stroke-linejoin="round"/>
<path d="M72.2806 143.45L74.9031 122.007" stroke="white" stroke-linecap="round" stroke-linejoin="round"/>
<path d="M74.286 127.715L77.8342 123.087" stroke="white" stroke-linecap="round" stroke-linejoin="round"/>
<path d="M84.9305 130.491C84.9305 130.491 94.9578 127.252 101.591 127.252" stroke="white" stroke-linecap="round" stroke-linejoin="round"/>
<path d="M94.3963 121.649L93.7237 126.789C93.7237 126.789 95.4206 126.789 95.5749 127.56C95.5855 127.846 95.536 128.131 95.4297 128.397C95.3235 128.663 95.1627 128.903 94.9578 129.103C94.9578 129.103 99.7401 131.726 100.357 134.811" stroke="white" stroke-linecap="round" stroke-linejoin="round"/>
<path d="M88.3737 102.063C88.3737 102.063 82.6165 103.914 81.7896 105.352C80.9627 106.79 81.5859 116.873 81.5859 118.107C81.5859 119.341 82.3079 117.385 82.925 115.947C83.5421 114.509 85.7018 112.344 86.4176 112.553C87.1334 112.763 87.553 113.578 87.553 114.917C87.553 116.256 89.1944 118.107 90.6383 119.131C92.0823 120.156 93.4151 121.192 93.4151 121.192C93.4151 121.192 96.3956 116.873 97.1175 115.737C97.8395 114.602 97.7346 112.245 97.8333 111.418C97.9321 110.591 99.7894 113.683 100.203 112.862C100.616 112.041 99.2773 111.319 97.8333 109.055C96.3894 106.79 96.809 104.427 94.6493 102.779C92.4895 101.131 90.0213 101.644 88.3737 102.063Z" fill="white"/>
<path d="M81.7896 105.346C81.2466 106.309 81.333 111.11 81.4564 114.602C82.7707 112.911 85.4796 109.715 87.047 110.32C89.0463 111.091 89.8115 116.774 89.8115 116.774L88.4601 102.063H88.3737C88.3737 102.063 82.6164 103.915 81.7896 105.346Z" fill="#D1BBA4"/>
<path opacity="0.5" d="M81.7896 105.346C81.2466 106.309 81.333 111.11 81.4564 114.602C82.7707 112.911 85.4796 109.715 87.047 110.32C89.0463 111.091 89.8115 116.774 89.8115 116.774L88.4601 102.063H88.3737C88.3737 102.063 82.6164 103.915 81.7896 105.346Z" fill="white"/>
<path d="M88.3737 102.063C88.3737 102.063 82.6165 103.914 81.7896 105.352C80.9627 106.79 81.5859 116.873 81.5859 118.107C81.5859 119.341 82.3079 117.385 82.925 115.947C83.5421 114.509 85.7018 112.344 86.4176 112.553C87.1334 112.763 87.553 113.578 87.553 114.917C87.553 116.256 89.1944 118.107 90.6383 119.131C92.0823 120.156 93.4151 121.192 93.4151 121.192C93.4151 121.192 96.3956 116.873 97.1175 115.737C97.8395 114.602 97.7346 112.245 97.8333 111.418C97.9321 110.591 99.7894 113.683 100.203 112.862C100.616 112.041 99.2773 111.319 97.8333 109.055C96.3894 106.79 96.809 104.427 94.6493 102.779C92.4895 101.131 90.0213 101.644 88.3737 102.063Z" stroke="#5D696F" stroke-linecap="round" stroke-linejoin="round"/>
<path d="M74.7489 143.758C74.7489 143.758 71.2007 138.668 66.8812 138.205C62.5618 137.742 57.3167 141.29 57.1624 142.524C57.0082 143.758 55.9283 150.392 56.6996 151.317C57.471 152.243 60.402 153.014 66.1099 151.163C71.8178 149.312 74.1318 146.998 74.7489 143.758Z" fill="white"/>
<path d="M60.3156 151.157C60.3156 151.157 59.0815 147.628 59.6986 146.4C60.3156 145.172 62.7839 143.314 64.3081 141.463C65.8322 139.612 60.7106 142.506 60.4637 141.463C60.2725 140.624 63.1727 138.945 64.3142 138.322C60.7229 139.013 57.2859 141.512 57.1624 142.506C57.0082 143.74 55.9283 150.373 56.6996 151.299C57.0946 151.774 58.0757 152.212 59.7109 152.268C60.0812 151.632 60.3156 151.157 60.3156 151.157Z" fill="#D1BBA4"/>
<path opacity="0.5" d="M60.3156 151.157C60.3156 151.157 59.0815 147.628 59.6986 146.4C60.3156 145.172 62.7839 143.314 64.3081 141.463C65.8322 139.612 60.7106 142.506 60.4637 141.463C60.2725 140.624 63.1727 138.945 64.3142 138.322C60.7229 139.013 57.2859 141.512 57.1624 142.506C57.0082 143.74 55.9283 150.373 56.6996 151.299C57.0946 151.774 58.0757 152.212 59.7109 152.268C60.0812 151.632 60.3156 151.157 60.3156 151.157Z" fill="white"/>
<path d="M74.7489 143.758C74.7489 143.758 71.2007 138.668 66.8812 138.205C62.5618 137.742 57.3167 141.29 57.1624 142.524C57.0082 143.758 55.9283 150.392 56.6996 151.317C57.471 152.243 60.402 153.014 66.1099 151.163C71.8178 149.312 74.1318 146.998 74.7489 143.758Z" stroke="#5D696F" stroke-linecap="round" stroke-linejoin="round"/>
<path d="M62.716 145.147C62.716 145.147 56.9279 147.442 56.6996 151.935C56.57 154.403 60.7106 155.483 65.03 155.483C69.3495 155.483 75.5202 150.083 79.5311 147.769C83.542 145.455 92.7981 140.056 93.8779 139.593C94.9578 139.131 98.6602 140.365 100.203 140.827C101.673 141.142 103.173 141.298 104.677 141.29C104.677 141.29 106.836 144.684 107.916 144.684C108.996 144.684 105.602 139.593 105.139 138.513C104.677 137.434 97.1175 134.965 96.1919 134.965C95.2663 134.965 73.669 140.365 70.4294 141.599C67.1898 142.833 62.716 145.147 62.716 145.147Z" fill="white"/>
<path d="M74.8167 144.505C83.6346 140.093 96.1919 134.965 96.1919 134.965C95.2663 134.965 73.669 140.365 70.4294 141.599C67.1898 142.833 62.716 145.147 62.716 145.147C62.716 145.147 56.9279 147.442 56.6996 151.935C56.57 154.403 60.7106 155.483 65.03 155.483C69.3495 155.483 75.5202 150.083 79.5311 147.769L81.9623 146.363C76.0694 147.109 68.1894 147.813 74.8167 144.505Z" fill="#D1BBA4"/>
<path opacity="0.5" d="M74.8167 144.505C83.6346 140.093 96.1919 134.965 96.1919 134.965C95.2663 134.965 73.669 140.365 70.4294 141.599C67.1898 142.833 62.716 145.147 62.716 145.147C62.716 145.147 56.9279 147.442 56.6996 151.935C56.57 154.403 60.7106 155.483 65.03 155.483C69.3495 155.483 75.5202 150.083 79.5311 147.769L81.9623 146.363C76.0694 147.109 68.1894 147.813 74.8167 144.505Z" fill="white"/>
<path d="M62.716 145.147C62.716 145.147 56.9279 147.442 56.6996 151.935C56.57 154.403 60.7106 155.483 65.03 155.483C69.3495 155.483 75.5202 150.083 79.5311 147.769C83.542 145.455 92.7981 140.056 93.8779 139.593C94.9578 139.131 98.6602 140.365 100.203 140.827C101.673 141.142 103.173 141.298 104.677 141.29C104.677 141.29 106.836 144.684 107.916 144.684C108.996 144.684 105.602 139.593 105.139 138.513C104.677 137.434 97.1175 134.965 96.1919 134.965C95.2663 134.965 73.669 140.365 70.4294 141.599C67.1898 142.833 62.716 145.147 62.716 145.147Z" stroke="#5D696F" stroke-linecap="round" stroke-linejoin="round"/>
<path d="M107.836 110.838L103.134 137.279L137.073 137.434L142.12 112.356C142.162 112.135 142.156 111.907 142.101 111.688C142.047 111.47 141.946 111.266 141.805 111.09C141.665 110.914 141.488 110.771 141.286 110.67C141.085 110.569 140.864 110.512 140.639 110.505L109.416 109.567C109.044 109.555 108.68 109.676 108.39 109.91C108.1 110.143 107.904 110.472 107.836 110.838Z" fill="white" stroke="#5D696F" stroke-linecap="round" stroke-linejoin="round"/>
<path d="M103.134 137.279L86.6089 148.967L124.404 147.887L137.073 137.434L103.134 137.279Z" fill="white"/>
<path d="M103.134 137.279L86.6089 148.967L124.404 147.887L137.073 137.434L103.134 137.279Z" fill="#D1BBA4"/>
<path opacity="0.5" d="M103.134 137.279L86.6089 148.967L124.404 147.887L137.073 137.434L103.134 137.279Z" fill="white"/>
<path d="M103.134 137.279L86.6089 148.967L124.404 147.887L137.073 137.434L103.134 137.279Z" stroke="#5D696F" stroke-linecap="round" stroke-linejoin="round"/>
<path d="M115.63 148.849C115.63 148.849 129.205 136.971 142.626 132.96C156.047 128.949 158.824 129.566 158.516 135.582C158.207 141.599 151.728 173.069 147.409 181.091C143.089 189.113 137.69 203.768 137.844 206.545C137.998 209.322 143.243 217.498 147.871 220.429C152.499 223.36 152.037 226.908 149.105 227.525C146.174 228.142 142.78 229.222 132.753 222.743C122.726 216.264 118.561 207.008 119.178 204.694C119.795 202.38 126.274 199.294 128.896 194.666C131.519 190.038 135.838 172.76 136.147 164.893C136.398 159.926 137.439 155.031 139.232 150.392C139.232 150.392 122.263 153.477 117.326 156.562L115.63 148.849Z" fill="white"/>
<path d="M115.63 148.849C115.63 148.849 129.205 136.971 142.626 132.96C156.047 128.949 158.824 129.566 158.516 135.582C158.207 141.599 151.728 173.069 147.409 181.091C143.089 189.113 137.69 203.768 137.844 206.545C137.998 209.322 143.243 217.498 147.871 220.429C152.499 223.36 152.037 226.908 149.105 227.525C146.174 228.142 142.78 229.222 132.753 222.743C122.726 216.264 118.561 207.008 119.178 204.694C119.795 202.38 126.274 199.294 128.896 194.666C131.519 190.038 135.838 172.76 136.147 164.893C136.398 159.926 137.439 155.031 139.232 150.392C139.232 150.392 122.263 153.477 117.326 156.562L115.63 148.849Z" fill="#D1BBA4"/>
<path opacity="0.5" d="M115.63 148.849C115.63 148.849 129.205 136.971 142.626 132.96C156.047 128.949 158.824 129.566 158.516 135.582C158.207 141.599 151.728 173.069 147.409 181.091C143.089 189.113 137.69 203.768 137.844 206.545C137.998 209.322 143.243 217.498 147.871 220.429C152.499 223.36 152.037 226.908 149.105 227.525C146.174 228.142 142.78 229.222 132.753 222.743C122.726 216.264 118.561 207.008 119.178 204.694C119.795 202.38 126.274 199.294 128.896 194.666C131.519 190.038 135.838 172.76 136.147 164.893C136.398 159.926 137.439 155.031 139.232 150.392C139.232 150.392 122.263 153.477 117.326 156.562L115.63 148.849Z" fill="white"/>
<path d="M115.63 148.849C115.63 148.849 129.205 136.971 142.626 132.96C156.047 128.949 158.824 129.566 158.516 135.582C158.207 141.599 151.728 173.069 147.409 181.091C143.089 189.113 137.69 203.768 137.844 206.545C137.998 209.322 143.243 217.498 147.871 220.429C152.499 223.36 152.037 226.908 149.105 227.525C146.174 228.142 142.78 229.222 132.753 222.743C122.726 216.264 118.561 207.008 119.178 204.694C119.795 202.38 126.274 199.294 128.896 194.666C131.519 190.038 135.838 172.76 136.147 164.893C136.398 159.926 137.439 155.031 139.232 150.392C139.232 150.392 122.263 153.477 117.326 156.562L115.63 148.849Z" stroke="#5D696F" stroke-linecap="round" stroke-linejoin="round"/>
<path d="M128.896 194.666C128.699 195.012 128.477 195.345 128.242 195.678C131.433 195.979 134.458 197.24 136.918 199.294C137.658 199.937 138.362 200.619 139.029 201.337C141.268 194.372 144.071 187.601 147.409 181.091C151.728 173.069 158.207 141.599 158.516 135.582C158.824 129.566 156.047 128.949 142.626 132.96C129.205 136.971 115.63 148.849 115.63 148.849L117.326 156.562C122.263 153.477 139.232 150.392 139.232 150.392C137.439 155.031 136.398 159.926 136.147 164.893C135.838 172.76 131.519 190.038 128.896 194.666Z" fill="white" stroke="#5D696F" stroke-linecap="round" stroke-linejoin="round"/>
<path d="M128.896 194.666C128.699 195.012 128.477 195.345 128.242 195.678C131.433 195.979 134.458 197.24 136.918 199.294C137.658 199.937 138.362 200.619 139.029 201.337C141.984 197.363 145.31 184.83 149.062 179.672C158.756 166.349 158.207 141.599 158.516 135.582C158.824 129.566 156.047 128.949 142.626 132.96C129.205 136.971 115.63 148.849 115.63 148.849L117.326 156.562C122.263 153.477 139.232 150.392 139.232 150.392C137.439 155.031 136.398 159.926 136.147 164.893C135.838 172.76 131.519 190.038 128.896 194.666Z" fill="#5D696F"/>
<path opacity="0.53" d="M128.896 194.666C128.699 195.012 128.477 195.345 128.242 195.678C131.433 195.979 134.458 197.24 136.918 199.294C137.658 199.937 138.362 200.619 139.029 201.337C141.984 197.363 145.31 184.83 149.062 179.672C158.756 166.349 158.207 141.599 158.516 135.582C158.824 129.566 156.047 128.949 142.626 132.96C129.205 136.971 115.63 148.849 115.63 148.849L117.326 156.562C122.263 153.477 139.232 150.392 139.232 150.392C137.439 155.031 136.398 159.926 136.147 164.893C135.838 172.76 131.519 190.038 128.896 194.666Z" fill="white"/>
<path opacity="0.14" d="M151.993 134.768C151.753 132.577 127.891 142.679 117.826 147.035C116.432 148.146 115.63 148.849 115.63 148.849L117.326 156.563C122.263 153.477 139.232 150.392 139.232 150.392C137.439 155.031 136.398 159.926 136.147 164.893C135.838 172.761 131.519 190.039 128.896 194.667C128.699 195.012 128.477 195.345 128.242 195.678C129.942 195.861 131.605 196.291 133.179 196.956C136.875 189.07 140.855 179.894 142.737 172.717C146.131 159.759 152.302 137.545 151.993 134.768Z" fill="black"/>
<path d="M139.232 150.392C139.232 150.392 143.86 140.982 147.871 137.125" stroke="#5D696F" stroke-linecap="round" stroke-linejoin="round"/>
<path d="M128.896 194.666C128.699 195.012 128.477 195.345 128.242 195.678C131.433 195.979 134.458 197.24 136.918 199.294C137.658 199.937 138.362 200.619 139.029 201.337C141.984 197.363 145.31 184.83 149.062 179.672C158.756 166.349 158.207 141.599 158.516 135.582C158.824 129.566 156.047 128.949 142.626 132.96C129.205 136.971 115.63 148.849 115.63 148.849L117.326 156.562C122.263 153.477 139.232 150.392 139.232 150.392C137.439 155.031 136.398 159.926 136.147 164.893C135.838 172.76 131.519 190.038 128.896 194.666Z" stroke="#5D696F" stroke-linecap="round" stroke-linejoin="round"/>
<path d="M95.291 161.302C100.26 161.075 105.173 160.15 109.885 158.556C116.864 156.013 104.171 151.361 99.3081 153.903C97.9494 154.562 96.8313 155.63 96.1108 156.957C95.3903 158.284 95.1036 159.803 95.291 161.302Z" fill="#5D696F" stroke="#5D696F" stroke-linecap="round" stroke-linejoin="round"/>
<path d="M75.2116 151.318C75.2116 151.318 70.2751 154.094 68.5782 157.18C66.8812 160.265 74.1811 165.405 81.8945 165.097C89.6078 164.788 103.751 156.408 103.751 156.408C103.751 156.408 103.905 169.984 106.528 174.92C109.15 179.857 121.183 191.89 125.965 194.975C130.748 198.06 146.791 209.63 149.26 211.482C151.728 213.333 156.356 216.727 157.436 216.881C158.516 217.035 169.777 203.305 172.4 198.677C175.022 194.049 177.336 184.331 176.411 182.171C175.485 180.011 173.634 181.862 171.783 183.405C169.931 184.948 152.962 196.209 151.419 196.98C150.577 197.413 149.7 197.774 148.797 198.06C148.797 198.06 134.913 184.793 127.508 174.612C120.103 164.43 119.486 151.318 116.709 146.381C113.933 141.444 109.922 139.285 103.905 139.902C97.8889 140.519 85.3933 143.758 75.2116 151.318Z" fill="white"/>
<path d="M140.485 205.113C144.607 208.063 148.192 210.667 149.26 211.469C151.728 213.32 156.356 216.714 157.436 216.868C157.818 216.924 159.484 215.227 161.589 212.814L143.922 201.448L140.485 205.113Z" fill="#D1BBA4"/>
<path opacity="0.5" d="M140.485 205.113C144.607 208.063 148.192 210.667 149.26 211.469C151.728 213.32 156.356 216.714 157.436 216.868C157.818 216.924 159.484 215.227 161.589 212.814L143.922 201.448L140.485 205.113Z" fill="white"/>
<path d="M75.2116 151.318C75.2116 151.318 70.2751 154.094 68.5782 157.18C66.8812 160.265 74.1811 165.405 81.8945 165.097C89.6078 164.788 103.751 156.408 103.751 156.408C103.751 156.408 103.905 169.984 106.528 174.92C109.15 179.857 121.183 191.89 125.965 194.975C130.748 198.06 146.791 209.63 149.26 211.482C151.728 213.333 156.356 216.727 157.436 216.881C158.516 217.035 169.777 203.305 172.4 198.677C175.022 194.049 177.336 184.331 176.411 182.171C175.485 180.011 173.634 181.862 171.783 183.405C169.931 184.948 152.962 196.209 151.419 196.98C150.577 197.413 149.7 197.774 148.797 198.06C148.797 198.06 134.913 184.793 127.508 174.612C120.103 164.43 119.486 151.318 116.709 146.381C113.933 141.444 109.922 139.285 103.905 139.902C97.8889 140.519 85.3933 143.758 75.2116 151.318Z" stroke="#5D696F" stroke-linecap="round" stroke-linejoin="round"/>
<path d="M147.84 197.135C144.576 193.951 132.34 177.531 127.508 168.089C120.43 154.255 119.665 149.54 116.888 144.604C114.112 139.667 109.922 139.285 103.93 139.902C97.9382 140.519 87.1457 141.636 73.9405 149.127C73.9405 149.127 68.3869 152.138 66.6961 155.224C65.0054 158.309 71.1822 166.078 81.9192 165.097C89.6078 164.393 103.776 156.408 103.776 156.408C103.776 156.408 103.93 169.984 106.552 174.92C109.175 179.857 121.208 191.89 125.99 194.975C129.02 196.931 136.579 202.3 142.336 206.434C143.755 201.269 146.304 198.443 147.84 197.135Z" fill="#5D696F"/>
<path opacity="0.53" d="M147.84 197.135C144.576 193.951 132.34 177.531 127.508 168.089C120.43 154.255 119.665 149.54 116.888 144.604C114.112 139.667 109.922 139.285 103.93 139.902C97.9382 140.519 87.1457 141.636 73.9405 149.127C73.9405 149.127 68.3869 152.138 66.6961 155.224C65.0054 158.309 71.1822 166.078 81.9192 165.097C89.6078 164.393 103.776 156.408 103.776 156.408C103.776 156.408 103.93 169.984 106.552 174.92C109.175 179.857 121.208 191.89 125.99 194.975C129.02 196.931 136.579 202.3 142.336 206.434C143.755 201.269 146.304 198.443 147.84 197.135Z" fill="white"/>
<path opacity="0.14" d="M116.82 175.186C112.192 163.461 114.969 140.013 102.011 143.098C92.5697 145.344 75.261 153.329 66.5665 157.494C67.597 161.036 73.2741 165.886 81.8945 165.097C89.5831 164.393 103.751 156.408 103.751 156.408C103.751 156.408 103.905 169.984 106.528 174.92C109.15 179.857 121.183 191.89 125.965 194.975C128.995 196.931 136.554 202.3 142.312 206.434C142.807 204.628 143.531 202.892 144.465 201.269C132.975 192.772 119.406 181.733 116.82 175.186Z" fill="black"/>
<path d="M103.751 156.408L103.288 148.387" stroke="#5D696F" stroke-linecap="round" stroke-linejoin="round"/>
<path d="M147.84 197.135C144.576 193.951 132.34 177.531 127.508 168.089C120.43 154.255 119.665 149.54 116.888 144.604C114.112 139.667 109.922 139.285 103.93 139.902C97.9382 140.519 87.1457 141.636 73.9405 149.127C73.9405 149.127 68.3869 152.138 66.6961 155.224C65.0054 158.309 71.1822 166.078 81.9192 165.097C89.6078 164.393 103.776 156.408 103.776 156.408C103.776 156.408 103.93 169.984 106.552 174.92C109.175 179.857 121.208 191.89 125.99 194.975C129.02 196.931 136.579 202.3 142.336 206.434C143.755 201.269 146.304 198.443 147.84 197.135Z" stroke="#5D696F" stroke-linecap="round" stroke-linejoin="round"/>
<path d="M149.26 211.482C151.728 213.333 156.356 216.727 157.436 216.881C158.516 217.035 169.777 203.305 172.4 198.677C175.022 194.049 177.336 184.331 176.411 182.171C175.485 180.011 173.634 181.862 171.783 183.405C169.931 184.948 152.962 196.209 151.419 196.98C151.012 197.184 150.642 197.351 150.315 197.493C149.871 198.338 149.328 199.646 149.698 200.529C150.315 201.917 152.937 203.768 152.937 203.768L148.266 210.766L149.26 211.482Z" fill="#5D696F" stroke="#5D696F" stroke-linecap="round" stroke-linejoin="round"/>
<path d="M172.4 198.677C175.022 194.049 177.336 184.331 176.411 182.171C175.874 180.937 175.028 181.017 174.047 181.622C174.695 184.503 174.047 190.063 170.857 196.055C168.012 201.399 159.225 210.865 154.813 215.443C155.617 216.048 156.505 216.532 157.448 216.881C158.516 217.035 169.777 203.305 172.4 198.677Z" fill="white"/>
<path d="M157.59 216.838L157.726 216.77L157.763 216.739C157.837 216.697 157.908 216.647 157.973 216.591L158.047 216.529L158.226 216.381L158.324 216.289L158.565 216.066L158.713 215.925L158.917 215.727L159.09 215.554L159.262 215.382L159.7 214.919L159.775 214.845L160.046 214.548L160.157 214.431C160.478 214.08 160.824 213.697 161.181 213.29V213.259L161.564 212.827L158.867 211.093C157.337 212.759 155.912 214.265 154.776 215.443L155.19 215.715L155.251 215.752L155.634 215.992L156.251 216.344L156.424 216.443L156.597 216.535L156.794 216.634L156.924 216.696C156.986 216.727 157.05 216.754 157.115 216.776L157.208 216.813C157.279 216.843 157.353 216.863 157.43 216.875C157.468 216.885 157.508 216.885 157.547 216.875L157.59 216.838Z" fill="#D1BBA4"/>
<path opacity="0.5" d="M157.59 216.838L157.726 216.77L157.763 216.739C157.837 216.697 157.908 216.647 157.973 216.591L158.047 216.529L158.226 216.381L158.324 216.289L158.565 216.066L158.713 215.925L158.917 215.727L159.09 215.554L159.262 215.382L159.7 214.919L159.775 214.845L160.046 214.548L160.157 214.431C160.478 214.08 160.824 213.697 161.181 213.29V213.259L161.564 212.827L158.867 211.093C157.337 212.759 155.912 214.265 154.776 215.443L155.19 215.715L155.251 215.752L155.634 215.992L156.251 216.344L156.424 216.443L156.597 216.535L156.794 216.634L156.924 216.696C156.986 216.727 157.05 216.754 157.115 216.776L157.208 216.813C157.279 216.843 157.353 216.863 157.43 216.875C157.468 216.885 157.508 216.885 157.547 216.875L157.59 216.838Z" fill="white"/>
<path d="M172.4 198.677C175.022 194.049 177.336 184.331 176.411 182.171C175.874 180.937 175.028 181.017 174.047 181.622C174.695 184.503 174.047 190.063 170.857 196.055C168.012 201.399 159.225 210.865 154.813 215.443C155.617 216.048 156.505 216.532 157.448 216.881C158.516 217.035 169.777 203.305 172.4 198.677Z" stroke="#5D696F" stroke-linecap="round" stroke-linejoin="round"/>
<path d="M147.871 220.429C143.243 217.498 137.998 209.322 137.844 206.545C137.837 206.241 137.862 205.937 137.918 205.638C136.997 205.667 136.108 205.985 135.376 206.545C133.476 204.822 131.467 203.224 129.359 201.763C127.662 200.785 125.761 200.217 123.806 200.103C121.566 201.954 119.486 203.435 119.159 204.694C118.542 207.008 122.707 216.264 132.735 222.743C142.762 229.222 146.156 228.142 149.087 227.525C152.018 226.908 152.499 223.36 147.871 220.429Z" fill="#5D696F" stroke="#5D696F" stroke-linecap="round" stroke-linejoin="round"/>
<path d="M147.871 220.429C146.338 219.39 144.955 218.144 143.762 216.727C140.578 215.369 136.326 213.641 132.599 211.321C128.588 208.853 129.514 207.31 127.2 204.996C125.422 203.219 121.93 202.991 120.412 202.978C119.864 203.436 119.439 204.024 119.178 204.688C118.561 207.002 122.726 216.258 132.753 222.737C142.78 229.216 146.174 228.136 149.105 227.519C152.036 226.902 152.499 223.36 147.871 220.429Z" fill="white"/>
<path d="M147.871 220.429C146.338 219.39 144.955 218.144 143.762 216.727C140.578 215.369 136.326 213.641 132.599 211.321C128.588 208.853 129.514 207.31 127.2 204.996C125.422 203.219 121.93 202.991 120.412 202.978C119.864 203.436 119.439 204.024 119.178 204.688C118.561 207.002 122.726 216.258 132.753 222.737C142.78 229.216 146.174 228.136 149.105 227.519C152.036 226.902 152.499 223.36 147.871 220.429Z" fill="#D1BBA4"/>
<path opacity="0.5" d="M147.871 220.429C146.338 219.39 144.955 218.144 143.762 216.727C140.578 215.369 136.326 213.641 132.599 211.321C128.588 208.853 129.514 207.31 127.2 204.996C125.422 203.219 121.93 202.991 120.412 202.978C119.864 203.436 119.439 204.024 119.178 204.688C118.561 207.002 122.726 216.258 132.753 222.737C142.78 229.216 146.174 228.136 149.105 227.519C152.036 226.902 152.499 223.36 147.871 220.429Z" fill="white"/>
<path d="M147.871 220.429C146.338 219.39 144.955 218.144 143.762 216.727C140.578 215.369 136.326 213.641 132.599 211.321C128.588 208.853 129.514 207.31 127.2 204.996C125.422 203.219 121.93 202.991 120.412 202.978C119.864 203.436 119.439 204.024 119.178 204.688C118.561 207.002 122.726 216.258 132.753 222.737C142.78 229.216 146.174 228.136 149.105 227.519C152.036 226.902 152.499 223.36 147.871 220.429Z" stroke="#5D696F" stroke-linecap="round" stroke-linejoin="round"/>
<path d="M148.643 221.509C144.632 219.195 136.456 217.652 131.21 214.104C125.965 210.556 127.354 207.471 123.497 205.002C122.881 204.542 122.143 204.273 121.375 204.229C120.606 204.185 119.842 204.368 119.178 204.756C118.641 207.162 122.818 216.313 132.753 222.743C142.688 229.173 146.174 228.142 149.105 227.525C151.055 227.112 151.901 225.409 150.895 223.453C150.266 222.676 149.503 222.018 148.643 221.509Z" fill="#5D696F"/>
<path opacity="0.53" d="M148.643 221.509C144.632 219.195 136.456 217.652 131.21 214.104C125.965 210.556 127.354 207.471 123.497 205.002C122.881 204.542 122.143 204.273 121.375 204.229C120.606 204.185 119.842 204.368 119.178 204.756C118.641 207.162 122.818 216.313 132.753 222.743C142.688 229.173 146.174 228.142 149.105 227.525C151.055 227.112 151.901 225.409 150.895 223.453C150.266 222.676 149.503 222.018 148.643 221.509Z" fill="white"/>
<path d="M148.643 221.509C144.632 219.195 136.456 217.652 131.21 214.104C125.965 210.556 127.354 207.471 123.497 205.002C122.881 204.542 122.143 204.273 121.375 204.229C120.606 204.185 119.842 204.368 119.178 204.756C118.641 207.162 122.818 216.313 132.753 222.743C142.688 229.173 146.174 228.142 149.105 227.525C151.055 227.112 151.901 225.409 150.895 223.453C150.266 222.676 149.503 222.018 148.643 221.509V221.509Z" stroke="#5D696F" stroke-linecap="round" stroke-linejoin="round"/>
<path d="M71.7684 192.001C71.7684 192.001 74.7303 188.403 75.1499 191.155C75.5695 193.907 74.9401 198.98 72.8236 200.88C70.707 202.781 69.6519 199.825 69.6519 199.825L70.923 198.134C70.923 198.134 71.9782 200.251 72.8236 196.863C73.669 193.476 71.1328 193.901 71.1328 193.901L71.7684 192.001Z" fill="white" stroke="#5D696F" stroke-linecap="round" stroke-linejoin="round"/>
<path d="M69.5038 205.539C67.7513 206.835 62.0373 206.835 60.291 205.539C56.5886 202.793 57.2056 189.526 57.2056 189.526H72.5459C72.5459 189.526 73.2124 202.793 69.5038 205.539Z" fill="white" stroke="#5D696F" stroke-linecap="round" stroke-linejoin="round"/>
<path d="M58.8841 186.922C58.8841 185.256 60.4329 185.256 60.4329 183.584C60.4329 181.912 58.8841 181.912 58.8841 180.246C58.8841 178.579 60.4329 178.573 60.4329 176.901C60.4329 175.229 58.8841 175.229 58.8841 173.557C58.8841 171.884 60.4329 171.884 60.4329 170.212" stroke="#5D696F" stroke-linecap="round" stroke-linejoin="round"/>
<path d="M64.1847 186.922C64.1847 185.688 65.7335 185.688 65.7335 184.386C65.7335 183.084 64.1847 183.121 64.1847 181.85C64.1847 180.579 65.7335 180.585 65.7335 179.314C65.7335 178.043 64.1847 178.043 64.1847 176.772C64.1847 175.5 65.7335 175.507 65.7335 174.235" stroke="#5D696F" stroke-linecap="round" stroke-linejoin="round"/>
<path d="M70.0159 186.922C70.0159 185.256 71.5586 185.256 71.5586 183.584C71.5586 181.912 70.0159 181.912 70.0159 180.246C70.0159 178.579 71.5586 178.573 71.5586 176.901C71.5586 175.229 70.0159 175.229 70.0159 173.557C70.0159 171.884 71.5586 171.884 71.5586 170.212" stroke="#5D696F" stroke-linecap="round" stroke-linejoin="round"/>
<path d="M72.5583 189.527C72.5583 189.915 69.1274 190.224 64.8881 190.224C60.6489 190.224 57.218 189.915 57.218 189.527C57.218 189.138 60.6489 188.829 64.8881 188.829C69.1274 188.829 72.5583 189.138 72.5583 189.527Z" fill="white" stroke="#5D696F" stroke-linecap="round" stroke-linejoin="round"/>
<path d="M86.7199 94.0414C86.7199 94.0414 87.4419 101.835 87.7443 104.297C88.0466 106.759 88.7316 113.831 89.4412 116.169C90.1508 118.508 94.0198 122.575 94.3777 121.637C94.7356 120.699 96.6609 114.337 95.8957 110.529C95.1306 106.722 94.8961 103.47 95.3712 102.508C95.8464 101.545 97.5556 100.465 97.5556 100.465C95.5647 99.4454 93.6305 98.3186 91.7614 97.0898C89.0339 95.2756 87.1025 93.2208 86.7199 94.0414Z" fill="white"/>
<path d="M96.6239 100.885L96.0068 99.6875C94.8714 99.0705 93.2917 98.1572 91.7922 97.1514C89.0463 95.3002 87.1149 93.2207 86.7323 94.066C86.7323 94.066 87.4542 101.86 87.7566 104.322C88.059 106.784 88.7439 113.855 89.4535 116.194C89.6956 116.878 90.0299 117.526 90.447 118.119C89.7004 113.467 90.5087 105.062 90.5087 105.062L96.6239 100.885Z" fill="#D1BBA4"/>
<path opacity="0.5" d="M96.6239 100.885L96.0068 99.6875C94.8714 99.0705 93.2917 98.1572 91.7922 97.1514C89.0463 95.3002 87.1149 93.2207 86.7323 94.066C86.7323 94.066 87.4542 101.86 87.7566 104.322C88.059 106.784 88.7439 113.855 89.4535 116.194C89.6956 116.878 90.0299 117.526 90.447 118.119C89.7004 113.467 90.5087 105.062 90.5087 105.062L96.6239 100.885Z" fill="white"/>
<path d="M86.7199 94.0414C86.7199 94.0414 87.4419 101.835 87.7443 104.297C88.0466 106.759 88.7316 113.831 89.4412 116.169C90.1508 118.508 94.0198 122.575 94.3777 121.637C94.7356 120.699 96.6609 114.337 95.8957 110.529C95.1306 106.722 94.8961 103.47 95.3712 102.508C95.8464 101.545 97.5556 100.465 97.5556 100.465C95.5647 99.4454 93.6305 98.3186 91.7614 97.0898C89.0339 95.2756 87.1025 93.2208 86.7199 94.0414Z" stroke="#5D696F" stroke-linecap="round" stroke-linejoin="round"/>
<path d="M86.4361 95.1707C86.4361 95.1707 90.879 98.8731 94.2852 100.231C97.6914 101.588 102.924 101.502 103.671 99.7308C104.417 97.9598 102.375 83.9339 100.616 80.2438C98.8577 76.5537 96.9818 76.492 93.8779 76.2082C90.7741 75.9243 84.5664 78.4543 83.4742 81.4533C82.382 84.4522 83.6284 88.6976 84.5294 91.2153C85.0058 92.6047 85.6458 93.9325 86.4361 95.1707Z" fill="white"/>
<path d="M94.4148 95.0039C92.8413 90.3389 92.4463 82.9958 92.4463 81.0397C92.4463 79.5279 96.3832 77.868 98.1789 77.1892C97.0003 76.4611 95.6304 76.3685 93.8594 76.2081C90.7741 75.9304 84.5479 78.4542 83.4557 81.4531C82.3635 84.4521 83.6099 88.6975 84.5108 91.2151C84.9873 92.6046 85.6273 93.9324 86.4176 95.1705C86.4176 95.1705 90.8605 98.8729 94.2667 100.23C96.6273 101.124 99.1841 101.369 101.671 100.94C99.2341 100.021 95.4638 98.1201 94.4148 95.0039Z" fill="#D1BBA4"/>
<path opacity="0.5" d="M94.4148 95.0039C92.8413 90.3389 92.4463 82.9958 92.4463 81.0397C92.4463 79.5279 96.3832 77.868 98.1789 77.1892C97.0003 76.4611 95.6304 76.3685 93.8594 76.2081C90.7741 75.9304 84.5479 78.4542 83.4557 81.4531C82.3635 84.4521 83.6099 88.6975 84.5108 91.2151C84.9873 92.6046 85.6273 93.9324 86.4176 95.1705C86.4176 95.1705 90.8605 98.8729 94.2667 100.23C96.6273 101.124 99.1841 101.369 101.671 100.94C99.2341 100.021 95.4638 98.1201 94.4148 95.0039Z" fill="white"/>
<path d="M86.4361 95.1707C86.4361 95.1707 90.879 98.8731 94.2852 100.231C97.6914 101.588 102.924 101.502 103.671 99.7308C104.417 97.9598 102.375 83.9339 100.616 80.2438C98.8577 76.5537 96.9818 76.492 93.8779 76.2082C90.7741 75.9243 84.5664 78.4543 83.4742 81.4533C82.382 84.4522 83.6284 88.6976 84.5294 91.2153C85.0058 92.6047 85.6458 93.9325 86.4361 95.1707V95.1707Z" stroke="#5D696F" stroke-linecap="round" stroke-linejoin="round"/>
<path d="M100.95 86.0196C101.024 87.7967 99.9067 89.2838 98.4812 89.3394C97.0558 89.3949 95.8093 88.0065 95.7415 86.254C95.6736 84.5016 96.7843 82.9898 98.2097 82.928C99.6352 82.8663 100.882 84.2239 100.95 86.0196Z" stroke="#5D696F" stroke-linecap="round" stroke-linejoin="round"/>
<path d="M104.442 85.3285C104.516 87.1057 103.942 88.5681 103.165 88.599C102.387 88.6298 101.696 87.2167 101.628 85.4396C101.56 83.6624 102.134 82.1938 102.912 82.163C103.689 82.1321 104.374 83.5514 104.442 85.3285Z" stroke="#5D696F" stroke-linecap="round" stroke-linejoin="round"/>
<path d="M101.135 85.3654C101.135 85.3654 106.232 86.3342 105.738 87.5621C105.244 88.7901 101.801 90.1168 101.801 90.1168" fill="white"/>
<path d="M101.135 85.3654C101.135 85.3654 106.232 86.3342 105.738 87.5621C105.244 88.7901 101.801 90.1168 101.801 90.1168" stroke="#5D696F" stroke-linecap="round" stroke-linejoin="round"/>
<path d="M100.82 84.7854C100.82 84.7854 100.894 84.1684 101.678 84.5571" stroke="#5D696F" stroke-linecap="round" stroke-linejoin="round"/>
<path d="M95.581 86.5009L86.3127 90.1477" stroke="#5D696F" stroke-linecap="round" stroke-linejoin="round"/>
<path d="M95.7044 83.5018C95.8996 83.0607 96.2257 82.6902 96.6385 82.4408C97.0514 82.1913 97.531 82.0749 98.0123 82.1072" stroke="#5D696F" stroke-width="2" stroke-linecap="round" stroke-linejoin="round"/>
<path d="M101.875 82.1504L100.45 82.6872" stroke="#5D696F" stroke-width="2" stroke-linecap="round" stroke-linejoin="round"/>
<path d="M97.4693 92.4988C97.4693 92.4988 99.3205 92.0175 100.369 93.1159" stroke="#5D696F" stroke-linecap="round" stroke-linejoin="round"/>
<path d="M98.6602 86.3405C98.7466 86.9576 98.6602 87.4882 98.4072 87.5191C98.1542 87.5499 97.9321 87.0748 97.8457 86.4516C97.7593 85.8283 97.8765 85.31 98.1048 85.2791C98.3332 85.2483 98.58 85.7234 98.6602 86.3405Z" fill="#5D696F"/>
<path d="M87.1766 90.1724C87.1766 90.1724 86.5595 91.4065 88.2996 91.4682C90.0398 91.5299 91.2245 90.6845 90.3792 89.617C89.5338 88.5495 88.2811 87.5498 89.5708 86.1553C90.8605 84.7607 93.3658 83.5883 91.9589 82.0332C90.5519 80.4782 85.3747 81.8913 86.6706 80.6325C87.9664 79.3737 93.952 78.0593 96.6424 78.2259C99.3328 78.3926 104.356 76.3069 105.46 73.5794C106.565 70.852 105.022 65.8106 101.406 66.0821C97.7901 66.3536 95.0936 69.5562 93.4892 69.7845C91.8848 70.0128 88.5958 68.2295 85.8375 69.7845C83.0792 71.3395 82.9867 75.807 82.7522 76.3562C82.5177 76.9054 78.7783 77.7199 78.118 81.5026C77.8702 83.0276 77.9761 84.5891 78.4276 86.0667C78.8791 87.5442 79.6641 88.8983 80.7221 90.0243C82.2709 91.7089 82.9682 92.3506 82.9682 92.3506L87.1766 90.1724Z" fill="#5D696F" stroke="#5D696F" stroke-linecap="round" stroke-linejoin="round"/>
<path d="M79.3275 83.3353C79.2953 83.9094 79.4326 84.4802 79.7224 84.9767" stroke="white" stroke-width="0.75" stroke-linecap="round" stroke-linejoin="round"/>
<path d="M95.0565 73.5672C95.0565 73.5672 93.7113 70.6238 97.1422 70.6238C100.573 70.6238 101.067 74.9432 97.5125 76.5106C93.9581 78.0779 86.2263 78.4729 82.0549 80.3179C81.2363 80.6383 80.5078 81.1529 79.9322 81.8174" stroke="white" stroke-width="0.75" stroke-linecap="round" stroke-linejoin="round"/>
<path d="M88.8427 84.0203C87.6085 84.4646 86.0103 85.0816 84.3874 85.8344C80.9504 87.4326 81.6847 89.0247 81.6847 89.0247" stroke="white" stroke-width="0.75" stroke-linecap="round" stroke-linejoin="round"/>
<path d="M91.132 83.2612C91.132 83.2612 90.8296 83.3476 90.3174 83.5142" stroke="white" stroke-width="0.75" stroke-linecap="round" stroke-linejoin="round"/>
<path d="M87.7628 91.4929C87.7628 91.4929 85.7697 88.6174 83.6716 89.7713C81.5736 90.9252 83.2027 95.0287 84.4677 96.4541C85.7326 97.8796 88.17 95.22 88.423 94.5536" fill="white"/>
<path d="M87.7628 91.4929C87.7628 91.4929 85.7697 88.6174 83.6716 89.7713C81.5736 90.9252 83.2027 95.0287 84.4677 96.4541C85.7326 97.8796 88.17 95.22 88.423 94.5536" fill="#D1BBA4"/>
<path opacity="0.5" d="M87.7628 91.4929C87.7628 91.4929 85.7697 88.6174 83.6716 89.7713C81.5736 90.9252 83.2027 95.0287 84.4677 96.4541C85.7326 97.8796 88.17 95.22 88.423 94.5536" fill="white"/>
<path d="M87.7628 91.4929C87.7628 91.4929 85.7697 88.6174 83.6716 89.7713C81.5736 90.9252 83.2027 95.0287 84.4677 96.4541C85.7326 97.8796 88.17 95.22 88.423 94.5536" stroke="#5D696F" stroke-linecap="round" stroke-linejoin="round"/>
<path d="M198.502 210.211C204.203 210.211 208.825 208.139 208.825 205.583C208.825 203.027 204.203 200.955 198.502 200.955C192.8 200.955 188.178 203.027 188.178 205.583C188.178 208.139 192.8 210.211 198.502 210.211Z" fill="#D1BBA4"/>
<path opacity="0.5" d="M198.502 210.211C204.203 210.211 208.825 208.139 208.825 205.583C208.825 203.027 204.203 200.955 198.502 200.955C192.8 200.955 188.178 203.027 188.178 205.583C188.178 208.139 192.8 210.211 198.502 210.211Z" fill="white"/>
<path d="M186.426 137.1C187.53 137.582 190.233 137.52 190.233 137.52C190.233 137.52 189.653 135.749 189.616 135.669C188.999 134.435 187.148 132.38 185.623 132.584C185.373 132.629 185.135 132.725 184.923 132.867C184.712 133.009 184.532 133.192 184.395 133.407C184.258 133.621 184.166 133.861 184.126 134.112C184.086 134.363 184.098 134.62 184.161 134.867C184.389 135.903 185.482 136.687 186.426 137.1Z" fill="#5D696F"/>
<path d="M221.821 127.9C220.29 127.74 218.47 129.831 217.908 131.09C217.859 131.201 217.291 132.985 217.328 132.985H217.359C217.069 133.312 216.742 133.67 216.44 134.064C215.823 134.799 215.169 135.632 214.502 136.594C213.771 137.619 213.101 138.687 212.497 139.791C211.811 141.025 211.237 142.318 210.781 143.654C210.778 143.67 210.778 143.687 210.781 143.703C210.781 143.253 210.781 141.988 210.781 141.889C210.602 140.531 209.461 137.995 207.943 137.718C207.691 137.683 207.435 137.701 207.19 137.77C206.945 137.839 206.717 137.958 206.52 138.119C206.324 138.28 206.162 138.479 206.046 138.705C205.929 138.932 205.861 139.179 205.845 139.433C205.758 140.513 206.542 141.599 207.307 142.284C208.171 143.055 210.565 143.802 210.757 143.857C210.33 145.229 209.992 146.626 209.745 148.041C209.597 148.868 209.479 149.701 209.362 150.54C209.362 150.145 209.362 149.8 209.362 149.75C209.183 148.387 208.042 145.857 206.53 145.579C206.278 145.544 206.021 145.561 205.776 145.629C205.531 145.697 205.303 145.815 205.105 145.975C204.908 146.136 204.746 146.335 204.629 146.561C204.512 146.787 204.443 147.034 204.425 147.288C204.339 148.374 205.123 149.454 205.888 150.139C206.653 150.824 208.696 151.515 209.239 151.688C209.202 152.009 209.158 152.305 209.115 152.651C208.93 154.193 208.757 155.736 208.535 157.248C208.455 157.778 208.362 158.297 208.27 158.815C208.27 158.47 208.27 158.198 208.27 158.136C208.091 156.773 206.949 154.243 205.431 153.959C205.179 153.924 204.923 153.942 204.678 154.011C204.434 154.08 204.206 154.199 204.009 154.36C203.812 154.521 203.65 154.72 203.534 154.947C203.418 155.173 203.35 155.42 203.333 155.674C203.247 156.76 204.031 157.84 204.796 158.525C205.561 159.21 207.406 159.833 208.048 160.037C207.937 160.568 207.819 161.098 207.69 161.61C207.591 161.956 207.517 162.295 207.4 162.635C207.283 162.974 207.184 163.313 207.073 163.647C206.844 164.264 206.61 164.943 206.369 165.553C206.203 165.985 206.036 166.393 205.876 166.788C205.956 166.257 206.098 165.22 206.098 165.134C206.083 163.924 205.758 162.739 205.154 161.691C205.163 161.557 205.163 161.423 205.154 161.29C205.117 161.038 205.029 160.797 204.895 160.58C204.761 160.364 204.585 160.178 204.376 160.033C204.167 159.889 203.93 159.789 203.681 159.739C203.431 159.69 203.174 159.693 202.926 159.747C201.439 160.142 200.495 162.752 200.421 164.122C200.421 164.208 200.47 165.091 200.513 165.646C200.439 165.325 200.371 165.029 200.291 164.677C200.131 164.017 199.958 163.363 199.773 162.666C199.668 162.326 199.569 161.987 199.464 161.647C199.359 161.308 199.224 160.956 199.106 160.605C198.81 159.802 198.489 159 198.113 158.198C198.693 158.062 200.729 157.544 201.55 156.915C202.371 156.285 203.228 155.267 203.216 154.181C203.222 153.927 203.175 153.674 203.077 153.439C202.979 153.204 202.832 152.993 202.647 152.818C202.462 152.644 202.243 152.51 202.002 152.426C201.762 152.342 201.507 152.309 201.254 152.33C199.717 152.496 198.391 154.934 198.113 156.279C198.113 156.365 198.008 157.353 197.965 157.896C197.749 157.414 197.533 156.939 197.298 156.458C196.613 155.082 195.879 153.712 195.151 152.336C194.923 151.916 194.707 151.497 194.491 151.071C194.694 151.028 197.132 150.454 198.045 149.757C198.86 149.139 199.723 148.109 199.717 147.023C199.718 146.77 199.666 146.519 199.566 146.286C199.466 146.054 199.319 145.844 199.134 145.671C198.95 145.497 198.732 145.363 198.493 145.277C198.255 145.192 198.002 145.156 197.749 145.172C196.218 145.338 194.892 147.776 194.614 149.121C194.614 149.22 194.466 150.645 194.448 151.009C193.966 150.077 193.497 149.158 193.065 148.214C192.483 146.956 191.982 145.661 191.566 144.339C191.658 144.339 194.207 143.722 195.145 143.018C195.959 142.401 196.823 141.371 196.817 140.285C196.818 140.031 196.766 139.781 196.666 139.548C196.566 139.315 196.419 139.106 196.234 138.932C196.05 138.759 195.831 138.625 195.593 138.539C195.355 138.453 195.101 138.417 194.849 138.433C193.318 138.6 191.992 141.037 191.714 142.383C191.714 142.494 191.553 144.024 191.547 144.302C191.547 144.221 191.492 144.147 191.467 144.067C191.086 142.727 190.826 141.356 190.69 139.97C190.603 139.211 190.566 138.47 190.541 137.755C191.029 137.699 193.238 137.403 194.157 136.847C195.077 136.292 196.009 135.397 196.12 134.311C196.15 134.059 196.127 133.803 196.054 133.559C195.981 133.316 195.858 133.09 195.693 132.896C195.529 132.702 195.326 132.544 195.098 132.432C194.87 132.32 194.621 132.256 194.367 132.244C192.825 132.244 191.239 134.521 190.813 135.823C190.813 135.897 190.64 136.644 190.535 137.193C190.535 136.866 190.535 136.533 190.535 136.224C190.535 135.064 190.609 133.997 190.683 133.053C190.733 132.516 190.782 132.034 190.838 131.578C191.282 131.275 193.059 130.017 193.608 129.109C194.157 128.202 194.583 126.968 194.182 125.962C194.097 125.721 193.963 125.5 193.787 125.315C193.61 125.129 193.397 124.983 193.161 124.886C192.924 124.788 192.669 124.742 192.414 124.75C192.158 124.758 191.907 124.82 191.677 124.932C190.307 125.635 189.949 128.387 190.171 129.745C190.171 129.862 190.708 131.658 190.733 131.646C190.677 132.078 190.616 132.547 190.56 133.053C190.467 133.997 190.369 135.064 190.344 136.237C190.301 137.494 190.329 138.753 190.43 140.007C190.541 141.413 190.777 142.807 191.134 144.172C191.13 144.188 191.13 144.205 191.134 144.221C190.893 143.845 190.177 142.802 190.116 142.728C189.215 141.685 186.87 140.21 185.451 140.809C185.222 140.919 185.017 141.075 184.851 141.267C184.685 141.459 184.56 141.683 184.484 141.926C184.408 142.168 184.383 142.424 184.41 142.677C184.438 142.929 184.517 143.174 184.642 143.395C185.167 144.351 186.419 144.82 187.438 144.968C188.579 145.135 190.992 144.437 191.183 144.382C191.582 145.76 192.07 147.11 192.646 148.424C192.979 149.195 193.337 149.96 193.707 150.719C193.485 150.398 193.287 150.102 193.257 150.102C192.356 149.065 190.005 147.584 188.592 148.183C188.362 148.293 188.157 148.449 187.99 148.641C187.823 148.834 187.698 149.059 187.622 149.302C187.546 149.546 187.521 149.802 187.549 150.055C187.577 150.309 187.656 150.554 187.783 150.775C188.308 151.725 189.56 152.2 190.572 152.348C191.584 152.496 193.658 151.941 194.219 151.787C194.361 152.077 194.503 152.367 194.651 152.657C195.348 154.051 196.052 155.434 196.7 156.81C196.928 157.297 197.132 157.785 197.317 158.272C197.126 157.982 196.959 157.748 196.928 157.711C196.027 156.674 193.676 155.193 192.263 155.791C192.033 155.901 191.828 156.057 191.661 156.25C191.495 156.443 191.369 156.668 191.293 156.911C191.217 157.154 191.193 157.411 191.22 157.664C191.248 157.917 191.328 158.162 191.455 158.383C191.979 159.333 193.232 159.802 194.244 159.95C195.256 160.099 197.144 159.599 197.792 159.42C197.989 159.926 198.193 160.432 198.36 160.932C198.471 161.271 198.6 161.592 198.687 161.944C198.773 162.295 198.878 162.629 198.977 162.968C199.131 163.628 199.298 164.307 199.44 164.949C199.538 165.399 199.625 165.825 199.711 166.257C199.489 165.769 199.032 164.831 198.989 164.757C198.255 163.591 196.157 161.771 194.67 162.153C194.423 162.222 194.193 162.343 193.996 162.506C193.799 162.67 193.639 162.874 193.527 163.105C193.414 163.335 193.352 163.586 193.343 163.843C193.335 164.099 193.381 164.354 193.479 164.591C193.849 165.609 195.015 166.263 195.996 166.565C197.082 166.892 199.477 166.565 199.773 166.565C199.915 167.281 200.05 167.979 200.162 168.639C200.569 170.922 200.816 172.841 200.97 174.192C200.97 174.433 201.019 174.643 201.044 174.846H196.41L197.897 203.91C197.952 204.974 198.414 205.977 199.187 206.71C199.959 207.444 200.984 207.853 202.05 207.853C203.115 207.853 204.139 207.444 204.911 206.71C205.682 205.976 206.143 204.974 206.196 203.91L207.69 174.846H203.37C203.401 174.779 203.432 174.717 203.469 174.649C204.086 173.415 204.882 171.638 205.771 169.472C206.048 168.787 206.338 168.046 206.622 167.287C206.912 167.349 209.282 167.83 210.386 167.577C211.392 167.355 212.602 166.788 213.052 165.8C213.162 165.57 213.223 165.319 213.231 165.065C213.239 164.81 213.195 164.556 213.101 164.319C213.006 164.082 212.864 163.867 212.682 163.687C212.501 163.508 212.284 163.368 212.046 163.276C210.584 162.789 208.344 164.449 207.542 165.553C207.492 165.615 207.054 166.386 206.783 166.874C206.894 166.559 207.011 166.257 207.128 165.936C207.363 165.319 207.573 164.665 207.807 163.974C207.906 163.641 208.011 163.301 208.109 162.956C208.208 162.61 208.295 162.246 208.387 161.888C208.585 161.055 208.745 160.203 208.887 159.34C209.442 159.543 211.429 160.234 212.46 160.16C213.49 160.086 214.768 159.71 215.36 158.803C215.502 158.592 215.599 158.353 215.645 158.103C215.691 157.853 215.685 157.596 215.627 157.348C215.569 157.1 215.461 156.867 215.309 156.663C215.156 156.458 214.964 156.288 214.743 156.162C213.373 155.452 210.923 156.779 209.948 157.723C209.887 157.785 209.263 158.562 208.93 158.994C209.016 158.47 209.097 157.951 209.165 157.427C209.356 155.896 209.498 154.341 209.646 152.799L209.794 151.386C209.991 151.46 212.336 152.33 213.496 152.249C214.521 152.175 215.804 151.799 216.397 150.892C216.539 150.681 216.636 150.443 216.682 150.192C216.728 149.942 216.722 149.685 216.664 149.437C216.606 149.189 216.497 148.956 216.345 148.752C216.193 148.548 216 148.377 215.78 148.251C214.41 147.541 211.954 148.868 210.985 149.812C210.911 149.886 210.016 151.003 209.806 151.299C209.911 150.256 210.035 149.22 210.195 148.214C210.402 146.841 210.697 145.483 211.077 144.147C211.17 144.184 213.614 145.104 214.78 145.017C215.804 144.95 217.088 144.573 217.68 143.66C217.822 143.449 217.919 143.211 217.965 142.96C218.011 142.71 218.005 142.453 217.947 142.205C217.889 141.957 217.781 141.724 217.629 141.52C217.477 141.316 217.284 141.145 217.063 141.019C215.693 140.315 213.243 141.636 212.268 142.586C212.194 142.66 211.232 143.864 211.077 144.092C211.077 144.018 211.114 143.931 211.139 143.857C211.56 142.528 212.099 141.24 212.75 140.007C213.095 139.322 213.472 138.686 213.848 138.082C214.286 138.298 216.316 139.273 217.365 139.316C218.414 139.359 219.704 139.124 220.395 138.285C220.561 138.091 220.684 137.866 220.759 137.622C220.833 137.378 220.856 137.121 220.826 136.868C220.797 136.615 220.715 136.371 220.587 136.151C220.459 135.93 220.286 135.739 220.08 135.589C218.797 134.737 216.218 135.761 215.144 136.619C215.088 136.669 214.527 137.236 214.157 137.606L214.675 136.786C215.323 135.817 215.971 134.972 216.526 134.225C216.859 133.799 217.174 133.429 217.464 133.077C218.007 133.077 220.185 133.003 221.136 132.559C222.086 132.115 223.129 131.325 223.357 130.245C223.43 129.989 223.448 129.721 223.408 129.457C223.368 129.194 223.272 128.943 223.126 128.721C222.98 128.498 222.788 128.31 222.563 128.168C222.337 128.026 222.084 127.935 221.821 127.9ZM204.87 169.021C203.944 171.15 203.093 172.89 202.482 174.094L202.149 174.754H202.044C202.013 174.519 201.982 174.26 201.939 173.97C201.754 172.613 201.464 170.681 201.007 168.417C200.859 167.688 200.692 166.911 200.513 166.121C201.234 165.83 201.938 165.5 202.624 165.134C203.554 165.934 204.593 166.599 205.709 167.108C205.413 167.756 205.141 168.41 204.87 169.021Z" fill="#5D696F"/>
</g>
</svg>
