<svg width="228" height="189" viewBox="0 0 228 189" fill="none" xmlns="http://www.w3.org/2000/svg">
<g opacity="0.8">
<path opacity="0.12" d="M179.175 6.90385C152.8 -8.16961 129.441 4.23976 117.756 17.4537C106.072 30.6676 97.3654 44.0147 82.6969 46.4657C68.0284 48.9167 45.7725 42.6987 29.1911 54.3781C12.6098 66.0575 12.6737 97.0782 25.8024 114.667C38.9311 132.255 72.8983 140.663 112.087 146.316C126.149 148.446 140.499 147.65 154.239 143.977L172.04 137.514C180.736 133.544 188.025 129.074 194.195 125.446C203.583 119.904 206.892 106.397 208.687 96.5028C211.294 81.6757 211.068 66.4889 208.021 51.7459C204.089 33.1719 195.122 16.0097 179.175 6.90385Z" fill="#F0F0F0"/>
<path opacity="0.8" d="M219.493 25.3664C218.896 15.5199 212.172 12.291 207.909 16.9799C206.897 18.1236 206.218 19.5241 205.948 21.0278C205.679 22.5316 205.828 24.0805 206.38 25.505C207.877 29.5491 210.451 36.7262 211.985 42.3421C214.245 50.6327 213.488 57.0372 216.126 53.6485C218.763 50.2598 220.244 37.8025 219.493 25.3664Z" fill="#999999"/>
<path opacity="0.8" d="M219.493 25.3664C218.896 15.5199 212.172 12.291 207.909 16.9799C206.897 18.1236 206.218 19.5241 205.948 21.0278C205.679 22.5316 205.828 24.0805 206.38 25.505C207.877 29.5491 210.451 36.7262 211.985 42.3421C214.245 50.6327 213.488 57.0372 216.126 53.6485C218.763 50.2598 220.244 37.8025 219.493 25.3664Z" fill="#F0F0F0"/>
<path opacity="0.8" d="M105.704 23.8587C109.844 23.1074 115.119 13.3089 121.902 9.16355C128.684 5.01821 122.658 2.00245 116.264 5.01821C116.264 5.01821 111.363 6.14779 107.596 13.6872C103.828 21.2266 101.559 24.61 105.704 23.8587Z" fill="#F0F0F0"/>
<path opacity="0.8" d="M98.921 18.5836C102.283 17.2356 105.949 8.08172 102.118 8.5506C101.634 8.62078 101.176 8.81456 100.789 9.11322C100.401 9.41188 100.098 9.80534 99.9067 10.2556C98.6812 12.9783 95.8946 19.7931 98.921 18.5836Z" fill="#F0F0F0"/>
<path d="M119.451 189C178.987 189 227.251 187.206 227.251 184.993C227.251 182.78 178.987 180.986 119.451 180.986C59.9142 180.986 11.6505 182.78 11.6505 184.993C11.6505 187.206 59.9142 189 119.451 189Z" fill="#999999"/>
<path opacity="0.8" d="M119.451 189C178.987 189 227.251 187.206 227.251 184.993C227.251 182.78 178.987 180.986 119.451 180.986C59.9142 180.986 11.6505 182.78 11.6505 184.993C11.6505 187.206 59.9142 189 119.451 189Z" fill="white"/>
<path d="M171.262 34.3809C171.05 34.3809 170.847 34.4651 170.697 34.615C170.547 34.7648 170.463 34.9681 170.463 35.1801V39.2775H155.858V35.1801C155.858 34.9681 155.774 34.7648 155.624 34.615C155.474 34.4651 155.271 34.3809 155.059 34.3809C154.847 34.3809 154.644 34.4651 154.494 34.615C154.344 34.7648 154.26 34.9681 154.26 35.1801V138.387C154.26 138.599 154.344 138.802 154.494 138.952C154.644 139.102 154.847 139.186 155.059 139.186C155.271 139.186 155.474 139.102 155.624 138.952C155.774 138.802 155.858 138.599 155.858 138.387V115.3H170.463V138.387C170.463 138.599 170.547 138.802 170.697 138.952C170.847 139.102 171.05 139.186 171.262 139.186C171.474 139.186 171.677 139.102 171.827 138.952C171.977 138.802 172.061 138.599 172.061 138.387V35.1641C172.057 34.9549 171.971 34.7557 171.822 34.6093C171.672 34.4628 171.471 34.3808 171.262 34.3809ZM170.463 113.718H155.858V108.539H170.463V113.718ZM170.463 106.935H155.858V101.761H170.463V106.935ZM170.463 100.157H155.858V94.9997H170.463V100.157ZM170.463 93.3853H155.858V88.2489H170.463V93.3853ZM170.463 86.6185H155.858V81.5407H170.463V86.6185ZM170.463 79.873H155.858V74.7633H170.463V79.873ZM170.463 73.1595H155.858V68.0018H170.463V73.1595ZM170.463 66.382H155.858V61.2243H170.463V66.382ZM170.463 59.6205H155.858V54.4468H170.463V59.6205ZM170.463 52.8431H155.858V47.6587H170.463V52.8431ZM170.463 46.0603H155.858V40.8759H170.463V46.0603Z" fill="white"/>
<path d="M32.9207 117.585C32.9207 117.585 44.8825 101.212 39.0481 97.338C32.9793 93.3366 30.1287 105.458 28.8446 111.41C26.1059 124.112 26.8785 126.808 28.7167 124.016L32.9207 117.585Z" fill="#999999"/>
<path opacity="0.5" d="M32.9207 117.585C32.9207 117.585 44.8825 101.212 39.0481 97.338C32.9793 93.3366 30.1287 105.458 28.8446 111.41C26.1059 124.112 26.8785 126.808 28.7167 124.016L32.9207 117.585Z" fill="white"/>
<path d="M37.4071 127.656C37.4071 127.656 54.0364 116.051 49.7685 110.521C45.3301 104.761 38.6965 115.316 35.5475 120.516C28.8287 131.642 28.6901 134.444 31.3329 132.398L37.4071 127.656Z" fill="#999999"/>
<path opacity="0.5" d="M37.4071 127.656C37.4071 127.656 54.0364 116.051 49.7685 110.521C45.3301 104.761 38.6965 115.316 35.5475 120.516C28.8287 131.642 28.6901 134.444 31.3329 132.398L37.4071 127.656Z" fill="white"/>
<path d="M37.7694 141.116C37.7694 141.116 52.1556 134.653 49.6993 129.804C47.1417 124.758 40.5401 131.855 37.3805 135.383C30.6297 142.917 30.1181 145.037 32.4359 143.86L37.7694 141.116Z" fill="#999999"/>
<path opacity="0.5" d="M37.7694 141.116C37.7694 141.116 52.1556 134.653 49.6993 129.804C47.1417 124.758 40.5401 131.855 37.3805 135.383C30.6297 142.917 30.1181 145.037 32.4359 143.86L37.7694 141.116Z" fill="white"/>
<path d="M38.6219 154.633C38.6219 154.633 53.008 148.17 50.5571 143.321C47.9942 138.281 41.3979 145.373 38.233 148.905C31.4875 156.439 30.9706 158.56 33.2937 157.377L38.6219 154.633Z" fill="#999999"/>
<path opacity="0.5" d="M38.6219 154.633C38.6219 154.633 53.008 148.17 50.5571 143.321C47.9942 138.281 41.3979 145.373 38.233 148.905C31.4875 156.439 30.9706 158.56 33.2937 157.377L38.6219 154.633Z" fill="white"/>
<path d="M21.7475 124.428C21.7475 124.428 5.93337 111.731 1.82533 117.379C-2.43723 123.24 9.5299 126.666 15.4176 128.221C27.9814 131.541 30.7095 130.886 28.0028 128.925L21.7475 124.428Z" fill="#999999"/>
<path opacity="0.5" d="M21.7475 124.428C21.7475 124.428 5.93337 111.731 1.82533 117.379C-2.43723 123.24 9.5299 126.666 15.4176 128.221C27.9814 131.541 30.7095 130.886 28.0028 128.925L21.7475 124.428Z" fill="white"/>
<path d="M22.2164 135.037C22.2164 135.037 4.19639 125.734 1.29253 132.09C-1.72856 138.702 10.6861 139.661 16.7443 140.013C29.7185 140.77 32.2653 139.587 29.2229 138.201L22.2164 135.037Z" fill="#999999"/>
<path opacity="0.5" d="M22.2164 135.037C22.2164 135.037 4.19639 125.734 1.29253 132.09C-1.72856 138.702 10.6861 139.661 16.7443 140.013C29.7185 140.77 32.2653 139.587 29.2229 138.201L22.2164 135.037Z" fill="white"/>
<path d="M24.3956 146.928C24.3956 146.928 8.94383 139.469 6.63672 144.919C4.23371 150.583 14.7516 151.105 19.9039 151.26C30.8907 151.601 33.0166 150.535 30.4111 149.47L24.3956 146.928Z" fill="#999999"/>
<path opacity="0.5" d="M24.3956 146.928C24.3956 146.928 8.94383 139.469 6.63672 144.919C4.23371 150.583 14.7516 151.105 19.9039 151.26C30.8907 151.601 33.0166 150.535 30.4111 149.47L24.3956 146.928Z" fill="white"/>
<path d="M25.1523 156.535C25.1523 156.535 10.5744 147.477 7.70246 152.651C4.71334 158.027 15.1193 159.663 20.2237 160.366C31.1146 161.869 33.3364 161.043 30.8801 159.674L25.1523 156.535Z" fill="#999999"/>
<path opacity="0.5" d="M25.1523 156.535C25.1523 156.535 10.5744 147.477 7.70246 152.651C4.71334 158.027 15.1193 159.663 20.2237 160.366C31.1146 161.869 33.3364 161.043 30.8801 159.674L25.1523 156.535Z" fill="white"/>
<path d="M23.772 108.342C23.772 108.342 21.0333 84.562 12.05 86.9916C2.72028 89.5279 10.5314 101.559 14.4956 107.377C22.9195 119.76 26.0205 121.124 25.3545 117.256L23.772 108.342Z" fill="#999999"/>
<path opacity="0.5" d="M23.772 108.342C23.772 108.342 21.0333 84.562 12.05 86.9916C2.72028 89.5279 10.5314 101.559 14.4956 107.377C22.9195 119.76 26.0205 121.124 25.3545 117.256L23.772 108.342Z" fill="white"/>
<path d="M13.8883 95.6553C13.8883 95.6553 27.5605 121.273 29.6811 133.166C32.1214 146.827 32.5157 162.087 30.832 174.044" stroke="#999999" stroke-width="1.25197" stroke-linecap="round" stroke-linejoin="round"/>
<path d="M27.5232 125.254L34.2207 104.74" stroke="#999999" stroke-width="1.25197" stroke-linecap="round" stroke-linejoin="round"/>
<path d="M29.681 133.166L42.2875 117.314" stroke="#999999" stroke-width="1.25197" stroke-linecap="round" stroke-linejoin="round"/>
<path d="M28.8766 130.283L10.6222 122.616" stroke="#999999" stroke-width="1.25197" stroke-linecap="round" stroke-linejoin="round"/>
<path d="M31.2637 143.903L44.9891 133.385" stroke="#999999" stroke-width="1.25197" stroke-linecap="round" stroke-linejoin="round"/>
<path d="M30.5336 139.389L16.1954 136.405" stroke="#999999" stroke-width="1.25197" stroke-linecap="round" stroke-linejoin="round"/>
<path d="M31.221 150.371L20.1171 148.612" stroke="#999999" stroke-width="1.25197" stroke-linecap="round" stroke-linejoin="round"/>
<path d="M32.1588 157.478L39.6289 150.786" stroke="#999999" stroke-width="1.25197" stroke-linecap="round" stroke-linejoin="round"/>
<path d="M32.0096 160.489L19.2485 157.281" stroke="#999999" stroke-width="1.25197" stroke-linecap="round" stroke-linejoin="round"/>
<path d="M22.5573 164.395H37.6414V167.517H36.3253L33.6026 184.551H26.596L23.8733 167.517H22.5573V164.395Z" fill="#999999"/>
<path opacity="0.5" d="M22.5573 164.395H37.6414V167.517H36.3253L33.6026 184.551H26.596L23.8733 167.517H22.5573V164.395Z" fill="white"/>
<path d="M47.3986 3.54219C46.7446 2.95784 45.946 2.55923 45.0859 2.38776C44.2258 2.2163 43.3354 2.27823 42.5073 2.56713C39.5768 3.54219 36.7689 7.7781 37.4775 11.364C37.973 13.8469 40.2748 17.5074 40.9728 18.9034C41.6708 20.2994 40.6904 22.6598 38.4739 27.5617C36.2574 32.4636 35.3995 37.0619 41.8253 41.1113C48.2511 45.1607 55.5241 38.7349 59.2538 34.126C62.9836 29.5171 56.4565 18.9034 55.8971 14.4117C55.3376 9.92004 54.3785 1.30967 47.3986 3.54219Z" fill="#5D696F"/>
<path d="M62.503 34.4346C60.9041 36.0343 58.9722 37.2619 56.8448 38.0299C54.7175 38.798 52.4469 39.0877 50.1949 38.8783L48.655 45.2988L51.5855 59.9566L70.7191 50.0409L66.3873 38.8516L62.503 34.4346Z" fill="#999999" stroke="#5D696F" stroke-linecap="round" stroke-linejoin="round"/>
<path opacity="0.3" d="M62.503 34.4346C60.9041 36.0343 58.9722 37.2619 56.8448 38.0299C54.7175 38.798 52.4469 39.0877 50.1949 38.8783L48.655 45.2988L51.5855 59.9566L70.7191 50.0409L66.3873 38.8516L62.503 34.4346Z" fill="#5D696F"/>
<path d="M62.503 34.4345L59.5725 15.0186L50.8875 16.7982L46.5557 19.5901C46.5557 19.5901 41.3873 23.6449 41.3873 24.0605C41.3873 24.4761 50.1309 39.1073 50.1309 39.1073C52.4057 39.2419 54.6834 38.8953 56.8152 38.0902C58.947 37.285 60.8851 36.0393 62.503 34.4345Z" fill="white"/>
<path d="M62.503 34.4345L59.5725 15.0186L50.8875 16.7982L46.5557 19.5901C46.5557 19.5901 41.3873 23.6449 41.3873 24.0605C41.3873 24.4761 50.1309 39.1073 50.1309 39.1073C52.4057 39.2419 54.6834 38.8953 56.8152 38.0902C58.947 37.285 60.8851 36.0393 62.503 34.4345Z" stroke="#5D696F" stroke-linecap="round" stroke-linejoin="round"/>
<path opacity="0.5" d="M50.8502 33.6035C50.8502 33.6035 56.9723 29.0638 56.4075 30.4065C55.8427 31.7492 51.6122 35.1007 50.4772 35.2019C49.3423 35.3032 50.8502 33.6035 50.8502 33.6035Z" fill="#999999"/>
<path d="M51.0367 24.9828L51.2765 25.2332L52.7684 26.8104L53.152 32.8685L54.9796 32.5808L53.5357 26.9063L55.8481 31.7123L57.7716 29.7888L53.6369 26.0378L53.5357 23.0593L51.4204 21.999" fill="#5D696F"/>
<path d="M47.6747 17.7897C47.6747 17.7897 45.8578 18.6263 45.8578 20.2993C45.8578 21.9724 47.8239 25.9525 49.0547 26.7891C50.2855 27.6256 52.3955 23.7946 52.3955 23.7946C52.3955 23.7946 55.5924 25.3291 56.4449 23.9331C57.2974 22.5372 54.4895 17.9283 52.6779 16.6708C50.8663 15.4134 47.6747 17.7897 47.6747 17.7897Z" fill="white" stroke="#5D696F" stroke-linecap="round" stroke-linejoin="round"/>
<path d="M46.14 16.1116C46.6396 17.388 47.0595 18.6941 47.3975 20.0225C47.6745 21.4184 51.4469 23.7948 51.8625 23.9334C52.2781 24.0719 52.5605 19.463 52.5605 19.463L51.4469 14.0176L46.14 16.1116Z" fill="white"/>
<g style="mix-blend-mode:multiply" opacity="0.5">
<path d="M51.5643 14.5984C51.3299 14.5327 51.0914 14.4828 50.8503 14.4492L46.998 15.8079L46.4918 17.1293C46.7476 17.8433 47.0726 18.8024 47.2697 19.5803C47.9013 20.0895 48.6644 20.4091 49.4703 20.502C50.6265 20.582 51.6442 19.6868 52.3635 18.5892L51.5643 14.5984Z" fill="#999999"/>
</g>
<path d="M46.14 16.1116C46.6396 17.388 47.0595 18.6941 47.3975 20.0225C47.6745 21.4184 51.4469 23.7948 51.8625 23.9334C52.2781 24.0719 52.5605 19.463 52.5605 19.463L51.4469 14.0176L46.14 16.1116Z" stroke="#5D696F" stroke-linecap="round" stroke-linejoin="round"/>
<path d="M43.6252 13.7352C43.6252 13.7352 42.0853 12.4831 42.0853 13.7352C42.0853 14.9873 43.4866 15.6907 44.6002 15.6907" fill="white"/>
<path d="M43.6252 13.7352C43.6252 13.7352 42.0853 12.4831 42.0853 13.7352C42.0853 14.9873 43.4866 15.6907 44.6002 15.6907" stroke="#5D696F" stroke-linecap="round" stroke-linejoin="round"/>
<path d="M51.8625 9.68525C51.8625 9.68525 52.8429 8.15073 53.12 9.82911C53.2476 10.9217 52.9479 12.0214 52.2835 12.8981L51.8625 9.68525Z" fill="white" stroke="#5D696F" stroke-linecap="round" stroke-linejoin="round"/>
<g opacity="0.5">
<path d="M43.6252 13.7352C43.6252 13.7352 42.0853 12.4831 42.0853 13.7352C42.0853 14.9873 43.4866 15.6907 44.6002 15.6907" fill="#999999"/>
<path d="M43.6252 13.7352C43.6252 13.7352 42.0853 12.4831 42.0853 13.7352C42.0853 14.9873 43.4866 15.6907 44.6002 15.6907" stroke="#5D696F" stroke-linecap="round" stroke-linejoin="round"/>
</g>
<path opacity="0.5" d="M51.8625 9.68525C51.8625 9.68525 52.8429 8.15073 53.12 9.82911C53.2476 10.9217 52.9479 12.0214 52.2835 12.8981L51.8625 9.68525Z" fill="#999999" stroke="#5D696F" stroke-linecap="round" stroke-linejoin="round"/>
<path d="M41.8936 9.69647C41.8936 9.69647 43.0924 14.689 45.6659 17.1559C48.2394 19.6229 50.9941 19.6442 51.9479 15.2484C52.7311 11.6253 50.7863 6.79261 50.7863 6.79261C50.7863 6.79261 44.5097 1.62425 41.8936 9.69647Z" fill="white"/>
<g style="mix-blend-mode:multiply" opacity="0.5">
<path d="M46.3639 5.16687L47.339 7.61784C47.339 7.61784 48.8735 7.27683 49.7366 9.13104C50.5998 10.9853 51.4683 13.7026 50.9728 15.8073C50.4986 17.8107 49.3743 18.4714 47.6427 18.5193C49.5288 19.3239 51.2392 18.5193 51.9478 15.2372C52.7311 11.614 50.7863 6.78131 50.7863 6.78131C50.7863 6.78131 48.6603 5.03899 46.3639 5.16687Z" fill="#999999"/>
</g>
<path d="M41.8936 9.69647C41.8936 9.69647 43.0924 14.689 45.6659 17.1559C48.2394 19.6229 50.9941 19.6442 51.9479 15.2484C52.7311 11.6253 50.7863 6.79261 50.7863 6.79261C50.7863 6.79261 44.5097 1.62425 41.8936 9.69647Z" stroke="#5D696F" stroke-linecap="round" stroke-linejoin="round"/>
<path d="M46.6569 12.3329C46.8061 12.6153 46.7795 12.919 46.5983 13.015C46.4172 13.1109 46.1508 12.9563 46.0069 12.674C45.863 12.3916 45.8843 12.0932 46.0655 11.9973C46.2467 11.9014 46.5131 12.0559 46.6569 12.3329Z" fill="#5D696F"/>
<path d="M49.4382 11.4699C49.5448 11.7683 49.4755 12.0667 49.2837 12.1306C49.0919 12.1945 48.8468 12.0134 48.7509 11.715C48.655 11.4166 48.7136 11.1183 48.9054 11.0543C49.0972 10.9904 49.3316 11.1822 49.4382 11.4699Z" fill="#5D696F"/>
<path d="M49.6301 9.87173C49.4124 9.72549 49.1528 9.65464 48.891 9.67004C48.6293 9.68544 48.3798 9.78624 48.1808 9.95698C47.4135 10.5537 48.8628 13.5429 48.8628 13.5429C48.8628 13.5429 48.8894 14.4859 47.6799 14.049" stroke="#5D696F" stroke-width="0.5" stroke-linecap="round" stroke-linejoin="round"/>
<path d="M49.6301 15.0186C49.5471 15.2148 49.4196 15.389 49.2578 15.5275C49.0959 15.6661 48.904 15.7651 48.6974 15.8167C48.4907 15.8684 48.2748 15.8713 48.0668 15.8253C47.8588 15.7792 47.6643 15.6855 47.4988 15.5514" stroke="#5D696F" stroke-width="0.5" stroke-linecap="round" stroke-linejoin="round"/>
<path d="M46.3853 10.6657C46.3853 10.6657 45.0213 9.38157 44.4246 11.8592" stroke="#5D696F" stroke-width="0.5" stroke-linecap="round" stroke-linejoin="round"/>
<path d="M50.8663 5.20918C49.3691 3.9091 48.1596 3.92509 47.6321 4.09559C47.1383 3.78749 46.5768 3.60459 45.9963 3.56277C41.8084 3.00331 41.2489 6.22687 41.2489 9.29058C41.2489 12.3543 38.5848 15.9934 40.4124 16.4144C40.9125 16.5344 41.439 16.4741 41.899 16.244C42.3591 16.014 42.7232 15.629 42.9273 15.1569C42.9273 15.1569 44.8827 11.96 44.8827 9.70618C44.8827 7.45235 47.3177 7.66548 47.3177 7.66548C47.4229 7.51028 47.5603 7.37965 47.7206 7.28255C47.881 7.18545 48.0604 7.12417 48.2467 7.10291C48.4329 7.08166 48.6216 7.10093 48.7997 7.1594C48.9778 7.21788 49.1411 7.31418 49.2785 7.4417C50.3868 8.39012 50.5146 9.50371 51.4098 9.79143C52.3049 10.0792 53.8021 8.64054 53.8021 8.64054C52.9492 7.39492 51.965 6.24453 50.8663 5.20918Z" fill="#5D696F"/>
<path d="M47.4347 6.04562C47.4347 6.04562 45.751 4.69226 44.2378 6.21079C42.7246 7.72933 42.8898 10.6012 42.3836 12.4608C41.8774 14.3203 40.524 14.656 40.524 14.656" stroke="white" stroke-width="0.5" stroke-linecap="round" stroke-linejoin="round"/>
<path d="M46.2574 5.53949C46.2574 5.53949 44.4404 3.73856 42.1547 6.01902C40.4123 7.76667 41.1902 8.91224 40.8492 11.7841" stroke="white" stroke-width="0.5" stroke-linecap="round" stroke-linejoin="round"/>
<path d="M48.282 5.19864C48.282 5.19864 51.4789 3.6801 52.8429 7.56435" stroke="white" stroke-width="0.5" stroke-linecap="round" stroke-linejoin="round"/>
<path d="M41.3874 24.0723L36.5547 43.5202L50.7277 47.5376L51.4257 45.0227L42.1173 40.7282L45.2769 29.539C45.2769 29.539 44.8613 27.445 42.6128 25.074" fill="white"/>
<g style="mix-blend-mode:multiply" opacity="0.5">
<path d="M51.4469 45.0371L42.1386 40.7426L45.2982 29.5534C45.0507 28.6245 44.6491 27.7437 44.11 26.9479L43.8063 26.7188V29.8091C43.8063 31.7859 41.334 38.0891 40.4655 39.5704C39.597 41.0516 38.2437 42.9058 38.2437 42.9058L40.961 41.6697L51.2604 45.7937L51.4469 45.0371Z" fill="#999999"/>
</g>
<path d="M41.3874 24.0723L36.5547 43.5202L50.7277 47.5376L51.4257 45.0227L42.1173 40.7282L45.2769 29.539C45.2769 29.539 44.8613 27.445 42.6128 25.074" stroke="#5D696F" stroke-linecap="round" stroke-linejoin="round"/>
<path d="M81.2369 29.9111L70.5059 27.6573L59.5458 14.9922L61.1655 25.1797L67.8897 31.5842L81.402 32.2023L81.2369 29.9111Z" fill="white"/>
<g style="mix-blend-mode:multiply" opacity="0.5">
<path d="M59.5458 14.9922L60.8512 23.123L61.6824 25.6646L61.7889 25.7605C62.1033 25.4354 63.8776 23.5919 64.3305 23.5919C64.7834 23.5919 69.8931 28.0409 69.1525 28.3873L68.4066 28.7549L81.1356 30.8542L81.2262 29.8792L70.5165 27.6307L59.5458 14.9922Z" fill="#999999"/>
</g>
<path d="M81.2369 29.9111L70.5059 27.6573L59.5458 14.9922L61.1655 25.1797L67.8897 31.5842L81.402 32.2023L81.2369 29.9111Z" stroke="#5D696F" stroke-linecap="round" stroke-linejoin="round"/>
<path d="M181.412 137.748L44.7602 117.725C44.3257 117.66 43.9347 117.426 43.6729 117.073C43.4111 116.721 43.3001 116.279 43.3642 115.844L54.7452 38.2069C54.7765 37.992 54.8499 37.7854 54.9611 37.5989C55.0723 37.4124 55.2193 37.2497 55.3935 37.12C55.5677 36.9904 55.7657 36.8963 55.9763 36.8433C56.1869 36.7903 56.4059 36.7793 56.6207 36.811L59.2102 37.1893C59.5382 37.2385 59.8734 37.1875 60.172 37.043C60.4705 36.8985 60.7184 36.6672 60.8833 36.3794L64.32 30.4384C64.4243 30.2519 64.5658 30.0887 64.7356 29.9589C65.5401 29.3771 66.5399 29.1324 67.5222 29.2769L101.969 34.328C102.742 34.439 103.462 34.785 104.031 35.3191C104.183 35.4712 104.302 35.6524 104.383 35.8519L107.446 43.4392C107.554 43.7076 107.73 43.9429 107.957 44.1216C108.185 44.3002 108.455 44.4159 108.741 44.4569L193.273 56.8503C193.707 56.9136 194.099 57.1466 194.362 57.4982C194.624 57.8499 194.737 58.2914 194.674 58.7258L183.293 136.358C183.227 136.791 182.993 137.181 182.64 137.442C182.288 137.702 181.846 137.812 181.412 137.748Z" fill="#5D696F" stroke="#5D696F" stroke-miterlimit="10"/>
<path d="M182.867 137.37H47.419C47.0258 137.37 46.6364 137.292 46.2731 137.142C45.9098 136.991 45.5797 136.771 45.3016 136.493C45.0236 136.215 44.803 135.885 44.6525 135.521C44.502 135.158 44.4246 134.769 44.4246 134.375V58.5872C44.4246 57.793 44.74 57.0314 45.3016 56.4698C45.8632 55.9082 46.6248 55.5927 47.419 55.5927H47.7867C48.3862 55.5915 48.9717 55.4114 49.4681 55.0753C49.9646 54.7393 50.3494 54.2627 50.5733 53.7066L52.6353 48.5222C52.8658 47.9239 53.2872 47.4182 53.8342 47.0836C54.4218 46.7367 55.0912 46.5527 55.7736 46.5508H90.588C91.0559 46.5503 91.52 46.6352 91.9574 46.8012C92.5651 47.0461 93.072 47.4892 93.396 48.0587L96.9393 54.0955C97.2033 54.5464 97.5808 54.9204 98.0341 55.1802C98.4874 55.4401 99.0009 55.5768 99.5234 55.5767H182.867C183.661 55.5767 184.423 55.8922 184.984 56.4538C185.546 57.0154 185.862 57.777 185.862 58.5712V134.375C185.862 134.769 185.784 135.158 185.634 135.521C185.483 135.885 185.263 136.215 184.984 136.493C184.706 136.771 184.376 136.991 184.013 137.142C183.65 137.292 183.26 137.37 182.867 137.37Z" fill="#999999"/>
<path opacity="0.1" d="M182.867 137.37H47.419C47.0258 137.37 46.6364 137.292 46.2731 137.142C45.9098 136.991 45.5797 136.771 45.3016 136.493C45.0236 136.215 44.803 135.885 44.6525 135.521C44.502 135.158 44.4246 134.769 44.4246 134.375V58.5872C44.4246 57.793 44.74 57.0314 45.3016 56.4698C45.8632 55.9082 46.6248 55.5927 47.419 55.5927H47.7867C48.3862 55.5915 48.9717 55.4114 49.4681 55.0753C49.9646 54.7393 50.3494 54.2627 50.5733 53.7066L52.6353 48.5222C52.8658 47.9239 53.2872 47.4182 53.8342 47.0836C54.4218 46.7367 55.0912 46.5527 55.7736 46.5508H90.588C91.0559 46.5503 91.52 46.6352 91.9574 46.8012C92.5651 47.0461 93.072 47.4892 93.396 48.0587L96.9393 54.0955C97.2033 54.5464 97.5808 54.9204 98.0341 55.1802C98.4874 55.4401 99.0009 55.5768 99.5234 55.5767H182.867C183.661 55.5767 184.423 55.8922 184.984 56.4538C185.546 57.0154 185.862 57.777 185.862 58.5712V134.375C185.862 134.769 185.784 135.158 185.634 135.521C185.483 135.885 185.263 136.215 184.984 136.493C184.706 136.771 184.376 136.991 184.013 137.142C183.65 137.292 183.26 137.37 182.867 137.37Z" fill="#5D696F"/>
<path d="M182.867 137.37H47.419C47.0258 137.37 46.6364 137.292 46.2731 137.142C45.9098 136.991 45.5797 136.771 45.3016 136.493C45.0236 136.215 44.803 135.885 44.6525 135.521C44.502 135.158 44.4246 134.769 44.4246 134.375V58.5872C44.4246 57.793 44.74 57.0314 45.3016 56.4698C45.8632 55.9082 46.6248 55.5927 47.419 55.5927H47.7867C48.3862 55.5915 48.9717 55.4114 49.4681 55.0753C49.9646 54.7393 50.3494 54.2627 50.5733 53.7066L52.6353 48.5222C52.8658 47.9239 53.2872 47.4182 53.8342 47.0836C54.4218 46.7367 55.0912 46.5527 55.7736 46.5508H90.588C91.0559 46.5503 91.52 46.6352 91.9574 46.8012C92.5651 47.0461 93.072 47.4892 93.396 48.0587L96.9393 54.0955C97.2033 54.5464 97.5808 54.9204 98.0341 55.1802C98.4874 55.4401 99.0009 55.5768 99.5234 55.5767H182.867C183.661 55.5767 184.423 55.8922 184.984 56.4538C185.546 57.0154 185.862 57.777 185.862 58.5712V134.375C185.862 134.769 185.784 135.158 185.634 135.521C185.483 135.885 185.263 136.215 184.984 136.493C184.706 136.771 184.376 136.991 184.013 137.142C183.65 137.292 183.26 137.37 182.867 137.37V137.37Z" stroke="#5D696F" stroke-miterlimit="10"/>
<path d="M82.6968 55.3372H61.0217C60.5045 55.3372 60.0084 55.1318 59.6427 54.766C59.277 54.4003 59.0715 53.9043 59.0715 53.3871C59.0708 53.1305 59.1208 52.8764 59.2185 52.6392C59.3161 52.402 59.4597 52.1863 59.6408 52.0047C59.822 51.823 60.0372 51.6789 60.2741 51.5806C60.5111 51.4823 60.7651 51.4316 61.0217 51.4316H82.6968C83.2154 51.4316 83.7127 51.6377 84.0795 52.0044C84.4462 52.3711 84.6522 52.8685 84.6522 53.3871C84.6522 53.6436 84.6016 53.8977 84.5033 54.1346C84.4049 54.3715 84.2608 54.5868 84.0791 54.7679C83.8975 54.9491 83.6819 55.0926 83.4447 55.1903C83.2075 55.288 82.9533 55.3379 82.6968 55.3372Z" fill="white"/>
<path d="M182.867 150.594H47.419C46.6248 150.594 45.8632 150.279 45.3016 149.717C44.74 149.155 44.4246 148.394 44.4246 147.6V71.8113C44.4246 71.0172 44.74 70.2555 45.3016 69.694C45.8632 69.1324 46.6248 68.8169 47.419 68.8169H47.7867C48.3863 68.8164 48.9721 68.6365 49.4687 68.3004C49.9653 67.9643 50.35 67.4873 50.5733 66.9307L52.6353 61.7517C52.8644 61.1525 53.2861 60.6465 53.8342 60.3131C54.4208 59.964 55.0909 59.7799 55.7736 59.7803H90.588C91.0559 59.7798 91.52 59.8646 91.9574 60.0307C92.5666 60.2758 93.074 60.7212 93.396 61.2935L96.9393 67.3357C97.2033 67.7866 97.5808 68.1605 98.0341 68.4204C98.4874 68.6802 99.0009 68.8169 99.5234 68.8169H182.867C183.661 68.8169 184.423 69.1324 184.984 69.694C185.546 70.2555 185.862 71.0172 185.862 71.8113V147.6C185.862 148.394 185.546 149.155 184.984 149.717C184.423 150.279 183.661 150.594 182.867 150.594Z" fill="#5D696F" stroke="#5D696F" stroke-miterlimit="10"/>
<path d="M93.0815 39.7093L71.5769 37.0452C71.0632 36.98 70.5963 36.7142 70.2778 36.306C69.9594 35.8977 69.8154 35.38 69.8772 34.866C69.9423 34.3517 70.209 33.8843 70.6187 33.5665C71.0283 33.2488 71.5474 33.1068 72.0617 33.1716L93.561 35.8357C94.0753 35.8996 94.5431 36.165 94.8618 36.5736C95.1805 36.9822 95.324 37.5006 95.2607 38.015C95.2291 38.2694 95.1476 38.5151 95.0209 38.738C94.8943 38.9609 94.7249 39.1567 94.5225 39.3141C94.3201 39.4714 94.0886 39.5873 93.8413 39.6552C93.5941 39.723 93.3359 39.7414 93.0815 39.7093Z" fill="#999999"/>
<path opacity="0.5" d="M93.0815 39.7093L71.5769 37.0452C71.0632 36.98 70.5963 36.7142 70.2778 36.306C69.9594 35.8977 69.8154 35.38 69.8772 34.866C69.9423 34.3517 70.209 33.8843 70.6187 33.5665C71.0283 33.2488 71.5474 33.1068 72.0617 33.1716L93.561 35.8357C94.0753 35.8996 94.5431 36.165 94.8618 36.5736C95.1805 36.9822 95.324 37.5006 95.2607 38.015C95.2291 38.2694 95.1476 38.5151 95.0209 38.738C94.8943 38.9609 94.7249 39.1567 94.5225 39.3141C94.3201 39.4714 94.0886 39.5873 93.8413 39.6552C93.5941 39.723 93.3359 39.7414 93.0815 39.7093Z" fill="white"/>
<path d="M82.6968 68.5681H61.0217C60.7651 68.5681 60.5111 68.5175 60.2741 68.4192C60.0372 68.3208 59.822 68.1767 59.6408 67.9951C59.4597 67.8134 59.3161 67.5978 59.2185 67.3606C59.1208 67.1234 59.0708 66.8692 59.0715 66.6127C59.0715 66.095 59.2768 65.5984 59.6424 65.2318C60.008 64.8653 60.504 64.6586 61.0217 64.6572H82.6968C83.2154 64.6572 83.7127 64.8632 84.0795 65.23C84.4462 65.5967 84.6522 66.0941 84.6522 66.6127C84.6522 67.1313 84.4462 67.6287 84.0795 67.9954C83.7127 68.3621 83.2154 68.5681 82.6968 68.5681Z" fill="#999999"/>
<path opacity="0.5" d="M82.6968 68.5681H61.0217C60.7651 68.5681 60.5111 68.5175 60.2741 68.4192C60.0372 68.3208 59.822 68.1767 59.6408 67.9951C59.4597 67.8134 59.3161 67.5978 59.2185 67.3606C59.1208 67.1234 59.0708 66.8692 59.0715 66.6127C59.0715 66.095 59.2768 65.5984 59.6424 65.2318C60.008 64.8653 60.504 64.6586 61.0217 64.6572H82.6968C83.2154 64.6572 83.7127 64.8632 84.0795 65.23C84.4462 65.5967 84.6522 66.0941 84.6522 66.6127C84.6522 67.1313 84.4462 67.6287 84.0795 67.9954C83.7127 68.3621 83.2154 68.5681 82.6968 68.5681Z" fill="white"/>
<path d="M187.295 91.6113H42.9858C41.435 91.6113 40.1779 92.8685 40.1779 94.4193V181.743C40.1779 183.294 41.435 184.551 42.9858 184.551H187.295C188.845 184.551 190.103 183.294 190.103 181.743V94.4193C190.103 92.8685 188.845 91.6113 187.295 91.6113Z" fill="white"/>
<g style="mix-blend-mode:multiply">
<path d="M190.103 116.627C173.484 132.159 154.602 145.076 134.103 154.937C103.813 169.424 69.19 179.409 49.0175 184.551H187.289C187.659 184.551 188.024 184.479 188.366 184.339C188.707 184.198 189.017 183.991 189.278 183.73C189.54 183.469 189.747 183.16 189.888 182.819C190.03 182.478 190.103 182.112 190.103 181.743V116.627Z" fill="#999999"/>
</g>
<path opacity="0.2" d="M190.103 116.627C173.484 132.159 154.602 145.076 134.103 154.937C103.813 169.424 69.19 179.409 49.0175 184.551H187.289C187.659 184.551 188.024 184.479 188.366 184.339C188.707 184.198 189.017 183.991 189.278 183.73C189.54 183.469 189.747 183.16 189.888 182.819C190.03 182.478 190.103 182.112 190.103 181.743V116.627Z" fill="white"/>
<path d="M187.295 91.6113H42.9858C41.435 91.6113 40.1779 92.8685 40.1779 94.4193V181.743C40.1779 183.294 41.435 184.551 42.9858 184.551H187.295C188.845 184.551 190.103 183.294 190.103 181.743V94.4193C190.103 92.8685 188.845 91.6113 187.295 91.6113Z" stroke="#5D696F" stroke-miterlimit="10"/>
<path d="M42.3464 99.775V96.0453C42.3478 95.3001 42.6449 94.5859 43.1723 94.0594C43.6998 93.533 44.4145 93.2373 45.1597 93.2373H51.2605" stroke="#5D696F" stroke-miterlimit="10"/>
<path d="M42.3464 156.418V104.319" stroke="#5D696F" stroke-miterlimit="10"/>
<path d="M187.929 174.193V180.092C187.929 180.461 187.857 180.827 187.717 181.168C187.576 181.509 187.369 181.819 187.108 182.081C186.847 182.342 186.538 182.549 186.197 182.691C185.856 182.832 185.49 182.905 185.121 182.905H180.203" stroke="#5D696F" stroke-miterlimit="10"/>
<path d="M187.929 98.4639V169.808" stroke="#5D696F" stroke-miterlimit="10"/>
<path d="M137.428 125.596H92.8472C92.0438 125.596 91.3926 126.247 91.3926 127.05V149.796C91.3926 150.6 92.0438 151.251 92.8472 151.251H137.428C138.232 151.251 138.883 150.6 138.883 149.796V127.05C138.883 126.247 138.232 125.596 137.428 125.596Z" fill="#5D696F" stroke="#5D696F" stroke-miterlimit="10"/>
<path d="M137.428 125.596H92.8472C92.0438 125.596 91.3926 126.247 91.3926 127.05V131.942C91.3926 132.745 92.0438 133.396 92.8472 133.396H137.428C138.232 133.396 138.883 132.745 138.883 131.942V127.05C138.883 126.247 138.232 125.596 137.428 125.596Z" fill="white" stroke="#5D696F" stroke-miterlimit="10"/>
<path d="M50.7278 47.5369L51.7028 49.3539L53.7755 50.8457C53.9058 50.9415 54.0619 50.9957 54.2235 51.0014C54.385 51.0071 54.5446 50.964 54.6813 50.8777L54.8625 50.7605C54.9942 50.6805 55.0923 50.5552 55.1384 50.4081C55.1845 50.261 55.1754 50.1022 55.1129 49.9613L53.9354 47.2545L54.7293 47.8726C54.8553 47.9698 55.0142 48.0141 55.1723 47.9962C55.3304 47.9783 55.4753 47.8996 55.5764 47.7767C55.6642 47.6671 55.712 47.5308 55.712 47.3904C55.712 47.25 55.6642 47.1137 55.5764 47.0041L53.7276 44.665L51.4151 45.022L50.7278 47.5369Z" fill="white" stroke="#5D696F" stroke-miterlimit="10"/>
<path d="M54.8836 50.7602L53.0294 48.3252" stroke="#5D696F" stroke-width="0.5" stroke-linecap="round" stroke-linejoin="round"/>
<path d="M53.7968 50.8448L52.3422 48.916" stroke="#5D696F" stroke-width="0.5" stroke-linecap="round" stroke-linejoin="round"/>
<path d="M81.2368 29.9111L84.1354 30.0816L87.6626 32.3355C87.6626 32.3355 87.8598 33.0228 87.3696 33.1187C86.8794 33.2146 84.2313 32.2396 84.2313 32.2396L81.402 32.2023L81.2368 29.9111Z" fill="white" stroke="#5D696F" stroke-miterlimit="10"/>
<path d="M81.3862 31.8448L84.4286 33.2195C84.4286 33.2195 84.9188 32.5321 84.2315 32.2391L83.2298 31.5518" fill="white"/>
<path d="M81.3862 31.8448L84.4286 33.2195C84.4286 33.2195 84.9188 32.5321 84.2315 32.2391L83.2298 31.5518" stroke="#5D696F" stroke-linejoin="round"/>
<path d="M188.872 83.8066L187.614 80.0449L186.202 78.1107C186.179 78.0754 186.145 78.0488 186.105 78.035C186.065 78.0211 186.022 78.0209 185.981 78.0343C185.941 78.0476 185.907 78.0739 185.883 78.1089C185.86 78.1439 185.848 78.1858 185.851 78.228V83.8013L186.916 85.2026L188.872 83.8066Z" fill="white"/>
<path d="M209.364 100.255L198.814 100.628C198.425 100.641 198.04 100.544 197.704 100.347C197.368 100.149 197.095 99.8607 196.917 99.5142L188.872 83.8066C188.872 83.8066 187.06 84.787 186.922 85.2026C186.783 85.6182 192.879 100.905 194.749 105.599C194.906 105.993 195.182 106.329 195.538 106.56C195.894 106.791 196.312 106.905 196.736 106.888L208.528 106.388" fill="white"/>
<path d="M209.364 100.255L198.814 100.628C198.425 100.641 198.04 100.544 197.704 100.347C197.368 100.149 197.095 99.8607 196.917 99.5142L188.872 83.8066C188.872 83.8066 187.06 84.787 186.922 85.2026C186.783 85.6182 192.879 100.905 194.749 105.599C194.906 105.993 195.182 106.329 195.538 106.56C195.894 106.791 196.312 106.905 196.736 106.888L208.528 106.388" stroke="#5D696F" stroke-miterlimit="10"/>
<path d="M189.644 85.7627L187.993 86.4447" stroke="#5D696F" stroke-width="0.75" stroke-miterlimit="10"/>
<g opacity="0.5">
<g opacity="0.5">
<path d="M209.364 100.255L198.814 100.628C198.425 100.641 198.04 100.544 197.704 100.347C197.368 100.149 197.095 99.8607 196.917 99.5142L188.872 83.8066C188.872 83.8066 187.06 84.787 186.922 85.2026C186.783 85.6182 192.879 100.905 194.749 105.599C194.906 105.993 195.182 106.329 195.538 106.56C195.894 106.791 196.312 106.905 196.736 106.888L208.528 106.388" fill="#999999"/>
<path d="M209.364 100.255L198.814 100.628C198.425 100.641 198.04 100.544 197.704 100.347C197.368 100.149 197.095 99.8607 196.917 99.5142L188.872 83.8066C188.872 83.8066 187.06 84.787 186.922 85.2026C186.783 85.6182 192.879 100.905 194.749 105.599C194.906 105.993 195.182 106.329 195.538 106.56C195.894 106.791 196.312 106.905 196.736 106.888L208.528 106.388" stroke="#5D696F" stroke-miterlimit="10"/>
</g>
<path opacity="0.5" d="M189.644 85.7617L187.993 86.4437" stroke="#5D696F" stroke-width="0.75" stroke-miterlimit="10"/>
</g>
<path d="M188.872 83.8066L187.614 80.0449L186.202 78.1107C186.179 78.0754 186.145 78.0488 186.105 78.035C186.065 78.0211 186.022 78.0209 185.981 78.0343C185.941 78.0476 185.907 78.0739 185.883 78.1089C185.86 78.1439 185.848 78.1858 185.851 78.228V83.8013L186.916 85.2026L188.872 83.8066Z" fill="#999999"/>
<path opacity="0.5" d="M188.872 83.8066L187.614 80.0449L186.202 78.1107C186.179 78.0754 186.145 78.0488 186.105 78.035C186.065 78.0211 186.022 78.0209 185.981 78.0343C185.941 78.0476 185.907 78.0739 185.883 78.1089C185.86 78.1439 185.848 78.1858 185.851 78.228V83.8013L186.916 85.2026L188.872 83.8066Z" fill="white"/>
<path d="M188.872 83.8066L187.614 80.0449L186.202 78.1107C186.179 78.0754 186.145 78.0488 186.105 78.035C186.065 78.0211 186.022 78.0209 185.981 78.0343C185.941 78.0476 185.907 78.0739 185.883 78.1089C185.86 78.1439 185.848 78.1858 185.851 78.228V83.8013L186.916 85.2026L188.872 83.8066Z" stroke="#5D696F" stroke-miterlimit="10"/>
<path d="M212.63 90.3282C212.124 90.9703 211.76 91.7133 211.565 92.5074C211.41 93.5304 211.655 97.4679 211.655 97.4679L206.167 98.086C206.167 98.086 206.583 94.0845 206.604 93.4185C206.78 92.5926 207.13 91.8136 207.631 91.1337C208.131 90.4537 208.771 89.8885 209.508 89.4757C211.394 88.5485 212.998 89.0014 212.63 90.3282Z" fill="white"/>
<g style="mix-blend-mode:multiply" opacity="0.5">
<path d="M212.593 90.3713C211.597 90.0996 210.387 89.7959 209.364 89.5508C208.661 89.9694 208.051 90.5285 207.574 91.1931C207.096 91.8578 206.761 92.6137 206.588 93.4137C206.588 93.6695 206.514 94.4154 206.439 95.236C206.972 95.1134 207.819 94.9269 208.448 94.815C208.946 94.7346 209.436 94.6116 209.913 94.4474L209.726 97.6443H209.849L211.639 97.4418C211.639 97.4418 211.394 93.5043 211.549 92.4813C211.743 91.7119 212.099 90.9927 212.593 90.3713Z" fill="#999999"/>
</g>
<path d="M212.63 90.3282C212.124 90.9703 211.76 91.7133 211.565 92.5074C211.41 93.5304 211.655 97.4679 211.655 97.4679L206.167 98.086C206.167 98.086 206.583 94.0845 206.604 93.4185C206.78 92.5926 207.13 91.8136 207.631 91.1337C208.131 90.4537 208.771 89.8885 209.508 89.4757C211.394 88.5485 212.998 89.0014 212.63 90.3282Z" stroke="#5D696F" stroke-width="1.00396" stroke-miterlimit="10"/>
<path d="M213.77 91.0046C218.321 84.9944 207.35 78.7498 204.467 84.7227C204.066 85.4593 203.748 86.2385 203.519 87.0458C203.082 87.3122 201.921 88.0262 201.707 88.2233C201.494 88.4205 202.24 88.9266 202.651 89.1771C201.867 91.1005 201.985 93.1253 202.208 93.5835C202.597 94.3721 204.515 94.3827 205.778 94.1483C207.041 93.9138 207.542 92.7043 207.909 92.374C208.277 92.0436 210.11 92.4646 210.755 92.6564C211.399 92.8482 212.886 92.1928 213.77 91.0046Z" fill="white"/>
<g style="mix-blend-mode:multiply" opacity="0.5">
<path d="M209.268 90.4287C209.268 90.4287 209.364 90.8816 208.448 91.2492C207.531 91.6169 207.35 91.3398 207.078 91.9792C206.963 92.3996 206.729 92.7782 206.405 93.07C206.081 93.3618 205.681 93.5546 205.251 93.6256C204.383 93.7904 203.505 93.9025 202.624 93.9613C203.348 94.3663 204.787 94.3343 205.821 94.1478C207.078 93.9187 207.584 92.7038 207.952 92.3735C208.32 92.0432 210.153 92.4641 210.797 92.6559C210.948 92.686 211.104 92.686 211.255 92.6559C211.496 92.1205 211.64 91.547 211.682 90.9615L209.268 90.4287Z" fill="#999999"/>
</g>
<path d="M213.77 91.0046C218.321 84.9944 207.35 78.7498 204.467 84.7227C204.066 85.4593 203.748 86.2385 203.519 87.0458C203.082 87.3122 201.921 88.0262 201.707 88.2233C201.494 88.4205 202.24 88.9266 202.651 89.1771C201.867 91.1005 201.985 93.1253 202.208 93.5835C202.597 94.3721 204.515 94.3827 205.778 94.1483C207.041 93.9138 207.542 92.7043 207.909 92.374C208.277 92.0436 210.11 92.4646 210.755 92.6564C211.399 92.8482 212.886 92.1928 213.77 91.0046Z" stroke="#5D696F" stroke-miterlimit="10"/>
<path d="M204.883 87.5734C204.766 87.8292 204.569 87.989 204.441 87.9304C204.313 87.8718 204.302 87.6161 204.441 87.3603C204.579 87.1046 204.755 86.9447 204.883 87.0033C205.011 87.0619 205 87.3177 204.883 87.5734Z" fill="#5D696F"/>
<path d="M204.776 85.9325C204.776 85.9325 205.309 85.4903 205.416 86.508" stroke="#5D696F" stroke-width="0.5" stroke-linecap="round" stroke-linejoin="round"/>
<path d="M202.544 90.2109C202.544 90.2109 202.544 90.7438 203.503 90.7438" stroke="#5D696F" stroke-width="0.5" stroke-linecap="round" stroke-linejoin="round"/>
<path d="M201.244 125.079L200.823 130.29C200.823 130.29 197.908 151.038 198.047 153.42C198.186 155.801 198.5 180.407 198.5 180.407L202.011 180.967L205.954 153.676L211.49 125.942L201.244 125.079Z" fill="#999999" stroke="#5D696F" stroke-miterlimit="10"/>
<path opacity="0.2" d="M201.244 125.079L200.823 130.29C200.823 130.29 197.908 151.038 198.047 153.42C198.186 155.801 198.5 180.407 198.5 180.407L202.011 180.967L205.954 153.676L211.49 125.942L201.244 125.079Z" fill="#5D696F"/>
<path d="M205.688 144.031C205.688 144.031 204.34 151.965 203.322 155.855C202.304 159.744 202.31 163.623 202.31 167.843C202.31 172.063 200.791 179.842 200.791 179.842" stroke="#5D696F" stroke-width="0.75" stroke-miterlimit="10"/>
<path d="M208.368 123.8C210.68 122.585 213.163 121.781 213.872 123.395C215.278 126.624 213.595 131.531 213.595 131.531L214.879 154.165L217.228 181.472L213.717 180.908C213.717 180.908 208.325 157.863 207.483 156.456C206.641 155.05 205.315 135.32 205.315 135.32L202.651 132.895" fill="#999999"/>
<path d="M208.368 123.8C210.68 122.585 213.163 121.781 213.872 123.395C215.278 126.624 213.595 131.531 213.595 131.531L214.879 154.165L217.228 181.472L213.717 180.908C213.717 180.908 208.325 157.863 207.483 156.456C206.641 155.05 205.315 135.32 205.315 135.32L202.651 132.895" stroke="#5D696F" stroke-miterlimit="10"/>
<g opacity="0.2">
<path opacity="0.2" d="M208.368 123.8C210.68 122.585 213.163 121.781 213.872 123.395C215.278 126.624 213.595 131.531 213.595 131.531L214.879 154.165L217.228 181.472L213.717 180.908C213.717 180.908 208.325 157.863 207.483 156.456C206.641 155.05 205.315 135.32 205.315 135.32L202.651 132.895" fill="#5D696F"/>
</g>
<path d="M211.106 140.945C211.186 146.194 211.719 148.719 212.135 150.104C212.641 151.794 212.47 155.001 212.47 156.498C212.47 157.996 211.794 156.163 213.318 163.089C214.842 170.016 215.849 179.639 215.849 179.639" stroke="#5D696F" stroke-width="0.75" stroke-miterlimit="10"/>
<path d="M211.106 129.506C211.106 129.506 211.272 129.165 211.106 137.104C211.106 137.53 211.106 137.941 211.106 138.34" stroke="#5D696F" stroke-width="0.75" stroke-miterlimit="10"/>
<path d="M203.311 127.998L203.199 130.374L202.651 132.026L203.471 132.985" stroke="#5D696F" stroke-width="0.75" stroke-linecap="round" stroke-linejoin="round"/>
<path d="M202.235 129.416C202.235 129.416 203.61 130.791 207.18 130.375" stroke="#5D696F" stroke-width="0.75" stroke-linecap="round" stroke-linejoin="round"/>
<path d="M210.669 128.228C213.334 127.695 213.504 126.959 214.426 126.341C214.443 125.334 214.262 124.333 213.893 123.395C213.195 121.796 210.696 122.585 208.389 123.8L207.27 125.569L201.265 125.079L201.073 127.434C204.156 128.491 207.454 128.764 210.669 128.228Z" fill="#5D696F"/>
<path d="M201.846 126.709L201.787 127.647L203.311 127.998L203.429 126.768L201.846 126.709Z" fill="white" stroke="#5D696F" stroke-width="0.75" stroke-miterlimit="10"/>
<path d="M212.481 128.1L212.225 125.767L212.998 125.511L213.387 127.583" fill="#999999"/>
<path d="M212.481 128.1L212.225 125.767L212.998 125.511L213.387 127.583" stroke="#5D696F" stroke-miterlimit="10"/>
<path d="M206.524 128.877L206.007 126.154H207.302L207.819 128.488" fill="#999999"/>
<path d="M206.524 128.877L206.007 126.154H207.302L207.819 128.488" stroke="#5D696F" stroke-miterlimit="10"/>
<g opacity="0.2">
<path opacity="0.2" d="M212.481 128.1L212.225 125.767L212.998 125.511L213.387 127.583" fill="#5D696F"/>
<path opacity="0.2" d="M206.524 128.878L206.007 126.155H207.302L207.819 128.489" fill="#5D696F"/>
</g>
<path d="M200.557 104.427C200.557 104.427 200.114 107.384 198.788 112.419C197.461 117.454 196.124 123.491 196.124 123.491L196.864 126.592L199.075 123.342L200.557 104.427Z" fill="#5D696F" stroke="#5D696F" stroke-miterlimit="10"/>
<path d="M204.249 100.148C204.249 100.148 201.148 100.883 200.855 102.359C200.697 103.039 200.597 103.73 200.557 104.427L205.283 100.59L211.192 98.2246L204.249 100.148Z" fill="#5D696F" stroke="#5D696F" stroke-miterlimit="10"/>
<path d="M205.096 99.0076C205.096 99.0076 202.576 101.858 201.574 103.03C200.573 104.203 200.567 116.782 200.567 118.631C200.567 120.48 199.566 125.499 201.239 126.506C202.912 127.513 213.147 127.178 214.154 125.499C215.161 123.821 215.827 103.702 215.662 101.858C215.536 101.031 215.211 100.247 214.713 99.5748C214.215 98.9025 213.561 98.362 212.806 98.0005C211.639 97.4624 205.096 99.0076 205.096 99.0076Z" fill="white"/>
<g style="mix-blend-mode:multiply" opacity="0.5">
<path d="M212.806 98.0012C212.667 97.9449 212.519 97.9125 212.369 97.9053L211.645 98.2836C212.864 99.2829 213.703 100.671 214.021 102.216C214.358 104.46 214.327 106.743 213.93 108.977C213.568 111.444 207.718 108.977 208.815 109.894C209.913 110.81 214.021 112.361 214.207 113.181C214.394 114.002 212.172 115.371 211.373 115.467C210.574 115.563 211.906 117.385 212.742 118.936C213.579 120.486 213.275 122.665 211.373 124.147C209.471 125.628 205.054 126.358 203.146 126.432C202.528 126.432 202.144 126.592 202.027 126.773C204.958 127.429 213.254 127.003 214.154 125.5C215.161 123.822 215.827 103.702 215.662 101.859C215.537 101.032 215.211 100.248 214.713 99.5755C214.215 98.9031 213.561 98.3626 212.806 98.0012Z" fill="#999999"/>
</g>
<path d="M205.096 99.0076C205.096 99.0076 202.576 101.858 201.574 103.03C200.573 104.203 200.567 116.782 200.567 118.631C200.567 120.48 199.566 125.499 201.239 126.506C202.912 127.513 213.147 127.178 214.154 125.499C215.161 123.821 215.827 103.702 215.662 101.858C215.537 101.031 215.211 100.247 214.713 99.5748C214.215 98.9025 213.561 98.362 212.806 98.0005C211.639 97.4624 205.096 99.0076 205.096 99.0076Z" stroke="#5D696F" stroke-miterlimit="10"/>
<path d="M210.249 111.769C207.547 110.927 205.181 108.572 205.181 108.572C205.781 111.371 207.408 113.843 209.742 115.499" fill="white"/>
<path d="M210.249 111.769C207.547 110.927 205.181 108.572 205.181 108.572C205.781 111.371 207.408 113.843 209.742 115.499" stroke="#5D696F" stroke-width="0.75" stroke-linecap="round" stroke-linejoin="round"/>
<path d="M212.305 96.1562L204.254 97.9998L203.754 100.35L212.806 97.9998L212.305 96.1562Z" fill="white" stroke="#5D696F" stroke-miterlimit="10"/>
<path d="M202.48 184.482L202.011 180.944L198.5 180.385L195.575 182.468L192.953 183.907V184.482H202.48Z" fill="#5D696F" stroke="#5D696F" stroke-miterlimit="10"/>
<path d="M217.665 184.76L217.228 181.472L213.717 180.907L210.792 182.991L208.171 184.434V184.76H217.665Z" fill="#5D696F" stroke="#5D696F" stroke-miterlimit="10"/>
<path d="M187.337 80.7387L185.174 79.4866C185.174 79.4866 184.332 79.3854 184.695 80.3231L186.858 81.9908" fill="white"/>
<path d="M187.337 80.7387L185.174 79.4866C185.174 79.4866 184.332 79.3854 184.695 80.3231L186.858 81.9908" stroke="#5D696F" stroke-linecap="round" stroke-linejoin="round"/>
<path d="M187.018 83.9937C186.916 83.7366 186.766 83.5015 186.575 83.301L186.17 82.8641L183.97 80.136C183.97 80.136 183.288 79.6778 183.437 80.6689L184.801 83.333L182.377 81.0578C182.377 81.0578 181.919 80.6795 181.919 81.2123C181.919 81.7452 184.119 84.0949 184.119 84.0949L181.689 82.9547C181.689 82.9547 181.157 83.333 181.54 83.7113C181.924 84.0896 183.965 84.8515 183.965 84.8515L182.148 84.7769C182.148 84.7769 181.615 85.2298 181.993 85.3843C182.371 85.5388 184.497 85.9864 184.497 85.9864C184.768 86.216 185.076 86.3964 185.409 86.5192L185.941 87.5049L187.982 86.4766L187.018 83.9937Z" fill="white" stroke="#5D696F" stroke-linecap="round" stroke-linejoin="round"/>
<path d="M208.805 107.645L196.646 110.496C196.023 110.606 195.382 110.496 194.831 110.186C194.28 109.876 193.854 109.385 193.625 108.796L185.952 87.4834L187.993 86.4551L196.47 102.157C196.662 102.516 196.965 102.804 197.333 102.978C197.702 103.151 198.116 103.202 198.516 103.122L207.813 100.495" fill="white"/>
<path d="M208.805 107.645L196.646 110.496C196.023 110.606 195.382 110.496 194.831 110.186C194.28 109.876 193.854 109.385 193.625 108.796L185.952 87.4834L187.993 86.4551L196.47 102.157C196.662 102.516 196.965 102.804 197.333 102.978C197.702 103.151 198.116 103.202 198.516 103.122L207.813 100.495" stroke="#5D696F" stroke-miterlimit="10"/>
<path d="M189.138 88.4639L186.772 89.6467" stroke="#5D696F" stroke-width="0.75" stroke-miterlimit="10"/>
<path d="M207.291 84.7878C207.291 84.7878 205.997 86.0826 206.641 87.0523C207.023 87.6124 207.315 88.2291 207.504 88.8799C207.504 88.8799 206.972 90.1746 207.398 90.1746C207.824 90.1746 207.611 89.2049 208.368 89.4234C209.124 89.6418 209.876 90.9312 209.231 91.3628C208.748 91.6325 208.237 91.8469 207.707 92.0022C207.639 92.0229 207.579 92.0628 207.534 92.1172C207.489 92.1715 207.461 92.2379 207.453 92.3081C207.445 92.3783 207.458 92.4493 207.49 92.5123C207.521 92.5754 207.571 92.6277 207.632 92.6629C208.333 93.1364 209.141 93.4293 209.982 93.5154C210.67 93.5301 211.358 93.4585 212.028 93.3023C212.028 93.3023 214.159 90.3931 215.694 89.6365C217.228 88.8799 216.557 85.4325 216.557 85.001C216.557 84.5694 215.049 83.5996 215.049 83.5996C215.049 83.5996 215.481 82.6299 213.541 80.4773C211.602 78.3247 207.936 77.8878 207.83 78.6444C207.792 78.8447 207.813 79.0516 207.889 79.2404C207.966 79.4293 208.095 79.5923 208.261 79.7101C208.261 79.7101 205.027 78.3087 203.519 79.8166C202.011 81.3245 207.291 84.7878 207.291 84.7878Z" fill="#5D696F" stroke="#5D696F" stroke-miterlimit="10"/>
<path d="M207.291 84.7871C207.291 84.7871 209.913 87.984 213.797 88.2931" stroke="white" stroke-width="0.5" stroke-linecap="round" stroke-linejoin="round"/>
<path d="M206.364 85.7627C206.364 85.7627 207.584 89.3113 212.63 90.3236" stroke="white" stroke-width="0.5" stroke-linecap="round" stroke-linejoin="round"/>
</g>
</svg>
