<svg width="288" height="249" viewBox="0 0 288 249" fill="none" xmlns="http://www.w3.org/2000/svg">
<g opacity="0.8">
<path opacity="0.1" d="M20.7125 148.971C20.7125 148.971 25.3215 188.319 58.9589 205.188C92.5963 222.056 125.483 205.772 155.694 201.9C171.52 199.868 186.21 207.638 201.73 209.285C251.353 214.565 290.177 156.488 283.104 113.653C276.988 76.6087 253.139 50.416 209.746 31.6813C166.353 12.9467 136.508 -1.92284 86.1809 15.5168C35.8544 32.9564 17.0201 98.0529 20.7125 148.971Z" fill="white"/>
<path d="M186.283 29.7611C188.163 30.0649 189.917 30.9015 191.337 32.1718C193.668 34.2704 195.819 28.911 191.961 27.8152C190.932 27.4724 189.819 27.4771 188.793 27.8287C187.767 28.1803 186.885 28.8592 186.283 29.7611Z" fill="white" stroke="#5D696F" stroke-miterlimit="10"/>
<path d="M183.693 29.5162C184.998 28.1288 186.673 27.1446 188.521 26.6804C191.569 25.93 188.328 21.1417 185.26 23.7185C184.4 24.3799 183.781 25.3054 183.498 26.3528C183.215 27.4001 183.283 28.5115 183.693 29.5162Z" fill="white" stroke="#5D696F" stroke-miterlimit="10"/>
<path d="M148.116 41.982C146.867 43.4193 146.055 45.1848 145.779 47.0691C145.34 50.1838 140.246 47.441 142.504 44.127C143.076 43.2041 143.934 42.4944 144.948 42.1068C145.962 41.7193 147.075 41.6754 148.116 41.982Z" fill="white" stroke="#5D696F" stroke-miterlimit="10"/>
<path d="M149.969 40.1286C148.077 39.9015 146.159 40.2218 144.444 41.0517C141.621 42.4265 141.037 36.6752 145.048 36.6885C146.132 36.6453 147.199 36.9583 148.088 37.5796C148.977 38.2008 149.638 39.0962 149.969 40.1286Z" fill="white" stroke="#5D696F" stroke-miterlimit="10"/>
<path d="M189.22 58.2885C195.128 48.5565 192.028 35.8778 182.296 29.97C172.564 24.0621 159.885 27.1622 153.977 36.8942C148.069 46.6263 151.169 59.3049 160.901 65.2127C170.633 71.1206 183.312 68.0205 189.22 58.2885Z" fill="white" stroke="#5D696F" stroke-miterlimit="10"/>
<path d="M155.634 44.0793C155.461 44.128 155.277 44.1164 155.112 44.0464C154.946 43.9764 154.81 43.8521 154.724 43.6941C154.625 43.5072 154.603 43.2886 154.664 43.086C154.725 42.8833 154.864 42.7128 155.05 42.6116L160.183 39.8422L156.75 39.7227C156.64 39.7284 156.529 39.7111 156.426 39.672C156.323 39.6329 156.229 39.5727 156.15 39.4954C156.072 39.4181 156.01 39.3252 155.969 39.2228C155.928 39.1203 155.909 39.0105 155.912 38.9002C155.916 38.7899 155.942 38.6815 155.99 38.582C156.038 38.4825 156.106 38.3941 156.19 38.3222C156.273 38.2503 156.371 38.1966 156.477 38.1644C156.582 38.1323 156.693 38.1224 156.803 38.1355L163.178 38.3546C163.352 38.3617 163.519 38.4256 163.653 38.5364C163.787 38.6471 163.882 38.7988 163.921 38.9682C163.961 39.1375 163.945 39.3153 163.874 39.4743C163.803 39.6334 163.683 39.7649 163.53 39.8489L155.807 44.0129C155.753 44.0436 155.695 44.0659 155.634 44.0793Z" fill="#5D696F"/>
<path d="M183.115 36.5233C183.054 36.5413 182.992 36.5525 182.929 36.5565L174.541 36.8221C174.366 36.8278 174.193 36.7754 174.051 36.673C173.908 36.5706 173.803 36.424 173.752 36.2559C173.702 36.0878 173.708 35.9076 173.77 35.7434C173.832 35.5792 173.947 35.4401 174.096 35.3478L179.761 31.8147C179.847 31.7366 179.95 31.6783 180.061 31.644C180.172 31.6096 180.289 31.6 180.405 31.6158C180.52 31.6316 180.63 31.6724 180.728 31.7354C180.826 31.7985 180.909 31.8821 180.971 31.9805C181.033 32.079 181.072 32.1898 181.087 32.3052C181.101 32.4206 181.091 32.5378 181.055 32.6486C181.02 32.7593 180.96 32.861 180.881 32.9464C180.802 33.0318 180.706 33.0989 180.598 33.1429L177.45 35.1353L182.876 34.9626C183.068 34.9598 183.255 35.0267 183.402 35.151C183.549 35.2753 183.646 35.4485 183.675 35.6388C183.705 35.829 183.664 36.0234 183.561 36.186C183.458 36.3486 183.299 36.4684 183.115 36.5233Z" fill="#5D696F"/>
<path d="M155.295 47.6663C159.665 55.722 167.422 60.3177 174.555 58.3519C181.687 56.3861 186.017 48.4699 185.652 39.3184L182.896 39.5973C174.08 40.5102 165.48 42.8965 157.454 46.6568L155.295 47.6663Z" fill="#5D696F"/>
<path d="M183.314 49.6518C179.682 48.6469 175.844 48.654 172.215 49.6723C168.587 50.6907 165.306 52.6815 162.727 55.4296C166.353 57.7739 170.444 58.6705 174.349 57.5946C178.254 56.5188 181.395 53.59 183.314 49.6518Z" fill="#B5B5B5"/>
<path d="M46.3122 128.109C49.4694 117.171 43.1615 105.744 32.2232 102.587C21.2848 99.4296 9.85816 105.738 6.70097 116.676C3.54378 127.614 9.85164 139.041 20.79 142.198C31.7283 145.355 43.155 139.047 46.3122 128.109Z" fill="white" stroke="#5D696F" stroke-miterlimit="10"/>
<path d="M15.9576 109.875C15.792 109.806 15.6543 109.683 15.5664 109.527C15.4786 109.37 15.4456 109.189 15.4728 109.011C15.4881 108.907 15.5241 108.807 15.5788 108.717C15.6334 108.626 15.7056 108.548 15.791 108.486C15.8764 108.424 15.9733 108.38 16.0761 108.356C16.1788 108.332 16.2853 108.329 16.3893 108.347L22.1471 109.27L19.4907 107.086C19.3438 106.947 19.2551 106.758 19.2423 106.556C19.2295 106.355 19.2937 106.156 19.4219 106C19.5501 105.844 19.7327 105.742 19.9328 105.716C20.1329 105.689 20.3357 105.74 20.5001 105.857L25.4279 109.915C25.5647 110.025 25.6607 110.177 25.7005 110.348C25.7402 110.519 25.7214 110.699 25.647 110.858C25.5741 111.016 25.4518 111.146 25.2985 111.229C25.1452 111.311 24.9692 111.342 24.7969 111.316L16.1635 109.915C16.0933 109.911 16.024 109.898 15.9576 109.875Z" fill="#5D696F"/>
<path d="M42.376 120.632C42.3172 120.608 42.2615 120.577 42.21 120.539L35.3895 115.651C35.2465 115.549 35.1413 115.402 35.0903 115.234C35.0393 115.066 35.0453 114.886 35.1075 114.721C35.1696 114.557 35.2844 114.418 35.4339 114.325C35.5834 114.233 35.7592 114.192 35.9341 114.21L42.5752 114.874C42.7857 114.895 42.9795 114.998 43.1141 115.161C43.2486 115.324 43.3127 115.534 43.2925 115.744C43.2722 115.955 43.1692 116.149 43.006 116.283C42.8429 116.418 42.633 116.482 42.4225 116.462L38.7234 116.103L43.1397 119.264C43.3105 119.389 43.4251 119.576 43.4586 119.785C43.4922 119.994 43.442 120.208 43.3191 120.38C43.2121 120.52 43.0614 120.622 42.8907 120.667C42.72 120.713 42.5389 120.701 42.376 120.632Z" fill="#5D696F"/>
<path d="M29.1002 131.047C26.289 131.1 23.5146 130.401 21.0645 129.021C14.9081 125.461 13.4869 118.575 13.4271 118.282C13.3761 118.018 13.432 117.745 13.5827 117.522C13.7334 117.299 13.9665 117.145 14.2307 117.094C14.4949 117.043 14.7686 117.099 14.9915 117.249C15.2145 117.4 15.3684 117.633 15.4195 117.897C15.4195 117.957 16.7477 124.213 22.1138 127.308C26.0387 129.559 31.1656 129.632 37.3884 127.527C37.6385 127.439 37.9133 127.454 38.1525 127.568C38.3916 127.683 38.5754 127.888 38.6635 128.138C38.7516 128.388 38.7367 128.663 38.6221 128.902C38.5075 129.141 38.3026 129.325 38.0525 129.413C35.1787 130.447 32.1539 130.999 29.1002 131.047Z" fill="#5D696F"/>
<path d="M150.883 186.387C159.735 177.535 159.735 163.184 150.883 154.332C142.031 145.48 127.68 145.48 118.828 154.332C109.976 163.184 109.976 177.535 118.828 186.387C127.68 195.239 142.031 195.239 150.883 186.387Z" fill="white" stroke="#5D696F" stroke-miterlimit="10"/>
<path d="M122.083 177.78C122.083 177.78 136.654 169.459 150.7 167.446C150.7 167.446 154.731 180.729 141.302 185.869C129.667 190.325 122.083 177.78 122.083 177.78Z" fill="#5D696F"/>
<path d="M124.952 171.371C124.708 171.371 124.469 171.305 124.26 171.178C124.052 171.052 123.882 170.87 123.77 170.654L120.449 164.265C120.369 164.11 120.32 163.94 120.305 163.766C120.291 163.592 120.31 163.417 120.363 163.25C120.416 163.084 120.502 162.929 120.614 162.796C120.727 162.662 120.865 162.552 121.02 162.472C121.176 162.392 121.345 162.343 121.519 162.328C121.693 162.313 121.869 162.333 122.035 162.386C122.202 162.439 122.356 162.524 122.49 162.637C122.623 162.75 122.733 162.888 122.813 163.043L126.134 169.432C126.215 169.587 126.264 169.756 126.28 169.93C126.295 170.104 126.276 170.279 126.224 170.445C126.171 170.612 126.086 170.766 125.974 170.9C125.862 171.034 125.724 171.144 125.57 171.225C125.378 171.323 125.167 171.373 124.952 171.371Z" fill="#5D696F"/>
<path d="M142.577 164.982C142.269 164.989 141.967 164.888 141.725 164.697C141.482 164.505 141.314 164.235 141.249 163.933L139.709 156.661C139.65 156.323 139.725 155.974 139.917 155.69C140.11 155.406 140.405 155.207 140.742 155.135C141.078 155.064 141.428 155.126 141.72 155.307C142.011 155.489 142.221 155.777 142.305 156.11L143.853 163.382C143.894 163.578 143.89 163.78 143.842 163.974C143.794 164.168 143.702 164.349 143.575 164.503C143.447 164.657 143.286 164.78 143.104 164.863C142.923 164.946 142.724 164.987 142.524 164.982H142.577Z" fill="#5D696F"/>
<path d="M144.869 183.218C143.647 180.203 139.376 178.975 135.206 180.482C133.093 181.191 131.295 182.617 130.125 184.513C131.825 185.402 133.697 185.912 135.613 186.009C137.528 186.105 139.442 185.785 141.223 185.071C142.501 184.586 143.723 183.965 144.869 183.218Z" fill="#B5B5B5"/>
<path d="M265.98 111.59C277.482 106.649 282.8 93.3192 277.858 81.8175C272.917 70.3159 259.587 64.9979 248.086 69.9394C236.584 74.8809 231.266 88.2106 236.207 99.7122C241.149 111.214 254.479 116.532 265.98 111.59Z" fill="white" stroke="#5D696F" stroke-miterlimit="10"/>
<path d="M246.472 90.6807C246.472 90.6807 258.539 100.138 270.931 91.6636" stroke="#5D696F" stroke-width="2" stroke-linecap="round" stroke-linejoin="round"/>
<path d="M266.388 83.8008C266.388 85.1954 265.837 86.3311 265.166 86.3311C264.496 86.3311 263.938 85.1954 263.938 83.8008C263.938 82.4061 264.489 81.2705 265.166 81.2705C265.844 81.2705 266.388 82.4061 266.388 83.8008Z" fill="#5D696F"/>
<path d="M254.647 83.3107C254.647 84.7054 254.102 85.841 253.425 85.841C252.747 85.841 252.203 84.7054 252.203 83.3107C252.203 81.9161 252.747 80.7871 253.425 80.7871C254.102 80.7871 254.647 81.9161 254.647 83.3107Z" fill="#5D696F"/>
<path opacity="0.2" d="M201.889 248.688C231.232 248.688 255.019 243.092 255.019 236.189C255.019 229.286 231.232 223.69 201.889 223.69C172.547 223.69 148.76 229.286 148.76 236.189C148.76 243.092 172.547 248.688 201.889 248.688Z" fill="white"/>
<path d="M195.429 70.9575C195.429 70.9575 191.192 70.5723 190.78 66.7204C190.368 62.8686 200.416 58.0471 206.772 57.8545C213.127 57.6619 219.297 64.6019 219.297 70.1871C219.297 75.7723 220.26 83.6753 225.082 85.2226C229.903 86.77 233.17 96.2005 230.282 99.6738C227.393 103.147 227.585 103.14 230.474 106.222C233.363 109.303 230.859 114.703 228.933 115.858C227.007 117.014 221.223 118.747 208.313 117.592C195.402 116.436 187.725 104.681 187.114 99.8664C186.503 95.0515 190.973 91.7708 192.513 89.6523C194.054 87.5338 191.358 85.8004 191.55 83.4827C191.743 81.1649 194.632 79.2456 195.402 77.3197C196.173 75.3938 195.429 70.9575 195.429 70.9575Z" fill="#5D696F" stroke="#5D696F" stroke-linecap="round" stroke-linejoin="round"/>
<path d="M204.567 65.5127C205.549 71.0136 208.265 76.0562 212.317 79.904C219.177 86.5452 229.345 92.7414 228.681 97.3902C228.017 102.039 226.024 101.594 226.024 101.594" stroke="white" stroke-linecap="round" stroke-linejoin="round"/>
<path d="M205.231 62.4102C205.231 62.4102 200.808 65.9565 196.379 67.059C191.949 68.1614 190.827 66.7203 190.827 66.7203" stroke="white" stroke-linecap="round" stroke-linejoin="round"/>
<path d="M175.193 229.435C175.193 229.435 178.062 233.201 181.277 234.974C184.491 236.747 190.242 235.525 188.582 231.321C186.922 227.118 184.265 224.899 182.273 224.122C180.28 223.345 175.094 225.338 175.193 229.435Z" fill="#D1BBA4" stroke="#5D696F" stroke-linecap="round" stroke-linejoin="round"/>
<path d="M179.283 233.532V233.632C179.909 234.13 180.575 234.574 181.275 234.96C184.483 236.727 190.241 235.511 188.581 231.308C183.374 228.107 179.283 233.532 179.283 233.532Z" fill="white" stroke="#5D696F" stroke-linecap="round" stroke-linejoin="round"/>
<path d="M181.275 234.975C184.284 236.635 189.524 235.639 188.806 232.079C188.048 232.931 187.045 233.527 185.935 233.788C184.825 234.048 183.661 233.959 182.604 233.534C179.403 232.358 176.66 229.137 175.524 227.656C175.292 228.22 175.179 228.826 175.192 229.436C175.192 229.436 178.061 233.202 181.275 234.975Z" fill="white" stroke="#5D696F" stroke-linecap="round" stroke-linejoin="round"/>
<path d="M223.302 229.288C223.302 229.288 220.433 233.054 217.225 234.827C214.018 236.6 208.26 235.378 209.92 231.174C211.58 226.971 214.237 224.752 216.229 223.982C218.221 223.212 223.402 225.191 223.302 229.288Z" fill="#D1BBA4" stroke="#5D696F" stroke-linecap="round" stroke-linejoin="round"/>
<path d="M219.218 233.387L219.185 233.493C218.57 233.99 217.915 234.435 217.226 234.821C214.011 236.595 208.26 235.373 209.92 231.169C215.12 227.968 219.218 233.387 219.218 233.387Z" fill="white" stroke="#5D696F" stroke-linecap="round" stroke-linejoin="round"/>
<path d="M217.224 234.861C214.215 236.521 208.969 235.558 209.693 231.965C210.451 232.817 211.453 233.415 212.564 233.675C213.674 233.935 214.838 233.846 215.896 233.42C219.09 232.244 221.839 229.023 222.975 227.549C223.201 228.112 223.312 228.715 223.3 229.322C223.3 229.322 220.432 233.054 217.224 234.861Z" fill="white" stroke="#5D696F" stroke-linecap="round" stroke-linejoin="round"/>
<path d="M200.828 84.9569C200.828 84.9569 200.058 91.3192 199.5 92.6673C198.942 94.0155 191.789 94.4006 188.708 95.5562C185.627 96.7118 179.072 102.297 175.021 106.182C170.97 110.067 167.317 120.248 167.317 121.596C167.317 122.944 171.361 117.744 175.021 114.085C178.68 110.426 186.775 105.797 186.775 105.797C186.775 105.797 189.678 120.135 190.063 121.676C190.448 123.217 190.063 125.787 190.063 126.364C190.063 126.942 181.967 140.975 180.619 152.763C179.271 164.551 181.775 186.872 181.775 186.872C181.775 186.872 177.345 195.545 176.96 205.182C176.575 214.818 174.449 226.187 174.642 226.958C174.835 227.728 174.257 229.269 175.22 229.462C176.183 229.654 176.96 226.958 179.271 226.38C181.582 225.802 184.664 227.343 185.049 225.802C185.434 224.262 185.049 221.153 185.434 217.129C185.819 213.104 192.181 196.508 192.567 190.923C192.952 185.338 197.574 157.97 198.544 156.621L199.513 155.293C199.513 155.293 200.476 152.976 201.054 155.486C201.632 157.996 201.054 182.847 202.209 186.507C203.365 190.166 212.47 214.751 213.626 217.647C214.781 220.542 212.297 224.003 213.048 225.543C213.798 227.084 215.937 226.506 217.863 226.506C219.789 226.506 221.794 229.335 223.335 229.335C224.876 229.335 225.38 227.084 225.38 224.58C225.38 222.077 218.553 197.67 218.168 191.693C217.942 188.103 217.362 184.544 216.435 181.068C216.435 181.068 218.938 153.507 218.361 147.536C217.783 141.566 212.775 126.338 212.775 126.338L216.242 107.311C216.242 107.311 226.868 113.288 230.501 118.103C234.133 122.918 236.67 122.752 236.285 118.873C235.9 114.995 226.841 103.652 222.02 98.6377C217.199 93.6236 210.65 94.5932 208.738 93.2451C206.825 91.8969 207.967 78.5947 207.967 78.5947L200.828 84.9569Z" fill="white" stroke="#5D696F" stroke-linecap="round" stroke-linejoin="round"/>
<path d="M213.014 225.497C213.785 227.038 215.903 226.46 217.829 226.46C219.755 226.46 221.761 229.289 223.302 229.289C224.842 229.289 225.347 227.038 225.347 224.534C225.347 222.03 218.553 197.67 218.168 191.693C217.942 188.103 217.361 184.544 216.435 181.068C216.435 181.068 218.938 153.507 218.361 147.536C218.228 146.374 218.037 145.22 217.789 144.076L183.654 140.756C182.184 144.612 181.157 148.622 180.592 152.71C179.264 164.465 181.748 186.819 181.748 186.819C181.748 186.819 177.318 195.492 176.933 205.128C176.548 214.765 174.423 226.134 174.615 226.905C174.808 227.675 174.23 229.216 175.193 229.408C176.156 229.601 176.933 226.905 179.244 226.327C181.555 225.749 184.637 227.29 185.022 225.749C185.407 224.208 185.022 221.1 185.407 217.076C185.792 213.051 192.155 196.455 192.54 190.87C192.925 185.285 197.547 157.917 198.517 156.568L199.486 155.24C199.486 155.24 200.449 152.922 201.027 155.433C201.605 157.943 201.027 182.794 202.183 186.454C203.338 190.113 212.443 214.698 213.599 217.594C214.754 220.489 212.244 223.956 213.014 225.497Z" fill="#5D696F" stroke="#5D696F" stroke-linecap="round" stroke-linejoin="round"/>
<path d="M222.02 98.6376C217.205 93.6302 210.651 94.5931 208.738 93.245C207.337 92.2621 207.569 84.9236 207.801 81.0253L206.56 79.8564L200.842 84.9568C200.842 84.9568 200.071 91.3191 199.513 92.6672C198.955 94.0154 191.803 94.4005 188.721 95.5561C185.64 96.7117 179.304 102.111 175.247 105.956L179.231 110.605C182.851 108.002 186.782 105.757 186.782 105.757C186.782 105.757 189.684 120.095 190.07 121.636C190.455 123.177 190.07 125.747 190.07 126.325C190.07 126.75 185.653 134.54 182.804 143.313C188.33 145.856 199.208 148.745 218.261 146.454C217.278 139.919 212.809 126.325 212.809 126.325L216.276 107.298C216.276 107.298 219.596 109.177 223.182 111.674L228.688 106.361C226.304 103.366 223.86 100.544 222.02 98.6376Z" fill="white" stroke="#5D696F" stroke-linecap="round" stroke-linejoin="round"/>
<path d="M212.636 94.2478C210.889 93.9423 209.468 93.763 208.724 93.245C207.323 92.2621 207.556 84.9236 207.788 81.0253L206.559 79.8564L200.841 84.9568C200.841 84.9568 200.071 91.3191 199.513 92.6672C199.287 93.1852 198.085 93.5638 196.518 93.8958C197.8 97.7477 200.616 104.641 204.315 104.641C208.014 104.641 211.056 98.1461 212.636 94.2478Z" fill="white"/>
<path d="M207.749 81.7295C207.056 81.7926 206.369 81.9148 205.697 82.0948C204.364 82.5952 203.088 83.2364 201.891 84.0074L200.829 84.9571C200.829 84.9571 200.51 87.5471 200.165 89.7719C201.493 89.2938 205.351 87.7796 207.642 85.5946C207.636 84.2199 207.689 82.8718 207.749 81.7295Z" fill="#D1BBA4"/>
<path opacity="0.5" d="M207.749 81.7295C207.056 81.7926 206.369 81.9148 205.697 82.0948C204.364 82.5952 203.088 83.2364 201.891 84.0074L200.829 84.9571C200.829 84.9571 200.51 87.5471 200.165 89.7719C201.493 89.2938 205.351 87.7796 207.642 85.5946C207.636 84.2199 207.689 82.8718 207.749 81.7295Z" fill="white"/>
<path d="M212.636 94.2478C210.889 93.9423 209.468 93.763 208.724 93.245C207.323 92.2621 207.556 84.9236 207.788 81.0253L206.559 79.8564L200.841 84.9568C200.841 84.9568 200.071 91.3191 199.513 92.6672C199.287 93.1852 198.085 93.5638 196.518 93.8958C197.8 97.7477 200.616 104.641 204.315 104.641C208.014 104.641 211.056 98.1461 212.636 94.2478Z" stroke="#5D696F" stroke-linecap="round" stroke-linejoin="round"/>
<path d="M207.371 180.092C228.253 176.717 242.446 157.052 239.071 136.17C235.696 115.287 216.031 101.094 195.149 104.469C174.266 107.844 160.073 127.509 163.448 148.391C166.823 169.274 186.488 183.467 207.371 180.092Z" fill="#D1BBA4"/>
<path opacity="0.3" d="M212.794 174.161C204.823 174.168 197.05 171.681 190.564 167.048C184.077 162.415 179.204 155.869 176.625 148.326C174.047 140.784 173.893 132.624 176.186 124.99C178.479 117.356 183.103 110.63 189.411 105.757C184.023 107.344 179.052 110.1 174.851 113.828C170.651 117.556 167.324 122.165 165.108 127.326C162.893 132.486 161.842 138.072 162.032 143.686C162.222 149.299 163.648 154.801 166.208 159.8C168.768 164.799 172.398 169.172 176.841 172.608C181.285 176.043 186.431 178.457 191.913 179.676C197.396 180.895 203.08 180.89 208.56 179.661C214.04 178.432 219.182 176.01 223.619 172.567C220.107 173.617 216.46 174.154 212.794 174.161Z" fill="black"/>
<path d="M207.371 180.092C228.253 176.717 242.446 157.052 239.071 136.17C235.696 115.287 216.031 101.094 195.149 104.469C174.266 107.844 160.073 127.509 163.448 148.391C166.823 169.274 186.488 183.467 207.371 180.092Z" stroke="#5D696F" stroke-width="1.00285" stroke-linecap="round" stroke-linejoin="round"/>
<path d="M173.439 128.277C173.079 128.273 172.732 128.138 172.465 127.896C172.198 127.655 172.028 127.324 171.988 126.966C171.948 126.608 172.041 126.248 172.248 125.954C172.455 125.659 172.763 125.451 173.113 125.368L183.646 122.944L177.563 121.038C177.378 120.98 177.206 120.887 177.057 120.763C176.909 120.639 176.786 120.487 176.696 120.315C176.606 120.144 176.55 119.957 176.533 119.764C176.515 119.571 176.536 119.376 176.593 119.192C176.651 119.007 176.744 118.835 176.868 118.686C176.992 118.537 177.144 118.414 177.316 118.324C177.487 118.234 177.675 118.179 177.867 118.161C178.06 118.144 178.255 118.164 178.44 118.222L189.729 121.748C190.041 121.843 190.312 122.038 190.501 122.303C190.69 122.568 190.786 122.889 190.774 123.214C190.762 123.539 190.642 123.851 190.434 124.101C190.226 124.352 189.941 124.526 189.623 124.597L173.777 128.237C173.666 128.263 173.553 128.277 173.439 128.277Z" fill="#5D696F"/>
<path d="M226.237 128.277C226.121 128.277 226.005 128.263 225.892 128.237L210.776 124.618C210.461 124.542 210.179 124.364 209.975 124.112C209.771 123.86 209.656 123.547 209.647 123.223C209.641 122.899 209.74 122.581 209.931 122.318C210.121 122.056 210.393 121.863 210.703 121.769L222.558 118.242C222.933 118.131 223.337 118.174 223.68 118.361C224.024 118.548 224.28 118.863 224.391 119.238C224.502 119.614 224.459 120.017 224.272 120.361C224.085 120.705 223.77 120.96 223.394 121.071L216.8 123.064L226.582 125.421C226.934 125.505 227.243 125.715 227.45 126.011C227.658 126.308 227.748 126.67 227.706 127.03C227.663 127.389 227.49 127.72 227.219 127.96C226.948 128.199 226.599 128.331 226.237 128.33V128.277Z" fill="#5D696F"/>
<path d="M171.061 134.514C174.913 151.051 186.515 163.071 200.236 163.071C213.956 163.071 225.565 151.057 229.417 134.514L224.35 133.671C208.153 130.961 191.616 130.995 175.431 133.77L171.061 134.514Z" fill="#5D696F"/>
<path d="M220.128 151.846C215.094 148.526 208.174 146.44 200.477 146.44C192.653 146.44 185.6 148.592 180.553 152.052C185.866 158.029 192.733 161.642 200.244 161.642C207.755 161.642 214.782 157.923 220.128 151.846Z" fill="#B5B5B5"/>
<path d="M195.27 68.8329C194.55 70.9972 193.714 73.121 192.766 75.1951C191.61 77.5062 193.344 84.6322 194.692 86.7573C196.04 88.8825 198.544 88.4907 199.513 88.2981C200.483 88.1055 204.713 85.4092 206.254 83.8618L208.565 81.5507C208.565 81.5507 209.336 81.5507 210.106 80.0099C210.876 78.4692 207.795 75.0025 205.098 70.7588C202.402 66.5151 201.247 66.7144 201.247 66.7144L195.27 68.8329Z" fill="white" stroke="#5D696F" stroke-linecap="round" stroke-linejoin="round"/>
<path d="M197.122 73.7607C197.122 73.7607 195.13 76.6629 195.01 77.0813C194.891 77.4997 196.598 78.1306 196.598 78.1306" stroke="#5D696F" stroke-linecap="round" stroke-linejoin="round"/>
<path d="M200.417 73.7597C200.417 73.7597 202.263 72.8365 203.319 75.0879" stroke="#5D696F" stroke-linecap="round" stroke-linejoin="round"/>
<path d="M196.198 73.2282C196.076 73.0489 195.914 72.9 195.725 72.793C195.536 72.686 195.325 72.6237 195.108 72.6109C194.891 72.5981 194.675 72.6351 194.474 72.719C194.274 72.803 194.096 72.9318 193.953 73.0954" stroke="#5D696F" stroke-linecap="round" stroke-linejoin="round"/>
<path d="M201.338 70.4585C201.338 70.4585 203.331 69.9338 204.373 72.9688" stroke="#5D696F" stroke-linecap="round" stroke-linejoin="round"/>
<path d="M197.381 70.8579C197.163 70.6772 196.904 70.5523 196.626 70.4942C196.349 70.436 196.061 70.4463 195.788 70.5241C195.516 70.6019 195.266 70.7449 195.061 70.9407C194.856 71.1366 194.702 71.3794 194.612 71.6482" stroke="#5D696F" stroke-linecap="round" stroke-linejoin="round"/>
<path d="M195.409 79.9573C195.409 79.9573 197.78 80.8804 200.815 79.167C200.815 79.167 199.234 81.5445 197.381 81.8234C195.528 82.1024 195.409 79.9573 195.409 79.9573Z" fill="#5D696F"/>
<path d="M173.944 107.385C173.944 107.385 165.602 114.391 164.267 118.901C162.933 123.41 163.929 133.757 163.763 136.925C163.597 140.092 165.755 143.599 166.771 144.27C167.787 144.94 167.94 143.765 167.767 142.596C167.595 141.427 167.601 135.424 167.601 135.424C167.601 135.424 169.102 139.76 169.275 138.93C169.447 138.1 169.441 136.592 168.77 134.281C168.099 131.97 166.432 128.61 166.598 127.939C166.764 127.268 172.111 117.26 172.941 114.086" fill="white"/>
<path d="M173.944 107.385C173.944 107.385 165.602 114.391 164.267 118.901C162.933 123.41 163.929 133.757 163.763 136.925C163.597 140.092 165.755 143.599 166.771 144.27C167.787 144.94 167.94 143.765 167.767 142.596C167.595 141.427 167.601 135.424 167.601 135.424C167.601 135.424 169.102 139.76 169.275 138.93C169.447 138.1 169.441 136.592 168.77 134.281C168.099 131.97 166.432 128.61 166.598 127.939C166.764 127.268 172.111 117.26 172.941 114.086" stroke="#5D696F" stroke-linecap="round" stroke-linejoin="round"/>
<path d="M167.216 144.209C166.485 142.059 165.954 139.847 165.629 137.601" stroke="#5D696F" stroke-linecap="round" stroke-linejoin="round"/>
<path d="M166.047 143.412C165.247 141.64 164.669 139.775 164.327 137.86" stroke="#5D696F" stroke-linecap="round" stroke-linejoin="round"/>
<path d="M228.979 107.385C228.979 107.385 237.327 114.391 238.662 118.901C239.996 123.41 238.994 133.757 239.16 136.925C239.326 140.092 237.167 143.599 236.158 144.27C235.148 144.94 234.989 143.765 235.155 142.596C235.321 141.427 235.321 135.424 235.321 135.424C235.321 135.424 233.82 139.76 233.654 138.93C233.488 138.1 233.488 136.592 234.152 134.281C234.816 131.97 236.49 128.61 236.324 127.939C236.158 127.268 230.818 117.26 229.982 114.086" fill="white"/>
<path d="M228.979 107.385C228.979 107.385 237.327 114.391 238.662 118.901C239.996 123.41 238.994 133.757 239.16 136.925C239.326 140.092 237.167 143.599 236.158 144.27C235.148 144.94 234.989 143.765 235.155 142.596C235.321 141.427 235.321 135.424 235.321 135.424C235.321 135.424 233.82 139.76 233.654 138.93C233.488 138.1 233.488 136.592 234.152 134.281C234.816 131.97 236.49 128.61 236.324 127.939C236.158 127.268 230.818 117.26 229.982 114.086" stroke="#5D696F" stroke-linecap="round" stroke-linejoin="round"/>
<path d="M235.661 143.943C236.24 141.692 236.594 139.39 236.717 137.069" stroke="#5D696F" stroke-linecap="round" stroke-linejoin="round"/>
<path d="M236.85 143.811C236.85 143.811 238.437 139.448 238.437 137.734" stroke="#5D696F" stroke-linecap="round" stroke-linejoin="round"/>
<path opacity="0.2" d="M83.6108 249C113.687 249 138.068 243.265 138.068 236.19C138.068 229.114 113.687 223.379 83.6108 223.379C53.5348 223.379 29.1534 229.114 29.1534 236.19C29.1534 243.265 53.5348 249 83.6108 249Z" fill="white"/>
<path d="M60.7254 227.277C60.7254 227.277 52.6498 231.541 51.1556 233.719C49.6613 235.897 51.6603 237.664 54.6953 237.876C57.7303 238.089 70.2223 233.892 71.3513 233.34C72.4803 232.789 71.6634 229.489 70.8399 227.795C70.0164 226.102 60.7254 227.277 60.7254 227.277Z" fill="#D1BBA4" stroke="#5D696F" stroke-linecap="round" stroke-linejoin="round"/>
<path d="M71.7432 230.649C68.5421 232.051 59.7028 235.83 56.6611 236.215C54.5672 236.402 52.4656 235.953 50.631 234.926C50.4251 236.533 52.2182 237.702 54.6688 237.875C57.7038 238.087 70.1958 233.89 71.3248 233.339C71.949 233.034 71.9822 231.898 71.7432 230.649Z" fill="white" stroke="#5D696F" stroke-linecap="round" stroke-linejoin="round"/>
<path d="M99.8416 227.277C99.8416 227.277 107.917 231.521 109.438 233.719C110.959 235.917 108.933 237.664 105.898 237.876C102.863 238.089 90.3714 233.892 89.2424 233.34C88.1134 232.789 88.9302 229.489 89.7471 227.795C90.564 226.102 99.8416 227.277 99.8416 227.277Z" fill="#D1BBA4" stroke="#5D696F" stroke-linecap="round" stroke-linejoin="round"/>
<path d="M88.824 230.649C92.025 232.051 100.858 235.83 103.906 236.215C106 236.402 108.102 235.953 109.936 234.926C110.142 236.533 108.349 237.702 105.898 237.875C102.863 238.087 90.3714 233.89 89.2424 233.339C88.6181 233.034 88.5849 231.898 88.824 230.649Z" fill="white" stroke="#5D696F" stroke-linecap="round" stroke-linejoin="round"/>
<path d="M64.7234 144.176C64.7234 144.176 57.3716 175.987 56.3489 180.529C55.3261 185.072 54.5757 190.179 55.7711 193.234C56.9665 196.289 60.7984 226.267 60.7984 226.267L71.8095 229.269C71.8095 229.269 71.9489 210.009 71.577 202.439C71.2051 194.868 70.7867 185.298 70.7867 185.298L82.4951 156.136L84.421 158.693L93.1806 184.839L88.0271 228.671L98.5002 225.928C98.5002 225.928 107.499 198.035 108.96 192.264C110.421 186.493 111.132 182.568 109.989 179.905C108.847 177.242 101.429 147.523 101.429 147.523L64.7234 144.176Z" fill="#5D696F" stroke="#5D696F" stroke-linecap="round" stroke-linejoin="round"/>
<path d="M88.1467 164.306C88.1467 164.306 93.9046 183.884 95.7243 184.681C97.5439 185.478 101.329 184.09 98.4604 186.009C95.5914 187.928 95.804 186.142 95.5981 187.935C95.3922 189.728 91.5603 221.645 91.5603 221.645" stroke="white" stroke-linecap="round" stroke-linejoin="round"/>
<path d="M70.8932 212.348L71.1721 214.719" stroke="white" stroke-linecap="round" stroke-linejoin="round"/>
<path d="M77.0561 166.404C74.652 172.873 70.7005 182.894 68.9672 183.977C66.3771 185.597 63.1429 186.062 64.9426 186.56C66.7424 187.058 67.951 187.297 67.951 187.297L70.4548 208.808" stroke="white" stroke-linecap="round" stroke-linejoin="round"/>
<path d="M79.0483 160.919C79.0483 160.919 78.7827 161.683 78.3311 162.911" stroke="white" stroke-linecap="round" stroke-linejoin="round"/>
<path d="M86.9646 92.422C86.9646 92.422 69.1465 89.4866 61.9674 88.2049C54.7883 86.9231 48.6187 85.7012 48.6187 85.7012L45.4907 95.7227C45.4907 95.7227 59.736 100.518 63.4882 101.64C67.2405 102.762 68.7214 103.373 68.7214 103.373C68.7214 103.373 69.2129 127.567 67.6721 132.774C66.1314 137.98 62.6647 148.453 62.6647 148.453L81.0408 158.734L84.7199 153.049L85.0122 158.422C88.7286 158.159 92.4053 157.491 95.9767 156.429C98.879 155.525 101.667 154.289 104.285 152.743L100.161 134.626L105.786 111.256C105.786 111.256 134.13 105.625 134.303 103.798C134.475 101.972 130.404 95.2777 130.404 95.2777L91.992 92.774L86.9646 92.422Z" fill="white" stroke="#5D696F" stroke-linecap="round" stroke-linejoin="round"/>
<path d="M80.7351 91.1729L79.9514 102.642L89.3619 98.9563L99.3635 106.667L99.0447 91.5979L80.7351 91.1729Z" fill="white" stroke="#5D696F" stroke-linecap="round" stroke-linejoin="round"/>
<path d="M88.7644 108.028L85.0719 151.953" stroke="#5D696F" stroke-linecap="round" stroke-linejoin="round"/>
<path d="M110.255 101.879L105.812 111.256L115.329 101.068" stroke="#5D696F" stroke-linecap="round" stroke-linejoin="round"/>
<path d="M65.7527 96.1338L68.7213 103.373L61.4293 93.8027" stroke="#5D696F" stroke-linecap="round" stroke-linejoin="round"/>
<path d="M85.0254 92.0771L88.7444 108.016L95.3856 92.9803L91.9853 92.7612L86.9314 92.4092L85.0254 92.0771Z" fill="white"/>
<path d="M85.0254 92.0771L88.7444 108.016L95.3856 92.9803L91.9853 92.7612L86.9314 92.4092L85.0254 92.0771Z" fill="#D1BBA4"/>
<path opacity="0.5" d="M85.0254 92.0771L88.7444 108.016L95.3856 92.9803L91.9853 92.7612L86.9314 92.4092L85.0254 92.0771Z" fill="white"/>
<path d="M85.0254 92.0771L88.7444 108.016L95.3856 92.9803L91.9853 92.7612L86.9314 92.4092L85.0254 92.0771Z" stroke="#5D696F" stroke-linecap="round" stroke-linejoin="round"/>
<path d="M141.349 100.152C141.349 100.152 141.668 102.809 140.2 103.971C138.732 105.133 132.523 107.145 130.783 106.103C129.043 105.06 126.579 99.5347 127.542 95.6563C128.505 91.7778 134.323 93.219 134.323 93.219C134.323 93.219 140.007 95.032 141.349 100.152Z" fill="white" stroke="#5D696F" stroke-linecap="round" stroke-linejoin="round"/>
<path d="M136.089 102.968C134.758 103.005 133.455 102.584 132.397 101.776C131.339 100.967 130.591 99.8194 130.278 98.5252C128.545 91.884 124.301 76.1644 122.714 75.0952C120.668 73.7338 119.101 73.3818 119.128 72.1266L119.26 65.8375C119.26 65.8375 120.17 64.476 120.768 65.7445C121.125 66.448 121.283 67.2355 121.226 68.0224C121.226 68.0224 122.229 65.2065 122.123 64.3299C122.016 63.4533 121.811 61.0492 121.824 60.4249C121.837 59.8006 122.667 59.2428 123.896 60.5245C125.124 61.8063 127.522 64.5623 127.057 65.8773C126.592 67.1922 125.762 73.6474 125.762 73.6474C125.762 73.6474 141.15 96.2273 140.857 98.2197C140.645 99.6674 139.41 102.782 136.089 102.968Z" fill="white" stroke="#5D696F" stroke-linecap="round" stroke-linejoin="round"/>
<path d="M125.676 62.7105C125.676 62.7105 124.58 62.0464 124.633 63.1223C124.726 63.9112 124.95 64.6789 125.297 65.3936L124.54 67.9172" stroke="#5D696F" stroke-linecap="round" stroke-linejoin="round"/>
<path d="M124.872 61.8658C124.872 61.8658 123.903 61.3278 123.61 62.6428C123.464 63.5217 123.594 64.4242 123.982 65.2262L123.398 67.617" stroke="#5D696F" stroke-linecap="round" stroke-linejoin="round"/>
<path d="M123.896 60.5243C123.896 60.5243 122.422 60.3384 122.481 61.5205C122.578 62.5082 122.749 63.4873 122.993 64.4492L122.442 67.5507" stroke="#5D696F" stroke-linecap="round" stroke-linejoin="round"/>
<path d="M132.949 70.1426C141.506 49.0696 131.359 25.0499 110.286 16.493C89.2132 7.93614 65.1935 18.0825 56.6366 39.1555C48.0798 60.2285 58.2261 84.2482 79.2991 92.8051C100.372 101.362 124.392 91.2156 132.949 70.1426Z" fill="#D1BBA4"/>
<path opacity="0.3" d="M66.3835 52.9873C66.7765 43.4552 70.4674 34.3554 76.8255 27.2427C83.1836 20.13 91.8143 15.4458 101.243 13.9906C95.7063 13.1186 90.0501 13.3862 84.6206 14.7769C79.1911 16.1676 74.1027 18.6522 69.6671 22.0784C65.2315 25.5045 61.542 29.8002 58.8248 34.7023C56.1075 39.6043 54.4197 45.0095 53.8646 50.5867C53.3096 56.1639 53.899 61.7957 55.5968 67.1371C57.2946 72.4786 60.0651 77.4172 63.7384 81.6504C67.4117 85.8835 71.9107 89.3222 76.9596 91.7557C82.0085 94.1893 87.501 95.5664 93.1008 95.8028C95.7654 95.9093 98.434 95.7603 101.07 95.3578C91.0996 93.7757 82.0578 88.5857 75.6629 80.7742C69.2679 72.9626 65.9656 63.074 66.3835 52.9873Z" fill="black"/>
<path d="M132.949 70.1426C141.506 49.0696 131.359 25.0499 110.286 16.493C89.2132 7.93614 65.1935 18.0825 56.6366 39.1555C48.0798 60.2285 58.2261 84.2482 79.2991 92.8051C100.372 101.362 124.392 91.2156 132.949 70.1426Z" stroke="#5D696F" stroke-linecap="round" stroke-linejoin="round"/>
<path d="M69.8436 58.3596C69.8436 58.3596 100.067 54.3749 125.078 60.6441C125.078 60.6441 122.734 85.7477 96.6207 85.1699C73.9811 84.6718 69.8436 58.3596 69.8436 58.3596Z" fill="#5D696F"/>
<path d="M97.8826 45.3093C97.3952 45.3132 96.9232 45.1383 96.556 44.8177C96.1889 44.497 95.952 44.0529 95.8903 43.5693C95.2594 38.6615 90.7899 34.9359 85.5035 34.9359C80.7883 34.9359 76.6376 37.9111 75.409 42.1614C75.3362 42.413 75.2145 42.6478 75.0509 42.8524C74.8874 43.057 74.6851 43.2274 74.4557 43.3538C74.2263 43.4802 73.9742 43.5602 73.7139 43.5892C73.4536 43.6182 73.1901 43.5957 72.9385 43.5229C72.6869 43.45 72.4521 43.3284 72.2475 43.1648C72.0429 43.0012 71.8725 42.799 71.7461 42.5696C71.6197 42.3402 71.5397 42.0881 71.5107 41.8278C71.4817 41.5674 71.5042 41.304 71.577 41.0523C73.3037 35.1085 79.0284 30.9512 85.5234 30.9512C92.8287 30.9512 98.9718 36.1445 99.8617 43.0381C99.8952 43.298 99.8771 43.562 99.8084 43.8149C99.7397 44.0679 99.6218 44.3048 99.4614 44.5121C99.301 44.7194 99.1012 44.893 98.8736 45.0229C98.646 45.1529 98.395 45.2367 98.135 45.2695L97.8826 45.3093Z" fill="#5D696F"/>
<path d="M126.865 50.0388C126.346 50.039 125.848 49.8373 125.476 49.4765C125.105 49.1157 124.888 48.6242 124.872 48.1062C124.753 43.7297 121.147 40.077 116.484 39.6122C114.519 39.3766 112.531 39.7812 110.814 40.7659C109.097 41.7506 107.743 43.2627 106.954 45.0778C106.857 45.3207 106.712 45.542 106.529 45.729C106.346 45.916 106.128 46.0651 105.887 46.1678C105.646 46.2705 105.387 46.3247 105.125 46.3274C104.864 46.3301 104.604 46.2813 104.361 46.1836C104.118 46.0859 103.897 45.9413 103.71 45.7581C103.523 45.575 103.374 45.3567 103.271 45.1159C103.168 44.8751 103.114 44.6164 103.111 44.3546C103.109 44.0928 103.158 43.8331 103.255 43.5902C105.374 38.3171 110.972 35.0563 116.883 35.6208C123.524 36.285 128.678 41.5979 128.837 47.9667C128.851 48.4941 128.656 49.0055 128.294 49.389C127.931 49.7724 127.432 49.9966 126.904 50.0122L126.865 50.0388Z" fill="#5D696F"/>
<path d="M73.782 59.1294C74.0211 60.119 75.8474 65.578 86.5197 66.0163C98.2612 66.5011 109.983 67.4242 116.093 67.2383C119.745 67.132 121.492 63.9907 122.309 61.4738C103.82 57.25 83.0331 58.3259 73.782 59.1294Z" fill="white"/>
<path d="M104.437 83.1576C104.437 77.2536 98.1084 72.2595 90.0659 71.9274C86.0313 71.6905 82.0399 72.8645 78.776 75.248C81.023 77.9118 83.8215 80.0562 86.978 81.533C90.1346 83.0098 93.5741 83.7839 97.0591 83.8018C99.5348 83.8605 102.009 83.6444 104.437 83.1576Z" fill="#B5B5B5"/>
<path d="M59.5433 227.43L72.6994 231.561L72.8056 226.135L59.012 223.286L59.5433 227.43Z" fill="white" stroke="#5D696F" stroke-linecap="round" stroke-linejoin="round"/>
<path d="M86.566 228.234L88.1865 233.035L101.143 227.769L100.167 223.286L86.566 228.234Z" fill="white" stroke="#5D696F" stroke-linecap="round" stroke-linejoin="round"/>
<path d="M38.2718 89.4189C38.2718 89.4189 37.3885 91.9359 38.5773 93.4035C39.766 94.8712 45.3977 98.1453 47.3237 97.5011C49.2496 96.8569 52.8292 91.9823 52.7229 87.991C52.6166 83.9997 46.6197 84.1591 46.6197 84.1591C46.6197 84.1591 40.6759 84.7103 38.2718 89.4189Z" fill="white" stroke="#5D696F" stroke-linecap="round" stroke-linejoin="round"/>
<path d="M41.4462 92.9258C42.7402 93.252 44.1072 93.1224 45.3168 92.5587C46.5264 91.995 47.5048 91.0317 48.0873 89.831C51.202 83.6813 58.6733 69.2435 60.4731 68.5462C62.7643 67.6563 64.3714 67.6496 64.6105 66.4144C64.8496 65.1791 65.8258 60.2448 65.8258 60.2448C65.8258 60.2448 65.2281 58.7173 64.3714 59.833C63.8714 60.442 63.5496 61.1776 63.4417 61.9582C63.4417 61.9582 63.0631 58.9962 63.3553 58.1594C63.6475 57.3226 64.3581 55.0248 64.4777 54.4072C64.5972 53.7896 63.9065 53.079 62.4322 54.0685C60.9579 55.058 58.0225 57.2363 58.2018 58.6177C58.3811 59.999 57.8033 66.4874 57.8033 66.4874C57.8033 66.4874 37.9596 85.2619 37.8135 87.2875C37.694 88.7552 38.2385 92.0359 41.4462 92.9258Z" fill="white" stroke="#5D696F" stroke-linecap="round" stroke-linejoin="round"/>
<path d="M62.4455 54.0684C62.4455 54.0684 60.8848 57.8405 60.938 58.7172C60.9911 59.5938 60.8915 61.4599 60.8915 61.4599" stroke="#5D696F" stroke-linecap="round" stroke-linejoin="round"/>
<path d="M60.3402 55.6104C59.9872 56.6521 59.7075 57.7173 59.5034 58.7981C59.5034 59.5153 59.4237 61.4546 59.4237 61.4546" stroke="#5D696F" stroke-linecap="round" stroke-linejoin="round"/>
</g>
</svg>
