<svg width="270" height="249" viewBox="0 0 270 249" fill="none" xmlns="http://www.w3.org/2000/svg">
<g opacity="0.8">
<path d="M228.751 93.7943L237.075 92.8161L238.338 83.5962L230.52 80.3981C230.36 77.383 229.834 74.3987 228.952 71.5112L235.327 65.8572L231.075 57.5808L222.701 59.5164C219.545 55.4685 215.577 52.1249 211.053 49.6999L211.601 41.0073L202.728 38.1629L198.094 45.5998C195.177 45.2462 192.228 45.2462 189.311 45.5998L184.739 38.0797L175.846 40.8546L176.317 49.6513C173.727 51.0161 171.307 52.6835 169.109 54.6185L161.041 51.0804L155.338 58.4341L160.743 65.3369C159.787 67.1739 158.989 69.0885 158.356 71.0603C158.086 71.8928 157.857 72.7391 157.663 73.5786L149.095 75.299L148.637 84.5952L156.899 87.1343C157.285 90.0893 158.026 92.987 159.106 95.7645L153.188 102.008L158.148 109.889L166.237 107.288C168.27 109.523 170.57 111.501 173.084 113.177L171.857 121.502L180.438 125.11L185.509 118.45C188.49 119.124 191.543 119.423 194.597 119.338L198.351 126.789L207.446 124.825L207.786 116.501C210.617 115.324 213.292 113.803 215.75 111.97L223.083 115.911L229.403 109.084L224.914 102.071C226.528 99.48 227.817 96.7003 228.751 93.7943ZM215.694 89.4306C214.292 93.8059 211.624 97.6672 208.027 100.526C204.431 103.385 200.067 105.114 195.488 105.493C190.909 105.873 186.321 104.886 182.303 102.658C178.285 100.43 175.017 97.0609 172.914 92.9761C170.81 88.8914 169.965 84.2746 170.485 79.7096C171.005 75.1446 172.867 70.8363 175.835 67.3293C178.804 63.8223 182.745 61.2742 187.162 60.007C191.578 58.7398 196.271 58.8105 200.647 60.2101C203.554 61.1399 206.25 62.6334 208.579 64.6054C210.909 66.5773 212.828 68.989 214.225 71.7026C215.622 74.4162 216.471 77.3786 216.723 80.4204C216.976 83.4623 216.626 86.524 215.694 89.4306Z" fill="#D1BBA4"/>
<path d="M52.1857 94.5159L55.3145 94.1482L55.7863 90.6795L52.8517 89.4793C52.7897 88.3451 52.5917 87.2225 52.262 86.1355L54.6554 84.0126L53.0598 80.9046L49.9102 81.5984C48.7208 80.0789 47.2275 78.8243 45.5258 77.9146L45.727 74.6471L42.4039 73.5787L40.6557 76.3537C39.5612 76.2219 38.4549 76.2219 37.3604 76.3537L35.6399 73.5301L32.303 74.5638L32.4764 77.873C31.505 78.3876 30.597 79.0139 29.7708 79.7391L26.7392 78.4071L24.5955 81.1821L26.6282 83.7767C26.2673 84.4668 25.9656 85.1863 25.7263 85.9273C25.6292 86.2395 25.5459 86.5586 25.4627 86.8778L22.2437 87.5229L22.0772 90.9917L25.1297 91.9907C25.2733 93.1029 25.5529 94.1933 25.9622 95.2374L23.7422 97.5822L25.6014 100.538L28.647 99.5664C29.4111 100.407 30.2755 101.15 31.2208 101.779L30.756 104.915L33.9819 106.303L35.8827 103.798C37.002 104.052 38.1487 104.164 39.2959 104.131L40.6834 106.906L44.0967 106.164L44.2285 103.042C45.2918 102.602 46.2962 102.031 47.2185 101.342L49.9935 102.82L52.373 100.253L50.6803 97.6239C51.3068 96.6531 51.8124 95.6093 52.1857 94.5159ZM47.2809 92.8787C46.7536 94.5239 45.7502 95.9757 44.3976 97.0506C43.0451 98.1255 41.4041 98.7751 39.6823 98.9173C37.9605 99.0595 36.2352 98.6879 34.7246 97.8494C33.2141 97.0109 31.9861 95.7433 31.196 94.2069C30.406 92.6704 30.0893 90.9342 30.2861 89.2178C30.4829 87.5013 31.1843 85.8818 32.3017 84.5641C33.419 83.2464 34.902 82.2896 36.5631 81.8148C38.2243 81.34 39.9889 81.3685 41.6339 81.8967C43.8324 82.6119 45.6581 84.1691 46.7113 86.2273C47.7644 88.2855 47.9593 90.6771 47.2532 92.8787H47.2809Z" fill="#D1BBA4"/>
<path opacity="0.5" d="M228.751 93.7943L237.075 92.8161L238.338 83.5962L230.52 80.3981C230.36 77.383 229.834 74.3987 228.952 71.5112L235.327 65.8572L231.075 57.5808L222.701 59.5164C219.545 55.4685 215.577 52.1249 211.053 49.6999L211.601 41.0073L202.728 38.1629L198.094 45.5998C195.177 45.2462 192.228 45.2462 189.311 45.5998L184.739 38.0797L175.846 40.8546L176.317 49.6513C173.727 51.0161 171.307 52.6835 169.109 54.6185L161.041 51.0804L155.338 58.4341L160.743 65.3369C159.787 67.1739 158.989 69.0885 158.356 71.0603C158.086 71.8928 157.857 72.7391 157.663 73.5786L149.095 75.299L148.637 84.5952L156.899 87.1343C157.285 90.0893 158.026 92.987 159.106 95.7645L153.188 102.008L158.148 109.889L166.237 107.288C168.27 109.523 170.57 111.501 173.084 113.177L171.857 121.502L180.438 125.11L185.509 118.45C188.49 119.124 191.543 119.423 194.597 119.338L198.351 126.789L207.446 124.825L207.786 116.501C210.617 115.324 213.292 113.803 215.75 111.97L223.083 115.911L229.403 109.084L224.914 102.071C226.528 99.48 227.817 96.7003 228.751 93.7943ZM215.694 89.4306C214.292 93.8059 211.624 97.6672 208.027 100.526C204.431 103.385 200.067 105.114 195.488 105.493C190.909 105.873 186.321 104.886 182.303 102.658C178.285 100.43 175.017 97.0609 172.914 92.9761C170.81 88.8914 169.965 84.2746 170.485 79.7096C171.005 75.1446 172.867 70.8363 175.835 67.3293C178.804 63.8223 182.745 61.2742 187.162 60.007C191.578 58.7398 196.271 58.8105 200.647 60.2101C203.554 61.1399 206.25 62.6334 208.579 64.6054C210.909 66.5773 212.828 68.989 214.225 71.7026C215.622 74.4162 216.471 77.3786 216.723 80.4204C216.976 83.4623 216.626 86.524 215.694 89.4306Z" fill="white"/>
<path opacity="0.5" d="M52.1857 94.5159L55.3145 94.1482L55.7863 90.6795L52.8517 89.4793C52.7897 88.3451 52.5917 87.2225 52.262 86.1355L54.6554 84.0126L53.0598 80.9046L49.9102 81.5984C48.7208 80.0789 47.2275 78.8243 45.5258 77.9146L45.727 74.6471L42.4039 73.5787L40.6557 76.3537C39.5612 76.2219 38.4549 76.2219 37.3604 76.3537L35.6399 73.5301L32.303 74.5638L32.4764 77.873C31.505 78.3876 30.597 79.0139 29.7708 79.7391L26.7392 78.4071L24.5955 81.1821L26.6282 83.7767C26.2673 84.4668 25.9656 85.1863 25.7263 85.9273C25.6292 86.2395 25.5459 86.5586 25.4627 86.8778L22.2437 87.5229L22.0772 90.9917L25.1297 91.9907C25.2733 93.1029 25.5529 94.1933 25.9622 95.2374L23.7422 97.5822L25.6014 100.538L28.647 99.5664C29.4111 100.407 30.2755 101.15 31.2208 101.779L30.756 104.915L33.9819 106.303L35.8827 103.798C37.002 104.052 38.1487 104.164 39.2959 104.131L40.6834 106.906L44.0967 106.164L44.2285 103.042C45.2918 102.602 46.2962 102.031 47.2185 101.342L49.9935 102.82L52.373 100.253L50.6803 97.6239C51.3068 96.6531 51.8124 95.6093 52.1857 94.5159ZM47.2809 92.8787C46.7536 94.5239 45.7502 95.9757 44.3976 97.0506C43.0451 98.1255 41.4041 98.7751 39.6823 98.9173C37.9605 99.0595 36.2352 98.6879 34.7246 97.8494C33.2141 97.0109 31.9861 95.7433 31.196 94.2069C30.406 92.6704 30.0893 90.9342 30.2861 89.2178C30.4829 87.5013 31.1843 85.8818 32.3017 84.5641C33.419 83.2464 34.902 82.2896 36.5631 81.8148C38.2243 81.34 39.9889 81.3685 41.6339 81.8967C43.8324 82.6119 45.6581 84.1691 46.7113 86.2273C47.7644 88.2855 47.9593 90.6771 47.2532 92.8787H47.2809Z" fill="white"/>
<path d="M163.941 29.3525L166.626 28.7143L166.688 25.6549L164.01 24.9056C163.853 23.9249 163.576 22.9672 163.185 22.0543L165.051 19.9731L163.351 17.434L160.687 18.3775C159.508 17.1734 158.09 16.2283 156.525 15.6025L156.372 12.7443L153.368 12.1477L152.085 14.777C151.118 14.7706 150.154 14.8777 149.213 15.0961L147.437 12.8206L144.662 14.0555L145.154 16.9137C144.359 17.4575 143.63 18.0932 142.983 18.8076L140.208 17.9612L138.626 20.5767L140.652 22.6579C140.41 23.2929 140.222 23.9474 140.09 24.6142C140.035 24.8987 139.993 25.1831 139.958 25.4676L137.225 26.3555L137.426 29.408L140.201 29.9214C140.441 30.8738 140.795 31.7938 141.256 32.6617L139.556 34.9233L141.478 37.3098L144.017 36.1512C144.767 36.8039 145.594 37.3629 146.479 37.8162L146.396 40.5912L149.338 41.4445L150.725 39.0719C151.725 39.1821 152.734 39.1635 153.729 39.0164L155.241 41.3127L158.134 40.3206L157.933 37.5942C158.813 37.1023 159.629 36.5034 160.361 35.8113L162.907 36.8172L164.711 34.3475L162.977 32.2246C163.415 31.3104 163.739 30.3458 163.941 29.3525ZM159.508 28.4229C159.215 29.9019 158.49 31.2608 157.425 32.3281C156.36 33.3955 155.002 34.1234 153.524 34.4201C152.046 34.7167 150.513 34.5688 149.118 33.995C147.724 33.4212 146.531 32.4472 145.69 31.1959C144.848 29.9446 144.397 28.4722 144.392 26.9644C144.386 25.4566 144.828 23.9811 145.66 22.7241C146.493 21.467 147.679 20.4848 149.07 19.9013C150.46 19.3179 151.992 19.1594 153.472 19.4458C154.459 19.6368 155.399 20.0208 156.237 20.5759C157.075 21.1309 157.795 21.8461 158.356 22.6802C158.916 23.5144 159.307 24.4511 159.505 25.4366C159.702 26.4221 159.704 27.437 159.508 28.4229Z" fill="#263238"/>
<path d="M57.5547 69.7355C57.5547 69.7355 51.2347 84.1654 52.1851 85.0395C53.1356 85.9137 60.4407 100.108 61.6339 100.156C62.8272 100.205 62.4109 96.4655 62.4109 96.4655L69.4802 89.7848L57.5547 69.7355Z" fill="#263238"/>
<path d="M85.575 60.9941C85.575 60.9941 99.3042 68.7224 99.0753 70.0128C98.8463 71.3031 101.538 87.0164 100.608 87.7726C99.6788 88.5288 97.771 85.289 97.771 85.289L88.1072 84.2068L85.575 60.9941Z" fill="#263238"/>
<path d="M231.866 166.527C224.484 145.478 201.41 177.3 189.672 184.717C177.934 192.133 179.96 152.111 161.471 165.195C142.983 178.279 142.046 215.04 124.606 213.979C117.141 213.521 112.999 189.628 107.859 175.497L83.1614 76.2912L69.9317 82.0978L102.357 179.916C103.946 188.289 113.207 210.621 112.729 215.331C112.091 221.575 97.064 220.833 82.204 216.025C57.2292 207.999 45.8657 164.945 26.0107 159.568C16.555 157.008 11.1438 162.85 7.27963 169.711C8.14913 171.644 9.09262 173.515 10.1101 175.323C29.2228 209.067 60.6425 225.502 107.276 227.257C153.909 229.012 186.724 232.176 226.531 196.073C227.784 194.935 228.991 193.768 230.152 192.57C232.754 184.439 234.675 174.588 231.866 166.527Z" fill="#D1BBA4"/>
<path opacity="0.5" d="M231.866 166.527C224.484 145.478 201.41 177.3 189.672 184.717C177.934 192.133 179.96 152.111 161.471 165.195C142.983 178.279 142.046 215.04 124.606 213.979C117.141 213.521 112.999 189.628 107.859 175.497L83.1614 76.2912L69.9317 82.0978L102.357 179.916C103.946 188.289 113.207 210.621 112.729 215.331C112.091 221.575 97.064 220.833 82.204 216.025C57.2292 207.999 45.8657 164.945 26.0107 159.568C16.555 157.008 11.1438 162.85 7.27963 169.711C8.14913 171.644 9.09262 173.515 10.1101 175.323C29.2228 209.067 60.6425 225.502 107.276 227.257C153.909 229.012 186.724 232.176 226.531 196.073C227.784 194.935 228.991 193.768 230.152 192.57C232.754 184.439 234.675 174.588 231.866 166.527Z" fill="white"/>
<path d="M88.7941 82.4587C88.7941 82.4587 84.6316 38.7528 81.2739 26.6331C77.9162 14.5134 59.6569 -2.57353 53.0871 0.326325C46.5173 3.22618 43.7215 26.2169 45.3657 38.1562C47.0099 50.0956 65.5467 89.8471 71.3673 93.6558C77.1878 97.4644 88.3085 98.5952 88.7941 82.4587Z" fill="white"/>
<path d="M88.7943 82.4585C88.7943 82.4585 88.7943 82.1741 88.718 81.6399C84.3405 96.0143 74.6419 93.6555 68.2942 90.166C69.1216 91.4828 70.1599 92.6547 71.3674 93.6347C77.1602 97.4573 88.3087 98.595 88.7943 82.4585Z" fill="#263238"/>
<path d="M53.0872 0.32631C46.9545 3.03885 44.1171 23.2199 45.0953 35.5893C47.3775 37.4991 50.0299 38.9163 52.886 39.7518C64.0553 43.0124 75.9114 36.8034 80.9688 25.6549C76.9173 13.5976 59.4835 -2.49723 53.0872 0.32631Z" fill="#263238"/>
<path d="M66.9621 10.3787C71.6624 15.151 75.636 20.5879 78.7558 26.5152" stroke="white" stroke-linecap="round" stroke-linejoin="round"/>
<path d="M60.8506 4.71071C60.8506 4.71071 62.0439 5.6542 63.8754 7.36081" stroke="white" stroke-linecap="round" stroke-linejoin="round"/>
<path d="M86.5949 79.9684L86.8655 82.0149" stroke="#263238" stroke-linecap="round" stroke-linejoin="round"/>
<path d="M85.7697 73.7175L86.3801 78.3448" stroke="#263238" stroke-linecap="round" stroke-linejoin="round"/>
<path d="M81.0175 37.8232L85.2286 69.6314" stroke="#263238" stroke-linecap="round" stroke-linejoin="round"/>
<path d="M80.1085 30.9896L80.4901 33.8479" stroke="#263238" stroke-linecap="round" stroke-linejoin="round"/>
<path d="M51.2766 50.7128L59.102 68.3894" stroke="#263238" stroke-linecap="round" stroke-linejoin="round"/>
<path d="M59.9138 70.5472L61.5163 74.1408" stroke="#263238" stroke-linecap="round" stroke-linejoin="round"/>
<path d="M78.9242 56.3737C80.5344 50.8527 77.6117 45.1439 72.396 43.6227C67.1803 42.1014 61.6468 45.3439 60.0365 50.8648C58.4263 56.3858 61.349 62.0946 66.5647 63.6158C71.7804 65.1371 77.3139 61.8946 78.9242 56.3737Z" fill="#263238"/>
<path d="M75.8284 56.3809C75.417 57.5394 74.6753 58.552 73.6949 59.2936C72.7144 60.0353 71.5382 60.4735 70.3115 60.5541C69.0848 60.6347 67.8614 60.3543 66.7923 59.7473C65.7232 59.1404 64.8554 58.2336 64.2959 57.1389C63.7364 56.0442 63.5099 54.8097 63.6443 53.5877C63.7786 52.3657 64.268 51.2098 65.0519 50.2629C65.8359 49.3159 66.88 48.6194 68.0555 48.2592C69.2309 47.8991 70.486 47.8911 71.6659 48.2364C73.296 48.7671 74.6494 49.9223 75.4295 51.4488C76.2097 52.9753 76.3531 54.7488 75.8284 56.3809Z" fill="#D1BBA4"/>
<path d="M76.376 80.5509L83.8823 99.8647C83.9167 99.9738 83.9735 100.074 84.0491 100.16C84.1248 100.246 84.2176 100.315 84.3215 100.363C84.4254 100.41 84.5382 100.436 84.6525 100.437C84.7668 100.439 84.8802 100.416 84.9853 100.371C85.2044 100.271 85.3774 100.091 85.47 99.8689C85.5626 99.6464 85.5679 99.3972 85.4848 99.171L79.0746 79.3715C79.007 79.1862 78.9007 79.0174 78.7627 78.8764C78.6248 78.7355 78.4583 78.6255 78.2745 78.554C78.0906 78.4824 77.8937 78.4509 77.6967 78.4615C77.4997 78.472 77.3073 78.5245 77.1322 78.6154C76.7997 78.7986 76.5419 79.0926 76.4038 79.4463C76.2656 79.7999 76.2558 80.1908 76.376 80.5509Z" fill="#263238"/>
<path d="M197.754 29.9907L199.045 32.391" stroke="#263238" stroke-linecap="round" stroke-linejoin="round"/>
<path d="M202.388 30.095L202.624 31.4201" stroke="#263238" stroke-linecap="round" stroke-linejoin="round"/>
<path d="M206.974 29.1583L206.745 31.295" stroke="#263238" stroke-linecap="round" stroke-linejoin="round"/>
<path d="M219.787 39.6687L217.151 40.3417" stroke="#263238" stroke-linecap="round" stroke-linejoin="round"/>
<path d="M216.575 36.3247L215.445 37.0531" stroke="#263238" stroke-linecap="round" stroke-linejoin="round"/>
<path d="M214.168 32.3152L212.746 33.9316" stroke="#263238" stroke-linecap="round" stroke-linejoin="round"/>
<path d="M209.714 33.7024H209.651H209.596C203.297 31.0731 196.484 33.7787 193.903 39.6686C193.127 41.4224 192.793 43.3402 192.932 45.2532C192.932 46.2245 192.877 48.5971 192.564 51.5524C192.371 53.4738 192.002 55.3733 191.461 57.2272L191.406 57.3313C191.355 57.4385 191.326 57.5549 191.321 57.6735C191.316 57.792 191.335 57.9105 191.376 58.0217C191.417 58.1329 191.481 58.2348 191.562 58.3211C191.643 58.4075 191.741 58.4767 191.85 58.5246H191.905L196.762 60.6474H196.817L198.121 61.2163H198.184L203.04 63.3391H203.096C203.204 63.3867 203.32 63.412 203.438 63.4136C203.557 63.4152 203.674 63.393 203.783 63.3483C203.893 63.3036 203.992 63.2374 204.075 63.1536C204.158 63.0698 204.224 62.9701 204.268 62.8605C204.268 62.8188 204.303 62.7841 204.317 62.7495C205.314 61.0959 206.461 59.5376 207.744 58.0944C209.714 55.8675 211.42 54.2233 212.128 53.5643C213.699 52.3132 214.924 50.6818 215.687 48.8247C216.451 46.9677 216.728 44.9464 216.491 42.9524C216.255 40.9585 215.514 39.0578 214.337 37.4306C213.161 35.8033 211.589 34.5033 209.769 33.6538L209.714 33.7024Z" fill="#D1BBA4"/>
<path d="M203.295 63.42L191.658 58.3095L190.472 61.009L202.109 66.1196L203.295 63.42Z" fill="#263238"/>
<path d="M200.737 69.236L201.826 66.7663L190.185 61.6534L189.131 64.0537L200.737 69.236Z" fill="#263238"/>
<path d="M202.107 66.1213L190.471 61.0107L190.189 61.6523L201.825 66.7628L202.107 66.1213Z" fill="white"/>
<path d="M189.131 64.0537L190.622 67.5086L197.15 70.3529L200.737 69.236L189.131 64.0537Z" fill="#263238"/>
<path d="M204.691 58.3374C205.933 56.421 207.466 54.71 209.235 53.2662C213.682 49.7489 216.783 46.3287 214.23 40.0018" stroke="#263238" stroke-linecap="round" stroke-linejoin="round"/>
<path d="M202.617 62.1113C202.617 62.1113 202.881 61.4661 203.415 60.474" stroke="#263238" stroke-linecap="round" stroke-linejoin="round"/>
<path d="M195.791 59.815C195.791 59.815 197.13 51.275 196.207 48.8955C195.284 46.516 194.556 53.5713 197.99 52.5932C201.424 51.615 199.648 47.4456 199.155 49.3326C198.663 51.2195 199.939 53.6754 201.993 52.496C204.046 51.3167 204.136 49.5337 202.929 50.3177C201.722 51.1016 203.172 54.5495 205.149 53.7309C207.126 52.9123 206.696 51.7815 205.233 52.4197C203.769 53.058 200.529 59.3988 199.558 61.7506" stroke="#263238" stroke-linecap="round" stroke-linejoin="round"/>
<path d="M247.398 117.229C246.723 118.801 245.734 120.217 244.491 121.392C242.306 123.549 241.397 128.426 247.336 131.104C253.274 133.782 250.902 143.98 243.784 142.745C236.666 141.51 232.628 130.258 225.927 133.075C219.225 135.891 221.071 146.346 216.097 144.292C211.122 142.239 209.041 137.355 205.121 139.249C201.202 141.143 199.447 150.349 214.327 155.705C229.208 161.06 225.864 138.763 230.547 139.547C235.23 140.331 235.584 147.088 243.035 149.086C250.485 151.084 257.902 140.241 256.861 134.136C255.82 128.031 247.648 128.031 246.302 124.992C244.956 121.954 249.611 118.457 249.611 118.457C249.611 118.457 249.355 116.286 247.398 117.229Z" fill="#D1BBA4"/>
<path d="M248.231 112.033L246.435 116.556C246.28 116.941 246.257 117.367 246.37 117.766C246.483 118.166 246.725 118.516 247.059 118.763C247.446 119.048 247.928 119.174 248.406 119.115C248.883 119.055 249.32 118.815 249.626 118.443L253.212 114.087L248.231 112.033Z" fill="#263238" stroke="#263238" stroke-linecap="round" stroke-linejoin="round"/>
<path d="M258.124 84.7829L269.619 92.8789C269.619 92.8789 262.585 103.139 260.018 108.079C257.451 113.018 253.892 116.466 250.944 115.96C247.995 115.453 246.233 111.339 247.107 107.808C247.981 104.277 254.378 96.3338 255.689 92.5459C257 88.7581 258.124 84.7829 258.124 84.7829Z" fill="#D1BBA4"/>
<path d="M258.124 84.7829C258.124 84.7829 257.007 88.7095 255.689 92.5043C255.073 94.0251 254.306 95.48 253.399 96.8471C256.144 99.5239 259.157 101.911 262.39 103.972C265.478 98.9353 269.633 92.872 269.633 92.872L258.124 84.7829Z" fill="#263238"/>
<path d="M256.147 123.598C255.952 123.907 255.67 124.152 255.336 124.3C255.002 124.449 254.632 124.495 254.271 124.433C253.911 124.371 253.578 124.203 253.313 123.951C253.048 123.699 252.864 123.375 252.784 123.018C252.704 122.661 252.732 122.289 252.864 121.948C252.996 121.607 253.226 121.314 253.525 121.104C253.825 120.894 254.179 120.778 254.545 120.77C254.91 120.762 255.27 120.862 255.578 121.059C255.783 121.187 255.96 121.355 256.1 121.553C256.239 121.75 256.339 121.974 256.391 122.21C256.444 122.446 256.45 122.69 256.408 122.928C256.366 123.167 256.277 123.394 256.147 123.598Z" fill="#D1BBA4"/>
<path d="M240.246 133.685C240.075 133.953 239.828 134.164 239.537 134.293C239.246 134.421 238.924 134.46 238.611 134.405C238.298 134.35 238.008 134.204 237.778 133.984C237.548 133.765 237.388 133.482 237.318 133.172C237.248 132.862 237.272 132.538 237.387 132.241C237.501 131.944 237.701 131.688 237.96 131.505C238.22 131.322 238.528 131.219 238.846 131.211C239.164 131.202 239.477 131.288 239.746 131.458C240.107 131.687 240.363 132.051 240.456 132.468C240.55 132.886 240.474 133.323 240.246 133.685Z" fill="#D1BBA4"/>
<path d="M238.886 159.929C238.829 160.02 238.756 160.1 238.669 160.162C238.582 160.225 238.483 160.269 238.379 160.294C238.274 160.318 238.166 160.322 238.06 160.305C237.955 160.287 237.853 160.249 237.762 160.193C237.671 160.136 237.592 160.063 237.529 159.976C237.467 159.888 237.422 159.79 237.398 159.686C237.373 159.581 237.369 159.473 237.387 159.367C237.404 159.261 237.442 159.16 237.498 159.069C237.613 158.885 237.795 158.754 238.006 158.704C238.217 158.655 238.438 158.691 238.622 158.805C238.806 158.92 238.937 159.102 238.987 159.313C239.036 159.524 239 159.745 238.886 159.929Z" fill="#D1BBA4"/>
<path d="M210.207 150.036C212.081 151.218 214.166 152.024 216.347 152.409C222.59 153.457 223.367 149.939 224.672 144.965" stroke="#263238" stroke-linecap="round" stroke-linejoin="round"/>
<path d="M206.148 146.679C206.579 147.172 207.043 147.636 207.536 148.066" stroke="#263238" stroke-linecap="round" stroke-linejoin="round"/>
<path d="M242.056 146.859C242.056 146.859 248.674 149.877 252.768 142.003" stroke="#263238" stroke-linecap="round" stroke-linejoin="round"/>
<path d="M249.445 113.726C249.137 113.542 248.871 113.297 248.662 113.005C248.454 112.714 248.307 112.383 248.231 112.033" stroke="#263238" stroke-linecap="round" stroke-linejoin="round"/>
<path d="M259.879 105.234C259.879 105.234 255.793 113.094 253.198 114.086C252.612 114.318 251.982 114.418 251.353 114.378" stroke="#263238" stroke-linecap="round" stroke-linejoin="round"/>
<path d="M118.935 43.0861L99.7278 45.2439L101.425 60.3488L120.632 58.191L118.935 43.0861Z" fill="#D1BBA4"/>
<path opacity="0.5" d="M118.935 43.0861L99.7278 45.2439L101.425 60.3488L120.632 58.191L118.935 43.0861Z" fill="white"/>
<path d="M118.102 43.8097L100.653 45.7699L102.18 59.3582L119.629 57.3979L118.102 43.8097Z" fill="#D1BBA4"/>
<path d="M118.785 48.4999C117.835 47.487 117.037 47.2719 116.114 48.3611C114.727 50.0192 113.977 53.7238 112.992 53.5711C112.007 53.4185 111.834 51.9339 110.842 50.9835C109.85 50.033 108.601 52.2946 106.159 54.9586C105.005 56.2204 103.583 57.2068 101.997 57.8446L102.177 59.4749L119.805 57.4908L118.785 48.4999Z" fill="#263238"/>
<path d="M107.262 48.507C107.312 48.9475 107.231 49.3932 107.029 49.7876C106.826 50.182 106.511 50.5074 106.123 50.7227C105.735 50.9379 105.293 51.0332 104.851 50.9966C104.409 50.96 103.988 50.7931 103.641 50.5171C103.294 50.241 103.036 49.8682 102.901 49.4458C102.766 49.0234 102.759 48.5705 102.882 48.1443C103.005 47.7181 103.251 47.3379 103.59 47.0517C103.928 46.7656 104.344 46.5863 104.785 46.5367C105.375 46.4704 105.966 46.6405 106.431 47.0099C106.895 47.3792 107.194 47.9176 107.262 48.507Z" fill="#263238"/>
<path d="M67.9497 121.056L35.8023 110.375L27.4045 135.649L59.5519 146.331L67.9497 121.056Z" fill="#D1BBA4"/>
<path opacity="0.5" d="M67.9497 121.056L35.8023 110.375L27.4045 135.649L59.5519 146.331L67.9497 121.056Z" fill="white"/>
<path d="M65.3904 122.255L36.1546 112.407L28.4868 135.171L57.7226 145.018L65.3904 122.255Z" fill="#263238"/>
<path d="M63.66 129.536C62.8969 127.226 61.78 126.296 59.4975 127.351C56.0288 128.96 52.1508 134.288 50.6939 133.345C49.2371 132.401 50.0557 129.876 49.1746 127.649C48.2936 125.422 44.6514 128.093 38.8101 130.535C36.0329 131.692 33.0317 132.211 30.0273 132.055L29.1254 134.774L58.6373 144.584L63.66 129.536Z" fill="#D1BBA4"/>
<path d="M45.3729 121.107C45.1277 121.844 44.6697 122.491 44.0566 122.968C43.4436 123.444 42.7031 123.728 41.9287 123.784C41.1543 123.839 40.3808 123.664 39.7059 123.28C39.031 122.896 38.4851 122.321 38.1371 121.627C37.7891 120.933 37.6547 120.151 37.7508 119.381C37.8469 118.611 38.1693 117.886 38.6771 117.299C39.185 116.711 39.8555 116.288 40.604 116.082C41.3525 115.875 42.1454 115.896 42.8823 116.14C43.3722 116.302 43.8253 116.56 44.2156 116.897C44.606 117.235 44.926 117.646 45.1573 118.107C45.3886 118.569 45.5267 119.071 45.5637 119.586C45.6007 120.1 45.5359 120.617 45.3729 121.107Z" fill="#D1BBA4"/>
<path d="M220.932 181.227C220.997 181.028 221.015 180.816 220.983 180.609C220.952 180.402 220.872 180.205 220.751 180.034C220.629 179.864 220.469 179.724 220.284 179.626C220.099 179.529 219.893 179.476 219.684 179.472L204.955 179.139C204.667 179.139 204.386 179.228 204.151 179.395C203.916 179.561 203.739 179.797 203.644 180.069L198.698 195.491C198.305 195.163 197.853 194.913 197.366 194.755C196.596 194.503 195.77 194.48 194.988 194.69C194.206 194.9 193.502 195.333 192.963 195.937C192.423 196.541 192.072 197.289 191.951 198.09C191.831 198.891 191.946 199.709 192.284 200.445C192.621 201.181 193.166 201.803 193.852 202.234C194.538 202.665 195.334 202.887 196.144 202.872C196.953 202.857 197.741 202.606 198.41 202.15C199.08 201.694 199.601 201.053 199.912 200.305H199.967L203.741 188.553L215.667 188.824L213.481 195.622C212.785 195.072 211.931 194.758 211.044 194.727C210.156 194.696 209.282 194.95 208.549 195.451C207.817 195.952 207.263 196.675 206.97 197.513C206.677 198.351 206.659 199.261 206.92 200.109C207.181 200.958 207.706 201.701 208.419 202.23C209.132 202.759 209.996 203.046 210.884 203.049C211.772 203.053 212.637 202.772 213.354 202.248C214.071 201.725 214.602 200.985 214.869 200.139C214.869 200.139 214.869 200.097 214.869 200.076L220.932 181.227ZM216.52 186.174L204.595 185.903L205.899 181.845L217.824 182.122L216.52 186.174Z" fill="#263238"/>
<path d="M182.991 190.953C183.019 190.865 183.026 190.771 183.012 190.68C182.998 190.588 182.962 190.501 182.908 190.426C182.854 190.351 182.783 190.29 182.701 190.247C182.619 190.204 182.529 190.18 182.436 190.176L175.929 190.031C175.801 190.027 175.675 190.065 175.57 190.139C175.465 190.213 175.387 190.318 175.346 190.44L173.161 197.253C172.987 197.108 172.787 196.997 172.571 196.926C172.232 196.816 171.868 196.806 171.523 196.899C171.178 196.992 170.868 197.184 170.63 197.45C170.392 197.716 170.237 198.046 170.184 198.399C170.13 198.752 170.181 199.113 170.329 199.438C170.477 199.762 170.717 200.037 171.018 200.228C171.32 200.419 171.671 200.518 172.028 200.513C172.385 200.507 172.733 200.398 173.029 200.199C173.325 200 173.556 199.718 173.695 199.389L175.367 194.193L180.64 194.311L179.675 197.322C179.505 197.18 179.31 197.071 179.099 197.003C178.753 196.892 178.382 196.885 178.033 196.985C177.683 197.085 177.371 197.286 177.136 197.563C176.901 197.84 176.753 198.18 176.711 198.541C176.669 198.902 176.735 199.267 176.9 199.591C177.066 199.914 177.324 200.181 177.641 200.358C177.959 200.536 178.321 200.615 178.684 200.586C179.046 200.557 179.391 200.421 179.677 200.196C179.962 199.97 180.174 199.666 180.286 199.32L182.991 190.953ZM181.042 193.139L175.769 193.021L176.345 191.224L181.618 191.349L181.042 193.139Z" fill="#263238"/>
<path d="M55.4322 158.549C55.4594 158.464 55.4667 158.374 55.4535 158.286C55.4402 158.199 55.4068 158.115 55.3559 158.042C55.3024 157.97 55.2336 157.911 55.1544 157.869C55.0752 157.827 54.9876 157.803 54.898 157.799L48.578 157.654C48.4534 157.651 48.3313 157.689 48.23 157.761C48.1287 157.834 48.0536 157.937 48.0161 158.056L45.8932 164.661C45.724 164.523 45.5312 164.417 45.3244 164.348C44.9951 164.241 44.6417 164.231 44.3072 164.321C43.9728 164.411 43.6717 164.597 43.4409 164.855C43.2101 165.113 43.0595 165.433 43.0076 165.776C42.9556 166.118 43.0045 166.468 43.1483 166.783C43.2922 167.098 43.5246 167.365 43.8174 167.55C44.1101 167.735 44.4504 167.831 44.7968 167.826C45.1431 167.821 45.4804 167.715 45.7675 167.521C46.0547 167.327 46.2791 167.054 46.4135 166.735L48.03 161.698L53.1429 161.809L52.2063 164.73C52.0418 164.591 51.8506 164.487 51.6444 164.425C51.3086 164.317 50.9483 164.31 50.6091 164.407C50.2698 164.504 49.9669 164.699 49.7387 164.968C49.5104 165.237 49.367 165.568 49.3267 165.918C49.2864 166.269 49.351 166.623 49.5122 166.937C49.6735 167.251 49.9241 167.509 50.2326 167.681C50.541 167.852 50.8932 167.928 51.2448 167.899C51.5963 167.87 51.9314 167.737 52.2075 167.517C52.4836 167.298 52.6884 167.001 52.796 166.665L55.4322 158.549ZM53.573 160.671L48.4601 160.56L49.0151 158.819L54.1349 158.937L53.573 160.671Z" fill="#263238"/>
<path d="M99.4089 77.9703C132.306 85.213 196.249 104.624 212.572 105.72C252.484 108.495 254.891 38.2603 202.728 22.5609C162.075 10.3232 121.477 41.625 88.9125 53.4464" stroke="#263238" stroke-width="0.5" stroke-linecap="round" stroke-linejoin="round" stroke-dasharray="3 3"/>
<path d="M5.7049 158.757C20.884 147.296 55.5088 129.085 121.123 130.709C194.251 132.512 220.911 144.029 253.316 144.473" stroke="#263238" stroke-width="0.5" stroke-linecap="round" stroke-linejoin="round" stroke-dasharray="5 3"/>
<path d="M158.849 225.183C158.849 225.183 139.826 229.956 88.6973 214.312C65.9286 207.34 42.5147 195.241 29.9441 174.172C10.1793 141.045 19.9403 95.7786 52.7613 79.3785" stroke="#263238" stroke-width="0.5" stroke-linecap="round" stroke-linejoin="round" stroke-dasharray="5 3"/>
<path d="M147.569 218.197L142.609 240.195L201.452 228.769L147.569 218.197Z" fill="#263238" stroke="#D1BBA4" stroke-linecap="round" stroke-linejoin="round"/>
<path d="M147.638 224.537L142.609 240.195L163.865 235.644L147.638 224.537Z" fill="#263238" stroke="#D1BBA4" stroke-linecap="round" stroke-linejoin="round"/>
<path d="M146.486 200.583L147.569 218.197L201.452 228.769L146.486 200.583Z" fill="#263238" stroke="#D1BBA4" stroke-linecap="round" stroke-linejoin="round"/>
<path d="M201.452 228.769L147.256 248L147.638 224.537L201.452 228.769Z" fill="#263238" stroke="#D1BBA4" stroke-linecap="round" stroke-linejoin="round"/>
<path d="M163.635 90.5962C163.635 90.5962 160.597 84.5259 162.012 81.085C163.427 77.644 168.894 72.1773 171.724 74.4042C174.555 76.6311 173.542 81.6885 175.97 83.1107C178.398 84.5329 186.293 88.1681 186.903 95.05C187.514 101.932 182.248 107.191 183.664 109.619C185.079 112.047 195.603 111.443 199.856 118.325C204.108 125.207 202.686 134.92 199.654 138.77C196.623 142.62 178.197 148.482 178.197 152.936C178.197 157.39 183.865 162.246 175.366 166.693C166.868 171.14 154.117 168.92 152.903 158.368C151.689 147.816 164.433 137.93 163.628 130.847C162.824 123.764 155.532 118.499 153.507 111.818C151.481 105.137 162.414 103.118 164.031 100.718C165.647 98.3176 163.635 90.5962 163.635 90.5962Z" fill="#263238" stroke="#263238" stroke-linecap="round" stroke-linejoin="round"/>
<path d="M198.08 130.813C197.573 132.394 196.859 133.359 196.574 133.456" stroke="white" stroke-linecap="round" stroke-linejoin="round"/>
<path d="M173.549 97.0479C173.549 97.0479 174.423 101.654 177.933 103.625C181.444 105.595 175.304 110.208 179.029 115.03C182.755 119.851 194.604 115.03 197.455 121.606C198.181 123.253 198.584 125.024 198.642 126.823" stroke="white" stroke-linecap="round" stroke-linejoin="round"/>
<path d="M182.679 102.008C183.328 102.416 184.028 102.738 184.76 102.966" stroke="white" stroke-linecap="round" stroke-linejoin="round"/>
<path d="M174.645 83.0066C174.645 83.0066 174.867 93.7596 178.155 97.9221C178.825 98.7779 179.568 99.5741 180.375 100.302" stroke="white" stroke-linecap="round" stroke-linejoin="round"/>
<path d="M116.19 85.4624C116.19 85.4624 117.328 80.8351 117.328 79.4893C117.328 78.1434 116.988 77.8035 116.634 78.5597C116.301 79.4678 116.021 80.3943 115.795 81.3346L116.19 85.4624Z" fill="white" stroke="#263238" stroke-linecap="round" stroke-linejoin="round"/>
<path d="M75.6129 208.311C75.6129 208.311 71.8042 214.596 68.5714 218.023C65.3385 221.45 64.4089 225.065 67.8083 226.015C71.2076 226.966 76.376 225.634 79.04 222.97C81.704 220.306 83.9933 216.31 86.6712 214.784C89.349 213.257 91.0487 213.07 91.0487 208.887C91.0487 204.703 89.1478 203.746 89.1478 203.746C89.1478 203.746 81.5166 208.124 75.6129 208.311Z" fill="#263238" stroke="#263238" stroke-linecap="round" stroke-linejoin="round"/>
<path d="M84.9441 214.596C81.3297 217.642 78.2772 223.351 72.3804 224.114C68.9117 224.558 66.8305 223.698 65.6997 222.907C65.4707 224.378 66.0812 225.537 67.7809 226.015C71.208 226.973 76.3486 225.634 79.0126 222.97C81.6766 220.306 83.9659 216.31 86.6438 214.783C88.9748 213.451 90.5773 213.139 90.945 210.274C88.8493 211.577 86.8444 213.021 84.9441 214.596Z" fill="white" stroke="#263238" stroke-linecap="round" stroke-linejoin="round"/>
<path d="M133.492 148.912C133.492 148.912 113.693 143.584 104.355 141.871C95.017 140.157 86.2689 139.013 83.2234 142.634C80.1778 146.255 80.9409 174.421 79.6089 181.484C78.277 188.546 76.7507 202.046 76.3692 204.134C75.9876 206.223 74.2879 208.137 75.4187 208.9C76.5495 209.664 83.4107 210.232 85.8873 208.9C88.364 207.569 90.2649 206.819 90.2649 204.516C90.2649 202.213 90.6464 181.865 92.3461 175.58C94.0458 169.295 95.3916 158.639 95.3916 158.639C95.3916 158.639 107.768 161.49 113.478 163.204C119.187 164.917 127.352 171.008 135.185 171.202C143.017 171.397 142.039 159.589 140.513 156.162C138.987 152.735 136.343 149.488 133.492 148.912Z" fill="#D1BBA4"/>
<path opacity="0.39" d="M141.179 158.32C140.265 156.547 139.175 154.872 137.925 153.318C136.482 151.868 134.415 149.932 133.263 148.85L130.738 148.156L122.899 148.808C122.899 148.808 91.7981 141.427 90.9864 144.854C90.1748 148.281 92.0409 151.972 92.0409 151.972C92.0409 151.972 85.4504 145.118 86.2412 147.754C87.0321 150.39 92.0409 156.19 92.0409 156.19C92.0409 156.19 86.7685 150.127 86.7685 153.817C86.7685 157.508 88.3502 175.164 85.4504 189.136C83.5426 198.307 79.8241 205.21 78.5129 209.539C81.0243 209.775 84.2987 209.691 85.8527 208.845C88.3294 207.506 90.2303 206.764 90.2303 204.461C90.2303 202.157 90.6118 181.81 92.3115 175.525C94.0112 169.239 95.357 158.583 95.357 158.583C95.357 158.583 107.733 161.435 113.443 163.148C119.152 164.862 127.318 170.953 135.15 171.147C141.775 171.348 142.136 163.009 141.179 158.32Z" fill="black"/>
<path d="M95.412 158.625C95.412 158.625 96.2515 150.113 91.0067 144.882" stroke="#263238" stroke-linecap="round" stroke-linejoin="round"/>
<path d="M94.7602 145.735C94.7602 145.735 96.7581 147.678 96.0852 153.151" stroke="#263238" stroke-linecap="round" stroke-linejoin="round"/>
<path d="M133.492 148.912C133.492 148.912 113.693 143.584 104.355 141.871C95.017 140.157 86.2689 139.013 83.2234 142.634C80.1778 146.255 80.9409 174.421 79.6089 181.484C78.277 188.546 76.7507 202.046 76.3692 204.134C75.9876 206.223 74.2879 208.137 75.4187 208.9C76.5495 209.664 83.4107 210.232 85.8873 208.9C88.364 207.569 90.2649 206.819 90.2649 204.516C90.2649 202.213 90.6464 181.865 92.3461 175.58C94.0458 169.295 95.3916 158.639 95.3916 158.639C95.3916 158.639 107.768 161.49 113.478 163.204C119.187 164.917 127.352 171.008 135.185 171.202C143.017 171.397 142.039 159.589 140.513 156.162C138.987 152.735 136.343 149.488 133.492 148.912Z" stroke="#263238" stroke-linecap="round" stroke-linejoin="round"/>
<path d="M162.012 111.644C162.012 111.644 160.195 112.054 154.929 111.041C149.663 110.028 149.872 112.255 142.99 109.418C136.108 106.58 120.727 95.0501 118.299 93.2255L115.871 91.4287C115.871 91.4287 116.19 87.5923 116.19 85.4833C116.19 83.3744 116.072 81.3764 116.072 81.3764C116.072 81.3764 116.662 76.5757 116.19 75.7501C115.719 74.9246 114.9 75.986 114.9 76.9225C114.652 78.6452 114.22 80.3361 113.61 81.9661C113.61 81.9661 112.791 77.0405 112.555 76.1039C112.319 75.1674 111.736 74.8136 111.168 75.0494C110.599 75.2853 111.286 77.866 111.286 78.9205C111.286 79.975 111.168 83.0206 111.168 83.0206C111.168 83.0206 109.086 77.866 108.469 76.8115C107.852 75.7571 107.179 76.5757 107.297 77.5053C107.414 78.4349 109.17 83.5964 109.17 83.5964C109.17 83.5964 108.115 89.1047 108.115 89.4585C108.115 89.8123 105.888 89.1047 104.834 88.1681C103.779 87.2316 103.446 88.1681 104.14 89.3406C104.834 90.513 106.721 91.6854 108.83 92.622C110.939 93.5585 113.284 94.4951 113.284 94.4951C113.284 94.4951 125.473 107.621 129.933 111.728C134.394 115.835 139.313 118.402 141.894 119.81C144.474 121.218 150.094 124.146 150.094 124.146C150.094 124.146 147.284 126.227 147.284 129.654C147.284 133.081 147.978 136.099 146.34 138.326C144.703 140.553 139.195 145.007 139.195 145.007C139.195 145.007 131.696 137.375 127.006 134.6C122.316 131.825 117.397 130.729 113.762 136.238C110.127 141.746 109.898 165.417 109.544 173.152C109.19 180.887 107.671 185.931 106.853 186.749C106.1 187.465 105.611 188.413 105.465 189.441C105.465 190.135 105.347 191.786 105.347 191.786C105.347 191.786 106.402 197.766 109.565 200.111C112.729 202.456 114.491 205.501 115.545 203.51C116.6 201.519 119.291 198.12 119.527 195.185C119.669 192.497 119.963 189.82 120.408 187.165C120.762 185.778 120.644 174.858 122.635 169.35C124.626 163.842 125.681 160.56 125.681 160.56C125.681 160.56 127.561 171.459 135.643 173.686C143.725 175.913 151.231 171.605 155.567 165.132C159.903 158.66 165.529 146.616 169.276 141.808C173.022 137.001 178.773 129.037 178.773 129.037L187.098 140.171C186.45 141.587 185.706 142.957 184.871 144.271C183.484 146.498 178.78 150.834 178.78 150.834C178.78 150.834 180.861 152.471 182.526 152.707C184.191 152.943 192.024 149.19 195.888 145.909C199.752 142.627 200.459 141.226 198.933 138.971C197.407 136.716 191.302 128.655 187.688 123.501C184.073 118.346 183.817 114.239 180.181 112.949C176.546 111.658 172.099 112.72 170.691 112.72C169.272 112.626 167.863 112.429 166.473 112.13L162.012 111.644Z" fill="#D1BBA4"/>
<path opacity="0.39" d="M147.922 162.281C147.922 162.281 141.859 149.1 131.577 141.718C121.296 134.337 121.296 136.168 121.823 137.764C122.351 139.36 122.878 141.455 122.878 141.455C122.878 141.455 118.923 137.237 118.923 140.137C118.923 143.037 122.614 151.736 119.978 162.545C117.342 173.353 114.428 183.628 115.233 188.373C116.037 193.118 117.078 197.072 114.178 193.923C111.278 190.773 109.697 193.923 109.96 195.241C110.071 195.775 112.735 198.904 116.024 202.532C117.258 200.513 119.249 197.676 119.451 195.164C119.619 192.482 119.938 189.812 120.408 187.166C120.762 185.778 120.644 174.859 122.635 169.35C124.626 163.842 125.68 160.561 125.68 160.561C125.68 160.561 127.561 171.459 135.643 173.686C143.725 175.913 151.231 171.605 155.567 165.132C157.433 162.357 159.535 158.542 161.623 154.726L151.911 159.104L147.922 162.281Z" fill="black"/>
<path d="M125.792 140.462C125.792 140.462 129.857 147.4 126.194 158.971" stroke="#263238" stroke-linecap="round" stroke-linejoin="round"/>
<path d="M128.115 139.651C128.115 139.651 129.44 144.41 128.115 148.121" stroke="#263238" stroke-linecap="round" stroke-linejoin="round"/>
<path d="M162.012 111.644C162.012 111.644 160.195 112.054 154.929 111.041C149.663 110.028 149.872 112.255 142.99 109.418C136.108 106.58 120.727 95.0501 118.299 93.2255L115.871 91.4287C115.871 91.4287 116.19 87.5923 116.19 85.4833C116.19 83.3744 116.072 81.3764 116.072 81.3764C116.072 81.3764 116.662 76.5757 116.19 75.7501C115.719 74.9246 114.9 75.986 114.9 76.9225C114.652 78.6452 114.22 80.3361 113.61 81.9661C113.61 81.9661 112.791 77.0405 112.555 76.1039C112.319 75.1674 111.736 74.8136 111.168 75.0494C110.599 75.2853 111.286 77.866 111.286 78.9205C111.286 79.975 111.168 83.0206 111.168 83.0206C111.168 83.0206 109.086 77.866 108.469 76.8115C107.852 75.7571 107.179 76.5757 107.297 77.5053C107.414 78.4349 109.17 83.5964 109.17 83.5964C109.17 83.5964 108.115 89.1047 108.115 89.4585C108.115 89.8123 105.888 89.1047 104.834 88.1681C103.779 87.2316 103.446 88.1681 104.14 89.3406C104.834 90.513 106.721 91.6854 108.83 92.622C110.939 93.5585 113.284 94.4951 113.284 94.4951C113.284 94.4951 125.473 107.621 129.933 111.728C134.394 115.835 139.313 118.402 141.894 119.81C144.474 121.218 150.094 124.146 150.094 124.146C150.094 124.146 147.284 126.227 147.284 129.654C147.284 133.081 147.978 136.099 146.34 138.326C144.703 140.553 139.195 145.007 139.195 145.007C139.195 145.007 131.696 137.375 127.006 134.6C122.316 131.825 117.397 130.729 113.762 136.238C110.127 141.746 109.898 165.417 109.544 173.152C109.19 180.887 107.671 185.931 106.853 186.749C106.1 187.465 105.611 188.413 105.465 189.441C105.465 190.135 105.347 191.786 105.347 191.786C105.347 191.786 106.402 197.766 109.565 200.111C112.729 202.456 114.491 205.501 115.545 203.51C116.6 201.519 119.291 198.12 119.527 195.185C119.669 192.497 119.963 189.82 120.408 187.165C120.762 185.778 120.644 174.858 122.635 169.35C124.626 163.842 125.681 160.56 125.681 160.56C125.681 160.56 127.561 171.459 135.643 173.686C143.725 175.913 151.231 171.605 155.567 165.132C159.903 158.66 165.529 146.616 169.276 141.808C173.022 137.001 178.773 129.037 178.773 129.037L187.098 140.171C186.45 141.587 185.706 142.957 184.871 144.271C183.484 146.498 178.78 150.834 178.78 150.834C178.78 150.834 180.861 152.471 182.526 152.707C184.191 152.943 192.024 149.19 195.888 145.909C199.752 142.627 200.459 141.226 198.933 138.971C197.407 136.716 191.302 128.655 187.688 123.501C184.073 118.346 183.817 114.239 180.181 112.949C176.546 111.658 172.099 112.72 170.691 112.72C169.272 112.626 167.863 112.429 166.473 112.13L162.012 111.644Z" stroke="#263238" stroke-linecap="round" stroke-linejoin="round"/>
<path d="M187.681 123.549C184.045 118.388 183.81 114.288 180.174 112.997C176.539 111.707 172.092 112.768 170.684 112.768C169.265 112.675 167.856 112.478 166.466 112.179L162.012 111.644C162.012 111.644 160.195 112.054 154.929 111.041C149.663 110.028 149.872 112.255 142.99 109.418C136.108 106.58 120.727 95.0501 118.299 93.2255L115.871 91.4287C115.871 91.4287 116.19 87.5923 116.19 85.4833C116.19 83.3744 116.072 81.3764 116.072 81.3764C116.072 81.3764 116.662 76.5757 116.19 75.7501C115.719 74.9246 114.9 75.986 114.9 76.9225C114.652 78.6452 114.22 80.3361 113.61 81.9661C113.61 81.9661 112.791 77.0405 112.555 76.1039C112.319 75.1674 111.736 74.8136 111.168 75.0494C110.599 75.2853 111.286 77.866 111.286 78.9205C111.286 79.975 111.168 83.0206 111.168 83.0206C111.168 83.0206 109.086 77.866 108.469 76.8115C107.852 75.7571 107.179 76.5757 107.297 77.5053C107.414 78.4349 109.17 83.5964 109.17 83.5964C109.17 83.5964 108.115 89.1047 108.115 89.4585C108.115 89.8123 105.888 89.1047 104.834 88.1681C103.779 87.2316 103.446 88.1681 104.14 89.3406C104.834 90.513 106.721 91.6854 108.83 92.622C110.939 93.5585 113.284 94.4951 113.284 94.4951C113.284 94.4951 125.473 107.621 129.933 111.728C134.394 115.835 139.313 118.402 141.894 119.81C144.474 121.218 150.094 124.146 150.094 124.146C150.094 124.146 147.284 126.227 147.284 129.654V130.098L172.155 138.118C175.422 133.761 178.808 129.099 178.808 129.099L187.133 140.234C186.485 141.649 185.741 143.019 184.906 144.334C183.518 146.561 178.815 150.897 178.815 150.897C178.815 150.897 180.896 152.534 182.561 152.77C184.226 153.006 192.058 149.252 195.922 145.971C199.787 142.69 200.494 141.288 198.968 139.033C197.442 136.779 191.309 128.704 187.681 123.549Z" fill="white"/>
<path d="M187.68 123.549C184.045 118.388 183.809 114.288 180.174 112.997C176.539 111.707 172.092 112.768 170.684 112.768C169.576 112.715 168.475 112.578 167.388 112.359C167.388 112.359 167.388 112.415 167.388 112.449C167.388 112.484 169.698 114.177 175.276 116.105C180.854 118.034 188.547 131.881 191.433 134.954C194.319 138.028 195.284 139.769 194.514 140.726C193.744 141.684 192.203 142.655 189.318 145.728C187.431 147.747 184.975 150.092 183.927 152.492C188.238 150.971 192.271 148.754 195.866 145.929C199.738 142.648 200.438 141.247 198.912 138.992C197.386 136.737 191.309 128.704 187.68 123.549Z" fill="#D1BBA4"/>
<path d="M140.658 109.563C137.593 108.612 134.725 107.113 132.195 105.137C127.581 101.668 120.845 96.8607 122.385 100.329C123.925 103.798 134.505 112.449 138.737 114.565C142.969 116.681 145.674 115.522 151.051 115.141C156.427 114.759 155.283 112.061 151.821 112.061C148.359 112.061 143.357 110.715 140.658 109.563Z" fill="#D1BBA4"/>
<path opacity="0.5" d="M140.658 109.563C137.593 108.612 134.725 107.113 132.195 105.137C127.581 101.668 120.845 96.8607 122.385 100.329C123.925 103.798 134.505 112.449 138.737 114.565C142.969 116.681 145.674 115.522 151.051 115.141C156.427 114.759 155.283 112.061 151.821 112.061C148.359 112.061 143.357 110.715 140.658 109.563Z" fill="white"/>
<path opacity="0.5" d="M187.68 123.549C184.045 118.388 183.809 114.288 180.174 112.997C176.539 111.707 172.092 112.768 170.684 112.768C169.576 112.715 168.475 112.578 167.388 112.359C167.388 112.359 167.388 112.415 167.388 112.449C167.388 112.484 169.698 114.177 175.276 116.105C180.854 118.034 188.547 131.881 191.433 134.954C194.319 138.028 195.284 139.769 194.514 140.726C193.744 141.684 192.203 142.655 189.318 145.728C187.431 147.747 184.975 150.092 183.927 152.492C188.238 150.971 192.271 148.754 195.866 145.929C199.738 142.648 200.438 141.247 198.912 138.992C197.386 136.737 191.309 128.704 187.68 123.549Z" fill="white"/>
<path d="M187.681 123.549C184.045 118.388 183.81 114.288 180.174 112.997C176.539 111.707 172.092 112.768 170.684 112.768C169.265 112.675 167.856 112.478 166.466 112.179L162.012 111.644C162.012 111.644 160.195 112.054 154.929 111.041C149.663 110.028 149.872 112.255 142.99 109.418C136.108 106.58 120.727 95.0501 118.299 93.2255L115.871 91.4287C115.871 91.4287 116.19 87.5923 116.19 85.4833C116.19 83.3744 116.072 81.3764 116.072 81.3764C116.072 81.3764 116.662 76.5757 116.19 75.7501C115.719 74.9246 114.9 75.986 114.9 76.9225C114.652 78.6452 114.22 80.3361 113.61 81.9661C113.61 81.9661 112.791 77.0405 112.555 76.1039C112.319 75.1674 111.736 74.8136 111.168 75.0494C110.599 75.2853 111.286 77.866 111.286 78.9205C111.286 79.975 111.168 83.0206 111.168 83.0206C111.168 83.0206 109.086 77.866 108.469 76.8115C107.852 75.7571 107.179 76.5757 107.297 77.5053C107.414 78.4349 109.17 83.5964 109.17 83.5964C109.17 83.5964 108.115 89.1047 108.115 89.4585C108.115 89.8123 105.888 89.1047 104.834 88.1681C103.779 87.2316 103.446 88.1681 104.14 89.3406C104.834 90.513 106.721 91.6854 108.83 92.622C110.939 93.5585 113.284 94.4951 113.284 94.4951C113.284 94.4951 125.473 107.621 129.933 111.728C134.394 115.835 139.313 118.402 141.894 119.81C144.474 121.218 150.094 124.146 150.094 124.146C150.094 124.146 147.284 126.227 147.284 129.654V130.098L172.155 138.118C175.422 133.761 178.808 129.099 178.808 129.099L187.133 140.234C186.485 141.649 185.741 143.019 184.906 144.334C183.518 146.561 178.815 150.897 178.815 150.897C178.815 150.897 180.896 152.534 182.561 152.77C184.226 153.006 192.058 149.252 195.922 145.971C199.787 142.69 200.494 141.288 198.968 139.033C197.442 136.779 191.309 128.704 187.681 123.549Z" stroke="#263238" stroke-linecap="round" stroke-linejoin="round"/>
<path d="M187.68 123.549C184.045 118.388 183.809 114.288 180.174 112.997C176.539 111.707 172.092 112.768 170.684 112.768C169.265 112.675 167.855 112.478 166.466 112.179L162.012 111.644C162.012 111.644 160.194 112.054 154.929 111.041C149.663 110.028 149.871 112.255 142.989 109.418C142.573 109.244 142.122 109.043 141.644 108.807C139.784 110.195 137.752 112.637 136.579 116.764C138.66 118.096 140.568 119.095 141.859 119.796C144.432 121.183 150.059 124.132 150.059 124.132C150.059 124.132 147.249 126.213 147.249 129.64C147.249 133.067 147.943 136.085 146.306 138.312C145.05 140.019 141.533 143.029 139.951 144.341C142.726 146.901 151.051 155.212 154.519 166.54C154.873 166.09 155.213 165.625 155.539 165.153C159.875 158.708 165.501 146.637 169.248 141.829C172.994 137.022 178.745 129.057 178.745 129.057L181.839 133.22C184.038 130.605 186.827 128.232 190.247 127.191C189.345 125.887 188.45 124.645 187.68 123.549Z" fill="white" stroke="#263238" stroke-linecap="round" stroke-linejoin="round"/>
<path opacity="0.14" d="M171.239 130.424C170.731 130.759 170.242 131.123 169.775 131.513C168.607 132.563 167.232 133.357 165.738 133.844C164.244 134.33 162.665 134.498 161.103 134.337C152.931 133.81 148.713 127.483 148.449 129.592C148.185 131.701 148.449 137.5 153.194 139.346C157.939 141.191 164.003 138.818 162.157 140.927C160.312 143.036 151.397 147.865 153.506 150.765C155.615 153.665 161.297 152.922 168.332 140.442C169.365 138.61 174.326 133.601 174.36 131.264C174.416 128.815 172.647 129.508 171.239 130.424Z" fill="black"/>
<path opacity="0.14" d="M169.99 115.155C171.128 115.675 172.564 116.265 174.326 116.875C177.15 117.846 180.5 121.856 183.504 125.991C184.474 125.274 185.521 124.669 186.626 124.187C183.081 119.088 182.818 115.051 179.217 113.781C176.477 112.81 173.272 113.171 171.26 113.406L169.99 115.155Z" fill="black"/>
<path d="M188.27 124.382C186.541 124.841 184.923 125.645 183.512 126.744C182.101 127.843 180.925 129.215 180.056 130.778L181.867 133.199C184.066 130.584 186.855 128.211 190.275 127.17L188.27 124.382Z" fill="#263238" stroke="#263238" stroke-linecap="round" stroke-linejoin="round"/>
<path d="M166.466 112.178L162.012 111.644C160.877 111.785 159.729 111.769 158.599 111.596C157.995 114.232 156.975 118.707 156.441 121.384C155.65 125.353 159.91 124.291 164.121 121.384C166.84 119.511 169.13 115.557 170.621 112.761C169.224 112.664 167.836 112.47 166.466 112.178Z" fill="#263238" stroke="#263238" stroke-linecap="round" stroke-linejoin="round"/>
<path d="M138.626 117.999C139.528 115.786 141.331 112.269 144.398 109.966C143.961 109.806 143.496 109.626 143.01 109.418C142.525 109.209 142.143 109.043 141.664 108.807C139.805 110.195 137.772 112.637 136.6 116.764C137.294 117.215 137.981 117.625 138.626 117.999Z" fill="#263238" stroke="#263238" stroke-linecap="round" stroke-linejoin="round"/>
<path d="M169.907 86.3436C169.907 86.3436 164.849 87.7658 163.434 88.9798C162.019 90.1939 159.965 94.0372 157.565 94.4396C155.165 94.842 155.13 96.2641 155.13 97.277C155.114 97.8433 155.256 98.4028 155.539 98.8934C155.539 98.8934 155.338 103.548 155.338 105.977C155.338 108.405 155.942 109.015 157.156 109.015H159.993C159.993 109.015 159.383 117.514 158.779 119.539C158.175 121.565 161.811 119.338 162.824 118.325L168.491 112.657C168.491 112.657 167.277 106.788 169.095 102.744C170.913 98.6992 167.708 97.277 167.277 92.8232C167.115 91.6078 167.272 90.371 167.733 89.2347C168.194 88.0985 168.943 87.102 169.907 86.3436Z" fill="white"/>
<path d="M168.492 112.657C168.492 112.657 167.278 106.788 169.095 102.744C170.913 98.699 167.708 97.2768 167.278 92.823C167.264 92.5665 167.264 92.3094 167.278 92.0529C166.08 93.6339 165.447 95.5711 165.481 97.5543C165.744 101.259 164.683 105.498 162.303 106.573C160.604 107.322 156.899 107.808 155.761 108.314C155.908 108.555 156.12 108.749 156.374 108.872C156.627 108.995 156.911 109.042 157.19 109.008H160.028C160.028 109.008 159.945 110.153 159.806 111.707C161.499 113.15 163.372 114.898 164.856 116.32L168.492 112.657Z" fill="#D1BBA4"/>
<path opacity="0.5" d="M168.492 112.657C168.492 112.657 167.278 106.788 169.095 102.744C170.913 98.699 167.708 97.2768 167.278 92.823C167.264 92.5665 167.264 92.3094 167.278 92.0529C166.08 93.6339 165.447 95.5711 165.481 97.5543C165.744 101.259 164.683 105.498 162.303 106.573C160.604 107.322 156.899 107.808 155.761 108.314C155.908 108.555 156.12 108.749 156.374 108.872C156.627 108.995 156.911 109.042 157.19 109.008H160.028C160.028 109.008 159.945 110.153 159.806 111.707C161.499 113.15 163.372 114.898 164.856 116.32L168.492 112.657Z" fill="white"/>
<path d="M169.907 86.3436C169.907 86.3436 164.849 87.7658 163.434 88.9798C162.019 90.1939 159.965 94.0372 157.565 94.4396C155.165 94.842 155.13 96.2641 155.13 97.277C155.114 97.8433 155.256 98.4028 155.539 98.8934C155.539 98.8934 155.338 103.548 155.338 105.977C155.338 108.405 155.942 109.015 157.156 109.015H159.993C159.993 109.015 159.383 117.514 158.779 119.539C158.175 121.565 161.811 119.338 162.824 118.325L168.491 112.657C168.491 112.657 167.277 106.788 169.095 102.744C170.913 98.6992 167.708 97.277 167.277 92.8232C167.115 91.6078 167.272 90.371 167.733 89.2347C168.194 88.0985 168.943 87.102 169.907 86.3436V86.3436Z" stroke="#263238" stroke-linecap="round" stroke-linejoin="round"/>
<path d="M162.525 94.7449C162.102 95.4386 161.519 95.8271 161.221 95.6398C160.923 95.4525 161.013 94.7518 161.429 94.072C161.845 93.3921 162.435 92.9897 162.74 93.177C163.045 93.3644 162.941 94.065 162.525 94.7449Z" fill="#263238"/>
<path d="M162.782 91.512C162.782 91.512 165.356 90.3882 164.863 93.5932" stroke="#263238" stroke-linecap="round" stroke-linejoin="round"/>
<path d="M160.368 99.9064C157.961 100.711 156.996 99.9064 156.996 99.9064" stroke="#263238" stroke-linecap="round" stroke-linejoin="round"/>
<path d="M157.87 100.191V102.202C157.87 102.202 158.876 103.125 159.882 100.024C159.231 100.222 158.545 100.279 157.87 100.191Z" stroke="#263238" stroke-linecap="round" stroke-linejoin="round"/>
<path d="M168.29 100.919C168.29 100.919 174.159 99.3028 173.347 101.932C172.536 104.561 167.68 106.386 167.104 104.36" fill="white"/>
<path d="M168.29 100.919C168.29 100.919 174.159 99.3028 173.347 101.932C172.536 104.561 167.68 106.386 167.104 104.36" stroke="#263238" stroke-linecap="round" stroke-linejoin="round"/>
<path d="M139.16 144.993C139.16 144.993 147.755 155.718 148.775 164.868" stroke="#263238" stroke-linecap="round" stroke-linejoin="round"/>
<path d="M150.059 124.132C150.059 124.132 151.821 120.732 151.821 118.29" stroke="#263238" stroke-linecap="round" stroke-linejoin="round"/>
<path d="M178.773 129.057L174.402 123.785" stroke="#263238" stroke-linecap="round" stroke-linejoin="round"/>
<path d="M187.091 140.192C187.99 139.493 189.035 139.005 190.148 138.765C191.261 138.525 192.414 138.538 193.522 138.804" stroke="#263238" stroke-linecap="round" stroke-linejoin="round"/>
<path d="M180.701 146.748C179.841 145.211 178.818 143.771 177.649 142.454C176.178 140.983 172.224 141.212 171.773 142.232C171.322 143.251 174.034 143.023 175.727 144.715C177.42 146.408 177.198 147.879 177.198 147.879C175.685 148.462 174.062 148.699 172.446 148.572C170.302 148.233 167.471 147.671 167.249 148.461C167.027 149.252 167.811 150.154 169.622 150.605C171.433 151.056 173.576 150.945 174.256 151.056C174.936 151.167 176.629 152.978 177.989 152.978C179.348 152.978 181.041 152.645 181.492 152.978C181.943 153.311 183.185 154.899 184.544 154.899C185.904 154.899 187.146 153.512 187.257 151.965C187.368 150.418 186.466 148.912 184.544 148.122C182.623 147.331 180.701 146.748 180.701 146.748Z" fill="white" stroke="#263238" stroke-linecap="round" stroke-linejoin="round"/>
<path d="M183.927 146.866C183.927 146.866 179.418 143.009 178.315 142.898C177.212 142.787 173.951 144.833 174.701 145.672C175.45 146.512 176.594 145.277 177.6 145.423C178.606 145.568 181.284 147.886 181.763 147.962" fill="white"/>
<path d="M183.927 146.866C183.927 146.866 179.418 143.009 178.315 142.898C177.212 142.787 173.951 144.833 174.701 145.672C175.45 146.512 176.594 145.277 177.6 145.423C178.606 145.568 181.284 147.886 181.763 147.962" stroke="#263238" stroke-linecap="round" stroke-linejoin="round"/>
<path d="M184.094 148.67L182.706 146.408C182.706 146.408 181.235 148.898 179.543 148.559C177.85 148.219 181.464 144.486 182.255 144.264C183.046 144.042 184.066 143.571 184.968 145.277C185.616 146.652 186.109 148.095 186.438 149.578" fill="white"/>
<path d="M184.094 148.67L182.706 146.408C182.706 146.408 181.235 148.898 179.543 148.559C177.85 148.219 181.464 144.486 182.255 144.264C183.046 144.042 184.066 143.571 184.968 145.277C185.616 146.652 186.109 148.095 186.438 149.578" stroke="#263238" stroke-linecap="round" stroke-linejoin="round"/>
<path d="M187.146 150.709C187.146 150.709 186.577 147.088 185.897 146.637C185.218 146.186 183.074 146.977 182.172 148.024C181.27 149.072 181.832 149.266 182.963 149.266C183.579 149.296 184.183 149.093 184.656 148.697L185.447 150.397" fill="white"/>
<path d="M187.146 150.709C187.146 150.709 186.577 147.088 185.897 146.637C185.218 146.186 183.074 146.977 182.172 148.024C181.27 149.072 181.832 149.266 182.963 149.266C183.579 149.296 184.183 149.093 184.656 148.697L185.447 150.397" stroke="#263238" stroke-linecap="round" stroke-linejoin="round"/>
<path d="M116.01 202.934C114.667 199.752 112.921 196.756 110.814 194.02C107.574 189.941 102.135 188.352 98.6664 186.125C95.1977 183.898 90.168 180.866 87.9411 183.496C85.7142 186.125 87.7399 189.739 91.4098 193.819C95.0798 197.898 101.525 201.103 102.135 201.915C102.746 202.726 108.49 209.49 110.717 209.691C112.944 209.893 115.198 206.979 116.01 202.934Z" fill="#263238" stroke="#263238" stroke-linecap="round" stroke-linejoin="round"/>
<path d="M114.331 207.284C113.173 203.17 108.962 199.688 106.076 197.488C102.607 194.873 100.366 191.203 94.0808 186.444C91.3474 184.363 89.4396 183.565 88.1631 183.315C88.0841 183.379 88.0099 183.449 87.9411 183.523C85.7142 186.153 87.7399 189.767 91.4098 193.846C95.0798 197.925 101.525 201.131 102.135 201.942C102.746 202.754 108.49 209.518 110.717 209.719C111.986 209.809 113.297 208.859 114.331 207.284Z" fill="white" stroke="#263238" stroke-linecap="round" stroke-linejoin="round"/>
<path d="M104.369 198.834C100.38 195.511 91.5209 185.535 89.5229 184.654C87.8579 183.912 87.1989 185.715 87.0254 186.333C87.1919 188.518 88.9124 191.071 91.3821 193.818C95.0243 197.863 101.497 201.103 102.107 201.914C102.718 202.726 108.462 209.49 110.689 209.691C110.957 209.762 111.241 209.729 111.486 209.601C111.731 209.473 111.919 209.258 112.014 208.998C113.124 207.36 108.379 202.157 104.369 198.834Z" fill="white" stroke="#263238" stroke-linecap="round" stroke-linejoin="round"/>
</g>
</svg>
