<svg width="220" height="239" viewBox="0 0 220 239" fill="none" xmlns="http://www.w3.org/2000/svg">
<g opacity="0.8">
<path opacity="0.1" d="M35.413 33.4699L35.6935 33.2194C61.5269 9.95585 95.8361 8.90889 120.853 33.9458C133.877 46.9952 157.016 44.5005 173.567 49.2194C230.614 65.4949 220.745 142.925 192.557 180.355C167.12 214.133 112.001 221.763 74.972 205.146C42.4111 190.539 19.5182 157.918 11.3529 123.809C10.538 120.386 9.87011 116.933 9.34914 113.45C5.07112 84.4103 13.3116 53.5675 35.413 33.4699Z" fill="white"/>
<path opacity="0.5" d="M123.713 57.4003C123.713 57.4003 130.536 49.5806 140.49 49.5806C140.49 49.5806 140.82 43.5042 147.613 42.1918C154.406 40.8793 155.728 46.9457 155.728 46.9457C155.728 46.9457 160.737 44.2857 167.485 46.9457C174.233 49.6057 172.86 57.3802 172.86 57.3802C172.86 57.3802 192.302 56.744 195.638 60.3107H108.234C108.234 60.3107 109.997 55.9475 123.713 57.4003Z" stroke="#5D696F" stroke-linecap="round" stroke-linejoin="round"/>
<path d="M123.713 57.4003C123.713 57.4003 130.536 49.5806 140.49 49.5806C140.49 49.5806 140.82 43.5042 147.613 42.1918C154.406 40.8793 155.728 46.9457 155.728 46.9457C155.728 46.9457 160.737 44.2857 167.485 46.9457C174.233 49.6057 172.86 57.3802 172.86 57.3802C172.86 57.3802 192.302 56.744 195.638 60.3107H108.234C108.234 60.3107 109.997 55.9475 123.713 57.4003Z" stroke="#5D696F" stroke-linecap="round" stroke-linejoin="round"/>
<path opacity="0.5" d="M206.965 108.681C206.965 108.681 201.52 102.445 193.585 102.445C193.585 102.445 193.32 97.6005 187.905 96.5536C182.49 95.5066 181.433 100.346 181.433 100.346C181.433 100.346 177.425 98.2217 172.055 100.346C166.685 102.47 167.767 108.666 167.767 108.666C167.767 108.666 152.238 108.165 149.598 111.006H219.298C219.298 111.006 217.891 107.524 206.965 108.681Z" stroke="#5D696F" stroke-linecap="round" stroke-linejoin="round"/>
<path d="M206.965 108.681C206.965 108.681 201.52 102.445 193.585 102.445C193.585 102.445 193.32 97.6005 187.905 96.5536C182.49 95.5066 181.433 100.346 181.433 100.346C181.433 100.346 177.425 98.2217 172.055 100.346C166.685 102.47 167.767 108.666 167.767 108.666C167.767 108.666 152.238 108.165 149.598 111.006H219.298C219.298 111.006 217.891 107.524 206.965 108.681Z" stroke="#5D696F" stroke-linecap="round" stroke-linejoin="round"/>
<path opacity="0.5" d="M22.0239 71.8513C22.0239 71.8513 25.25 68.1444 29.9638 68.1444C30.0535 67.2674 30.4341 66.4456 31.0451 65.8101C31.6561 65.1746 32.4623 64.7619 33.3351 64.6378C36.5561 64.0167 37.1823 66.887 37.1823 66.887C38.0621 66.5086 39.0098 66.3134 39.9675 66.3134C40.9253 66.3134 41.873 66.5086 42.7527 66.887C45.9437 68.1494 45.2975 71.8313 45.2975 71.8313C45.2975 71.8313 54.5098 71.5307 56.0877 73.2189H14.6902C14.6902 73.2189 15.5117 71.15 22.0239 71.8513Z" stroke="#5D696F" stroke-linecap="round" stroke-linejoin="round"/>
<path d="M22.0239 71.8513C22.0239 71.8513 25.25 68.1444 29.9638 68.1444C30.0535 67.2674 30.4341 66.4456 31.0451 65.8101C31.6561 65.1746 32.4623 64.7619 33.3351 64.6378C36.5561 64.0167 37.1823 66.887 37.1823 66.887C38.0621 66.5086 39.0098 66.3134 39.9675 66.3134C40.9253 66.3134 41.873 66.5086 42.7527 66.887C45.9437 68.1494 45.2975 71.8313 45.2975 71.8313C45.2975 71.8313 54.5098 71.5307 56.0877 73.2189H14.6902C14.6902 73.2189 15.5117 71.15 22.0239 71.8513Z" stroke="#5D696F" stroke-linecap="round" stroke-linejoin="round"/>
<path d="M1.25 212.451C1.25 212.451 5.60816 203.935 15.5167 205.513C15.9702 204.409 16.7869 203.493 17.8317 202.917C18.8765 202.34 20.0868 202.138 21.2625 202.342C21.2625 202.342 18.6877 195.209 25.4253 189.874C32.1629 184.539 41.305 189.077 41.305 189.077C41.305 189.077 40.7289 185.07 44.471 183.617L102.134 185.531C102.134 185.531 108.461 187.294 109.848 193.24C109.848 193.24 115.399 190.069 122.332 193.24C129.265 196.411 129.27 204.341 129.27 204.341C129.27 204.341 137.14 203.544 137.786 214.305C137.786 214.305 142.765 208.018 150.074 214.305" fill="white"/>
<path d="M1.25 212.451C1.25 212.451 5.60816 203.935 15.5167 205.513C15.9702 204.409 16.7869 203.493 17.8317 202.917C18.8765 202.34 20.0868 202.138 21.2625 202.342C21.2625 202.342 18.6877 195.209 25.4253 189.874C32.1629 184.539 41.305 189.077 41.305 189.077C41.305 189.077 40.7289 185.07 44.471 183.617L102.134 185.531C102.134 185.531 108.461 187.294 109.848 193.24C109.848 193.24 115.399 190.069 122.332 193.24C129.265 196.411 129.27 204.341 129.27 204.341C129.27 204.341 137.14 203.544 137.786 214.305C137.786 214.305 142.765 208.018 150.074 214.305" stroke="#5D696F" stroke-linecap="round" stroke-linejoin="round"/>
<path d="M19.2837 215.817C19.1338 216.144 19.0017 216.478 18.8879 216.819" stroke="#5D696F" stroke-linecap="round" stroke-linejoin="round"/>
<path d="M42.6474 196.126C40.9843 196.787 39.3362 198.105 38.1089 200.559C38.1089 200.559 34.7777 199.122 32.9543 201.747C31.1309 204.371 34.1465 207.097 34.1465 207.097C34.1465 207.097 29.9837 207.893 29.7833 211.655C29.7833 211.655 25.5304 210.443 22.1641 212.502" stroke="#5D696F" stroke-linecap="round" stroke-linejoin="round"/>
<path d="M46.3846 195.549C45.715 195.513 45.0436 195.547 44.3809 195.649" stroke="#5D696F" stroke-linecap="round" stroke-linejoin="round"/>
<path d="M84.7314 188.011L83.3839 183.603H63.4766L60.0552 191.247C60.0552 191.247 51.3889 188.667 49.6006 196.201C49.3391 196.098 49.0714 196.011 48.7991 195.941" stroke="#5D696F" stroke-linecap="round" stroke-linejoin="round"/>
<path d="M109.974 199.421C107.314 201.039 106.682 204.125 106.682 204.125C104.308 200.163 100.336 202.542 100.336 202.542C100.336 202.542 99.7394 195.604 95.1809 193.024C92.354 191.496 89.0442 191.124 85.9486 191.987L85.1421 189.397" stroke="#5D696F" stroke-linecap="round" stroke-linejoin="round"/>
<path d="M126.72 212.511C125.267 211.174 123.118 211.259 123.118 211.259C123.118 211.259 125.698 201.551 116.977 198.971C114.372 198.204 112.403 198.355 110.92 198.946" stroke="#5D696F" stroke-linecap="round" stroke-linejoin="round"/>
<path d="M128.033 215.818C128.033 215.301 127.96 214.787 127.817 214.29" stroke="#5D696F" stroke-linecap="round" stroke-linejoin="round"/>
<path d="M103.476 185.516H83.3838L88.3932 176.148H98.467L103.476 185.516Z" fill="#757575" stroke="#5D696F" stroke-linecap="round" stroke-linejoin="round"/>
<path d="M61.3976 185.516H41.3049L46.3143 176.148H56.3882L61.3976 185.516Z" fill="#757575" stroke="#5D696F" stroke-linecap="round" stroke-linejoin="round"/>
<path d="M85.9434 185.516H58.8376L63.847 176.148H80.934L85.9434 185.516Z" fill="#999999" stroke="#5D696F" stroke-linecap="round" stroke-linejoin="round"/>
<path d="M102.134 176.819H84.7314V85.1476C84.7302 74.4289 87.7456 63.9263 93.4327 54.8408C99.1199 63.9263 102.135 74.4289 102.134 85.1476V176.819Z" fill="#D1BBA4"/>
<path opacity="0.3" d="M102.074 82.6719C102.109 83.4834 102.134 84.2999 102.134 85.1165V176.818H84.7312V85.1465C84.7312 84.33 84.7312 83.5135 84.7863 82.7019L102.074 82.6719Z" fill="white"/>
<path opacity="0.2" d="M90.3668 85.7772V176.818H84.7312V85.1461C84.7237 78.4001 85.9109 71.706 88.2378 65.374C89.6431 72.0844 90.3565 78.9213 90.3668 85.7772Z" fill="black"/>
<path opacity="0.2" d="M102.133 85.1212V176.818H99.7933V86.1181C99.7934 75.3625 97.6299 64.7168 93.4314 54.8145C99.1186 63.8999 102.134 74.4026 102.133 85.1212Z" fill="black"/>
<path d="M102.134 176.819H84.7314V85.1476C84.7302 74.4289 87.7456 63.9263 93.4327 54.8408V54.8408C99.1199 63.9263 102.135 74.4289 102.134 85.1476V176.819Z" stroke="#5D696F" stroke-linecap="round" stroke-linejoin="round"/>
<path d="M60.0552 176.819H42.6526V85.1476C42.6513 74.4289 45.6667 63.9263 51.3539 54.8408C57.041 63.9263 60.0564 74.4289 60.0552 85.1476V176.819Z" fill="#D1BBA4"/>
<path opacity="0.3" d="M59.9851 82.4824C60.0251 83.3591 60.0552 84.2407 60.0552 85.1224V176.819H42.6526V85.1474C42.6526 84.2658 42.6826 83.3841 42.7227 82.5075L59.9851 82.4824Z" fill="white"/>
<path opacity="0.2" d="M57.836 69.3531C59.3093 74.48 60.0563 79.7882 60.0551 85.1226V176.819H54.4146V85.7788C54.415 81.7419 54.6592 77.7087 55.1459 73.7012C55.4799 70.8993 55.9391 68.1158 56.5235 65.3506C57.0094 66.6681 57.4502 68.0006 57.836 69.3531Z" fill="black"/>
<path opacity="0.2" d="M51.3539 54.8164C47.1514 64.7177 44.9861 75.3639 44.987 86.12V176.82H42.6526V85.1482C42.6466 74.421 45.6622 63.9091 51.3539 54.8164Z" fill="black"/>
<path d="M60.0552 176.819H42.6526V85.1476C42.6513 74.4289 45.6667 63.9263 51.3539 54.8408C57.041 63.9263 60.0564 74.4289 60.0552 85.1476V176.819Z" stroke="#5D696F" stroke-linecap="round" stroke-linejoin="round"/>
<path d="M102.074 82.6133H84.9319" stroke="#5D696F" stroke-linecap="round" stroke-linejoin="round"/>
<path d="M84.7263 102.014H102.129V100.711H84.7263V102.014Z" stroke="#5D696F" stroke-linecap="round" stroke-linejoin="round"/>
<path d="M84.7312 139.028H102.074V135.727H84.7312V139.028Z" stroke="#5D696F" stroke-linecap="round" stroke-linejoin="round"/>
<path d="M42.7078 82.6133H59.8549" stroke="#5D696F" stroke-linecap="round" stroke-linejoin="round"/>
<path d="M60.0552 100.712H42.6526V102.014H60.0552V100.712Z" stroke="#5D696F" stroke-linecap="round" stroke-linejoin="round"/>
<path d="M60.0502 135.722H42.7078V139.023H60.0502V135.722Z" stroke="#5D696F" stroke-linecap="round" stroke-linejoin="round"/>
<path d="M84.9317 176.819H59.8547V44.6768C59.849 29.2313 64.1888 14.0957 72.3782 1C80.5647 14.0952 84.9043 29.2283 84.9017 44.6718L84.9317 176.819Z" fill="#D1BBA4"/>
<path opacity="0.2" d="M84.6968 38.4847H60.0957C61.0963 25.1838 65.317 12.3259 72.3937 1.01953C79.475 12.3315 83.6974 25.1966 84.6968 38.5047V38.4847Z" fill="black" fill-opacity="0.7"/>
<g opacity="0.2">
<path opacity="0.2" d="M76.9458 176.818H67.8337V48.7735C67.8337 33.8055 69.4117 19.138 72.3923 6.44922C75.3679 19.138 76.9458 33.8055 76.9458 48.7685V176.818Z" fill="white"/>
</g>
<path opacity="0.2" d="M84.6715 155.544V176.819H60.0554V155.604C60.9601 154.718 61.7694 153.739 62.4699 152.684V123.464C62.4699 113.355 66.4775 107.77 72.3935 107.77C78.3096 107.77 82.3171 113.355 82.3171 123.464V152.684C82.9989 153.717 83.7881 154.676 84.6715 155.544Z" fill="black"/>
<path d="M84.9317 176.819H59.8547V44.6768C59.849 29.2313 64.1888 14.0957 72.3782 1V1C80.5647 14.0952 84.9043 29.2283 84.9017 44.6718L84.9317 176.819Z" stroke="#5D696F" stroke-linecap="round" stroke-linejoin="round"/>
<path d="M84.9317 60.2861H59.8547V63.6574H84.9317V60.2861Z" stroke="#5D696F" stroke-linecap="round" stroke-linejoin="round"/>
<path d="M84.9317 89.6162H59.8547V102.014H84.9317V89.6162Z" stroke="#5D696F" stroke-linecap="round" stroke-linejoin="round"/>
<path d="M84.9317 148.372H59.8547V158.381H84.9317V148.372Z" stroke="#5D696F" stroke-linecap="round" stroke-linejoin="round"/>
<path d="M81.3201 153.972V140.326H78.5449V173.674H92.2857V167.447C92.2855 166.658 92.099 165.88 91.7412 165.176C91.3834 164.473 90.8645 163.864 90.2268 163.399L83.6896 158.63C82.9559 158.095 82.3589 157.394 81.9472 156.585C81.5355 155.775 81.3206 154.88 81.3201 153.972Z" fill="#D1BBA4" stroke="#5D696F" stroke-linecap="round" stroke-linejoin="round"/>
<path d="M63.4616 153.972V140.326H66.2368V173.674H52.4961V167.447C52.4962 166.658 52.6827 165.88 53.0405 165.176C53.3983 164.473 53.9172 163.864 54.555 163.399L61.0972 158.63C61.8303 158.095 62.4265 157.394 62.8373 156.584C63.2482 155.775 63.4621 154.88 63.4616 153.972Z" fill="#D1BBA4" stroke="#5D696F" stroke-linecap="round" stroke-linejoin="round"/>
<path d="M52.4961 170.768H92.2856" stroke="#5D696F" stroke-linecap="round" stroke-linejoin="round"/>
<path d="M76.7812 176.82H68.0048L66.502 172.462H78.284L76.7812 176.82Z" fill="#D1BBA4" stroke="#5D696F" stroke-linecap="round" stroke-linejoin="round"/>
<path d="M81.36 123.525V173.673H63.5266V123.525C63.5336 118.575 65.1768 113.767 68.2004 109.849C68.7023 109.202 69.3456 108.678 70.081 108.318C70.8164 107.958 71.6244 107.771 72.4433 107.771C73.2622 107.771 74.0702 107.958 74.8056 108.318C75.541 108.678 76.1843 109.202 76.6863 109.849C77.558 110.977 78.3196 112.187 78.9605 113.461C79.4264 114.376 79.8264 115.324 80.1578 116.296C80.9538 118.623 81.36 121.065 81.36 123.525Z" fill="white"/>
<path opacity="0.3" d="M81.31 123.525V173.673H76.9017V124.832C76.9048 122.471 76.7036 120.115 76.3006 117.789C76.1369 116.844 75.9366 115.924 75.6995 115.029C75.3962 113.837 75.0163 112.665 74.5623 111.522C74.0263 110.17 73.2348 109.518 72.4434 109.518C71.6519 109.518 70.8554 110.195 70.3194 111.522C69.8698 112.667 69.4901 113.838 69.1822 115.029C68.3727 118.233 67.9704 121.527 67.985 124.832V173.673H63.4766V123.525C63.4835 118.575 65.1267 113.767 68.1503 109.849C68.6523 109.202 69.2955 108.678 70.0309 108.318C70.7663 107.958 71.5744 107.771 72.3933 107.771C73.2122 107.771 74.0202 107.958 74.7556 108.318C75.491 108.678 76.1343 109.202 76.6362 109.849C77.508 110.977 78.2696 112.187 78.9105 113.461C79.3763 114.376 79.7764 115.324 80.1077 116.296C80.9037 118.623 81.31 121.065 81.31 123.525Z" fill="#D1BBA4"/>
<path d="M81.36 123.525V173.673H63.5266V123.525C63.5336 118.575 65.1768 113.767 68.2004 109.849C68.7023 109.202 69.3456 108.678 70.081 108.318C70.8164 107.958 71.6244 107.771 72.4433 107.771C73.2622 107.771 74.0702 107.958 74.8056 108.318C75.541 108.678 76.1843 109.202 76.6863 109.849C77.558 110.977 78.3196 112.187 78.9605 113.461C79.4264 114.376 79.8264 115.324 80.1578 116.296C80.9538 118.623 81.36 121.065 81.36 123.525V123.525Z" stroke="#5D696F" stroke-linecap="round" stroke-linejoin="round"/>
<path d="M76.1252 122.944C74.6674 118.505 70.0839 118.505 68.6111 122.944L66.968 121.942C69.0619 115.565 75.6493 115.565 77.7482 121.942L76.1252 122.944Z" fill="white"/>
<path d="M76.1252 122.944C74.6674 118.505 70.0839 118.505 68.6111 122.944L66.968 121.942C69.0619 115.565 75.6493 115.565 77.7482 121.942L76.1252 122.944Z" fill="#BFBFBF" stroke="#5D696F" stroke-miterlimit="10"/>
<path d="M78.9104 113.461H65.886C66.5269 112.187 67.2885 110.977 68.1603 109.849C68.6622 109.202 69.3055 108.678 70.0409 108.318C70.7763 107.958 71.5843 107.771 72.4032 107.771C73.2221 107.771 74.0301 107.958 74.7655 108.318C75.5009 108.678 76.1442 109.202 76.6461 109.849C77.5145 110.978 78.2727 112.187 78.9104 113.461Z" fill="#D1BBA4" stroke="#5D696F" stroke-linecap="round" stroke-linejoin="round"/>
<path d="M146.001 177.45C146.202 185.465 142.239 184.809 142.239 184.809C141.821 183.887 141.318 183.007 140.736 182.179C138.663 178.988 135.487 174.514 136.679 171.864C137.458 170.283 138.343 168.757 139.329 167.296C141.453 164.04 143.892 160.748 143.892 160.748L133.312 158.995C133.312 158.995 125.798 162.111 119.832 162.472H119.371C113.941 162.577 114.818 158.319 114.818 156.961C114.818 156.375 116.286 155.303 118.004 154.246C120.453 152.743 123.424 151.266 123.424 151.266L121.816 147.934C120.892 148.121 119.945 148.172 119.006 148.085C114.888 147.634 115.454 143.576 116.12 141.813C116.311 141.312 117.257 140.541 118.595 139.659C122.828 136.869 130.933 132.981 130.933 132.981H142.82L154.517 164.911C154.517 164.911 145.806 169.445 146.001 177.45Z" fill="white"/>
<path opacity="0.4" d="M146.001 177.45C146.202 185.465 142.239 184.809 142.239 184.809C141.821 183.887 141.318 183.007 140.736 182.179C138.663 178.988 135.487 174.514 136.679 171.864C137.458 170.283 138.343 168.757 139.329 167.296C141.453 164.04 143.892 160.748 143.892 160.748L133.312 158.995C133.312 158.995 125.798 162.111 119.832 162.472H119.371C113.941 162.577 114.818 158.319 114.818 156.961C114.818 156.375 116.286 155.303 118.004 154.246C120.453 152.743 123.424 151.266 123.424 151.266L121.816 147.934C120.892 148.121 119.945 148.172 119.006 148.085C114.888 147.634 115.454 143.576 116.12 141.813C116.311 141.312 117.257 140.541 118.595 139.659C122.828 136.869 130.933 132.981 130.933 132.981H142.82L154.517 164.911C154.517 164.911 145.806 169.445 146.001 177.45Z" fill="#D1BBA4"/>
<path opacity="0.4" d="M146.001 177.45C146.202 185.465 142.239 184.809 142.239 184.809C141.821 183.888 141.318 183.007 140.736 182.179C140.887 181.412 140.959 180.631 140.952 179.85C140.902 177.109 138.653 171.865 138.653 171.865L140.952 168.228C140.479 167.811 139.927 167.495 139.329 167.296C141.453 164.04 143.892 160.749 143.892 160.749L133.313 158.996C133.313 158.996 125.799 162.111 119.832 162.472H119.371C119.717 159.491 118.54 155.734 118.004 154.232C120.453 152.729 123.424 151.251 123.424 151.251L121.816 147.92C120.892 148.106 119.945 148.157 119.006 148.07C119.547 145.47 119.031 141.863 118.595 139.644C122.828 136.854 130.933 132.967 130.933 132.967H142.82L154.517 164.897C154.517 164.897 145.806 169.445 146.001 177.45Z" fill="#D1BBA4"/>
<path d="M142.83 132.981H130.943C130.943 132.981 116.917 139.709 116.13 141.813C115.344 143.917 114.693 149.217 121.826 147.934L123.434 151.266C123.434 151.266 114.828 155.544 114.828 156.961C114.828 158.379 113.901 162.827 119.837 162.472C125.773 162.116 133.317 158.995 133.317 158.995L143.897 160.748C143.897 160.748 138.277 168.333 136.689 171.864C135.101 175.396 141.247 182.144 142.249 184.809C142.249 184.809 146.212 185.455 146.011 177.45C145.811 169.445 154.527 164.926 154.527 164.926" stroke="#5D696F" stroke-linecap="round" stroke-linejoin="round"/>
<path d="M140.015 170.438C140.015 170.438 142.996 168.77 144.619 171.866" stroke="#5D696F" stroke-linecap="round" stroke-linejoin="round"/>
<path d="M144.048 84.4814H145.185C145.345 84.4814 145.5 84.5453 145.613 84.659C145.727 84.7727 145.791 84.9268 145.791 85.0876V109.483H143.441V85.0876C143.441 85.008 143.457 84.9292 143.488 84.8556C143.518 84.7821 143.563 84.7153 143.619 84.659C143.675 84.6027 143.742 84.558 143.816 84.5276C143.889 84.4971 143.968 84.4814 144.048 84.4814Z" fill="#5D696F"/>
<path d="M145.345 58.2275H143.882V85.684H145.345V58.2275Z" fill="#5D696F"/>
<path d="M145.566 55.5068H143.662V59.2288H145.566V55.5068Z" fill="#757575" stroke="#5D696F" stroke-linecap="round" stroke-linejoin="round"/>
<path opacity="0.3" d="M144.133 103.091V103.587" stroke="white" stroke-linecap="round" stroke-linejoin="round"/>
<path opacity="0.3" d="M145.099 85.2227H144.133V101.899" stroke="white" stroke-linecap="round" stroke-linejoin="round"/>
<path opacity="0.3" d="M144.518 75.9053V76.832" stroke="white" stroke-linecap="round" stroke-linejoin="round"/>
<path opacity="0.3" d="M144.518 60.0557V73.9918" stroke="white" stroke-linecap="round" stroke-linejoin="round"/>
<path d="M165.177 108.131H124.055C122.55 108.131 121.33 109.351 121.33 110.856V159.687C121.33 161.192 122.55 162.413 124.055 162.413H165.177C166.682 162.413 167.902 161.192 167.902 159.687V110.856C167.902 109.351 166.682 108.131 165.177 108.131Z" fill="#757575"/>
<path opacity="0.2" d="M123.013 152.674V111.417C123.013 111.163 123.062 110.912 123.159 110.677C123.255 110.443 123.397 110.229 123.576 110.05C123.755 109.87 123.968 109.728 124.203 109.63C124.437 109.533 124.688 109.483 124.942 109.483H162.758C162.84 109.484 162.921 109.462 162.993 109.421C163.064 109.379 163.123 109.32 163.163 109.248C163.202 109.177 163.221 109.098 163.219 109.018C163.218 108.938 163.196 108.86 163.155 108.791C163.114 108.723 163.056 108.666 162.986 108.626C162.916 108.587 162.838 108.566 162.758 108.566H124.215C123.626 108.566 123.06 108.801 122.643 109.218C122.226 109.635 121.991 110.201 121.991 110.791V152.804C121.99 152.9 122.019 152.994 122.073 153.072C122.128 153.151 122.206 153.21 122.297 153.241C122.387 153.273 122.485 153.275 122.577 153.248C122.668 153.221 122.749 153.166 122.808 153.09L122.898 152.97C122.971 152.889 123.012 152.783 123.013 152.674Z" fill="white"/>
<path opacity="0.4" d="M167.902 110.856V159.687C167.902 160.41 167.615 161.103 167.104 161.614C166.593 162.125 165.9 162.412 165.177 162.412H124.055C123.415 162.412 122.797 162.187 122.307 161.776C123.006 161.259 123.773 160.839 124.586 160.529H140.255H164.21C164.742 160.529 165.251 160.318 165.627 159.942C166.003 159.566 166.214 159.056 166.214 158.525V111.853C166.599 111.114 167.107 110.446 167.717 109.879C167.84 110.19 167.903 110.521 167.902 110.856Z" fill="black" fill-opacity="0.7"/>
<path opacity="0.2" d="M167.901 148.572V159.688C167.901 160.41 167.614 161.103 167.103 161.615C166.592 162.126 165.899 162.413 165.176 162.413H140.54L140.254 160.539C140.455 159.763 140.254 156.336 140.254 156.336C138.671 152.113 140.254 145.777 140.254 145.777L150.198 139.625C150.198 139.625 156.901 143.287 158.188 144.634C159.475 145.982 160.467 154.478 160.467 154.478C161.795 154.162 164.109 152.214 166.218 150.205C166.794 149.664 167.375 149.103 167.901 148.572Z" fill="black" fill-opacity="0.7"/>
<path d="M165.177 108.131H124.055C122.55 108.131 121.33 109.351 121.33 110.856V159.687C121.33 161.192 122.55 162.413 124.055 162.413H165.177C166.682 162.413 167.902 161.192 167.902 159.687V110.856C167.902 109.351 166.682 108.131 165.177 108.131Z" stroke="#5D696F" stroke-linecap="round" stroke-linejoin="round"/>
<path d="M166.219 152.088V153.576" stroke="#5D696F" stroke-linecap="round" stroke-linejoin="round"/>
<path d="M138.662 109.984H164.35C164.846 109.984 165.321 110.181 165.672 110.532C166.022 110.882 166.219 111.357 166.219 111.853V150.11" stroke="#5D696F" stroke-linecap="round" stroke-linejoin="round"/>
<path d="M123.013 118.58V111.853C123.013 111.357 123.21 110.882 123.561 110.532C123.911 110.181 124.386 109.984 124.882 109.984H133.117" stroke="#5D696F" stroke-linecap="round" stroke-linejoin="round"/>
<path d="M123.013 123.139V121.852" stroke="#5D696F" stroke-linecap="round" stroke-linejoin="round"/>
<path d="M131.229 160.558H124.882C124.386 160.558 123.911 160.361 123.561 160.011C123.21 159.661 123.013 159.185 123.013 158.69V125.628" stroke="#5D696F" stroke-linecap="round" stroke-linejoin="round"/>
<path d="M166.219 158.69C166.219 159.186 166.022 159.661 165.672 160.012C165.322 160.362 164.846 160.559 164.351 160.559H133.117" stroke="#5D696F" stroke-linecap="round" stroke-linejoin="round"/>
<path d="M144.618 149.047C149.822 149.047 154.041 144.829 154.041 139.625C154.041 134.421 149.822 130.202 144.618 130.202C139.414 130.202 135.196 134.421 135.196 139.625C135.196 144.829 139.414 149.047 144.618 149.047Z" fill="#D1BBA4"/>
<path opacity="0.2" d="M154.041 139.625C154.042 141.46 153.506 143.256 152.5 144.791C151.495 146.326 150.063 147.535 148.38 148.267C146.697 149 144.837 149.225 143.028 148.915C141.219 148.605 139.54 147.774 138.197 146.523C138.526 145.89 138.989 145.336 139.554 144.9C139.554 144.9 145.009 149.569 149.994 144.579C153.726 140.842 150.495 135.272 150.495 135.272C150.495 135.272 150.995 134.731 152.498 134.485C153.501 136.012 154.037 137.798 154.041 139.625Z" fill="black" fill-opacity="0.7"/>
<path opacity="0.2" d="M139.095 141.748C138.992 141.793 138.876 141.797 138.77 141.761C138.664 141.725 138.574 141.651 138.519 141.553C138.409 141.383 138.341 141.189 138.324 140.987C137.683 136.98 139.802 133.192 144.075 132.837C144.871 132.767 146.915 132.837 146.624 134.139C146.502 134.555 146.231 134.911 145.863 135.141C144.604 135.941 143.386 136.805 142.216 137.731C141.638 138.22 141.132 138.788 140.713 139.419C140.498 139.74 139.777 141.468 139.095 141.748Z" fill="black" fill-opacity="0.7"/>
<path d="M144.618 149.047C149.822 149.047 154.041 144.829 154.041 139.625C154.041 134.421 149.822 130.202 144.618 130.202C139.414 130.202 135.196 134.421 135.196 139.625C135.196 144.829 139.414 149.047 144.618 149.047Z" stroke="#5D696F" stroke-linecap="round" stroke-linejoin="round"/>
<path d="M137.3 139.624C137.3 138.663 137.489 137.712 137.857 136.824C138.225 135.937 138.764 135.13 139.444 134.451C140.123 133.772 140.93 133.233 141.818 132.866C142.706 132.499 143.658 132.31 144.619 132.311" stroke="#5D696F" stroke-linecap="round" stroke-linejoin="round"/>
<path d="M142.705 146.683C141.398 146.33 140.215 145.621 139.287 144.634C138.359 143.648 137.723 142.424 137.45 141.098" stroke="#5D696F" stroke-linecap="round" stroke-linejoin="round"/>
<path d="M149.297 134.004C150.453 134.966 151.283 136.26 151.677 137.711C152.07 139.162 152.007 140.699 151.495 142.112C150.984 143.526 150.049 144.748 148.819 145.611C147.589 146.475 146.122 146.938 144.619 146.938" stroke="#5D696F" stroke-linecap="round" stroke-linejoin="round"/>
<path d="M146.091 132.456C146.698 132.58 147.285 132.782 147.84 133.057" stroke="#5D696F" stroke-linecap="round" stroke-linejoin="round"/>
<path d="M137.896 118.35C138.868 118.35 139.369 118.931 139.369 119.943V120.143H138.427V119.882C138.427 119.427 138.242 119.256 137.926 119.256C137.61 119.256 137.425 119.427 137.425 119.882C137.425 120.338 137.626 120.689 138.282 121.26C139.113 121.996 139.379 122.522 139.379 123.264C139.379 124.266 138.878 124.857 137.876 124.857C136.874 124.857 136.373 124.276 136.373 123.264V122.873H137.315V123.324C137.315 123.78 137.515 123.94 137.816 123.94C138.116 123.94 138.317 123.78 138.317 123.324C138.317 122.868 138.121 122.517 137.465 121.946C136.634 121.21 136.368 120.684 136.368 119.943C136.428 118.931 136.929 118.35 137.896 118.35Z" fill="white"/>
<path d="M139.659 118.42H142.75V119.327H141.698V124.752H140.696V119.327H139.654L139.659 118.42Z" fill="white"/>
<path d="M146.061 124.751H145.059L144.889 123.599H143.662L143.491 124.751H142.575L143.577 118.399H145.034L146.061 124.751ZM143.787 122.748H144.754L144.283 119.537L143.787 122.748Z" fill="white"/>
<path d="M148.611 124.752C148.529 124.5 148.498 124.234 148.521 123.97V122.968C148.521 122.377 148.321 122.162 147.87 122.162H147.524V124.752H146.522V118.42H148.025C149.062 118.42 149.528 118.921 149.528 119.883V120.384C149.563 120.639 149.519 120.899 149.402 121.128C149.284 121.357 149.099 121.545 148.872 121.666C149.373 121.876 149.533 122.347 149.533 123.009V124.01C149.515 124.272 149.552 124.535 149.643 124.782L148.611 124.752ZM147.524 119.307V121.26H147.915C148.286 121.26 148.511 121.095 148.511 120.589V119.963C148.511 119.507 148.361 119.307 148.01 119.307H147.524Z" fill="white"/>
<path d="M149.883 118.42H152.969V119.327H151.922V124.752H150.92V119.327H149.878L149.883 118.42Z" fill="white"/>
<path d="M173.548 123.083C173.548 123.083 169.585 124.31 168.198 127.752" stroke="#5D696F" stroke-linecap="round" stroke-linejoin="round"/>
<path d="M191.511 232.267C191.066 224.608 190.775 216.783 190.394 210.486C189.603 197.427 189.007 188.666 187.82 179.749C186.632 170.832 186.818 157.362 186.232 152.658C185.645 147.954 183.867 146.957 182.47 141.367C181.072 135.776 179.81 124.646 177.515 123.083C175.221 121.52 168.198 118.574 168.198 118.574V150.103C164.035 156.5 159.081 158.083 159.081 158.083C155.91 148.906 156.311 145.264 153.14 141.893C149.969 138.522 147.684 134.118 142.705 135.962C140.336 136.838 139.068 137.73 140.255 145.77C141.443 153.81 143.822 156.33 143.822 156.33C144.218 159.075 143.627 167.06 142.635 171.148C141.643 175.235 145.41 186.086 147.193 193.024C148.977 199.962 158.49 214.013 158.49 214.013C158.703 219.306 158.571 224.607 158.094 229.883C158.019 230.629 157.929 231.426 157.823 232.262C157.823 232.262 162.197 239 166.875 239C184.448 239.005 191.511 232.267 191.511 232.267Z" fill="white"/>
<path opacity="0.4" d="M140.962 138.332C141.145 137.874 141.145 137.363 140.962 136.905C141.475 136.48 142.068 136.161 142.705 135.968C147.685 134.124 149.969 138.533 153.14 141.899C153.425 142.201 153.691 142.52 153.936 142.856C151.066 141.774 147.304 141.794 145.791 143.893C143.887 146.523 140.01 141.784 140.962 138.332Z" fill="#D1BBA4"/>
<path opacity="0.4" d="M162.467 224.534L164.035 230.41C164.035 230.41 161.826 228.246 158.525 222.996C158.685 217.872 158.49 214.019 158.49 214.019C158.49 214.019 148.972 199.963 147.194 193.03C145.415 186.097 141.643 175.237 142.635 171.154C143.627 167.071 144.218 159.081 143.822 156.336C143.357 155.764 142.969 155.132 142.67 154.458C143.081 154.032 143.601 153.727 144.173 153.576C145.82 158.033 146.478 162.795 146.102 167.532C145.486 175.457 146.843 176.118 149.468 186.423C152.093 196.727 156.451 208.394 158.485 210.468C160.519 212.542 161.425 222.009 162.467 224.534Z" fill="#D1BBA4"/>
<path opacity="0.4" d="M166.219 155.108C166.219 155.108 169.345 155.608 170.603 156.335C170.603 156.335 164.501 157.928 164.09 159.626C163.68 161.324 162.387 163.087 160.083 161.014C160.083 161.014 159.963 159.716 159.722 157.833C161.195 157.176 164.937 155.118 168.198 150.108V118.579C168.198 118.579 171.665 120.032 174.525 121.434C172.406 121.715 170.237 122.366 169.39 123.799C169.665 124.676 170.127 125.484 170.742 126.167C171.358 126.849 172.113 127.392 172.957 127.756C175.211 128.758 172.957 145.79 172.957 145.79C172.957 145.79 176.654 146.702 177.841 150.123C177.841 150.123 171.765 150.744 169.255 152.673C166.745 154.602 166.219 155.108 166.219 155.108Z" fill="#D1BBA4"/>
<path opacity="0.4" d="M190.394 210.487C190.705 215.587 190.951 221.688 191.266 227.895C190.485 216.098 188.115 195.835 188.115 195.835C188.115 195.835 185.996 203.324 185.836 202.528C185.365 200.183 186.838 186.933 186.698 182.215C186.637 180.076 186.793 174.59 186.983 169.24C187.153 172.917 187.399 176.604 187.82 179.76C189.007 188.667 189.603 197.428 190.394 210.487Z" fill="#D1BBA4"/>
<path d="M191.511 232.267C191.066 224.608 190.775 216.783 190.394 210.486C189.603 197.427 189.007 188.666 187.82 179.749C186.632 170.832 186.818 157.362 186.232 152.658C185.645 147.954 183.867 146.957 182.47 141.367C181.072 135.776 179.81 124.646 177.515 123.083C175.221 121.52 168.198 118.574 168.198 118.574V150.103C164.035 156.5 159.081 158.083 159.081 158.083C155.91 148.906 156.311 145.264 153.14 141.893C149.969 138.522 147.684 134.118 142.705 135.962C140.336 136.838 139.068 137.73 140.255 145.77C141.443 153.81 143.822 156.33 143.822 156.33C144.218 159.075 143.627 167.06 142.635 171.148C141.643 175.235 145.41 186.086 147.193 193.024C148.977 199.962 158.49 214.013 158.49 214.013C158.703 219.306 158.571 224.607 158.094 229.883C158.019 230.629 157.929 231.426 157.823 232.262" stroke="#5D696F" stroke-linecap="round" stroke-linejoin="round"/>
<path d="M159.081 158.089C159.081 158.089 160.083 162.507 162.056 163.499C164.03 164.491 166.89 163.499 166.89 163.499" stroke="#5D696F" stroke-linecap="round" stroke-linejoin="round"/>
<path d="M168.198 150.109C168.198 150.109 170.202 145.701 176.523 149.523" stroke="#5D696F" stroke-linecap="round" stroke-linejoin="round"/>
<path d="M168.198 132.311C168.198 132.311 168.593 129.972 171.865 129.381" stroke="#5D696F" stroke-linecap="round" stroke-linejoin="round"/>
<path d="M158.49 214.019C162.252 218.792 161.535 223.346 162.998 225.725C164.461 228.105 164.245 236.626 164.245 236.626" stroke="#5D696F" stroke-linecap="round" stroke-linejoin="round"/>
<path d="M185.831 168.228V184.809C185.779 189.56 185.315 194.299 184.443 198.97" stroke="#5D696F" stroke-linecap="round" stroke-linejoin="round"/>
<path d="M143.822 156.336C143.822 156.336 143.822 153.506 144.619 152.659" stroke="#5D696F" stroke-linecap="round" stroke-linejoin="round"/>
<path d="M146.001 147.434C146.001 147.434 147.76 141.523 152.909 144.103" stroke="#5D696F" stroke-linecap="round" stroke-linejoin="round"/>
<path d="M161.881 156.626C165.708 156.712 169.586 155.013 171.865 157.077" stroke="#5D696F" stroke-linecap="round" stroke-linejoin="round"/>
</g>
</svg>
