<svg width="240" height="207" viewBox="0 0 240 207" fill="none" xmlns="http://www.w3.org/2000/svg">
<g opacity="0.8">
<path opacity="0.1" d="M208.497 15.8713C208.497 15.8713 186.047 -5.13046 153.434 1.18384C120.821 7.49813 104.87 33.0366 84.8263 49.9506C74.3344 58.8085 59.8983 61.3223 47.8323 67.864C9.25221 88.764 9.28214 141.858 35.1977 163.71C57.6299 182.629 87.6513 186.555 128.242 176.62C168.833 166.684 197.73 161.058 225.8 126.38C253.87 91.7027 235.915 44.1689 208.497 15.8713Z" fill="white"/>
<path d="M219.994 69.1031C216.912 67.4212 215.505 68.8277 214.386 67.4212C213.267 66.0147 217.468 62.3758 209.053 58.7249C209.053 58.7249 208.497 50.8724 196.993 50.5911C185.49 50.3098 188.578 58.4555 185.508 60.4127C182.437 62.3698 181.575 59.2875 178.493 61.2506C175.411 63.2137 176.811 67.1399 174.304 67.7025C171.796 68.2651 168.414 65.1768 165.326 67.1399C162.238 69.1031 162.244 70.7909 160.837 70.7909C159.431 70.7909 156.647 69.6657 154.948 70.7909C153.248 71.9161 151.303 73.3106 151.303 73.3106H222.238C222.238 73.3106 223.082 70.7909 219.994 69.1031Z" fill="#D1BBA4"/>
<g opacity="0.5">
<path opacity="0.5" d="M219.994 69.1031C216.912 67.4212 215.505 68.8277 214.386 67.4212C213.267 66.0147 217.468 62.3758 209.053 58.7249C209.053 58.7249 208.497 50.8724 196.993 50.5911C185.49 50.3098 188.578 58.4555 185.508 60.4127C182.437 62.3698 181.575 59.2875 178.493 61.2506C175.411 63.2137 176.811 67.1399 174.304 67.7025C171.796 68.2651 168.414 65.1768 165.326 67.1399C162.238 69.1031 162.244 70.7909 160.837 70.7909C159.431 70.7909 156.647 69.6657 154.948 70.7909C153.248 71.9161 151.303 73.3106 151.303 73.3106H222.238C222.238 73.3106 223.082 70.7909 219.994 69.1031Z" fill="white"/>
</g>
<path d="M173.772 153.499C168.787 150.776 166.518 153.044 164.711 150.776C162.903 148.508 169.69 142.618 156.098 136.729C156.098 136.729 155.188 124.04 136.611 123.562C118.033 123.083 123.012 136.25 118.027 139.422C113.041 142.594 111.683 137.627 106.703 140.787C101.723 143.947 103.98 150.327 99.9218 151.225C95.8639 152.123 90.4055 147.149 85.4199 150.321C80.4343 153.493 80.4343 156.21 78.1659 156.21C75.8976 156.21 71.3668 154.415 68.6496 156.21C65.9324 158.006 62.7603 160.292 62.7603 160.292H177.399C177.399 160.292 178.758 156.216 173.772 153.499Z" fill="#D1BBA4"/>
<g opacity="0.5">
<path opacity="0.5" d="M173.772 153.499C168.787 150.776 166.518 153.044 164.711 150.776C162.903 148.508 169.69 142.618 156.098 136.729C156.098 136.729 155.188 124.04 136.611 123.562C118.033 123.083 123.012 136.25 118.027 139.422C113.041 142.594 111.683 137.627 106.703 140.787C101.723 143.947 103.98 150.327 99.9218 151.225C95.8639 152.123 90.4055 147.149 85.4199 150.321C80.4343 153.493 80.4343 156.21 78.1659 156.21C75.8976 156.21 71.3668 154.415 68.6496 156.21C65.9324 158.006 62.7603 160.292 62.7603 160.292H177.399C177.399 160.292 178.758 156.216 173.772 153.499Z" fill="white"/>
</g>
<path d="M63.2857 100.74C61.5799 99.8066 60.8019 100.585 60.1794 99.8066C59.557 99.0286 61.8852 97.0116 57.2287 95.0185C57.2287 95.0185 56.9175 90.6674 50.5494 90.5117C44.1812 90.3561 45.8929 94.8629 44.1872 95.9462C42.4814 97.0295 42.0086 95.3477 40.3028 96.4131C38.5971 97.4784 39.3692 99.675 37.9746 100.004C36.5801 100.333 34.7127 98.6096 33.007 99.6929C31.3012 100.776 31.2952 101.668 30.4932 101.668C29.6912 101.668 28.165 101.069 27.2373 101.668C26.3096 102.267 25.2144 103.069 25.2144 103.069H64.5066C64.5066 103.069 64.9914 101.668 63.2857 100.74Z" fill="#D1BBA4"/>
<g opacity="0.5">
<path opacity="0.5" d="M63.2857 100.74C61.5799 99.8066 60.8019 100.585 60.1794 99.8066C59.557 99.0286 61.8852 97.0116 57.2287 95.0185C57.2287 95.0185 56.9175 90.6674 50.5494 90.5117C44.1812 90.3561 45.8929 94.8629 44.1872 95.9462C42.4814 97.0295 42.0086 95.3477 40.3028 96.4131C38.5971 97.4784 39.3692 99.675 37.9746 100.004C36.5801 100.333 34.7127 98.6096 33.007 99.6929C31.3012 100.776 31.2952 101.668 30.4932 101.668C29.6912 101.668 28.165 101.069 27.2373 101.668C26.3096 102.267 25.2144 103.069 25.2144 103.069H64.5066C64.5066 103.069 64.9914 101.668 63.2857 100.74Z" fill="white"/>
</g>
<path d="M72.4549 192.037C72.4549 192.037 76.8838 182.891 73.6519 176.822C70.4199 170.754 66.368 176.415 60.7061 169.132C55.0442 161.848 55.0442 153.762 50.1842 152.972C45.3243 152.182 42.4994 154.169 38.8604 152.972C35.2215 151.775 39.6684 141.241 31.9775 138.811C24.2866 136.381 19.4088 142.456 14.1778 136.788C8.94678 131.12 1.23197 128.696 0.824983 131.533C0.417995 134.37 6.89389 133.957 9.32385 138.003C11.7538 142.049 19.0317 149.333 19.0317 157.018C19.0317 164.703 25.9086 161.064 30.7685 163.087C35.6284 165.11 35.2155 169.563 35.6224 175.655C36.0294 181.748 46.5453 175.655 48.1912 178.486C49.8371 181.317 46.1682 182.131 47.3832 188.601C48.5982 195.071 60.4906 195.388 60.4906 195.388" fill="#5D696F"/>
<path d="M72.4549 192.037C72.4549 192.037 76.8838 182.891 73.6519 176.822C70.4199 170.754 66.368 176.415 60.7061 169.132C55.0441 161.848 55.0442 153.762 50.1842 152.972C45.3243 152.182 42.4994 154.169 38.8604 152.972C35.2214 151.775 39.6684 141.241 31.9775 138.811C24.2866 136.381 19.4088 142.456 14.1778 136.788C8.94678 131.12 1.23197 128.696 0.824983 131.533C0.417995 134.37 6.89389 133.957 9.32385 138.003C11.7538 142.049 19.0317 149.333 19.0317 157.018C19.0317 164.703 25.9086 161.064 30.7685 163.087C35.6284 165.11 35.2155 169.563 35.6224 175.655C36.0294 181.748 46.5453 175.655 48.1912 178.486C49.8371 181.317 46.1682 182.131 47.3832 188.601C48.5982 195.071 60.4906 195.388 60.4906 195.388" stroke="#5D696F" stroke-linecap="round" stroke-linejoin="round"/>
<path d="M64.746 193.407C64.746 193.407 56.2291 173.585 43.7083 161.04C31.1874 148.495 22.6706 147.687 17.4097 143.24" stroke="white" stroke-linecap="round" stroke-linejoin="round"/>
<path d="M24.7056 155.803L34.4493 153.666L30.4094 144.401" stroke="white" stroke-linecap="round" stroke-linejoin="round"/>
<path d="M41.8169 169.587L50.3277 169.036L49.6574 161.746" stroke="white" stroke-linecap="round" stroke-linejoin="round"/>
<path d="M54.8823 185.985L61.7772 187.171L62.9622 177.193" stroke="white" stroke-linecap="round" stroke-linejoin="round"/>
<path d="M38.8725 128.75C38.8725 128.75 35.5927 129.187 32.0854 120.868C29.2006 114.015 33.1388 108.503 34.6231 106.761C34.6808 106.694 34.7539 106.642 34.8361 106.609C34.9183 106.576 35.0072 106.563 35.0953 106.572C35.1834 106.581 35.2681 106.611 35.3422 106.659C35.4163 106.708 35.4775 106.773 35.5208 106.851C36.664 108.904 40.0456 115.26 40.4107 118.893C40.8476 123.274 38.8725 128.75 38.8725 128.75Z" fill="#D1BBA4"/>
<path d="M71.9522 157.443C71.9522 157.443 69.9771 155.695 69.5582 151.972C69.1392 148.249 72.1856 141.019 73.9393 142.115C75.6929 143.21 76.3333 151.314 75.6929 154.157C75.0525 157 71.9522 157.443 71.9522 157.443Z" fill="#D1BBA4"/>
<path d="M82.4678 170.15C82.4678 170.15 80.4927 168.396 80.0738 164.673C79.6548 160.951 82.7012 153.721 84.4549 154.816C86.2085 155.911 86.8489 164.015 86.2085 166.864C85.5681 169.713 82.4678 170.15 82.4678 170.15Z" fill="#D1BBA4"/>
<path d="M87.9924 178.786C87.9924 178.786 87.1365 176.29 88.5909 172.831C90.0452 169.371 96.2638 164.589 97.2513 166.402C98.2389 168.216 94.8573 175.596 92.8582 177.774C90.8592 179.953 87.9924 178.786 87.9924 178.786Z" fill="#D1BBA4"/>
<path d="M73.5861 166.188C73.5861 166.188 71.7247 168.055 67.984 168.288C64.2433 168.522 57.2108 165.05 58.4079 163.363C59.6049 161.675 67.7267 161.471 70.5337 162.285C73.3407 163.099 73.5861 166.188 73.5861 166.188Z" fill="#D1BBA4"/>
<path d="M82.4679 179.791C82.4679 179.791 80.6066 181.658 76.8659 181.886C73.1252 182.113 66.0927 178.654 67.2897 176.966C68.4867 175.278 76.6085 175.075 79.4155 175.889C82.2226 176.703 82.4679 179.791 82.4679 179.791Z" fill="#D1BBA4"/>
<path d="M58.5875 142.767C58.5875 142.767 56.3969 142.767 55.0862 137.513C53.7755 132.258 56.3969 126.56 57.7137 127.655C59.0304 128.75 61.6579 135.543 61.2209 138.829C60.784 142.115 58.5875 142.767 58.5875 142.767Z" fill="#D1BBA4"/>
<path d="M45.6652 141.457C45.4358 140.368 44.9338 139.354 44.2064 138.512C43.4789 137.669 42.5497 137.025 41.5056 136.639C37.7769 135.101 30.9897 137.076 30.9897 137.95C30.9897 138.823 33.8387 141.457 38.8721 142.552C43.9056 143.647 45.6652 141.457 45.6652 141.457Z" fill="#D1BBA4"/>
<path d="M61.4361 155.253C61.4361 155.253 61.2206 153.505 56.8395 151.063C52.4584 148.621 47.6045 150.051 47.8619 150.997C48.1192 151.943 52.4824 154.127 56.2051 155.666C59.9279 157.204 61.4361 155.253 61.4361 155.253Z" fill="#D1BBA4"/>
<path d="M45.0069 133.131C45.0069 133.131 43.0378 131.377 42.6129 127.655C42.1879 123.932 45.2403 116.702 46.994 117.797C48.7476 118.893 49.388 126.996 48.7416 129.845C48.0952 132.694 45.0069 133.131 45.0069 133.131Z" fill="#D1BBA4"/>
<path d="M87.3099 188.817C87.3099 188.817 89.5483 183.221 78.3322 168.306C67.1161 153.391 39.1716 138.47 35.8379 120.568" stroke="#5D696F" stroke-linecap="round" stroke-linejoin="round"/>
<path d="M50.7049 142.33L37.9985 139.481" stroke="#5D696F" stroke-linecap="round" stroke-linejoin="round"/>
<path d="M59.2458 150.219L57.4922 135.98" stroke="#5D696F" stroke-linecap="round" stroke-linejoin="round"/>
<path d="M68.0077 157.664L54.6489 153.067" stroke="#5D696F" stroke-linecap="round" stroke-linejoin="round"/>
<path d="M44.7915 136.417L45.4439 125.901" stroke="#5D696F" stroke-linecap="round" stroke-linejoin="round"/>
<path d="M71.7305 160.729L72.3888 150.219" stroke="#5D696F" stroke-linecap="round" stroke-linejoin="round"/>
<path d="M82.2461 173.435L82.9045 162.919" stroke="#5D696F" stroke-linecap="round" stroke-linejoin="round"/>
<path d="M86.1904 181.539L91.9302 172.705" stroke="#5D696F" stroke-linecap="round" stroke-linejoin="round"/>
<path d="M76.8658 166.606L66.4038 165.361" stroke="#5D696F" stroke-linecap="round" stroke-linejoin="round"/>
<path d="M85.7359 180.192L75.2739 178.947" stroke="#5D696F" stroke-linecap="round" stroke-linejoin="round"/>
<path d="M202.332 193.222C202.332 193.222 208.951 188.051 208.766 182.365C208.58 176.679 203.505 179.409 201.961 171.939C200.417 164.47 203.367 158.467 200.057 156.091C196.748 153.715 193.911 154.187 191.678 151.961C189.446 149.734 196.556 143.552 191.738 138.943C186.92 134.335 181.103 137.07 179.265 130.947C177.428 124.824 172.61 120.222 171.275 122.179C169.94 124.136 174.896 126.189 175.219 130.079C175.542 133.97 178.296 142.05 175.489 147.729C172.682 153.409 179.116 153.242 181.982 156.516C184.849 159.789 182.922 162.944 181.007 167.594C179.092 172.244 189.099 171.574 189.26 174.267C189.422 176.961 186.429 176.231 184.969 181.479C183.509 186.728 192.217 191.325 192.217 191.325" fill="#5D696F"/>
<path d="M202.332 193.222C202.332 193.222 208.951 188.051 208.766 182.365C208.58 176.679 203.505 179.409 201.961 171.939C200.417 164.47 203.367 158.467 200.057 156.091C196.748 153.715 193.911 154.187 191.678 151.961C189.446 149.734 196.556 143.552 191.738 138.943C186.92 134.335 181.103 137.07 179.265 130.947C177.428 124.824 172.61 120.222 171.275 122.179C169.94 124.136 174.896 126.189 175.219 130.079C175.542 133.97 178.296 142.05 175.489 147.729C172.682 153.409 179.116 153.242 181.982 156.516C184.849 159.789 182.922 162.944 181.007 167.594C179.092 172.244 189.099 171.574 189.26 174.267C189.422 176.961 186.429 176.231 184.969 181.479C183.509 186.728 192.217 191.325 192.217 191.325" stroke="#5D696F" stroke-linecap="round" stroke-linejoin="round"/>
<path d="M196.107 191.426C196.107 191.426 197.035 173.62 192.301 159.735C187.567 145.849 181.564 142.157 179.283 136.932" stroke="white" stroke-linecap="round" stroke-linejoin="round"/>
<path d="M180.115 148.92L188.123 150.883L188.506 142.534" stroke="white" stroke-linecap="round" stroke-linejoin="round"/>
<path d="M187.782 165.385L194.3 168.085L196.46 162.429" stroke="white" stroke-linecap="round" stroke-linejoin="round"/>
<path d="M191.499 182.323L196.179 185.717L200.698 178.744" stroke="white" stroke-linecap="round" stroke-linejoin="round"/>
<path d="M211.028 137.422C208.94 134.968 209.4 132.006 210.322 128.481C211.076 125.572 214.637 121.035 218.486 120.532C219.132 120.449 219.144 120.532 219.084 121.017C218.857 124.094 218.115 128.714 216.762 131.246C215.152 134.292 213.375 135.292 211.028 137.422Z" fill="#D1BBA4"/>
<path d="M220.987 170.126C220.503 168.492 221.023 166.78 221.586 165.284C222.148 163.787 227.098 157.946 228.618 160.16C230.139 162.375 226.362 167.642 225.027 169.168C223.693 170.694 222.519 170.377 220.987 170.126Z" fill="#D1BBA4"/>
<path d="M223.034 183.544C222.597 181.886 223.136 180.108 223.723 178.606C224.309 177.104 229.259 171.424 230.749 173.662C232.239 175.901 228.457 181.168 227.122 182.682C225.787 184.196 224.561 183.861 223.034 183.544Z" fill="#D1BBA4"/>
<path d="M223.028 192.085C223.495 190.415 224.872 189.164 226.141 188.153C227.409 187.141 234.52 184.777 234.693 187.458C234.867 190.14 228.942 192.749 227.02 193.384C225.099 194.018 224.207 193.12 223.028 192.085Z" fill="#D1BBA4"/>
<path d="M218.498 176.961C216.81 177.362 215.116 176.733 213.626 176.105C212.135 175.476 206.791 170.275 209.047 168.923C211.303 167.57 216.331 171.574 217.827 172.897C219.323 174.219 218.839 175.494 218.498 176.961Z" fill="#D1BBA4"/>
<path d="M218.755 190.325C217.067 190.66 215.373 190.002 213.919 189.302C212.465 188.602 207.234 183.221 209.556 181.91C211.878 180.599 216.804 184.759 218.204 186.196C219.605 187.632 219.168 188.829 218.755 190.325Z" fill="#D1BBA4"/>
<path d="M217.774 155.133C216.289 154.6 217.462 151.231 217.744 150.13C218.025 149.028 222.502 142.397 223.825 144.743C225.147 147.089 222.556 152.129 221.43 153.619C220.305 155.109 219.258 155.666 217.774 155.133Z" fill="#D1BBA4"/>
<path d="M209.61 149.075C210.43 147.399 209.999 145.484 209.047 143.934C208.095 142.384 203.194 138.547 201.602 140.056C200.01 141.564 203.475 145.442 204.546 146.639C205.618 147.836 207.766 149.596 209.61 149.075Z" fill="#D1BBA4"/>
<path d="M214.308 164.566C214.936 163.111 213.368 161.07 212.859 159.939C212.351 158.808 207.88 154.397 206.874 156.157C205.869 157.916 209.496 161.382 210.376 162.704C211.255 164.027 212.824 164.931 214.308 164.566Z" fill="#D1BBA4"/>
<path d="M213.135 143.228C212.788 141.546 213.422 139.84 214.111 138.374C214.799 136.908 220.096 131.647 221.472 133.957C222.849 136.267 218.689 141.205 217.283 142.618C215.876 144.03 214.637 143.611 213.135 143.228Z" fill="#D1BBA4"/>
<path d="M218.001 199.285C221.688 190.906 222.149 190.768 220.694 179.055C219.24 167.342 206.192 144.988 212.973 130.929" stroke="#5D696F" stroke-linecap="round" stroke-linejoin="round"/>
<path d="M212.584 151.763C210.082 149.327 207.724 146.765 205.372 144.191" stroke="#5D696F" stroke-linecap="round" stroke-linejoin="round"/>
<path d="M214.924 160.334C216.606 156.929 218.396 153.583 220.107 150.195" stroke="#5D696F" stroke-linecap="round" stroke-linejoin="round"/>
<path d="M218.079 168.665C215.595 165.84 212.931 163.183 210.454 160.346" stroke="#5D696F" stroke-linecap="round" stroke-linejoin="round"/>
<path d="M211.429 145.329L216.858 138.536" stroke="#5D696F" stroke-linecap="round" stroke-linejoin="round"/>
<path d="M219.455 172.328C221.083 169.934 222.729 167.57 224.345 165.176" stroke="#5D696F" stroke-linecap="round" stroke-linejoin="round"/>
<path d="M221.418 185.777C223.136 183.383 224.794 180.989 226.452 178.595" stroke="#5D696F" stroke-linecap="round" stroke-linejoin="round"/>
<path d="M220.539 193.204C223.204 192.007 225.863 190.78 228.517 189.523" stroke="#5D696F" stroke-linecap="round" stroke-linejoin="round"/>
<path d="M220.628 178.63C218.35 176.863 216.046 175.123 213.715 173.411" stroke="#5D696F" stroke-linecap="round" stroke-linejoin="round"/>
<path d="M220.82 192.055C218.59 190.211 216.347 188.382 214.093 186.566" stroke="#5D696F" stroke-linecap="round" stroke-linejoin="round"/>
<path opacity="0.1" d="M168.037 189.08C168.037 191.444 154.559 193.366 137.932 193.366C121.306 193.366 107.833 191.444 107.833 189.08C107.833 186.716 121.311 184.795 137.932 184.795C154.553 184.795 168.037 186.716 168.037 189.08Z" fill="#D1BBA4"/>
<path opacity="0.2" d="M168.037 189.08C168.037 191.444 154.559 193.366 137.932 193.366C121.306 193.366 107.833 191.444 107.833 189.08C107.833 186.716 121.311 184.795 137.932 184.795C154.553 184.795 168.037 186.716 168.037 189.08Z" fill="white"/>
<path d="M144.089 54.4214C147.243 53.7511 149.548 52.7336 149.236 49.8428C148.925 46.952 145.412 45.0248 145.047 43.5465C144.682 42.0681 147.106 39.8477 146.579 37.0227C146.052 34.1977 143.239 31.0376 140.414 31.5403C140.414 31.5403 139.947 32.474 139.487 30.469C139.026 28.464 137.518 25.9801 134.74 26.9437C131.826 27.9552 131.826 29.649 130.97 29.9363C128.6 30.9411 126.284 32.0699 124.033 33.3179C121.789 34.5568 121.424 38.4412 121.088 39.7998C120.753 41.1584 119.682 41.4816 118.096 41.2123C116.51 40.9429 114.852 40.6497 114.505 42.2058C114.158 43.7619 113.978 45.2582 112.877 45.1684C111.776 45.0786 110.543 43.4447 109.693 44.8213C108.843 46.1979 107.179 48.8433 105.395 48.0293C103.612 47.2153 101.547 43.9175 98.6801 45.2462C95.8132 46.5749 95.2686 50.3336 96.3818 50.9261C97.495 51.5186 98.0457 52.4344 97.7764 53.398C97.507 54.3616 94.1194 53.4758 93.0541 55.5227C91.9887 57.5696 94.5085 59.419 94.5204 60.5322C94.5324 61.6455 93.9219 62.6629 91.9229 63.2255C89.9239 63.7881 88.5174 65.3742 89.8521 66.4156C91.1867 67.457 91.0072 66.2061 91.3364 65.458C91.6656 64.7098 92.707 64.5782 93.916 65.1886C95.1249 65.7991 95.8551 64.5123 95.8551 64.5123C95.8551 64.5123 95.6816 66.1044 97.0522 66.5413C98.4227 66.9782 98.6442 68.4386 97.0522 68.8695C95.4601 69.3004 94.3588 71.5448 95.5499 72.8675C96.7409 74.1903 98.6262 75.0162 101.81 74.1484C104.994 73.2805 111.859 68.1632 116.276 70.7728C120.693 73.3823 128.6 73.3104 132.484 71.9698C136.368 70.6291 137.374 66.5293 140.432 65.847C143.491 65.1647 142.677 63.3991 142.162 61.6574C141.647 59.9158 140.935 55.0917 144.089 54.4214ZM146.31 51.5605C146.751 51.1014 147.03 50.511 147.106 49.8787C147.264 49.97 147.403 50.0923 147.514 50.2383C147.624 50.3844 147.704 50.5512 147.749 50.7288C147.794 50.9064 147.802 51.0911 147.774 51.2721C147.746 51.453 147.681 51.6264 147.584 51.782C146.956 53.0927 145.316 52.6079 145.316 52.6079L146.31 51.5605ZM101.176 48.9271C100.488 48.8074 99.0452 51.3211 98.6681 50.5191C98.2911 49.7171 99.1529 46.551 100.697 46.4133C102.241 46.2757 103.863 49.1904 103.863 49.1904C103.66 50.3695 101.864 49.0468 101.176 48.9271ZM134.429 29.8944C134.167 29.8209 133.892 29.8042 133.622 29.8455C133.353 29.8868 133.095 29.9851 132.867 30.1338C132.881 29.8746 132.949 29.6211 133.066 29.3893C133.183 29.1575 133.347 28.9525 133.547 28.7872C133.747 28.6219 133.979 28.4998 134.229 28.4287C134.479 28.3576 134.741 28.3391 134.998 28.3742C136.273 28.5956 136.56 30.469 136.56 30.469C135.866 30.2201 135.154 30.028 134.429 29.8944Z" fill="#5D696F"/>
<path d="M66.8291 114.446L75.7469 110.148C76.0183 111.329 76.0305 112.554 75.7828 113.74C75.3998 115.972 74.7893 118.42 72.7903 118.378C70.7912 118.336 66.8291 114.446 66.8291 114.446Z" fill="#5D696F" stroke="#5D696F" stroke-linecap="round" stroke-linejoin="round"/>
<path d="M97.0356 130.05C97.0356 130.05 100.333 122.078 101.028 120.863C101.722 119.648 106.767 119.306 105.9 123.43C105.032 127.554 102.189 129.727 100.387 130.014C99.2784 130.196 98.1482 130.209 97.0356 130.05Z" fill="#5D696F" stroke="#5D696F" stroke-linecap="round" stroke-linejoin="round"/>
<path d="M55.164 80.8754C54.0551 81.9028 53.1371 83.1186 52.4528 84.4665C51.6268 86.3518 50.6572 88.6561 50.6572 88.6561C50.6572 88.6561 60.3471 80.1333 65.62 79.7921C70.8929 79.451 72.2036 79.4869 72.2036 79.4869C72.2036 79.4869 65.6679 76.4405 62.1786 77.3741C59.7868 78.1057 57.5335 79.2303 55.5112 80.7019L55.164 80.8754Z" fill="#5D696F" stroke="#5D696F" stroke-linecap="round" stroke-linejoin="round"/>
<path d="M124.508 66.7684C124.508 66.7684 111.867 69.8986 99.2444 72.4243C86.6218 74.95 74.508 72.1071 67.4814 73.9505C60.4549 75.7939 55.1641 80.8753 55.1641 80.8753C55.1641 80.8753 61.8375 76.8294 65.9373 80.2768C70.0371 83.7242 69.6061 85.9387 66.7273 90.0684C63.8485 94.1982 61.3407 100.333 65.6679 102.637C69.9952 104.941 74.2267 112.991 74.1907 114.787C74.1548 116.582 73.5563 116.582 73.5563 116.582L66.8111 114.446C66.8111 114.446 70.6296 122.909 79.1823 124.088C87.7351 125.267 91.9965 121.963 97.3771 122.292C102.758 122.621 102.458 127.386 102.458 127.386C102.458 127.386 97.2394 128.876 97.018 130.067C96.7965 131.258 98.3646 132.287 104.589 130.624C110.814 128.96 113.908 124.04 116.835 127.092C119.761 130.145 121.497 132.976 124.693 133.042C127.889 133.107 129.954 129.361 133.946 120.066C137.938 110.771 152.356 98.5194 152.979 87.9437C153.601 77.368 147.694 64.0811 147.694 64.0811L124.508 66.7684Z" fill="#D1BBA4" stroke="#5D696F" stroke-linecap="round" stroke-linejoin="round"/>
<path d="M120.42 71.2754C120.42 71.2754 110.993 73.4719 103.512 78.1044C96.0305 82.7369 81.6363 84.0297 77.6083 85.7414C75.5535 86.5538 73.5913 87.5831 71.7549 88.8118" stroke="#5D696F" stroke-linecap="round" stroke-linejoin="round"/>
<path d="M73.5864 116.583C76.6363 113.563 79.1393 110.038 80.984 106.163C84.4888 98.8065 90.1175 92.6692 97.1438 88.5426C104.823 84.1136 108.617 83.9939 115.698 79.3555" stroke="#5D696F" stroke-linecap="round" stroke-linejoin="round"/>
<path d="M102.475 127.368C102.475 127.368 107.861 109.521 112.159 103.428" stroke="#5D696F" stroke-linecap="round" stroke-linejoin="round"/>
<path d="M117.571 168.791C116.883 172.412 115.597 175.893 113.764 179.091C110.652 184.61 109.82 186.19 109.012 186.77C108.204 187.351 106.582 188.32 108.174 188.751C109.766 189.182 114.159 189.272 115.757 188.709C117.355 188.147 117.188 186.944 117.834 184.765C117.963 184.176 118.263 183.639 118.698 183.221C119.133 182.803 119.682 182.524 120.276 182.419L120.138 189.003H121.335L121.85 183.425C121.85 183.425 122.694 181.252 122.526 179.834C122.359 178.415 120.785 177.2 120.785 177.2L122.754 169.06L117.571 168.791Z" fill="#D9D9D9" stroke="#5D696F" stroke-linecap="round" stroke-linejoin="round"/>
<path d="M121.335 189.026L121.85 183.448C121.85 183.448 122.694 181.276 122.526 179.857C122.395 178.768 121.425 177.786 120.994 177.403C119.695 179.019 118.109 183.257 115.829 185.1C115.014 185.724 114.064 186.146 113.055 186.333C112.046 186.52 111.008 186.467 110.023 186.178L109.694 186.034C109.504 186.306 109.274 186.548 109.012 186.752C108.204 187.351 106.582 188.302 108.174 188.733C109.766 189.164 114.159 189.254 115.757 188.691C117.355 188.129 117.188 186.926 117.834 184.747C117.963 184.158 118.263 183.62 118.698 183.203C119.133 182.785 119.682 182.506 120.276 182.401L120.138 188.985L121.335 189.026Z" fill="#5D696F" stroke="#5D696F" stroke-linecap="round" stroke-linejoin="round"/>
<path d="M162.196 169.73C162.73 173.378 163.871 176.91 165.571 180.18C168.444 185.824 169.21 187.44 169.994 188.057C170.778 188.673 172.352 189.703 170.748 190.068C169.144 190.433 164.763 190.337 163.177 189.709C161.591 189.08 161.819 187.883 161.262 185.675C161.157 185.082 160.879 184.533 160.463 184.098C160.046 183.664 159.51 183.362 158.922 183.233L158.784 189.817L157.587 189.787L157.306 184.196C157.306 184.196 156.552 181.988 156.779 180.605C157.007 179.223 158.628 178.05 158.628 178.05L157.007 169.832L162.196 169.73Z" fill="#D9D9D9" stroke="#5D696F" stroke-linecap="round" stroke-linejoin="round"/>
<path d="M157.587 189.787L157.306 184.197C157.306 184.197 156.552 181.989 156.779 180.606C156.959 179.529 157.976 178.589 158.419 178.212C159.646 179.888 161.052 184.197 163.249 186.124C164.037 186.781 164.97 187.243 165.97 187.472C166.971 187.7 168.011 187.69 169.007 187.441L169.342 187.315C169.52 187.596 169.74 187.848 169.994 188.063C170.778 188.662 172.352 189.709 170.748 190.074C169.144 190.44 164.763 190.344 163.177 189.715C161.591 189.087 161.819 187.89 161.262 185.681C161.157 185.088 160.879 184.54 160.463 184.105C160.046 183.67 159.51 183.369 158.922 183.239L158.784 189.823L157.587 189.787Z" fill="#5D696F" stroke="#5D696F" stroke-linecap="round" stroke-linejoin="round"/>
<path d="M130.228 92.6064C130.228 92.6064 121.962 111.615 120.813 118.977C119.664 126.338 115.941 170.377 115.941 170.377L123.914 170.748L135.758 120.102L137.949 110.765L156.395 172.813L163.194 172.358C163.194 172.358 156.012 125.513 153.241 114.302C151.315 106.814 148.861 99.4721 145.897 92.3311L130.228 92.6064Z" fill="#5D696F" stroke="#5D696F" stroke-linecap="round" stroke-linejoin="round"/>
<path d="M133.771 51.7041C133.771 51.7041 133.801 60.5022 133.771 61.5736C133.741 62.6449 123.859 65.5477 123.859 65.5477L130.257 92.6064C130.257 92.6064 138.637 93.3186 145.926 92.2952L150.715 63.4349L141.737 61.6394L142.096 54.571C142.096 54.571 136.428 54.4453 133.771 51.7041Z" fill="#D9D9D9" stroke="#5D696F" stroke-linecap="round" stroke-linejoin="round"/>
<path d="M144.809 62.2559C144.157 64.7038 142.026 70.8505 137.124 70.228C132.887 69.6894 130.301 65.5118 129.391 63.7521C126.722 64.7038 123.819 65.5477 123.819 65.5477L130.217 92.6064C130.217 92.6064 138.597 93.3186 145.886 92.2952L150.675 63.4349L144.809 62.2559Z" fill="white" stroke="#5D696F" stroke-linecap="round" stroke-linejoin="round"/>
<path d="M131.185 62.3818C131.185 62.3818 133.579 75.4114 134.178 82.7312C134.776 90.051 134.776 95.0785 134.645 96.0421C134.513 97.0057 127.971 122.61 127.971 122.61L116.6 117.648L128.073 92.2536C128.073 92.2536 121.489 67.553 121.531 66.6911C121.573 65.8293 131.185 62.3818 131.185 62.3818Z" fill="#707070" stroke="#5D696F" stroke-linecap="round" stroke-linejoin="round"/>
<path d="M129.026 63.2978L127.961 73.1433L130.355 75.0227L128.559 78.2008L134.545 93.7621C134.545 93.7621 134.491 86.143 134.06 81.0916C133.629 76.0401 131.127 62.3701 131.127 62.3701L129.026 63.2978Z" stroke="#5D696F" stroke-linecap="round" stroke-linejoin="round"/>
<path d="M143.109 61.7715C143.109 61.7715 141.457 94.5639 141.445 94.8812C141.433 95.1984 150.423 122.532 150.423 122.532L159.281 119.713L147.544 91.2602C147.544 91.2602 153.146 64.5546 153.05 64.0219C152.955 63.4892 143.109 61.7715 143.109 61.7715Z" fill="#707070" stroke="#5D696F" stroke-linecap="round" stroke-linejoin="round"/>
<path d="M145.677 62.4718L146.862 73.7716L143.881 75.4355L146.676 77.8355L141.445 94.8811L143.109 61.7715L145.677 62.4718Z" fill="#707070" stroke="#5D696F" stroke-linecap="round" stroke-linejoin="round"/>
<path d="M143.12 39.7636C143.097 39.65 143.067 39.538 143.03 39.4284C142.82 38.782 142.198 37.4833 140.636 38.2314C138.619 39.189 137.476 41.3616 135.973 41.6309C135.346 41.762 134.71 41.848 134.07 41.8883C134.07 41.8883 131.766 46.9338 130.647 47.8076C129.866 48.3709 128.975 48.7606 128.031 48.9507C128.031 48.9507 128.354 52.452 129.342 52.9727C129.662 53.1144 130.012 53.1743 130.361 53.1472C130.71 53.12 131.047 53.0066 131.341 52.8171C131.341 52.8171 134.166 56.2705 136.045 57.2042C137.925 58.1379 140.013 58.4012 141.121 57.8027C142.228 57.2042 145.406 53.6132 145.448 51.6022C145.49 49.5912 144.598 44.5936 144.436 42.6245C144.432 42.0816 144.312 41.5459 144.085 41.0527C143.858 40.5595 143.529 40.1201 143.12 39.7636Z" fill="#D9D9D9" stroke="#5D696F" stroke-linecap="round" stroke-linejoin="round"/>
<path d="M136.664 38.1064C136.664 38.1064 136.957 38.3099 136.544 39.0042C136.2 39.5151 135.787 39.9763 135.317 40.3747C135.317 40.3747 137.316 40.2191 138.148 38.7348C138.98 37.2505 137.885 37.059 136.664 38.1064Z" fill="white"/>
<path d="M137.202 45.1747C137.292 45.6895 137.124 46.1503 136.825 46.2042C136.526 46.2581 136.227 45.881 136.125 45.3663C136.023 44.8516 136.203 44.3907 136.502 44.3368C136.801 44.283 137.112 44.69 137.202 45.1747Z" fill="#5D696F"/>
<path d="M142.313 44.4857C142.403 45.0005 142.229 45.4613 141.93 45.5152C141.631 45.5691 141.332 45.186 141.23 44.6713C141.128 44.1566 141.308 43.6957 141.607 43.6418C141.906 43.588 142.217 43.965 142.313 44.4857Z" fill="#5D696F"/>
<path d="M134.952 43.5887L137.86 42.9482" stroke="#5D696F" stroke-linecap="round" stroke-linejoin="round"/>
<path d="M140.373 42.1046C140.373 42.1046 141.307 40.5246 142.594 40.9495" stroke="#5D696F" stroke-linecap="round" stroke-linejoin="round"/>
<path d="M140.289 50.7888C140.289 50.7888 136.979 51.4172 136.1 49.502" stroke="#5D696F" stroke-linecap="round" stroke-linejoin="round"/>
<path d="M140.798 46.2754C140.798 46.2754 141.33 48.1308 139.648 48.3103" stroke="#5D696F" stroke-linecap="round" stroke-linejoin="round"/>
<path d="M154.815 96.8799C154.815 96.8799 149.799 100.639 149.782 101.602C149.764 102.566 150.697 103.996 151.008 104.307C151.32 104.619 152.271 105.504 152.271 105.504C152.271 105.504 154.857 104.906 154.773 103.841C154.689 102.775 154.384 102.745 154.384 102.745L156.497 99.1542L154.815 96.8799Z" fill="#D9D9D9" stroke="#5D696F" stroke-linecap="round" stroke-linejoin="round"/>
<path d="M154.368 102.77L153.165 103.925" stroke="#5D696F" stroke-linecap="round" stroke-linejoin="round"/>
<path d="M150.279 72.7599L162.573 85.1371L154.068 96.5448L156.791 99.7109C156.791 99.7109 170.389 85.6219 170.413 84.4429C170.437 83.2638 155.265 65.2486 154.313 64.5843C153.362 63.9199 151.225 63.5488 151.225 63.5488" fill="#707070"/>
<path d="M150.279 72.7599L162.573 85.1371L154.068 96.5448L156.791 99.7109C156.791 99.7109 170.389 85.6219 170.413 84.4429C170.437 83.2638 155.265 65.2486 154.313 64.5843C153.362 63.9199 151.225 63.5488 151.225 63.5488" stroke="#5D696F" stroke-linecap="round" stroke-linejoin="round"/>
<path d="M121.688 96.3115C121.688 96.3115 127.039 99.5674 127.153 100.501C127.267 101.435 126.477 102.961 126.195 103.314C125.914 103.667 125.058 104.661 125.058 104.661C125.058 104.661 122.431 104.326 122.407 103.248C122.383 102.171 122.706 102.135 122.706 102.135L120.27 98.7535L121.688 96.3115Z" fill="#D9D9D9" stroke="#5D696F" stroke-linecap="round" stroke-linejoin="round"/>
<path d="M122.7 102.135L124.011 103.164" stroke="#5D696F" stroke-linecap="round" stroke-linejoin="round"/>
<path d="M125.692 73.8487L113.332 85.1725L122.394 95.9039L120 99.3214C120 99.3214 105.599 86.4174 105.462 85.2444C105.324 84.0713 121.023 66.1339 122.011 65.4935C122.998 64.8531 125.141 64.5957 125.141 64.5957" fill="#707070"/>
<path d="M125.692 73.8487L113.332 85.1725L122.394 95.9039L120 99.3214C120 99.3214 105.599 86.4174 105.462 85.2444C105.324 84.0713 121.023 66.1339 122.011 65.4935C122.998 64.8531 125.141 64.5957 125.141 64.5957" stroke="#5D696F" stroke-linecap="round" stroke-linejoin="round"/>
<path d="M132.103 67.9598C132.103 67.9598 133.85 63.5787 133.605 62.1901C133.36 60.8016 131.001 61.1667 129.607 61.6933C128.212 62.22 126.237 64.249 126.237 64.249C126.237 64.249 129.972 64.0455 130.529 63.7821C131.085 63.5188 131.977 67.4331 132.103 67.9598Z" fill="#D1BBA4" stroke="#5D696F" stroke-linecap="round" stroke-linejoin="round"/>
<path d="M141.719 61.633L142.718 68.7374C142.718 68.7374 143.748 65.7448 145.023 64.2246C145.602 63.4685 146.318 62.8288 147.135 62.3393C147.135 62.3393 144.167 61.1004 141.719 61.633Z" fill="#D1BBA4" stroke="#5D696F" stroke-linecap="round" stroke-linejoin="round"/>
</g>
</svg>
