<svg width="79" height="24" viewBox="0 0 79 24" fill="none" xmlns="http://www.w3.org/2000/svg">
<path d="M62.9577 8.82238C67.0094 6.23398 74.974 -4.87268 77.5219 2.47364C78.4917 5.28723 79.172 8.81394 76.9304 11.5633C76.4986 12.093 76.113 12.389 75.6804 12.7861C61.9399 25.3867 50.6133 24.2826 34.5164 23.67C18.4196 23.0574 8.57427 20.3424 1.97702 8.56506C1.6258 7.9339 1.15271 7.44833 0.999999 6.6062C0.483684 3.75901 4.20164 0.158626 7.46555 1.0521C14.319 2.92863 17.2415 13.9272 25.8622 16.7287C30.9915 18.4067 34.8986 20.444 37 19.9718C39.1014 19.4997 40.4983 19.0356 40.4983 19.0356C48 16.9507 44.8417 10.6036 51.2234 6.03696C56.203 2.47364 58.9059 11.4108 62.9577 8.82238Z" fill="#59554F"/>
</svg>
