<svg width="28" height="48" viewBox="0 0 28 48" fill="none" xmlns="http://www.w3.org/2000/svg">
<path d="M7.1534 30.7529C7.1534 30.7529 2.836 36.1511 3.13955 36.6295C3.44311 37.1079 4.92732 43.9535 5.42754 44.1096C5.92777 44.2657 6.17601 42.6336 6.17601 42.6336L9.93092 40.6049L7.1534 30.7529Z" fill="#263238"/>
<path d="M20.0221 30.2302C20.0221 30.2302 24.9633 35.0649 24.7198 35.5858C24.4762 36.1067 23.8325 43.0722 23.3527 43.2872C22.8728 43.5021 22.4321 41.9123 22.4321 41.9123L18.4591 40.3561L20.0221 30.2302Z" fill="#263238"/>
<path d="M18.9487 39.6936C18.9487 39.6936 22.148 20.6967 22.1013 15.1786C22.0546 9.66051 16.2561 0.344802 13.1423 0.827759C10.0284 1.31072 6.23252 10.7375 5.57347 15.9845C4.91442 21.2316 8.25656 40.1849 10.291 42.4602C12.3254 44.7354 16.9103 46.4776 18.9487 39.6936Z" fill="white"/>
<path d="M18.9489 39.6932C18.9489 39.6932 18.9812 39.5726 19.0095 39.3375C15.5217 44.9328 11.679 42.8316 9.38487 40.6318C9.58604 41.2838 9.89301 41.8984 10.2935 42.4509C12.3146 44.7289 16.9105 46.4773 18.9489 39.6932Z" fill="#263238"/>
<path d="M13.1432 0.827657C10.2359 1.28086 6.74136 9.51207 5.7512 14.8658C6.50158 15.9344 7.46485 16.8363 8.58048 17.5148C12.9441 20.1652 18.6743 18.88 22.0839 14.7293C21.7361 9.15883 16.1748 0.357347 13.1432 0.827657Z" fill="#263238"/>
<path fill-rule="evenodd" clip-rule="evenodd" d="M17.6348 6.22885C17.875 6.0926 18.1802 6.17686 18.3164 6.41705C19.7907 9.01609 20.8752 11.8176 21.5352 14.7319C21.5962 15.0012 21.4273 15.269 21.1579 15.33C20.8886 15.391 20.6209 15.2221 20.5599 14.9528C19.9216 12.134 18.8726 9.4243 17.4466 6.91045C17.3104 6.67027 17.3946 6.3651 17.6348 6.22885Z" fill="white"/>
<path fill-rule="evenodd" clip-rule="evenodd" d="M15.6364 3.16631C15.8579 3.00141 16.1711 3.0473 16.336 3.2688L16.3378 3.2712L16.3419 3.27673L16.3568 3.29705C16.3697 3.31468 16.3884 3.34044 16.4125 3.37404C16.4608 3.44126 16.5306 3.5399 16.6188 3.66778C16.795 3.92352 17.0444 4.29641 17.3399 4.76897C17.4863 5.0031 17.4152 5.3116 17.1811 5.45802C16.947 5.60444 16.6385 5.53334 16.4921 5.29921C16.2052 4.84046 15.964 4.47999 15.7953 4.2352C15.711 4.11282 15.6448 4.0194 15.6001 3.95712C15.5778 3.92599 15.5608 3.90264 15.5496 3.88735L15.5373 3.8705L15.5344 3.86668C15.3696 3.64518 15.4149 3.3312 15.6364 3.16631Z" fill="white"/>
<path fill-rule="evenodd" clip-rule="evenodd" d="M18.3645 37.8922C18.6383 37.9281 18.8312 38.1792 18.7953 38.453L18.6775 39.3511C18.6416 39.6249 18.3906 39.8178 18.1168 39.7819C17.843 39.746 17.6501 39.4949 17.686 39.2211L17.8038 38.323C17.8397 38.0492 18.0907 37.8563 18.3645 37.8922Z" fill="#263238"/>
<path fill-rule="evenodd" clip-rule="evenodd" d="M18.7248 35.1492C18.9985 35.1852 19.1913 35.4363 19.1554 35.7101L18.8886 37.7406C18.8526 38.0144 18.6015 38.2072 18.3277 38.1712C18.054 38.1352 17.8612 37.8841 17.8971 37.6103L18.1639 35.5798C18.1999 35.306 18.451 35.1132 18.7248 35.1492Z" fill="#263238"/>
<path fill-rule="evenodd" clip-rule="evenodd" d="M20.787 19.3962C21.0608 19.432 21.2537 19.6831 21.2179 19.9569L19.3903 33.9166C19.3545 34.1904 19.1035 34.3833 18.8297 34.3474C18.5559 34.3116 18.363 34.0605 18.3988 33.7867L20.2264 19.8271C20.2622 19.5532 20.5132 19.3603 20.787 19.3962Z" fill="#263238"/>
<path fill-rule="evenodd" clip-rule="evenodd" d="M21.1771 16.3965C21.451 16.4321 21.6441 16.6829 21.6086 16.9567L21.4457 18.2115C21.4102 18.4853 21.1594 18.6785 20.8855 18.643C20.6117 18.6074 20.4185 18.3566 20.454 18.0828L20.6169 16.828C20.6525 16.5542 20.9033 16.361 21.1771 16.3965Z" fill="#263238"/>
<path fill-rule="evenodd" clip-rule="evenodd" d="M6.57566 21.4834C6.8485 21.4408 7.10422 21.6274 7.14684 21.9002L8.45608 30.2809C8.4987 30.5538 8.31208 30.8095 8.03924 30.8521C7.76641 30.8947 7.51068 30.7081 7.46806 30.4353L6.15883 22.0546C6.11621 21.7818 6.30283 21.526 6.57566 21.4834Z" fill="#263238"/>
<path fill-rule="evenodd" clip-rule="evenodd" d="M7.98253 30.8711C8.25524 30.8277 8.51148 31.0136 8.55484 31.2863L8.82594 32.9914C8.8693 33.2642 8.68337 33.5204 8.41066 33.5637C8.13794 33.6071 7.88171 33.4212 7.83835 33.1485L7.56724 31.4434C7.52388 31.1707 7.70981 30.9144 7.98253 30.8711Z" fill="#263238"/>
<path d="M17.7281 27.5166C19.0376 25.3595 18.4471 22.6079 16.4093 21.3708C14.3715 20.1338 11.6579 20.8796 10.3484 23.0367C9.03896 25.1938 9.6294 27.9454 11.6672 29.1824C13.7051 30.4195 16.4186 29.6737 17.7281 27.5166Z" fill="#263238"/>
<path d="M16.4152 27.1681C16.1093 27.6123 15.6799 27.9573 15.1801 28.1603C14.6804 28.3633 14.1321 28.4154 13.603 28.3103C13.0739 28.2051 12.5872 27.9473 12.2031 27.5687C11.8189 27.19 11.554 26.7071 11.4412 26.1796C11.3284 25.6521 11.3726 25.1031 11.5683 24.6005C11.7641 24.0978 12.1027 23.6635 12.5425 23.3512C12.9823 23.0388 13.504 22.8622 14.0431 22.843C14.5822 22.8239 15.1151 22.9631 15.5759 23.2434C16.2065 23.6535 16.649 24.2968 16.8063 25.0324C16.9636 25.768 16.8229 26.5359 16.4152 27.1681Z" fill="#D1BBA4"/>
<path d="M13.9022 37.4744L14.8903 46.5127C14.8925 46.5629 14.9051 46.612 14.9274 46.6569C14.9498 46.7018 14.9813 46.7416 15.0199 46.7736C15.0585 46.8056 15.1034 46.8292 15.1517 46.8428C15.2 46.8564 15.2506 46.8598 15.3003 46.8526C15.4045 46.8349 15.4982 46.7786 15.5627 46.6948C15.6273 46.611 15.6578 46.506 15.6483 46.4007L15.18 37.281C15.1724 37.1948 15.1465 37.1111 15.104 37.0357C15.0615 36.9603 15.0035 36.8948 14.9337 36.8436C14.8639 36.7924 14.784 36.7566 14.6993 36.7388C14.6146 36.7209 14.5271 36.7213 14.4425 36.7399C14.2808 36.7798 14.1382 36.8751 14.0395 37.0093C13.9408 37.1435 13.8922 37.3081 13.9022 37.4744Z" fill="#263238"/>
</svg>
