<svg width="207" height="229" viewBox="0 0 207 229" fill="none" xmlns="http://www.w3.org/2000/svg">
<g opacity="0.8">
<path d="M212.721 162.598C217.336 124.926 194.986 74.8507 171.809 54.1789C129.978 16.8464 95.225 24.0661 68.1974 37.4379C41.1699 50.8097 37.3009 95.4422 18.6408 115.639C-0.0193484 135.835 -10.6452 162.999 17.6781 190.045C46.0015 217.091 68.8392 203.343 98.446 201.633C128.053 199.924 167.305 213.419 188.538 201.676C203.378 193.482 210.684 179.252 212.721 162.598Z" fill="#D1BBA4"/>
<path opacity="0.7" d="M212.721 162.598C217.336 124.926 194.986 74.8507 171.809 54.1789C129.978 16.8464 95.225 24.0661 68.1974 37.4379C41.1699 50.8097 37.3009 95.4422 18.6408 115.639C-0.0193484 135.835 -10.6452 162.999 17.6781 190.045C46.0015 217.091 68.8392 203.343 98.446 201.633C128.053 199.924 167.305 213.419 188.538 201.676C203.378 193.482 210.684 179.252 212.721 162.598Z" fill="white"/>
<path d="M5.34296 162.647H92.8986L225.92 205.583" stroke="#263238" stroke-linecap="round" stroke-linejoin="round"/>
<path d="M45.2117 159.389H39.1644V59.3869H51.6477L46.2607 39.9431H30.0935L24.7065 59.3869H37.1898V159.389H31.124C29.573 159.39 28.0845 160 26.978 161.087C25.8715 162.173 25.2354 163.651 25.2064 165.202C25.2064 165.202 25.2064 165.232 25.2064 165.245C25.2064 165.245 25.2064 165.282 25.2064 165.294C25.3853 166.689 31.1117 167.812 38.1648 167.812C45.2178 167.812 50.9442 166.689 51.1232 165.294C51.1183 163.728 50.4937 162.228 49.386 161.122C48.2782 160.015 46.7774 159.392 45.2117 159.389Z" fill="#263238"/>
<path d="M125.794 15.5875V133.336L214.448 147.924V1L125.794 15.5875ZM212.147 49.304L167.101 51.8587V10.9471L212.147 3.7768V49.304ZM167.101 56.1596L212.147 54.0925V95.2262L167.101 93.1219V56.1596ZM163.448 92.9492L127.282 91.2646V57.9862L163.417 56.3324L163.448 92.9492ZM163.448 11.5272V52.0808L127.282 54.111V17.2782L163.448 11.5272ZM127.282 95.1398L163.417 97.2193V137.397L127.282 131.645V95.1398ZM167.07 137.977V97.4291L212.116 100.021V145.147L167.07 137.977Z" fill="#263238" stroke="#263238" stroke-linecap="round" stroke-linejoin="round"/>
<path d="M95.2188 219.892C134.393 219.892 166.151 209.999 166.151 197.795C166.151 185.591 134.393 175.698 95.2188 175.698C56.0442 175.698 24.2869 185.591 24.2869 197.795C24.2869 209.999 56.0442 219.892 95.2188 219.892Z" fill="#D1BBA4"/>
<path opacity="0.5" d="M95.2188 219.892C134.393 219.892 166.151 209.999 166.151 197.795C166.151 185.591 134.393 175.698 95.2188 175.698C56.0442 175.698 24.2869 185.591 24.2869 197.795C24.2869 209.999 56.0442 219.892 95.2188 219.892Z" fill="white"/>
<path d="M89.2271 100.36C89.2271 100.36 73.1525 98.4536 62.5759 106.704C51.9994 114.954 42.9038 149.429 43.1136 165.942C43.3235 182.455 49.4633 190.693 64.9023 197.456C80.3413 204.219 109.103 201.689 125.177 196.61C141.252 191.532 146.54 173.779 146.33 164.251C146.121 154.724 135.544 143.734 131.947 141.42C128.349 139.106 118.198 134.231 113.126 126.61C108.054 118.99 100.643 102.477 89.2271 100.36Z" fill="#D1BBA4"/>
<path opacity="0.13" d="M128.127 195.469C122.049 194.648 114.842 193 109.387 189.687C97.866 182.695 94.9905 169.527 90.8746 164.591C86.7588 159.654 79.354 160.068 76.065 154.718C72.7761 149.368 78.1199 109.882 68.6602 107.413C66.7405 106.859 64.753 106.574 62.7549 106.568C62.6994 106.617 62.6315 106.654 62.5759 106.704C51.9994 114.954 42.9038 149.429 43.1136 165.942C43.3235 182.455 49.4633 190.693 64.9023 197.456C80.3413 204.219 109.103 201.689 125.177 196.61C126.183 196.291 127.168 195.91 128.127 195.469Z" fill="black"/>
<path d="M89.2271 100.36C89.2271 100.36 73.1525 98.4536 62.5759 106.704C51.9994 114.954 42.9038 149.429 43.1136 165.942C43.3235 182.455 49.4633 190.693 64.9023 197.456C80.3413 204.219 109.103 201.689 125.177 196.61C141.252 191.532 146.54 173.779 146.33 164.251C146.121 154.724 135.544 143.734 131.947 141.42C128.349 139.106 118.198 134.231 113.126 126.61C108.054 118.99 100.643 102.477 89.2271 100.36Z" stroke="#263238" stroke-linecap="round" stroke-linejoin="round"/>
<path d="M82.896 107.814C82.896 107.814 72.4058 109.82 70.5546 111.671C68.7034 113.522 60.9901 142.524 60.9901 142.524C63.1346 142.002 65.3841 142.109 67.4693 142.833C70.5546 144.067 70.8632 147.307 71.1717 148.849C71.4194 150.691 71.5738 152.545 71.6345 154.403C71.6345 154.403 102.815 151.62 109.448 150.083C116.082 148.547 126.177 147.831 126.177 147.831C126.177 147.831 109.121 109.363 106.499 107.975C103.876 106.586 92.9233 106.432 91.3806 106.741C89.838 107.049 82.896 107.814 82.896 107.814Z" fill="#263238" stroke="#263238" stroke-linecap="round" stroke-linejoin="round"/>
<path d="M72.5601 143.45L75.1826 122.007" stroke="white" stroke-linecap="round" stroke-linejoin="round"/>
<path d="M74.5656 127.715L78.1137 123.087" stroke="white" stroke-linecap="round" stroke-linejoin="round"/>
<path d="M85.21 130.491C85.21 130.491 95.2373 127.252 101.871 127.252" stroke="white" stroke-linecap="round" stroke-linejoin="round"/>
<path d="M94.6758 121.649L94.0032 126.789C94.0032 126.789 95.7001 126.789 95.8544 127.56C95.865 127.846 95.8155 128.131 95.7093 128.397C95.603 128.663 95.4422 128.903 95.2373 129.103C95.2373 129.103 100.02 131.726 100.637 134.811" stroke="white" stroke-linecap="round" stroke-linejoin="round"/>
<path d="M88.6532 102.063C88.6532 102.063 82.896 103.914 82.0691 105.352C81.2422 106.79 81.8655 116.873 81.8655 118.107C81.8655 119.341 82.5874 117.385 83.2045 115.947C83.8216 114.509 85.9813 112.344 86.6971 112.553C87.4129 112.763 87.8325 113.578 87.8325 114.917C87.8325 116.256 89.4739 118.107 90.9178 119.131C92.3618 120.156 93.6946 121.192 93.6946 121.192C93.6946 121.192 96.6751 116.873 97.397 115.737C98.119 114.602 98.0141 112.245 98.1128 111.418C98.2116 110.591 100.069 113.683 100.482 112.862C100.896 112.041 99.5568 111.319 98.1128 109.055C96.6689 106.79 97.0885 104.427 94.9288 102.779C92.769 101.131 90.3008 101.644 88.6532 102.063Z" fill="white"/>
<path d="M82.0691 105.346C81.5261 106.309 81.6125 111.11 81.7359 114.602C83.0502 112.911 85.7592 109.715 87.3265 110.32C89.3258 111.091 90.091 116.774 90.091 116.774L88.7396 102.063H88.6532C88.6532 102.063 82.896 103.915 82.0691 105.346Z" fill="#D1BBA4"/>
<path opacity="0.5" d="M82.0691 105.346C81.5261 106.309 81.6125 111.11 81.7359 114.602C83.0502 112.911 85.7592 109.715 87.3265 110.32C89.3258 111.091 90.091 116.774 90.091 116.774L88.7396 102.063H88.6532C88.6532 102.063 82.896 103.915 82.0691 105.346Z" fill="white"/>
<path d="M88.6532 102.063C88.6532 102.063 82.896 103.914 82.0691 105.352C81.2422 106.79 81.8655 116.873 81.8655 118.107C81.8655 119.341 82.5874 117.385 83.2045 115.947C83.8216 114.509 85.9813 112.344 86.6971 112.553C87.4129 112.763 87.8325 113.578 87.8325 114.917C87.8325 116.256 89.4739 118.107 90.9178 119.131C92.3618 120.156 93.6946 121.192 93.6946 121.192C93.6946 121.192 96.6751 116.873 97.397 115.737C98.119 114.602 98.0141 112.245 98.1128 111.418C98.2116 110.591 100.069 113.683 100.482 112.862C100.896 112.041 99.5568 111.319 98.1128 109.055C96.6689 106.79 97.0885 104.427 94.9288 102.779C92.769 101.131 90.3008 101.644 88.6532 102.063Z" stroke="#263238" stroke-linecap="round" stroke-linejoin="round"/>
<path d="M75.0284 143.758C75.0284 143.758 71.4802 138.668 67.1608 138.205C62.8413 137.742 57.5962 141.29 57.442 142.524C57.2877 143.758 56.2078 150.392 56.9792 151.317C57.7505 152.243 60.6816 153.014 66.3894 151.163C72.0973 149.312 74.4113 146.998 75.0284 143.758Z" fill="white"/>
<path d="M60.5952 151.157C60.5952 151.157 59.361 147.628 59.9781 146.4C60.5952 145.172 63.0634 143.314 64.5876 141.463C66.1117 139.612 60.9901 142.506 60.7433 141.463C60.552 140.624 63.4522 138.945 64.5938 138.322C61.0024 139.013 57.5654 141.512 57.442 142.506C57.2877 143.74 56.2078 150.373 56.9792 151.299C57.3741 151.774 58.3552 152.212 59.9904 152.268C60.3607 151.632 60.5952 151.157 60.5952 151.157Z" fill="#D1BBA4"/>
<path opacity="0.5" d="M60.5952 151.157C60.5952 151.157 59.361 147.628 59.9781 146.4C60.5952 145.172 63.0634 143.314 64.5876 141.463C66.1117 139.612 60.9901 142.506 60.7433 141.463C60.552 140.624 63.4522 138.945 64.5938 138.322C61.0024 139.013 57.5654 141.512 57.442 142.506C57.2877 143.74 56.2078 150.373 56.9792 151.299C57.3741 151.774 58.3552 152.212 59.9904 152.268C60.3607 151.632 60.5952 151.157 60.5952 151.157Z" fill="white"/>
<path d="M75.0284 143.758C75.0284 143.758 71.4802 138.668 67.1608 138.205C62.8413 137.742 57.5962 141.29 57.442 142.524C57.2877 143.758 56.2078 150.392 56.9792 151.317C57.7505 152.243 60.6816 153.014 66.3894 151.163C72.0973 149.312 74.4113 146.998 75.0284 143.758Z" stroke="#263238" stroke-linecap="round" stroke-linejoin="round"/>
<path d="M62.9955 145.147C62.9955 145.147 57.2075 147.442 56.9791 151.935C56.8496 154.403 60.9901 155.483 65.3095 155.483C69.629 155.483 75.7997 150.083 79.8106 147.769C83.8216 145.455 93.0776 140.056 94.1574 139.593C95.2373 139.131 98.9397 140.365 100.482 140.827C101.953 141.142 103.453 141.298 104.956 141.29C104.956 141.29 107.116 144.684 108.196 144.684C109.276 144.684 105.882 139.593 105.419 138.513C104.956 137.434 97.397 134.965 96.4714 134.965C95.5458 134.965 73.9485 140.365 70.7089 141.599C67.4693 142.833 62.9955 145.147 62.9955 145.147Z" fill="white"/>
<path d="M75.0962 144.505C83.9141 140.093 96.4714 134.965 96.4714 134.965C95.5458 134.965 73.9485 140.365 70.7089 141.599C67.4693 142.833 62.9955 145.147 62.9955 145.147C62.9955 145.147 57.2075 147.442 56.9791 151.935C56.8496 154.403 60.9901 155.483 65.3095 155.483C69.629 155.483 75.7997 150.083 79.8106 147.769L82.2419 146.363C76.3489 147.109 68.4689 147.813 75.0962 144.505Z" fill="#D1BBA4"/>
<path opacity="0.5" d="M75.0962 144.505C83.9141 140.093 96.4714 134.965 96.4714 134.965C95.5458 134.965 73.9485 140.365 70.7089 141.599C67.4693 142.833 62.9955 145.147 62.9955 145.147C62.9955 145.147 57.2075 147.442 56.9791 151.935C56.8496 154.403 60.9901 155.483 65.3095 155.483C69.629 155.483 75.7997 150.083 79.8106 147.769L82.2419 146.363C76.3489 147.109 68.4689 147.813 75.0962 144.505Z" fill="white"/>
<path d="M62.9955 145.147C62.9955 145.147 57.2075 147.442 56.9791 151.935C56.8496 154.403 60.9901 155.483 65.3095 155.483C69.629 155.483 75.7997 150.083 79.8106 147.769C83.8216 145.455 93.0776 140.056 94.1574 139.593C95.2373 139.131 98.9397 140.365 100.482 140.827C101.953 141.142 103.453 141.298 104.956 141.29C104.956 141.29 107.116 144.684 108.196 144.684C109.276 144.684 105.882 139.593 105.419 138.513C104.956 137.434 97.397 134.965 96.4714 134.965C95.5458 134.965 73.9485 140.365 70.7089 141.599C67.4693 142.833 62.9955 145.147 62.9955 145.147Z" stroke="#263238" stroke-linecap="round" stroke-linejoin="round"/>
<path d="M108.115 110.838L103.413 137.279L137.352 137.434L142.4 112.356C142.442 112.135 142.435 111.907 142.381 111.688C142.327 111.47 142.226 111.266 142.085 111.09C141.944 110.914 141.767 110.771 141.566 110.67C141.365 110.569 141.144 110.512 140.919 110.505L109.695 109.567C109.323 109.555 108.959 109.676 108.67 109.91C108.38 110.143 108.183 110.472 108.115 110.838Z" fill="white" stroke="#263238" stroke-linecap="round" stroke-linejoin="round"/>
<path d="M103.413 137.279L86.8884 148.967L124.684 147.887L137.352 137.434L103.413 137.279Z" fill="white"/>
<path d="M103.413 137.279L86.8884 148.967L124.684 147.887L137.352 137.434L103.413 137.279Z" fill="#D1BBA4"/>
<path opacity="0.5" d="M103.413 137.279L86.8884 148.967L124.684 147.887L137.352 137.434L103.413 137.279Z" fill="white"/>
<path d="M103.413 137.279L86.8884 148.967L124.684 147.887L137.352 137.434L103.413 137.279Z" stroke="#263238" stroke-linecap="round" stroke-linejoin="round"/>
<path d="M115.909 148.849C115.909 148.849 129.485 136.971 142.906 132.96C156.327 128.949 159.104 129.566 158.795 135.582C158.487 141.599 152.007 173.069 147.688 181.091C143.369 189.113 137.969 203.768 138.123 206.545C138.278 209.322 143.523 217.498 148.151 220.429C152.779 223.36 152.316 226.908 149.385 227.525C146.454 228.142 143.06 229.222 133.033 222.743C123.005 216.264 118.84 207.008 119.457 204.694C120.074 202.38 126.553 199.294 129.176 194.666C131.799 190.038 136.118 172.76 136.427 164.893C136.677 159.926 137.719 155.031 139.512 150.392C139.512 150.392 122.543 153.477 117.606 156.562L115.909 148.849Z" fill="white"/>
<path d="M115.909 148.849C115.909 148.849 129.485 136.971 142.906 132.96C156.327 128.949 159.104 129.566 158.795 135.582C158.487 141.599 152.007 173.069 147.688 181.091C143.369 189.113 137.969 203.768 138.123 206.545C138.278 209.322 143.523 217.498 148.151 220.429C152.779 223.36 152.316 226.908 149.385 227.525C146.454 228.142 143.06 229.222 133.033 222.743C123.005 216.264 118.84 207.008 119.457 204.694C120.074 202.38 126.553 199.294 129.176 194.666C131.799 190.038 136.118 172.76 136.427 164.893C136.677 159.926 137.719 155.031 139.512 150.392C139.512 150.392 122.543 153.477 117.606 156.562L115.909 148.849Z" fill="#D1BBA4"/>
<path opacity="0.5" d="M115.909 148.849C115.909 148.849 129.485 136.971 142.906 132.96C156.327 128.949 159.104 129.566 158.795 135.582C158.487 141.599 152.007 173.069 147.688 181.091C143.369 189.113 137.969 203.768 138.123 206.545C138.278 209.322 143.523 217.498 148.151 220.429C152.779 223.36 152.316 226.908 149.385 227.525C146.454 228.142 143.06 229.222 133.033 222.743C123.005 216.264 118.84 207.008 119.457 204.694C120.074 202.38 126.553 199.294 129.176 194.666C131.799 190.038 136.118 172.76 136.427 164.893C136.677 159.926 137.719 155.031 139.512 150.392C139.512 150.392 122.543 153.477 117.606 156.562L115.909 148.849Z" fill="white"/>
<path d="M115.909 148.849C115.909 148.849 129.485 136.971 142.906 132.96C156.327 128.949 159.104 129.566 158.795 135.582C158.487 141.599 152.007 173.069 147.688 181.091C143.369 189.113 137.969 203.768 138.123 206.545C138.278 209.322 143.523 217.498 148.151 220.429C152.779 223.36 152.316 226.908 149.385 227.525C146.454 228.142 143.06 229.222 133.033 222.743C123.005 216.264 118.84 207.008 119.457 204.694C120.074 202.38 126.553 199.294 129.176 194.666C131.799 190.038 136.118 172.76 136.427 164.893C136.677 159.926 137.719 155.031 139.512 150.392C139.512 150.392 122.543 153.477 117.606 156.562L115.909 148.849Z" stroke="#263238" stroke-linecap="round" stroke-linejoin="round"/>
<path d="M129.176 194.666C128.979 195.012 128.756 195.345 128.522 195.678C131.713 195.979 134.738 197.24 137.198 199.294C137.938 199.937 138.642 200.619 139.308 201.337C141.548 194.372 144.35 187.601 147.688 181.091C152.007 173.069 158.487 141.599 158.795 135.582C159.104 129.566 156.327 128.949 142.906 132.96C129.485 136.971 115.909 148.849 115.909 148.849L117.606 156.562C122.543 153.477 139.512 150.392 139.512 150.392C137.719 155.031 136.677 159.926 136.427 164.893C136.118 172.76 131.799 190.038 129.176 194.666Z" fill="white" stroke="#263238" stroke-linecap="round" stroke-linejoin="round"/>
<path d="M129.176 194.666C128.979 195.012 128.756 195.345 128.522 195.678C131.713 195.979 134.738 197.24 137.198 199.294C137.938 199.937 138.642 200.619 139.308 201.337C142.264 197.363 145.59 184.83 149.342 179.672C159.036 166.349 158.487 141.599 158.795 135.582C159.104 129.566 156.327 128.949 142.906 132.96C129.485 136.971 115.909 148.849 115.909 148.849L117.606 156.562C122.543 153.477 139.512 150.392 139.512 150.392C137.719 155.031 136.677 159.926 136.427 164.893C136.118 172.76 131.799 190.038 129.176 194.666Z" fill="#263238"/>
<path opacity="0.53" d="M129.176 194.666C128.979 195.012 128.756 195.345 128.522 195.678C131.713 195.979 134.738 197.24 137.198 199.294C137.938 199.937 138.642 200.619 139.308 201.337C142.264 197.363 145.59 184.83 149.342 179.672C159.036 166.349 158.487 141.599 158.795 135.582C159.104 129.566 156.327 128.949 142.906 132.96C129.485 136.971 115.909 148.849 115.909 148.849L117.606 156.562C122.543 153.477 139.512 150.392 139.512 150.392C137.719 155.031 136.677 159.926 136.427 164.893C136.118 172.76 131.799 190.038 129.176 194.666Z" fill="white"/>
<path opacity="0.14" d="M152.273 134.768C152.032 132.577 128.17 142.679 118.106 147.035C116.711 148.146 115.909 148.849 115.909 148.849L117.606 156.563C122.543 153.477 139.512 150.392 139.512 150.392C137.719 155.031 136.677 159.926 136.427 164.893C136.118 172.761 131.799 190.039 129.176 194.667C128.979 195.012 128.756 195.345 128.522 195.678C130.221 195.861 131.884 196.291 133.458 196.956C137.155 189.07 141.135 179.894 143.017 172.717C146.411 159.759 152.581 137.545 152.273 134.768Z" fill="black"/>
<path d="M139.512 150.392C139.512 150.392 144.14 140.982 148.151 137.125" stroke="#263238" stroke-linecap="round" stroke-linejoin="round"/>
<path d="M129.176 194.666C128.979 195.012 128.756 195.345 128.522 195.678C131.713 195.979 134.738 197.24 137.198 199.294C137.938 199.937 138.642 200.619 139.308 201.337C142.264 197.363 145.59 184.83 149.342 179.672C159.036 166.349 158.487 141.599 158.795 135.582C159.104 129.566 156.327 128.949 142.906 132.96C129.485 136.971 115.909 148.849 115.909 148.849L117.606 156.562C122.543 153.477 139.512 150.392 139.512 150.392C137.719 155.031 136.677 159.926 136.427 164.893C136.118 172.76 131.799 190.038 129.176 194.666Z" stroke="#263238" stroke-linecap="round" stroke-linejoin="round"/>
<path d="M95.5705 161.302C100.54 161.075 105.452 160.15 110.164 158.556C117.143 156.013 104.45 151.361 99.5876 153.903C98.2289 154.562 97.1108 155.63 96.3903 156.957C95.6698 158.284 95.3831 159.803 95.5705 161.302Z" fill="#263238" stroke="#263238" stroke-linecap="round" stroke-linejoin="round"/>
<path d="M75.4912 151.318C75.4912 151.318 70.5546 154.094 68.8577 157.18C67.1608 160.265 74.4607 165.405 82.174 165.097C89.8873 164.788 104.031 156.408 104.031 156.408C104.031 156.408 104.185 169.984 106.807 174.92C109.43 179.857 121.463 191.89 126.245 194.975C131.027 198.06 147.071 209.63 149.539 211.482C152.007 213.333 156.635 216.727 157.715 216.881C158.795 217.035 170.057 203.305 172.679 198.677C175.302 194.049 177.616 184.331 176.69 182.171C175.765 180.011 173.913 181.862 172.062 183.405C170.211 184.948 153.242 196.209 151.699 196.98C150.856 197.413 149.979 197.774 149.076 198.06C149.076 198.06 135.192 184.793 127.788 174.612C120.383 164.43 119.766 151.318 116.989 146.381C114.212 141.444 110.201 139.285 104.185 139.902C98.1684 140.519 85.6728 143.758 75.4912 151.318Z" fill="white"/>
<path d="M140.765 205.113C144.887 208.063 148.472 210.667 149.539 211.469C152.007 213.32 156.635 216.714 157.715 216.868C158.098 216.924 159.764 215.227 161.868 212.814L144.202 201.448L140.765 205.113Z" fill="#D1BBA4"/>
<path opacity="0.5" d="M140.765 205.113C144.887 208.063 148.472 210.667 149.539 211.469C152.007 213.32 156.635 216.714 157.715 216.868C158.098 216.924 159.764 215.227 161.868 212.814L144.202 201.448L140.765 205.113Z" fill="white"/>
<path d="M75.4912 151.318C75.4912 151.318 70.5546 154.094 68.8577 157.18C67.1608 160.265 74.4607 165.405 82.174 165.097C89.8873 164.788 104.031 156.408 104.031 156.408C104.031 156.408 104.185 169.984 106.807 174.92C109.43 179.857 121.463 191.89 126.245 194.975C131.027 198.06 147.071 209.63 149.539 211.482C152.007 213.333 156.635 216.727 157.715 216.881C158.795 217.035 170.057 203.305 172.679 198.677C175.302 194.049 177.616 184.331 176.69 182.171C175.765 180.011 173.913 181.862 172.062 183.405C170.211 184.948 153.242 196.209 151.699 196.98C150.856 197.413 149.979 197.774 149.076 198.06C149.076 198.06 135.192 184.793 127.788 174.612C120.383 164.43 119.766 151.318 116.989 146.381C114.212 141.444 110.201 139.285 104.185 139.902C98.1684 140.519 85.6728 143.758 75.4912 151.318Z" stroke="#263238" stroke-linecap="round" stroke-linejoin="round"/>
<path d="M148.12 197.135C144.856 193.951 132.619 177.531 127.788 168.089C120.71 154.255 119.945 149.54 117.168 144.604C114.391 139.667 110.201 139.285 104.209 139.902C98.2177 140.519 87.4252 141.636 74.22 149.127C74.22 149.127 68.6664 152.138 66.9756 155.224C65.2849 158.309 71.4617 166.078 82.1987 165.097C89.8873 164.393 104.055 156.408 104.055 156.408C104.055 156.408 104.209 169.984 106.832 174.92C109.455 179.857 121.487 191.89 126.27 194.975C129.299 196.931 136.858 202.3 142.616 206.434C144.035 201.269 146.583 198.443 148.12 197.135Z" fill="#263238"/>
<path opacity="0.53" d="M148.12 197.135C144.856 193.951 132.619 177.531 127.788 168.089C120.71 154.255 119.945 149.54 117.168 144.604C114.391 139.667 110.201 139.285 104.209 139.902C98.2177 140.519 87.4252 141.636 74.22 149.127C74.22 149.127 68.6664 152.138 66.9756 155.224C65.2849 158.309 71.4617 166.078 82.1987 165.097C89.8873 164.393 104.055 156.408 104.055 156.408C104.055 156.408 104.209 169.984 106.832 174.92C109.455 179.857 121.487 191.89 126.27 194.975C129.299 196.931 136.858 202.3 142.616 206.434C144.035 201.269 146.583 198.443 148.12 197.135Z" fill="white"/>
<path opacity="0.14" d="M117.1 175.186C112.472 163.461 115.249 140.013 102.29 143.098C92.8493 145.344 75.5405 153.329 66.8461 157.494C67.8766 161.036 73.5536 165.886 82.174 165.097C89.8626 164.393 104.031 156.408 104.031 156.408C104.031 156.408 104.185 169.984 106.807 174.92C109.43 179.857 121.463 191.89 126.245 194.975C129.275 196.931 136.834 202.3 142.591 206.434C143.087 204.628 143.81 202.892 144.745 201.269C133.255 192.772 119.686 181.733 117.1 175.186Z" fill="black"/>
<path d="M104.031 156.408L103.568 148.387" stroke="#263238" stroke-linecap="round" stroke-linejoin="round"/>
<path d="M148.12 197.135C144.856 193.951 132.619 177.531 127.788 168.089C120.71 154.255 119.945 149.54 117.168 144.604C114.391 139.667 110.201 139.285 104.209 139.902C98.2177 140.519 87.4252 141.636 74.22 149.127C74.22 149.127 68.6664 152.138 66.9756 155.224C65.2849 158.309 71.4617 166.078 82.1987 165.097C89.8873 164.393 104.055 156.408 104.055 156.408C104.055 156.408 104.209 169.984 106.832 174.92C109.455 179.857 121.487 191.89 126.27 194.975C129.299 196.931 136.858 202.3 142.616 206.434C144.035 201.269 146.583 198.443 148.12 197.135Z" stroke="#263238" stroke-linecap="round" stroke-linejoin="round"/>
<path d="M149.539 211.482C152.007 213.333 156.635 216.727 157.715 216.881C158.795 217.035 170.057 203.305 172.679 198.677C175.302 194.049 177.616 184.331 176.69 182.171C175.765 180.011 173.913 181.862 172.062 183.405C170.211 184.948 153.242 196.209 151.699 196.98C151.292 197.184 150.921 197.351 150.594 197.493C150.15 198.338 149.607 199.646 149.977 200.529C150.594 201.917 153.217 203.768 153.217 203.768L148.546 210.766L149.539 211.482Z" fill="#263238" stroke="#263238" stroke-linecap="round" stroke-linejoin="round"/>
<path d="M172.679 198.677C175.302 194.049 177.616 184.331 176.69 182.171C176.153 180.937 175.308 181.017 174.327 181.622C174.975 184.503 174.327 190.063 171.137 196.055C168.292 201.399 159.505 210.865 155.093 215.443C155.897 216.048 156.784 216.532 157.728 216.881C158.795 217.035 170.057 203.305 172.679 198.677Z" fill="white"/>
<path d="M157.87 216.838L158.005 216.77L158.042 216.739C158.117 216.697 158.187 216.647 158.252 216.591L158.326 216.529L158.505 216.381L158.604 216.289L158.845 216.066L158.993 215.925L159.196 215.727L159.369 215.554L159.542 215.382L159.98 214.919L160.054 214.845L160.326 214.548L160.437 214.431C160.757 214.08 161.103 213.697 161.461 213.29V213.259L161.844 212.827L159.147 211.093C157.617 212.759 156.191 214.265 155.056 215.443L155.469 215.715L155.531 215.752L155.913 215.992L156.531 216.344L156.703 216.443L156.876 216.535L157.074 216.634L157.203 216.696C157.265 216.727 157.329 216.754 157.394 216.776L157.487 216.813C157.558 216.843 157.633 216.863 157.709 216.875C157.748 216.885 157.788 216.885 157.826 216.875L157.87 216.838Z" fill="#D1BBA4"/>
<path opacity="0.5" d="M157.87 216.838L158.005 216.77L158.042 216.739C158.117 216.697 158.187 216.647 158.252 216.591L158.326 216.529L158.505 216.381L158.604 216.289L158.845 216.066L158.993 215.925L159.196 215.727L159.369 215.554L159.542 215.382L159.98 214.919L160.054 214.845L160.326 214.548L160.437 214.431C160.757 214.08 161.103 213.697 161.461 213.29V213.259L161.844 212.827L159.147 211.093C157.617 212.759 156.191 214.265 155.056 215.443L155.469 215.715L155.531 215.752L155.913 215.992L156.531 216.344L156.703 216.443L156.876 216.535L157.074 216.634L157.203 216.696C157.265 216.727 157.329 216.754 157.394 216.776L157.487 216.813C157.558 216.843 157.633 216.863 157.709 216.875C157.748 216.885 157.788 216.885 157.826 216.875L157.87 216.838Z" fill="white"/>
<path d="M172.679 198.677C175.302 194.049 177.616 184.331 176.69 182.171C176.153 180.937 175.308 181.017 174.327 181.622C174.975 184.503 174.327 190.063 171.137 196.055C168.292 201.399 159.505 210.865 155.093 215.443C155.897 216.048 156.784 216.532 157.728 216.881C158.795 217.035 170.057 203.305 172.679 198.677Z" stroke="#263238" stroke-linecap="round" stroke-linejoin="round"/>
<path d="M148.151 220.429C143.523 217.498 138.278 209.322 138.123 206.545C138.117 206.241 138.141 205.937 138.197 205.638C137.276 205.667 136.387 205.985 135.655 206.545C133.756 204.822 131.746 203.224 129.639 201.763C127.942 200.785 126.04 200.217 124.085 200.103C121.845 201.954 119.766 203.435 119.439 204.694C118.822 207.008 122.987 216.264 133.014 222.743C143.041 229.222 146.435 228.142 149.366 227.525C152.297 226.908 152.779 223.36 148.151 220.429Z" fill="#263238" stroke="#263238" stroke-linecap="round" stroke-linejoin="round"/>
<path d="M148.151 220.429C146.617 219.39 145.234 218.144 144.041 216.727C140.857 215.369 136.605 213.641 132.878 211.321C128.867 208.853 129.793 207.31 127.479 204.996C125.702 203.219 122.209 202.991 120.691 202.978C120.143 203.436 119.719 204.024 119.457 204.688C118.84 207.002 123.005 216.258 133.033 222.737C143.06 229.216 146.454 228.136 149.385 227.519C152.316 226.902 152.779 223.36 148.151 220.429Z" fill="white"/>
<path d="M148.151 220.429C146.617 219.39 145.234 218.144 144.041 216.727C140.857 215.369 136.605 213.641 132.878 211.321C128.867 208.853 129.793 207.31 127.479 204.996C125.702 203.219 122.209 202.991 120.691 202.978C120.143 203.436 119.719 204.024 119.457 204.688C118.84 207.002 123.005 216.258 133.033 222.737C143.06 229.216 146.454 228.136 149.385 227.519C152.316 226.902 152.779 223.36 148.151 220.429Z" fill="#D1BBA4"/>
<path opacity="0.5" d="M148.151 220.429C146.617 219.39 145.234 218.144 144.041 216.727C140.857 215.369 136.605 213.641 132.878 211.321C128.867 208.853 129.793 207.31 127.479 204.996C125.702 203.219 122.209 202.991 120.691 202.978C120.143 203.436 119.719 204.024 119.457 204.688C118.84 207.002 123.005 216.258 133.033 222.737C143.06 229.216 146.454 228.136 149.385 227.519C152.316 226.902 152.779 223.36 148.151 220.429Z" fill="white"/>
<path d="M148.151 220.429C146.617 219.39 145.234 218.144 144.041 216.727C140.857 215.369 136.605 213.641 132.878 211.321C128.867 208.853 129.793 207.31 127.479 204.996C125.702 203.219 122.209 202.991 120.691 202.978C120.143 203.436 119.719 204.024 119.457 204.688C118.84 207.002 123.005 216.258 133.033 222.737C143.06 229.216 146.454 228.136 149.385 227.519C152.316 226.902 152.779 223.36 148.151 220.429Z" stroke="#263238" stroke-linecap="round" stroke-linejoin="round"/>
<path d="M148.922 221.509C144.911 219.195 136.735 217.652 131.49 214.104C126.245 210.556 127.633 207.471 123.777 205.002C123.16 204.542 122.422 204.273 121.654 204.229C120.886 204.185 120.122 204.368 119.457 204.756C118.92 207.162 123.098 216.313 133.033 222.743C142.967 229.173 146.454 228.142 149.385 227.525C151.335 227.112 152.18 225.409 151.174 223.453C150.545 222.676 149.782 222.018 148.922 221.509Z" fill="#263238"/>
<path opacity="0.53" d="M148.922 221.509C144.911 219.195 136.735 217.652 131.49 214.104C126.245 210.556 127.633 207.471 123.777 205.002C123.16 204.542 122.422 204.273 121.654 204.229C120.886 204.185 120.122 204.368 119.457 204.756C118.92 207.162 123.098 216.313 133.033 222.743C142.967 229.173 146.454 228.142 149.385 227.525C151.335 227.112 152.18 225.409 151.174 223.453C150.545 222.676 149.782 222.018 148.922 221.509Z" fill="white"/>
<path d="M148.922 221.509C144.911 219.195 136.735 217.652 131.49 214.104C126.245 210.556 127.633 207.471 123.777 205.002C123.16 204.542 122.422 204.273 121.654 204.229C120.886 204.185 120.122 204.368 119.457 204.756C118.92 207.162 123.098 216.313 133.033 222.743C142.967 229.173 146.454 228.142 149.385 227.525C151.335 227.112 152.18 225.409 151.174 223.453C150.545 222.676 149.782 222.018 148.922 221.509V221.509Z" stroke="#263238" stroke-linecap="round" stroke-linejoin="round"/>
<path d="M72.0479 192.001C72.0479 192.001 75.0098 188.403 75.4294 191.155C75.849 193.907 75.2196 198.98 73.1031 200.88C70.9866 202.781 69.9314 199.825 69.9314 199.825L71.2025 198.134C71.2025 198.134 72.2577 200.251 73.1031 196.863C73.9485 193.476 71.4123 193.901 71.4123 193.901L72.0479 192.001Z" fill="white" stroke="#263238" stroke-linecap="round" stroke-linejoin="round"/>
<path d="M69.7833 205.539C68.0308 206.835 62.3168 206.835 60.5705 205.539C56.8681 202.793 57.4851 189.526 57.4851 189.526H72.8254C72.8254 189.526 73.4919 202.793 69.7833 205.539Z" fill="white" stroke="#263238" stroke-linecap="round" stroke-linejoin="round"/>
<path d="M59.1636 186.922C59.1636 185.256 60.7124 185.256 60.7124 183.584C60.7124 181.912 59.1636 181.912 59.1636 180.246C59.1636 178.579 60.7124 178.573 60.7124 176.901C60.7124 175.229 59.1636 175.229 59.1636 173.557C59.1636 171.884 60.7124 171.884 60.7124 170.212" stroke="#263238" stroke-linecap="round" stroke-linejoin="round"/>
<path d="M64.4642 186.922C64.4642 185.688 66.013 185.688 66.013 184.386C66.013 183.084 64.4642 183.121 64.4642 181.85C64.4642 180.579 66.013 180.585 66.013 179.314C66.013 178.043 64.4642 178.043 64.4642 176.772C64.4642 175.5 66.013 175.507 66.013 174.235" stroke="#263238" stroke-linecap="round" stroke-linejoin="round"/>
<path d="M70.2954 186.922C70.2954 185.256 71.8381 185.256 71.8381 183.584C71.8381 181.912 70.2954 181.912 70.2954 180.246C70.2954 178.579 71.8381 178.573 71.8381 176.901C71.8381 175.229 70.2954 175.229 70.2954 173.557C70.2954 171.884 71.8381 171.884 71.8381 170.212" stroke="#263238" stroke-linecap="round" stroke-linejoin="round"/>
<path d="M72.8378 189.527C72.8378 189.915 69.4069 190.224 65.1676 190.224C60.9284 190.224 57.4975 189.915 57.4975 189.527C57.4975 189.138 60.9284 188.829 65.1676 188.829C69.4069 188.829 72.8378 189.138 72.8378 189.527Z" fill="white" stroke="#263238" stroke-linecap="round" stroke-linejoin="round"/>
<path d="M86.9995 94.0414C86.9995 94.0414 87.7214 101.835 88.0238 104.297C88.3261 106.759 89.0111 113.831 89.7207 116.169C90.4303 118.508 94.2994 122.575 94.6573 121.637C95.0152 120.699 96.9404 114.337 96.1752 110.529C95.4101 106.722 95.1756 103.47 95.6507 102.508C96.1259 101.545 97.8351 100.465 97.8351 100.465C95.8442 99.4454 93.91 98.3186 92.0409 97.0898C89.3135 95.2756 87.382 93.2208 86.9995 94.0414Z" fill="white"/>
<path d="M96.9034 100.885L96.2863 99.6875C95.1509 99.0705 93.5712 98.1572 92.0717 97.1514C89.3258 95.3002 87.3944 93.2207 87.0118 94.066C87.0118 94.066 87.7337 101.86 88.0361 104.322C88.3385 106.784 89.0234 113.855 89.733 116.194C89.9751 116.878 90.3094 117.526 90.7265 118.119C89.9799 113.467 90.7882 105.062 90.7882 105.062L96.9034 100.885Z" fill="#D1BBA4"/>
<path opacity="0.5" d="M96.9034 100.885L96.2863 99.6875C95.1509 99.0705 93.5712 98.1572 92.0717 97.1514C89.3258 95.3002 87.3944 93.2207 87.0118 94.066C87.0118 94.066 87.7337 101.86 88.0361 104.322C88.3385 106.784 89.0234 113.855 89.733 116.194C89.9751 116.878 90.3094 117.526 90.7265 118.119C89.9799 113.467 90.7882 105.062 90.7882 105.062L96.9034 100.885Z" fill="white"/>
<path d="M86.9995 94.0414C86.9995 94.0414 87.7214 101.835 88.0238 104.297C88.3261 106.759 89.0111 113.831 89.7207 116.169C90.4303 118.508 94.2994 122.575 94.6573 121.637C95.0152 120.699 96.9404 114.337 96.1752 110.529C95.4101 106.722 95.1756 103.47 95.6507 102.508C96.1259 101.545 97.8351 100.465 97.8351 100.465C95.8442 99.4454 93.91 98.3186 92.0409 97.0898C89.3135 95.2756 87.382 93.2208 86.9995 94.0414Z" stroke="#263238" stroke-linecap="round" stroke-linejoin="round"/>
<path d="M86.7156 95.1707C86.7156 95.1707 91.1585 98.8731 94.5647 100.231C97.9709 101.588 103.204 101.502 103.95 99.7308C104.697 97.9598 102.654 83.9339 100.896 80.2438C99.1372 76.5537 97.2613 76.492 94.1574 76.2082C91.0536 75.9243 84.8459 78.4543 83.7537 81.4533C82.6615 84.4522 83.9079 88.6976 84.8089 91.2153C85.2853 92.6047 85.9254 93.9325 86.7156 95.1707Z" fill="white"/>
<path d="M94.6943 95.0039C93.1208 90.3389 92.7258 82.9958 92.7258 81.0397C92.7258 79.5279 96.6627 77.868 98.4584 77.1892C97.2798 76.4611 95.9099 76.3685 94.1389 76.2081C91.0536 75.9304 84.8274 78.4542 83.7352 81.4531C82.643 84.4521 83.8894 88.6975 84.7904 91.2151C85.2668 92.6046 85.9068 93.9324 86.6971 95.1705C86.6971 95.1705 91.14 98.8729 94.5462 100.23C96.9069 101.124 99.4636 101.369 101.951 100.94C99.5136 100.021 95.7433 98.1201 94.6943 95.0039Z" fill="#D1BBA4"/>
<path opacity="0.5" d="M94.6943 95.0039C93.1208 90.3389 92.7258 82.9958 92.7258 81.0397C92.7258 79.5279 96.6627 77.868 98.4584 77.1892C97.2798 76.4611 95.9099 76.3685 94.1389 76.2081C91.0536 75.9304 84.8274 78.4542 83.7352 81.4531C82.643 84.4521 83.8894 88.6975 84.7904 91.2151C85.2668 92.6046 85.9068 93.9324 86.6971 95.1705C86.6971 95.1705 91.14 98.8729 94.5462 100.23C96.9069 101.124 99.4636 101.369 101.951 100.94C99.5136 100.021 95.7433 98.1201 94.6943 95.0039Z" fill="white"/>
<path d="M86.7156 95.1707C86.7156 95.1707 91.1585 98.8731 94.5647 100.231C97.9709 101.588 103.204 101.502 103.95 99.7308C104.697 97.9598 102.654 83.9339 100.896 80.2438C99.1372 76.5537 97.2613 76.492 94.1574 76.2082C91.0536 75.9243 84.8459 78.4543 83.7537 81.4533C82.6615 84.4522 83.9079 88.6976 84.8089 91.2153C85.2853 92.6047 85.9254 93.9325 86.7156 95.1707V95.1707Z" stroke="#263238" stroke-linecap="round" stroke-linejoin="round"/>
<path d="M101.229 86.0196C101.303 87.7967 100.186 89.2838 98.7608 89.3394C97.3353 89.3949 96.0889 88.0065 96.021 86.254C95.9531 84.5016 97.0638 82.9898 98.4892 82.928C99.9147 82.8663 101.161 84.2239 101.229 86.0196Z" stroke="#263238" stroke-linecap="round" stroke-linejoin="round"/>
<path d="M104.722 85.3285C104.796 87.1057 104.222 88.5681 103.444 88.599C102.667 88.6298 101.976 87.2167 101.908 85.4396C101.84 83.6624 102.414 82.1938 103.191 82.163C103.969 82.1321 104.654 83.5514 104.722 85.3285Z" stroke="#263238" stroke-linecap="round" stroke-linejoin="round"/>
<path d="M101.414 85.3654C101.414 85.3654 106.511 86.3342 106.017 87.5621C105.524 88.7901 102.081 90.1168 102.081 90.1168" fill="white"/>
<path d="M101.414 85.3654C101.414 85.3654 106.511 86.3342 106.017 87.5621C105.524 88.7901 102.081 90.1168 102.081 90.1168" stroke="#263238" stroke-linecap="round" stroke-linejoin="round"/>
<path d="M101.099 84.7854C101.099 84.7854 101.173 84.1684 101.957 84.5571" stroke="#263238" stroke-linecap="round" stroke-linejoin="round"/>
<path d="M95.8605 86.5009L86.5922 90.1477" stroke="#263238" stroke-linecap="round" stroke-linejoin="round"/>
<path d="M95.9839 83.5018C96.1791 83.0607 96.5052 82.6902 96.9181 82.4408C97.3309 82.1913 97.8105 82.0749 98.2918 82.1072" stroke="#263238" stroke-width="2" stroke-linecap="round" stroke-linejoin="round"/>
<path d="M102.155 82.1504L100.729 82.6872" stroke="#263238" stroke-width="2" stroke-linecap="round" stroke-linejoin="round"/>
<path d="M97.7488 92.4988C97.7488 92.4988 99.6 92.0175 100.649 93.1159" stroke="#263238" stroke-linecap="round" stroke-linejoin="round"/>
<path d="M98.9397 86.3405C99.0261 86.9576 98.9397 87.4882 98.6867 87.5191C98.4337 87.5499 98.2116 87.0748 98.1252 86.4516C98.0388 85.8283 98.156 85.31 98.3843 85.2791C98.6127 85.2483 98.8595 85.7234 98.9397 86.3405Z" fill="#263238"/>
<path d="M87.4561 90.1724C87.4561 90.1724 86.839 91.4065 88.5792 91.4682C90.3193 91.5299 91.504 90.6845 90.6587 89.617C89.8133 88.5495 88.5606 87.5498 89.8503 86.1553C91.14 84.7607 93.6453 83.5883 92.2384 82.0332C90.8315 80.4782 85.6543 81.8913 86.9501 80.6325C88.2459 79.3737 94.2315 78.0593 96.9219 78.2259C99.6123 78.3926 104.635 76.3069 105.74 73.5794C106.844 70.852 105.302 65.8106 101.686 66.0821C98.0696 66.3536 95.3731 69.5562 93.7687 69.7845C92.1643 70.0128 88.8753 68.2295 86.1171 69.7845C83.3588 71.3395 83.2662 75.807 83.0317 76.3562C82.7972 76.9054 79.0578 77.7199 78.3975 81.5026C78.1497 83.0276 78.2556 84.5891 78.7071 86.0667C79.1586 87.5442 79.9436 88.8983 81.0016 90.0243C82.5504 91.7089 83.2477 92.3506 83.2477 92.3506L87.4561 90.1724Z" fill="#263238" stroke="#263238" stroke-linecap="round" stroke-linejoin="round"/>
<path d="M79.607 83.3353C79.5748 83.9094 79.7121 84.4802 80.0019 84.9767" stroke="white" stroke-width="0.75" stroke-linecap="round" stroke-linejoin="round"/>
<path d="M95.336 73.5672C95.336 73.5672 93.9908 70.6238 97.4217 70.6238C100.853 70.6238 101.346 74.9432 97.792 76.5106C94.2377 78.0779 86.5058 78.4729 82.3344 80.3179C81.5158 80.6383 80.7873 81.1529 80.2117 81.8174" stroke="white" stroke-width="0.75" stroke-linecap="round" stroke-linejoin="round"/>
<path d="M89.1222 84.0203C87.888 84.4646 86.2898 85.0816 84.6669 85.8344C81.2299 87.4326 81.9642 89.0247 81.9642 89.0247" stroke="white" stroke-width="0.75" stroke-linecap="round" stroke-linejoin="round"/>
<path d="M91.4115 83.2612C91.4115 83.2612 91.1091 83.3476 90.597 83.5142" stroke="white" stroke-width="0.75" stroke-linecap="round" stroke-linejoin="round"/>
<path d="M88.0423 91.4929C88.0423 91.4929 86.0492 88.6174 83.9511 89.7713C81.8531 90.9252 83.4822 95.0287 84.7472 96.4541C86.0122 97.8796 88.4496 95.22 88.7026 94.5536" fill="white"/>
<path d="M88.0423 91.4929C88.0423 91.4929 86.0492 88.6174 83.9511 89.7713C81.8531 90.9252 83.4822 95.0287 84.7472 96.4541C86.0122 97.8796 88.4496 95.22 88.7026 94.5536" fill="#D1BBA4"/>
<path opacity="0.5" d="M88.0423 91.4929C88.0423 91.4929 86.0492 88.6174 83.9511 89.7713C81.8531 90.9252 83.4822 95.0287 84.7472 96.4541C86.0122 97.8796 88.4496 95.22 88.7026 94.5536" fill="white"/>
<path d="M88.0423 91.4929C88.0423 91.4929 86.0492 88.6174 83.9511 89.7713C81.8531 90.9252 83.4822 95.0287 84.7472 96.4541C86.0122 97.8796 88.4496 95.22 88.7026 94.5536" stroke="#263238" stroke-linecap="round" stroke-linejoin="round"/>
<path d="M198.781 210.211C204.483 210.211 209.105 208.139 209.105 205.583C209.105 203.027 204.483 200.955 198.781 200.955C193.08 200.955 188.458 203.027 188.458 205.583C188.458 208.139 193.08 210.211 198.781 210.211Z" fill="#D1BBA4"/>
<path opacity="0.5" d="M198.781 210.211C204.483 210.211 209.105 208.139 209.105 205.583C209.105 203.027 204.483 200.955 198.781 200.955C193.08 200.955 188.458 203.027 188.458 205.583C188.458 208.139 193.08 210.211 198.781 210.211Z" fill="white"/>
<path d="M186.705 137.1C187.81 137.582 190.512 137.52 190.512 137.52C190.512 137.52 189.932 135.749 189.895 135.669C189.278 134.435 187.427 132.38 185.903 132.584C185.653 132.629 185.414 132.725 185.203 132.867C184.992 133.009 184.812 133.192 184.674 133.407C184.537 133.621 184.446 133.861 184.405 134.112C184.365 134.363 184.377 134.62 184.441 134.867C184.669 135.903 185.761 136.687 186.705 137.1Z" fill="#263238"/>
<path d="M222.1 127.9C220.57 127.74 218.749 129.831 218.188 131.09C218.139 131.201 217.571 132.985 217.608 132.985H217.639C217.349 133.312 217.022 133.67 216.719 134.064C216.102 134.799 215.448 135.632 214.782 136.594C214.05 137.619 213.381 138.687 212.776 139.791C212.091 141.025 211.517 142.318 211.061 143.654C211.057 143.67 211.057 143.687 211.061 143.703C211.061 143.253 211.061 141.988 211.061 141.889C210.882 140.531 209.74 137.995 208.222 137.718C207.97 137.683 207.714 137.701 207.469 137.77C207.225 137.839 206.997 137.958 206.8 138.119C206.603 138.28 206.441 138.479 206.325 138.705C206.209 138.932 206.141 139.179 206.124 139.433C206.038 140.513 206.822 141.599 207.587 142.284C208.451 143.055 210.845 143.802 211.036 143.857C210.609 145.229 210.271 146.626 210.024 148.041C209.876 148.868 209.759 149.701 209.642 150.54C209.642 150.145 209.642 149.8 209.642 149.75C209.463 148.387 208.321 145.857 206.809 145.579C206.557 145.544 206.301 145.561 206.056 145.629C205.811 145.697 205.582 145.815 205.385 145.975C205.187 146.136 205.025 146.335 204.908 146.561C204.791 146.787 204.722 147.034 204.705 147.288C204.619 148.374 205.402 149.454 206.167 150.139C206.933 150.824 208.975 151.515 209.518 151.688C209.481 152.009 209.438 152.305 209.395 152.651C209.21 154.193 209.037 155.736 208.815 157.248C208.734 157.778 208.642 158.297 208.549 158.815C208.549 158.47 208.549 158.198 208.549 158.136C208.37 156.773 207.229 154.243 205.711 153.959C205.459 153.924 205.203 153.942 204.958 154.011C204.713 154.08 204.485 154.199 204.288 154.36C204.092 154.521 203.93 154.72 203.814 154.947C203.697 155.173 203.629 155.42 203.613 155.674C203.526 156.76 204.31 157.84 205.075 158.525C205.84 159.21 207.685 159.833 208.327 160.037C208.216 160.568 208.099 161.098 207.969 161.61C207.871 161.956 207.797 162.295 207.679 162.635C207.562 162.974 207.463 163.313 207.352 163.647C207.124 164.264 206.889 164.943 206.649 165.553C206.482 165.985 206.316 166.393 206.155 166.788C206.235 166.257 206.377 165.22 206.377 165.134C206.362 163.924 206.037 162.739 205.433 161.691C205.442 161.557 205.442 161.423 205.433 161.29C205.397 161.038 205.309 160.797 205.175 160.58C205.041 160.364 204.864 160.178 204.655 160.033C204.446 159.889 204.21 159.789 203.96 159.739C203.711 159.69 203.454 159.693 203.206 159.747C201.718 160.142 200.774 162.752 200.7 164.122C200.7 164.208 200.75 165.091 200.793 165.646C200.719 165.325 200.651 165.029 200.571 164.677C200.41 164.017 200.237 163.363 200.052 162.666C199.947 162.326 199.849 161.987 199.744 161.647C199.639 161.308 199.503 160.956 199.386 160.605C199.09 159.802 198.769 159 198.392 158.198C198.972 158.062 201.009 157.544 201.829 156.915C202.65 156.285 203.508 155.267 203.496 154.181C203.502 153.927 203.454 153.674 203.356 153.439C203.258 153.204 203.112 152.993 202.927 152.818C202.742 152.644 202.522 152.51 202.282 152.426C202.042 152.342 201.787 152.309 201.533 152.33C199.997 152.496 198.67 154.934 198.392 156.279C198.392 156.365 198.287 157.353 198.244 157.896C198.028 157.414 197.812 156.939 197.578 156.458C196.893 155.082 196.159 153.712 195.43 152.336C195.202 151.916 194.986 151.497 194.77 151.071C194.974 151.028 197.411 150.454 198.325 149.757C199.139 149.139 200.003 148.109 199.997 147.023C199.997 146.77 199.946 146.519 199.846 146.286C199.745 146.054 199.598 145.844 199.414 145.671C199.229 145.497 199.011 145.363 198.773 145.277C198.534 145.192 198.281 145.156 198.028 145.172C196.498 145.338 195.171 147.776 194.894 149.121C194.894 149.22 194.746 150.645 194.727 151.009C194.246 150.077 193.777 149.158 193.345 148.214C192.762 146.956 192.261 145.661 191.845 144.339C191.938 144.339 194.486 143.722 195.424 143.018C196.239 142.401 197.103 141.371 197.097 140.285C197.097 140.031 197.046 139.781 196.945 139.548C196.845 139.315 196.698 139.106 196.514 138.932C196.329 138.759 196.111 138.625 195.873 138.539C195.634 138.453 195.381 138.417 195.128 138.433C193.598 138.6 192.271 141.037 191.993 142.383C191.993 142.494 191.833 144.024 191.827 144.302C191.827 144.221 191.771 144.147 191.747 144.067C191.365 142.727 191.105 141.356 190.969 139.97C190.883 139.211 190.846 138.47 190.821 137.755C191.308 137.699 193.518 137.403 194.437 136.847C195.356 136.292 196.288 135.397 196.399 134.311C196.429 134.059 196.407 133.803 196.333 133.559C196.26 133.316 196.137 133.09 195.973 132.896C195.809 132.702 195.606 132.544 195.378 132.432C195.15 132.32 194.901 132.256 194.647 132.244C193.104 132.244 191.518 134.521 191.092 135.823C191.092 135.897 190.92 136.644 190.815 137.193C190.815 136.866 190.815 136.533 190.815 136.224C190.815 135.064 190.889 133.997 190.963 133.053C191.012 132.516 191.062 132.034 191.117 131.578C191.561 131.275 193.339 130.017 193.888 129.109C194.437 128.202 194.863 126.968 194.462 125.962C194.377 125.721 194.242 125.5 194.066 125.315C193.89 125.129 193.677 124.983 193.44 124.886C193.203 124.788 192.949 124.742 192.693 124.75C192.438 124.758 192.186 124.82 191.956 124.932C190.586 125.635 190.229 128.387 190.451 129.745C190.451 129.862 190.988 131.658 191.012 131.646C190.957 132.078 190.895 132.547 190.839 133.053C190.747 133.997 190.648 135.064 190.624 136.237C190.58 137.494 190.609 138.753 190.71 140.007C190.821 141.413 191.056 142.807 191.413 144.172C191.41 144.188 191.41 144.205 191.413 144.221C191.173 143.845 190.457 142.802 190.395 142.728C189.494 141.685 187.149 140.21 185.73 140.809C185.501 140.919 185.297 141.075 185.131 141.267C184.964 141.459 184.839 141.683 184.764 141.926C184.688 142.168 184.663 142.424 184.69 142.677C184.717 142.929 184.796 143.174 184.922 143.395C185.446 144.351 186.699 144.82 187.717 144.968C188.859 145.135 191.271 144.437 191.463 144.382C191.861 145.76 192.35 147.11 192.925 148.424C193.258 149.195 193.616 149.96 193.987 150.719C193.764 150.398 193.567 150.102 193.536 150.102C192.635 149.065 190.284 147.584 188.871 148.183C188.641 148.293 188.436 148.449 188.269 148.641C188.102 148.834 187.977 149.059 187.901 149.302C187.825 149.546 187.801 149.802 187.828 150.055C187.856 150.309 187.936 150.554 188.063 150.775C188.587 151.725 189.84 152.2 190.852 152.348C191.864 152.496 193.937 151.941 194.499 151.787C194.641 152.077 194.783 152.367 194.931 152.657C195.628 154.051 196.331 155.434 196.979 156.81C197.208 157.297 197.411 157.785 197.596 158.272C197.405 157.982 197.238 157.748 197.208 157.711C196.307 156.674 193.956 155.193 192.543 155.791C192.313 155.901 192.108 156.057 191.941 156.25C191.774 156.443 191.649 156.668 191.573 156.911C191.497 157.154 191.472 157.411 191.5 157.664C191.528 157.917 191.607 158.162 191.734 158.383C192.259 159.333 193.511 159.802 194.523 159.95C195.535 160.099 197.424 159.599 198.072 159.42C198.269 159.926 198.473 160.432 198.639 160.932C198.75 161.271 198.88 161.592 198.966 161.944C199.053 162.295 199.158 162.629 199.256 162.968C199.411 163.628 199.577 164.307 199.719 164.949C199.818 165.399 199.904 165.825 199.991 166.257C199.768 165.769 199.312 164.831 199.269 164.757C198.534 163.591 196.436 161.771 194.949 162.153C194.702 162.222 194.473 162.343 194.276 162.506C194.079 162.67 193.919 162.874 193.806 163.105C193.694 163.335 193.631 163.586 193.623 163.843C193.615 164.099 193.661 164.354 193.758 164.591C194.128 165.609 195.295 166.263 196.276 166.565C197.362 166.892 199.756 166.565 200.052 166.565C200.194 167.281 200.33 167.979 200.441 168.639C200.848 170.922 201.095 172.841 201.249 174.192C201.249 174.433 201.299 174.643 201.323 174.846H196.689L198.176 203.91C198.232 204.974 198.693 205.977 199.466 206.71C200.239 207.444 201.264 207.853 202.329 207.853C203.394 207.853 204.418 207.444 205.19 206.71C205.962 205.976 206.422 204.974 206.476 203.91L207.969 174.846H203.65C203.681 174.779 203.712 174.717 203.749 174.649C204.366 173.415 205.162 171.638 206.05 169.472C206.328 168.787 206.618 168.046 206.902 167.287C207.192 167.349 209.561 167.83 210.666 167.577C211.672 167.355 212.881 166.788 213.332 165.8C213.441 165.57 213.502 165.319 213.511 165.065C213.519 164.81 213.475 164.556 213.38 164.319C213.286 164.082 213.143 163.867 212.962 163.687C212.78 163.508 212.564 163.368 212.326 163.276C210.863 162.789 208.623 164.449 207.821 165.553C207.772 165.615 207.334 166.386 207.062 166.874C207.173 166.559 207.291 166.257 207.408 165.936C207.642 165.319 207.852 164.665 208.087 163.974C208.185 163.641 208.29 163.301 208.389 162.956C208.488 162.61 208.574 162.246 208.667 161.888C208.864 161.055 209.024 160.203 209.166 159.34C209.722 159.543 211.709 160.234 212.739 160.16C213.77 160.086 215.047 159.71 215.639 158.803C215.782 158.592 215.879 158.353 215.925 158.103C215.971 157.853 215.964 157.596 215.906 157.348C215.849 157.1 215.74 156.867 215.588 156.663C215.436 156.458 215.243 156.288 215.022 156.162C213.652 155.452 211.203 156.779 210.228 157.723C210.166 157.785 209.543 158.562 209.21 158.994C209.296 158.47 209.376 157.951 209.444 157.427C209.635 155.896 209.777 154.341 209.925 152.799L210.073 151.386C210.271 151.46 212.616 152.33 213.776 152.249C214.8 152.175 216.084 151.799 216.676 150.892C216.818 150.681 216.915 150.443 216.961 150.192C217.007 149.942 217.001 149.685 216.943 149.437C216.885 149.189 216.777 148.956 216.625 148.752C216.473 148.548 216.28 148.377 216.059 148.251C214.689 147.541 212.233 148.868 211.264 149.812C211.19 149.886 210.296 151.003 210.086 151.299C210.191 150.256 210.314 149.22 210.475 148.214C210.682 146.841 210.976 145.483 211.357 144.147C211.45 144.184 213.893 145.104 215.059 145.017C216.084 144.95 217.367 144.573 217.96 143.66C218.102 143.449 218.199 143.211 218.245 142.96C218.291 142.71 218.285 142.453 218.227 142.205C218.169 141.957 218.06 141.724 217.908 141.52C217.756 141.316 217.564 141.145 217.343 141.019C215.973 140.315 213.523 141.636 212.548 142.586C212.474 142.66 211.511 143.864 211.357 144.092C211.357 144.018 211.394 143.931 211.419 143.857C211.839 142.528 212.378 141.24 213.029 140.007C213.375 139.322 213.751 138.686 214.128 138.082C214.566 138.298 216.596 139.273 217.645 139.316C218.694 139.359 219.984 139.124 220.675 138.285C220.84 138.091 220.964 137.866 221.038 137.622C221.112 137.378 221.135 137.121 221.106 136.868C221.076 136.615 220.995 136.371 220.866 136.151C220.738 135.93 220.566 135.739 220.36 135.589C219.076 134.737 216.497 135.761 215.423 136.619C215.368 136.669 214.806 137.236 214.436 137.606L214.954 136.786C215.602 135.817 216.25 134.972 216.806 134.225C217.139 133.799 217.454 133.429 217.744 133.077C218.287 133.077 220.465 133.003 221.415 132.559C222.365 132.115 223.408 131.325 223.637 130.245C223.71 129.989 223.727 129.721 223.687 129.457C223.647 129.194 223.551 128.943 223.405 128.721C223.26 128.498 223.067 128.31 222.842 128.168C222.617 128.026 222.364 127.935 222.1 127.9ZM205.149 169.021C204.224 171.15 203.372 172.89 202.761 174.094L202.428 174.754H202.323C202.292 174.519 202.261 174.26 202.218 173.97C202.033 172.613 201.743 170.681 201.286 168.417C201.138 167.688 200.972 166.911 200.793 166.121C201.513 165.83 202.218 165.5 202.903 165.134C203.834 165.934 204.872 166.599 205.988 167.108C205.692 167.756 205.421 168.41 205.149 169.021Z" fill="#263238"/>
</g>
</svg>
