<svg width="38" height="57" viewBox="0 0 38 57" fill="none" xmlns="http://www.w3.org/2000/svg">
<path fill-rule="evenodd" clip-rule="evenodd" d="M9.5 9.5C9.5 4.25329 13.7533 0 19 0C24.2467 0 28.5 4.25329 28.5 9.5V28.5C28.5 33.7467 24.2467 38 19 38C13.7533 38 9.5 33.7467 9.5 28.5V9.5ZM19 4.75C16.3766 4.75 14.25 6.87665 14.25 9.5V28.5C14.25 31.1234 16.3766 33.25 19 33.25C21.6234 33.25 23.75 31.1234 23.75 28.5V9.5C23.75 6.87665 21.6234 4.75 19 4.75ZM2.375 20.1875C3.68668 20.1875 4.75 21.2508 4.75 22.5625V28.5C4.75 36.3701 11.1299 42.75 19 42.75C26.8701 42.75 33.25 36.3701 33.25 28.5V22.5625C33.25 21.2508 34.3133 20.1875 35.625 20.1875C36.9367 20.1875 38 21.2508 38 22.5625V28.5C38 38.1891 30.7475 46.1843 21.375 47.353V52.25H28.5C29.8117 52.25 30.875 53.3133 30.875 54.625C30.875 55.9367 29.8117 57 28.5 57H9.5C8.18832 57 7.125 55.9367 7.125 54.625C7.125 53.3133 8.18832 52.25 9.5 52.25H16.625V47.353C7.25251 46.1843 0 38.1891 0 28.5V22.5625C0 21.2508 1.06332 20.1875 2.375 20.1875Z" fill="#FCFCFC"/>
</svg>
