<svg width="228" height="189" viewBox="0 0 228 189" fill="none" xmlns="http://www.w3.org/2000/svg">
<g opacity="0.8">
<path opacity="0.8" d="M179.112 6.90385C152.737 -8.16961 129.378 4.23976 117.694 17.4537C106.009 30.6676 97.3025 44.0147 82.634 46.4657C67.9655 48.9167 45.7096 42.6987 29.1283 54.3781C12.5469 66.0575 12.6109 97.0782 25.7395 114.667C38.8682 132.255 72.8355 140.663 112.024 146.316C126.086 148.446 140.436 147.65 154.176 143.977L171.977 137.514C180.673 133.544 187.962 129.074 194.132 125.446C203.52 119.904 206.829 106.397 208.625 96.5028C211.231 81.6757 211.005 66.4889 207.959 51.7459C204.026 33.1719 195.059 16.0097 179.112 6.90385Z" fill="#F0F0F0"/>
<path opacity="0.8" d="M219.43 25.3664C218.833 15.5199 212.109 12.291 207.847 16.9799C206.834 18.1236 206.155 19.5241 205.886 21.0278C205.616 22.5316 205.765 24.0805 206.317 25.505C207.815 29.5491 210.388 36.7262 211.923 42.3421C214.182 50.6327 213.425 57.0372 216.063 53.6485C218.7 50.2598 220.181 37.8025 219.43 25.3664Z" fill="#999999"/>
<path opacity="0.8" d="M219.43 25.3664C218.833 15.5199 212.109 12.291 207.847 16.9799C206.834 18.1236 206.155 19.5241 205.886 21.0278C205.616 22.5316 205.765 24.0805 206.317 25.505C207.815 29.5491 210.388 36.7262 211.923 42.3421C214.182 50.6327 213.425 57.0372 216.063 53.6485C218.7 50.2598 220.181 37.8025 219.43 25.3664Z" fill="#F0F0F0"/>
<path opacity="0.8" d="M105.641 23.8587C109.781 23.1074 115.056 13.3089 121.839 9.16355C128.622 5.01821 122.595 2.00245 116.202 5.01821C116.202 5.01821 111.3 6.14779 107.533 13.6872C103.766 21.2266 101.496 24.61 105.641 23.8587Z" fill="#F0F0F0"/>
<path opacity="0.8" d="M98.8581 18.5836C102.22 17.2356 105.886 8.08172 102.055 8.5506C101.571 8.62078 101.113 8.81456 100.726 9.11322C100.339 9.41188 100.035 9.80534 99.8439 10.2556C98.6184 12.9783 95.8317 19.7931 98.8581 18.5836Z" fill="#F0F0F0"/>
<path d="M119.388 189C178.924 189 227.188 187.206 227.188 184.993C227.188 182.78 178.924 180.986 119.388 180.986C59.8514 180.986 11.5876 182.78 11.5876 184.993C11.5876 187.206 59.8514 189 119.388 189Z" fill="#999999"/>
<path opacity="0.8" d="M119.388 189C178.924 189 227.188 187.206 227.188 184.993C227.188 182.78 178.924 180.986 119.388 180.986C59.8514 180.986 11.5876 182.78 11.5876 184.993C11.5876 187.206 59.8514 189 119.388 189Z" fill="white"/>
<path d="M171.199 34.3809C170.987 34.3809 170.784 34.4651 170.634 34.615C170.484 34.7648 170.4 34.9681 170.4 35.1801V39.2775H155.795V35.1801C155.795 34.9681 155.711 34.7648 155.561 34.615C155.411 34.4651 155.208 34.3809 154.996 34.3809C154.784 34.3809 154.581 34.4651 154.431 34.615C154.281 34.7648 154.197 34.9681 154.197 35.1801V138.387C154.197 138.599 154.281 138.802 154.431 138.952C154.581 139.102 154.784 139.186 154.996 139.186C155.208 139.186 155.411 139.102 155.561 138.952C155.711 138.802 155.795 138.599 155.795 138.387V115.3H170.4V138.387C170.4 138.599 170.484 138.802 170.634 138.952C170.784 139.102 170.987 139.186 171.199 139.186C171.411 139.186 171.614 139.102 171.764 138.952C171.914 138.802 171.998 138.599 171.998 138.387V35.1641C171.994 34.9549 171.908 34.7557 171.759 34.6093C171.609 34.4628 171.408 34.3808 171.199 34.3809ZM170.4 113.718H155.795V108.539H170.4V113.718ZM170.4 106.935H155.795V101.761H170.4V106.935ZM170.4 100.157H155.795V94.9997H170.4V100.157ZM170.4 93.3853H155.795V88.2489H170.4V93.3853ZM170.4 86.6185H155.795V81.5407H170.4V86.6185ZM170.4 79.873H155.795V74.7633H170.4V79.873ZM170.4 73.1595H155.795V68.0018H170.4V73.1595ZM170.4 66.382H155.795V61.2243H170.4V66.382ZM170.4 59.6205H155.795V54.4468H170.4V59.6205ZM170.4 52.8431H155.795V47.6587H170.4V52.8431ZM170.4 46.0603H155.795V40.8759H170.4V46.0603Z" fill="white"/>
<path d="M32.8578 117.585C32.8578 117.585 44.8196 101.212 38.9852 97.338C32.9164 93.3366 30.0658 105.458 28.7817 111.41C26.043 124.112 26.8156 126.808 28.6539 124.016L32.8578 117.585Z" fill="#999999"/>
<path opacity="0.5" d="M32.8578 117.585C32.8578 117.585 44.8196 101.212 38.9852 97.338C32.9164 93.3366 30.0658 105.458 28.7817 111.41C26.043 124.112 26.8156 126.808 28.6539 124.016L32.8578 117.585Z" fill="white"/>
<path d="M37.3442 127.656C37.3442 127.656 53.9735 116.051 49.7056 110.521C45.2672 104.761 38.6336 115.316 35.4847 120.516C28.7658 131.642 28.6273 134.444 31.27 132.398L37.3442 127.656Z" fill="#999999"/>
<path opacity="0.5" d="M37.3442 127.656C37.3442 127.656 53.9735 116.051 49.7056 110.521C45.2672 104.761 38.6336 115.316 35.4847 120.516C28.7658 131.642 28.6273 134.444 31.27 132.398L37.3442 127.656Z" fill="white"/>
<path d="M37.7066 141.116C37.7066 141.116 52.0927 134.653 49.6364 129.804C47.0789 124.758 40.4772 131.855 37.3176 135.383C30.5668 142.917 30.0553 145.037 32.373 143.86L37.7066 141.116Z" fill="#999999"/>
<path opacity="0.5" d="M37.7066 141.116C37.7066 141.116 52.0927 134.653 49.6364 129.804C47.0789 124.758 40.4772 131.855 37.3176 135.383C30.5668 142.917 30.0553 145.037 32.373 143.86L37.7066 141.116Z" fill="white"/>
<path d="M38.559 154.633C38.559 154.633 52.9452 148.17 50.4942 143.321C47.9313 138.281 41.335 145.373 38.1701 148.905C31.4246 156.439 30.9078 158.56 33.2308 157.377L38.559 154.633Z" fill="#999999"/>
<path opacity="0.5" d="M38.559 154.633C38.559 154.633 52.9452 148.17 50.4942 143.321C47.9313 138.281 41.335 145.373 38.1701 148.905C31.4246 156.439 30.9078 158.56 33.2308 157.377L38.559 154.633Z" fill="white"/>
<path d="M21.6846 124.428C21.6846 124.428 5.8705 111.731 1.76246 117.379C-2.50009 123.24 9.46704 126.666 15.3547 128.221C27.9186 131.541 30.6466 130.886 27.9399 128.925L21.6846 124.428Z" fill="#999999"/>
<path opacity="0.5" d="M21.6846 124.428C21.6846 124.428 5.8705 111.731 1.76246 117.379C-2.50009 123.24 9.46704 126.666 15.3547 128.221C27.9186 131.541 30.6466 130.886 27.9399 128.925L21.6846 124.428Z" fill="white"/>
<path d="M22.1535 135.037C22.1535 135.037 4.13353 125.734 1.22966 132.09C-1.79143 138.702 10.6233 139.661 16.6814 140.013C29.6556 140.77 32.2025 139.587 29.1601 138.201L22.1535 135.037Z" fill="#999999"/>
<path opacity="0.5" d="M22.1535 135.037C22.1535 135.037 4.13353 125.734 1.22966 132.09C-1.79143 138.702 10.6233 139.661 16.6814 140.013C29.6556 140.77 32.2025 139.587 29.1601 138.201L22.1535 135.037Z" fill="white"/>
<path d="M24.3327 146.928C24.3327 146.928 8.88096 139.469 6.57386 144.919C4.17084 150.583 14.6887 151.105 19.8411 151.26C30.8278 151.601 32.9538 150.535 30.3483 149.47L24.3327 146.928Z" fill="#999999"/>
<path opacity="0.5" d="M24.3327 146.928C24.3327 146.928 8.88096 139.469 6.57386 144.919C4.17084 150.583 14.6887 151.105 19.8411 151.26C30.8278 151.601 32.9538 150.535 30.3483 149.47L24.3327 146.928Z" fill="white"/>
<path d="M25.0894 156.535C25.0894 156.535 10.5115 147.477 7.63959 152.651C4.65047 158.027 15.0564 159.663 20.1609 160.366C31.0517 161.869 33.2735 161.043 30.8172 159.674L25.0894 156.535Z" fill="#999999"/>
<path opacity="0.5" d="M25.0894 156.535C25.0894 156.535 10.5115 147.477 7.63959 152.651C4.65047 158.027 15.0564 159.663 20.1609 160.366C31.0517 161.869 33.2735 161.043 30.8172 159.674L25.0894 156.535Z" fill="white"/>
<path d="M23.7091 108.342C23.7091 108.342 20.9704 84.562 11.9871 86.9916C2.65742 89.5279 10.4686 101.559 14.4327 107.377C22.8566 119.76 25.9576 121.124 25.2916 117.256L23.7091 108.342Z" fill="#999999"/>
<path opacity="0.5" d="M23.7091 108.342C23.7091 108.342 20.9704 84.562 11.9871 86.9916C2.65742 89.5279 10.4686 101.559 14.4327 107.377C22.8566 119.76 25.9576 121.124 25.2916 117.256L23.7091 108.342Z" fill="white"/>
<path d="M13.8254 95.6562C13.8254 95.6562 27.4976 121.274 29.6182 133.167C32.0585 146.828 32.4528 162.088 30.7691 174.045" stroke="#999999" stroke-width="1.25197" stroke-linecap="round" stroke-linejoin="round"/>
<path d="M27.4603 125.254L34.1579 104.74" stroke="#999999" stroke-width="1.25197" stroke-linecap="round" stroke-linejoin="round"/>
<path d="M29.6182 133.166L42.2247 117.314" stroke="#999999" stroke-width="1.25197" stroke-linecap="round" stroke-linejoin="round"/>
<path d="M28.8137 130.283L10.5593 122.616" stroke="#999999" stroke-width="1.25197" stroke-linecap="round" stroke-linejoin="round"/>
<path d="M31.2008 143.903L44.9262 133.385" stroke="#999999" stroke-width="1.25197" stroke-linecap="round" stroke-linejoin="round"/>
<path d="M30.4707 139.389L16.1326 136.405" stroke="#999999" stroke-width="1.25197" stroke-linecap="round" stroke-linejoin="round"/>
<path d="M31.1582 150.371L20.0542 148.612" stroke="#999999" stroke-width="1.25197" stroke-linecap="round" stroke-linejoin="round"/>
<path d="M32.0959 157.478L39.5661 150.786" stroke="#999999" stroke-width="1.25197" stroke-linecap="round" stroke-linejoin="round"/>
<path d="M31.9467 160.489L19.1857 157.281" stroke="#999999" stroke-width="1.25197" stroke-linecap="round" stroke-linejoin="round"/>
<path d="M22.4944 164.395H37.5785V167.517H36.2624L33.5397 184.551H26.5332L23.8104 167.517H22.4944V164.395Z" fill="#999999"/>
<path opacity="0.5" d="M22.4944 164.395H37.5785V167.517H36.2624L33.5397 184.551H26.5332L23.8104 167.517H22.4944V164.395Z" fill="white"/>
<path d="M47.3357 3.54219C46.6817 2.95784 45.8832 2.55923 45.023 2.38776C44.1629 2.2163 43.2726 2.27823 42.4445 2.56713C39.514 3.54219 36.706 7.7781 37.4146 11.364C37.9102 13.8469 40.2119 17.5074 40.9099 18.9034C41.6079 20.2994 40.6275 22.6598 38.411 27.5617C36.1945 32.4636 35.3366 37.0619 41.7625 41.1113C48.1883 45.1607 55.4612 38.7349 59.191 34.126C62.9207 29.5171 56.3937 18.9034 55.8342 14.4117C55.2748 9.92004 54.3157 1.30967 47.3357 3.54219Z" fill="#263238"/>
<path d="M62.4401 34.4346C60.8412 36.0343 58.9093 37.2619 56.782 38.0299C54.6546 38.798 52.3841 39.0877 50.132 38.8783L48.5922 45.2988L51.5227 59.9566L70.6562 50.0409L66.3244 38.8516L62.4401 34.4346Z" fill="#999999" stroke="#263238" stroke-linecap="round" stroke-linejoin="round"/>
<path opacity="0.3" d="M62.4401 34.4346C60.8412 36.0343 58.9093 37.2619 56.782 38.0299C54.6546 38.798 52.3841 39.0877 50.132 38.8783L48.5922 45.2988L51.5227 59.9566L70.6562 50.0409L66.3244 38.8516L62.4401 34.4346Z" fill="#263238"/>
<path d="M62.4401 34.4345L59.5096 15.0186L50.8246 16.7982L46.4928 19.5901C46.4928 19.5901 41.3245 23.6449 41.3245 24.0605C41.3245 24.4761 50.068 39.1073 50.068 39.1073C52.3429 39.2419 54.6205 38.8953 56.7523 38.0902C58.8842 37.285 60.8222 36.0393 62.4401 34.4345Z" fill="white"/>
<path d="M62.4401 34.4345L59.5096 15.0186L50.8246 16.7982L46.4928 19.5901C46.4928 19.5901 41.3245 23.6449 41.3245 24.0605C41.3245 24.4761 50.068 39.1073 50.068 39.1073C52.3429 39.2419 54.6205 38.8953 56.7523 38.0902C58.8842 37.285 60.8222 36.0393 62.4401 34.4345Z" stroke="#263238" stroke-linecap="round" stroke-linejoin="round"/>
<path opacity="0.5" d="M50.7874 33.6035C50.7874 33.6035 56.9095 29.0638 56.3447 30.4065C55.7799 31.7492 51.5493 35.1007 50.4144 35.2019C49.2795 35.3032 50.7874 33.6035 50.7874 33.6035Z" fill="#999999"/>
<path d="M50.9739 24.9828L51.2136 25.2332L52.7055 26.8104L53.0892 32.8685L54.9167 32.5808L53.4728 26.9063L55.7852 31.7123L57.7087 29.7888L53.574 26.0378L53.4728 23.0593L51.3575 21.999" fill="#263238"/>
<path d="M47.6118 17.7897C47.6118 17.7897 45.7949 18.6263 45.7949 20.2993C45.7949 21.9724 47.761 25.9525 48.9918 26.7891C50.2227 27.6256 52.3326 23.7946 52.3326 23.7946C52.3326 23.7946 55.5295 25.3291 56.382 23.9331C57.2346 22.5372 54.4266 17.9283 52.615 16.6708C50.8034 15.4134 47.6118 17.7897 47.6118 17.7897Z" fill="white" stroke="#263238" stroke-linecap="round" stroke-linejoin="round"/>
<path d="M46.0771 16.1116C46.5767 17.388 46.9967 18.6941 47.3346 20.0225C47.6117 21.4184 51.384 23.7948 51.7996 23.9334C52.2152 24.0719 52.4976 19.463 52.4976 19.463L51.384 14.0176L46.0771 16.1116Z" fill="white"/>
<g style="mix-blend-mode:multiply" opacity="0.5">
<path d="M51.5014 14.5984C51.267 14.5327 51.0285 14.4828 50.7874 14.4492L46.9351 15.8079L46.429 17.1293C46.6847 17.8433 47.0097 18.8024 47.2069 19.5803C47.8384 20.0895 48.6015 20.4091 49.4074 20.502C50.5636 20.582 51.5813 19.6868 52.3006 18.5892L51.5014 14.5984Z" fill="#999999"/>
</g>
<path d="M46.0771 16.1116C46.5767 17.388 46.9967 18.6941 47.3346 20.0225C47.6117 21.4184 51.384 23.7948 51.7996 23.9334C52.2152 24.0719 52.4976 19.463 52.4976 19.463L51.384 14.0176L46.0771 16.1116Z" stroke="#263238" stroke-linecap="round" stroke-linejoin="round"/>
<path d="M43.5623 13.7352C43.5623 13.7352 42.0225 12.4831 42.0225 13.7352C42.0225 14.9873 43.4238 15.6907 44.5374 15.6907" fill="white"/>
<path d="M43.5623 13.7352C43.5623 13.7352 42.0225 12.4831 42.0225 13.7352C42.0225 14.9873 43.4238 15.6907 44.5374 15.6907" stroke="#263238" stroke-linecap="round" stroke-linejoin="round"/>
<path d="M51.7997 9.68525C51.7997 9.68525 52.7801 8.15073 53.0571 9.82911C53.1848 10.9217 52.885 12.0214 52.2206 12.8981L51.7997 9.68525Z" fill="white" stroke="#263238" stroke-linecap="round" stroke-linejoin="round"/>
<g opacity="0.5">
<path d="M43.5623 13.7352C43.5623 13.7352 42.0225 12.4831 42.0225 13.7352C42.0225 14.9873 43.4238 15.6907 44.5374 15.6907" fill="#999999"/>
<path d="M43.5623 13.7352C43.5623 13.7352 42.0225 12.4831 42.0225 13.7352C42.0225 14.9873 43.4238 15.6907 44.5374 15.6907" stroke="#263238" stroke-linecap="round" stroke-linejoin="round"/>
</g>
<path opacity="0.5" d="M51.7997 9.68525C51.7997 9.68525 52.7801 8.15073 53.0571 9.82911C53.1848 10.9217 52.885 12.0214 52.2206 12.8981L51.7997 9.68525Z" fill="#999999" stroke="#263238" stroke-linecap="round" stroke-linejoin="round"/>
<path d="M41.8307 9.69647C41.8307 9.69647 43.0295 14.689 45.6031 17.1559C48.1766 19.6229 50.9312 19.6442 51.885 15.2484C52.6682 11.6253 50.7234 6.79261 50.7234 6.79261C50.7234 6.79261 44.4468 1.62425 41.8307 9.69647Z" fill="white"/>
<g style="mix-blend-mode:multiply" opacity="0.5">
<path d="M46.301 5.16687L47.2761 7.61784C47.2761 7.61784 48.8106 7.27683 49.6738 9.13104C50.5369 10.9853 51.4054 13.7026 50.9099 15.8073C50.4357 17.8107 49.3115 18.4714 47.5798 18.5193C49.466 19.3239 51.1763 18.5193 51.885 15.2372C52.6682 11.614 50.7234 6.78131 50.7234 6.78131C50.7234 6.78131 48.5975 5.03899 46.301 5.16687Z" fill="#999999"/>
</g>
<path d="M41.8307 9.69647C41.8307 9.69647 43.0295 14.689 45.6031 17.1559C48.1766 19.6229 50.9312 19.6442 51.885 15.2484C52.6682 11.6253 50.7234 6.79261 50.7234 6.79261C50.7234 6.79261 44.4468 1.62425 41.8307 9.69647Z" stroke="#263238" stroke-linecap="round" stroke-linejoin="round"/>
<path d="M46.5941 12.3329C46.7433 12.6153 46.7166 12.919 46.5355 13.015C46.3543 13.1109 46.0879 12.9563 45.944 12.674C45.8002 12.3916 45.8215 12.0932 46.0026 11.9973C46.1838 11.9014 46.4502 12.0559 46.5941 12.3329Z" fill="#263238"/>
<path d="M49.3753 11.4699C49.4819 11.7683 49.4126 12.0667 49.2208 12.1306C49.029 12.1945 48.7839 12.0134 48.688 11.715C48.5921 11.4166 48.6507 11.1183 48.8425 11.0543C49.0343 10.9904 49.2688 11.1822 49.3753 11.4699Z" fill="#263238"/>
<path d="M49.5672 9.87173C49.3495 9.72549 49.0899 9.65464 48.8282 9.67004C48.5664 9.68544 48.3169 9.78624 48.1179 9.95698C47.3507 10.5537 48.7999 13.5429 48.7999 13.5429C48.7999 13.5429 48.8266 14.4859 47.6171 14.049" stroke="#263238" stroke-width="0.5" stroke-linecap="round" stroke-linejoin="round"/>
<path d="M49.5673 15.0186C49.4843 15.2148 49.3569 15.389 49.195 15.5275C49.0331 15.6661 48.8413 15.7651 48.6346 15.8167C48.4279 15.8684 48.2121 15.8713 48.0041 15.8253C47.7961 15.7792 47.6016 15.6855 47.436 15.5514" stroke="#263238" stroke-width="0.5" stroke-linecap="round" stroke-linejoin="round"/>
<path d="M46.3225 10.6657C46.3225 10.6657 44.9585 9.38157 44.3617 11.8592" stroke="#263238" stroke-width="0.5" stroke-linecap="round" stroke-linejoin="round"/>
<path d="M50.8034 5.20918C49.3062 3.9091 48.0967 3.92509 47.5692 4.09559C47.0755 3.78749 46.514 3.60459 45.9335 3.56277C41.7455 3.00331 41.186 6.22687 41.186 9.29058C41.186 12.3543 38.5219 15.9934 40.3495 16.4144C40.8497 16.5344 41.3761 16.4741 41.8362 16.244C42.2962 16.014 42.6603 15.629 42.8644 15.1569C42.8644 15.1569 44.8199 11.96 44.8199 9.70618C44.8199 7.45235 47.2549 7.66548 47.2549 7.66548C47.36 7.51028 47.4974 7.37965 47.6578 7.28255C47.8181 7.18545 47.9976 7.12417 48.1838 7.10291C48.3701 7.08166 48.5587 7.10093 48.7368 7.1594C48.9149 7.21788 49.0782 7.31418 49.2156 7.4417C50.3239 8.39012 50.4518 9.50371 51.3469 9.79143C52.2421 10.0792 53.7393 8.64054 53.7393 8.64054C52.8864 7.39492 51.9021 6.24453 50.8034 5.20918Z" fill="#263238"/>
<path d="M47.3719 6.04562C47.3719 6.04562 45.6881 4.69226 44.1749 6.21079C42.6617 7.72933 42.8269 10.6012 42.3207 12.4608C41.8145 14.3203 40.4612 14.656 40.4612 14.656" stroke="white" stroke-width="0.5" stroke-linecap="round" stroke-linejoin="round"/>
<path d="M46.1945 5.53949C46.1945 5.53949 44.3776 3.73856 42.0918 6.01902C40.3495 7.76667 41.1274 8.91224 40.7864 11.7841" stroke="white" stroke-width="0.5" stroke-linecap="round" stroke-linejoin="round"/>
<path d="M48.2191 5.19864C48.2191 5.19864 51.416 3.6801 52.7801 7.56435" stroke="white" stroke-width="0.5" stroke-linecap="round" stroke-linejoin="round"/>
<path d="M41.3245 24.0723L36.4918 43.5202L50.6648 47.5376L51.3628 45.0227L42.0545 40.7282L45.2141 29.539C45.2141 29.539 44.7985 27.445 42.55 25.074" fill="white"/>
<g style="mix-blend-mode:multiply" opacity="0.5">
<path d="M51.3841 45.0371L42.0757 40.7426L45.2353 29.5534C44.9878 28.6245 44.5862 27.7437 44.0471 26.9479L43.7434 26.7188V29.8091C43.7434 31.7859 41.2711 38.0891 40.4026 39.5704C39.5341 41.0516 38.1808 42.9058 38.1808 42.9058L40.8982 41.6697L51.1976 45.7937L51.3841 45.0371Z" fill="#999999"/>
</g>
<path d="M41.3245 24.0723L36.4918 43.5202L50.6648 47.5376L51.3628 45.0227L42.0545 40.7282L45.2141 29.539C45.2141 29.539 44.7985 27.445 42.55 25.074" stroke="#263238" stroke-linecap="round" stroke-linejoin="round"/>
<path d="M81.174 29.9111L70.443 27.6573L59.4829 14.9922L61.1027 25.1797L67.8269 31.5842L81.3392 32.2023L81.174 29.9111Z" fill="white"/>
<g style="mix-blend-mode:multiply" opacity="0.5">
<path d="M59.4829 14.9922L60.7883 23.123L61.6195 25.6646L61.7261 25.7605C62.0404 25.4354 63.8147 23.5919 64.2676 23.5919C64.7205 23.5919 69.8303 28.0409 69.0896 28.3873L68.3437 28.7549L81.0728 30.8542L81.1633 29.8792L70.4537 27.6307L59.4829 14.9922Z" fill="#999999"/>
</g>
<path d="M81.174 29.9111L70.443 27.6573L59.4829 14.9922L61.1027 25.1797L67.8269 31.5842L81.3392 32.2023L81.174 29.9111Z" stroke="#263238" stroke-linecap="round" stroke-linejoin="round"/>
<path d="M181.35 137.748L44.6973 117.725C44.2629 117.66 43.8718 117.426 43.61 117.073C43.3483 116.721 43.2372 116.279 43.3013 115.844L54.6823 38.2069C54.7136 37.992 54.787 37.7854 54.8982 37.5989C55.0095 37.4124 55.1564 37.2497 55.3306 37.12C55.5048 36.9904 55.7029 36.8963 55.9135 36.8433C56.124 36.7903 56.343 36.7793 56.5579 36.811L59.1474 37.1893C59.4754 37.2385 59.8106 37.1875 60.1091 37.043C60.4076 36.8985 60.6556 36.6672 60.8204 36.3794L64.2571 30.4384C64.3615 30.2519 64.5029 30.0887 64.6727 29.9589C65.4772 29.3771 66.4771 29.1324 67.4593 29.2769L101.906 34.328C102.679 34.439 103.399 34.785 103.968 35.3191C104.12 35.4712 104.24 35.6524 104.32 35.8519L107.384 43.4392C107.491 43.7076 107.667 43.9429 107.895 44.1216C108.122 44.3002 108.392 44.4159 108.678 44.4569L193.21 56.8503C193.644 56.9136 194.036 57.1466 194.299 57.4982C194.561 57.8499 194.674 58.2914 194.611 58.7258L183.23 136.358C183.165 136.791 182.93 137.181 182.577 137.442C182.225 137.702 181.783 137.812 181.35 137.748Z" fill="#263238" stroke="#263238" stroke-miterlimit="10"/>
<path d="M182.804 137.37H47.3561C46.9629 137.37 46.5735 137.292 46.2102 137.142C45.8469 136.991 45.5168 136.771 45.2387 136.493C44.9607 136.215 44.7401 135.885 44.5896 135.521C44.4391 135.158 44.3617 134.769 44.3617 134.375V58.5872C44.3617 57.793 44.6772 57.0314 45.2387 56.4698C45.8003 55.9082 46.562 55.5927 47.3561 55.5927H47.7238C48.3233 55.5915 48.9088 55.4114 49.4053 55.0753C49.9017 54.7393 50.2866 54.2627 50.5104 53.7066L52.5724 48.5222C52.8029 47.9239 53.2243 47.4182 53.7713 47.0836C54.3589 46.7367 55.0284 46.5527 55.7108 46.5508H90.5252C90.9931 46.5503 91.4571 46.6352 91.8945 46.8012C92.5022 47.0461 93.0092 47.4892 93.3331 48.0587L96.8764 54.0955C97.1404 54.5464 97.5179 54.9204 97.9712 55.1802C98.4246 55.4401 98.938 55.5768 99.4606 55.5767H182.804C183.598 55.5767 184.36 55.8922 184.922 56.4538C185.483 57.0154 185.799 57.777 185.799 58.5712V134.375C185.799 134.769 185.721 135.158 185.571 135.521C185.42 135.885 185.2 136.215 184.922 136.493C184.644 136.771 184.313 136.991 183.95 137.142C183.587 137.292 183.197 137.37 182.804 137.37Z" fill="#999999"/>
<path opacity="0.1" d="M182.804 137.37H47.3561C46.9629 137.37 46.5735 137.292 46.2102 137.142C45.8469 136.991 45.5168 136.771 45.2387 136.493C44.9607 136.215 44.7401 135.885 44.5896 135.521C44.4391 135.158 44.3617 134.769 44.3617 134.375V58.5872C44.3617 57.793 44.6772 57.0314 45.2387 56.4698C45.8003 55.9082 46.562 55.5927 47.3561 55.5927H47.7238C48.3233 55.5915 48.9088 55.4114 49.4053 55.0753C49.9017 54.7393 50.2866 54.2627 50.5104 53.7066L52.5724 48.5222C52.8029 47.9239 53.2243 47.4182 53.7713 47.0836C54.3589 46.7367 55.0284 46.5527 55.7108 46.5508H90.5252C90.9931 46.5503 91.4571 46.6352 91.8945 46.8012C92.5022 47.0461 93.0092 47.4892 93.3331 48.0587L96.8764 54.0955C97.1404 54.5464 97.5179 54.9204 97.9712 55.1802C98.4246 55.4401 98.938 55.5768 99.4606 55.5767H182.804C183.598 55.5767 184.36 55.8922 184.922 56.4538C185.483 57.0154 185.799 57.777 185.799 58.5712V134.375C185.799 134.769 185.721 135.158 185.571 135.521C185.42 135.885 185.2 136.215 184.922 136.493C184.644 136.771 184.313 136.991 183.95 137.142C183.587 137.292 183.197 137.37 182.804 137.37Z" fill="#263238"/>
<path d="M182.804 137.37H47.3561C46.9629 137.37 46.5735 137.292 46.2102 137.142C45.8469 136.991 45.5168 136.771 45.2387 136.493C44.9607 136.215 44.7401 135.885 44.5896 135.521C44.4391 135.158 44.3617 134.769 44.3617 134.375V58.5872C44.3617 57.793 44.6772 57.0314 45.2387 56.4698C45.8003 55.9082 46.562 55.5927 47.3561 55.5927H47.7238C48.3233 55.5915 48.9088 55.4114 49.4053 55.0753C49.9017 54.7393 50.2866 54.2627 50.5104 53.7066L52.5724 48.5222C52.8029 47.9239 53.2243 47.4182 53.7713 47.0836C54.3589 46.7367 55.0284 46.5527 55.7108 46.5508H90.5252C90.9931 46.5503 91.4571 46.6352 91.8945 46.8012C92.5022 47.0461 93.0092 47.4892 93.3331 48.0587L96.8764 54.0955C97.1404 54.5464 97.5179 54.9204 97.9712 55.1802C98.4246 55.4401 98.938 55.5768 99.4606 55.5767H182.804C183.598 55.5767 184.36 55.8922 184.922 56.4538C185.483 57.0154 185.799 57.777 185.799 58.5712V134.375C185.799 134.769 185.721 135.158 185.571 135.521C185.42 135.885 185.2 136.215 184.922 136.493C184.644 136.771 184.313 136.991 183.95 137.142C183.587 137.292 183.197 137.37 182.804 137.37V137.37Z" stroke="#263238" stroke-miterlimit="10"/>
<path d="M82.6339 55.3372H60.9588C60.4416 55.3372 59.9456 55.1318 59.5799 54.766C59.2141 54.4003 59.0087 53.9043 59.0087 53.3871C59.008 53.1305 59.0579 52.8764 59.1556 52.6392C59.2533 52.402 59.3968 52.1863 59.578 52.0047C59.7591 51.823 59.9743 51.6789 60.2113 51.5806C60.4482 51.4823 60.7023 51.4316 60.9588 51.4316H82.6339C83.1525 51.4316 83.6499 51.6377 84.0166 52.0044C84.3833 52.3711 84.5893 52.8685 84.5893 53.3871C84.5893 53.6436 84.5387 53.8977 84.4404 54.1346C84.3421 54.3715 84.1979 54.5868 84.0163 54.7679C83.8346 54.9491 83.619 55.0926 83.3818 55.1903C83.1446 55.288 82.8904 55.3379 82.6339 55.3372Z" fill="white"/>
<path d="M182.804 150.594H47.3561C46.562 150.594 45.8003 150.279 45.2387 149.717C44.6772 149.155 44.3617 148.394 44.3617 147.6V71.8113C44.3617 71.0172 44.6772 70.2555 45.2387 69.694C45.8003 69.1324 46.562 68.8169 47.3561 68.8169H47.7238C48.3235 68.8164 48.9093 68.6365 49.4059 68.3004C49.9025 67.9643 50.2872 67.4873 50.5104 66.9307L52.5724 61.7517C52.8015 61.1525 53.2232 60.6465 53.7713 60.3131C54.358 59.964 55.0281 59.7799 55.7108 59.7803H90.5252C90.9931 59.7798 91.4571 59.8646 91.8945 60.0307C92.5037 60.2758 93.0111 60.7212 93.3331 61.2935L96.8764 67.3357C97.1404 67.7866 97.5179 68.1605 97.9712 68.4204C98.4246 68.6802 98.938 68.8169 99.4606 68.8169H182.804C183.598 68.8169 184.36 69.1324 184.922 69.694C185.483 70.2555 185.799 71.0172 185.799 71.8113V147.6C185.799 148.394 185.483 149.155 184.922 149.717C184.36 150.279 183.598 150.594 182.804 150.594Z" fill="#263238" stroke="#263238" stroke-miterlimit="10"/>
<path d="M93.0186 39.7093L71.514 37.0452C71.0004 36.98 70.5334 36.7142 70.215 36.306C69.8965 35.8977 69.7525 35.38 69.8143 34.866C69.8795 34.3517 70.1462 33.8843 70.5558 33.5665C70.9655 33.2488 71.4845 33.1068 71.9989 33.1716L93.4982 35.8357C94.0124 35.8996 94.4802 36.165 94.7989 36.5736C95.1176 36.9822 95.2611 37.5006 95.1978 38.015C95.1662 38.2694 95.0848 38.5151 94.9581 38.738C94.8314 38.9609 94.662 39.1567 94.4596 39.3141C94.2572 39.4714 94.0257 39.5873 93.7785 39.6552C93.5312 39.723 93.273 39.7414 93.0186 39.7093Z" fill="#999999"/>
<path opacity="0.5" d="M93.0186 39.7093L71.514 37.0452C71.0004 36.98 70.5334 36.7142 70.215 36.306C69.8965 35.8977 69.7525 35.38 69.8143 34.866C69.8795 34.3517 70.1462 33.8843 70.5558 33.5665C70.9655 33.2488 71.4845 33.1068 71.9989 33.1716L93.4982 35.8357C94.0124 35.8996 94.4802 36.165 94.7989 36.5736C95.1176 36.9822 95.2611 37.5006 95.1978 38.015C95.1662 38.2694 95.0848 38.5151 94.9581 38.738C94.8314 38.9609 94.662 39.1567 94.4596 39.3141C94.2572 39.4714 94.0257 39.5873 93.7785 39.6552C93.5312 39.723 93.273 39.7414 93.0186 39.7093Z" fill="white"/>
<path d="M82.6339 68.5681H60.9588C60.7023 68.5681 60.4482 68.5175 60.2113 68.4192C59.9743 68.3208 59.7591 68.1767 59.578 67.9951C59.3968 67.8134 59.2533 67.5978 59.1556 67.3606C59.0579 67.1234 59.008 66.8692 59.0087 66.6127C59.0087 66.095 59.214 65.5984 59.5795 65.2318C59.9451 64.8653 60.4411 64.6586 60.9588 64.6572H82.6339C83.1525 64.6572 83.6499 64.8632 84.0166 65.23C84.3833 65.5967 84.5893 66.0941 84.5893 66.6127C84.5893 67.1313 84.3833 67.6287 84.0166 67.9954C83.6499 68.3621 83.1525 68.5681 82.6339 68.5681Z" fill="#999999"/>
<path opacity="0.5" d="M82.6339 68.5681H60.9588C60.7023 68.5681 60.4482 68.5175 60.2113 68.4192C59.9743 68.3208 59.7591 68.1767 59.578 67.9951C59.3968 67.8134 59.2533 67.5978 59.1556 67.3606C59.0579 67.1234 59.008 66.8692 59.0087 66.6127C59.0087 66.095 59.214 65.5984 59.5795 65.2318C59.9451 64.8653 60.4411 64.6586 60.9588 64.6572H82.6339C83.1525 64.6572 83.6499 64.8632 84.0166 65.23C84.3833 65.5967 84.5893 66.0941 84.5893 66.6127C84.5893 67.1313 84.3833 67.6287 84.0166 67.9954C83.6499 68.3621 83.1525 68.5681 82.6339 68.5681Z" fill="white"/>
<path d="M187.232 91.6113H42.923C41.3722 91.6113 40.115 92.8685 40.115 94.4193V181.743C40.115 183.294 41.3722 184.551 42.923 184.551H187.232C188.783 184.551 190.04 183.294 190.04 181.743V94.4193C190.04 92.8685 188.783 91.6113 187.232 91.6113Z" fill="white"/>
<g style="mix-blend-mode:multiply">
<path d="M190.04 116.627C173.421 132.159 154.539 145.076 134.041 154.937C103.75 169.424 69.1271 179.409 48.9546 184.551H187.227C187.596 184.551 187.962 184.479 188.303 184.339C188.644 184.198 188.954 183.991 189.216 183.73C189.477 183.469 189.684 183.16 189.826 182.819C189.967 182.478 190.04 182.112 190.04 181.743V116.627Z" fill="#999999"/>
</g>
<path opacity="0.2" d="M190.04 116.627C173.421 132.159 154.539 145.076 134.041 154.937C103.75 169.424 69.1271 179.409 48.9546 184.551H187.227C187.596 184.551 187.962 184.479 188.303 184.339C188.644 184.198 188.954 183.991 189.216 183.73C189.477 183.469 189.684 183.16 189.826 182.819C189.967 182.478 190.04 182.112 190.04 181.743V116.627Z" fill="white"/>
<path d="M187.232 91.6113H42.923C41.3722 91.6113 40.115 92.8685 40.115 94.4193V181.743C40.115 183.294 41.3722 184.551 42.923 184.551H187.232C188.783 184.551 190.04 183.294 190.04 181.743V94.4193C190.04 92.8685 188.783 91.6113 187.232 91.6113Z" stroke="#263238" stroke-miterlimit="10"/>
<path d="M42.2836 99.775V96.0453C42.285 95.3001 42.582 94.5859 43.1094 94.0594C43.6369 93.533 44.3517 93.2373 45.0969 93.2373H51.1976" stroke="#263238" stroke-miterlimit="10"/>
<path d="M42.2836 156.418V104.319" stroke="#263238" stroke-miterlimit="10"/>
<path d="M187.866 174.193V180.092C187.867 180.461 187.794 180.827 187.654 181.168C187.513 181.509 187.306 181.819 187.045 182.081C186.785 182.342 186.475 182.549 186.134 182.691C185.793 182.832 185.427 182.905 185.058 182.905H180.14" stroke="#263238" stroke-miterlimit="10"/>
<path d="M187.866 98.4639V169.808" stroke="#263238" stroke-miterlimit="10"/>
<path d="M137.365 125.596H92.7843C91.981 125.596 91.3297 126.247 91.3297 127.05V149.796C91.3297 150.6 91.981 151.251 92.7843 151.251H137.365C138.169 151.251 138.82 150.6 138.82 149.796V127.05C138.82 126.247 138.169 125.596 137.365 125.596Z" fill="#263238" stroke="#263238" stroke-miterlimit="10"/>
<path d="M137.365 125.596H92.7843C91.981 125.596 91.3297 126.247 91.3297 127.05V131.942C91.3297 132.745 91.981 133.396 92.7843 133.396H137.365C138.169 133.396 138.82 132.745 138.82 131.942V127.05C138.82 126.247 138.169 125.596 137.365 125.596Z" fill="white" stroke="#263238" stroke-miterlimit="10"/>
<path d="M50.6649 47.5369L51.64 49.3539L53.7126 50.8457C53.8429 50.9415 53.999 50.9957 54.1606 51.0014C54.3222 51.0071 54.4817 50.964 54.6184 50.8777L54.7996 50.7605C54.9314 50.6805 55.0295 50.5552 55.0756 50.4081C55.1216 50.261 55.1126 50.1022 55.05 49.9613L53.8725 47.2545L54.6664 47.8726C54.7924 47.9698 54.9513 48.0141 55.1094 47.9962C55.2675 47.9783 55.4125 47.8996 55.5136 47.7767C55.6013 47.6671 55.6492 47.5308 55.6492 47.3904C55.6492 47.25 55.6013 47.1137 55.5136 47.0041L53.6647 44.665L51.3523 45.022L50.6649 47.5369Z" fill="white" stroke="#263238" stroke-miterlimit="10"/>
<path d="M54.8208 50.7602L52.9666 48.3252" stroke="#263238" stroke-width="0.5" stroke-linecap="round" stroke-linejoin="round"/>
<path d="M53.7339 50.8448L52.2793 48.916" stroke="#263238" stroke-width="0.5" stroke-linecap="round" stroke-linejoin="round"/>
<path d="M81.174 29.9111L84.0725 30.0816L87.5998 32.3355C87.5998 32.3355 87.7969 33.0228 87.3067 33.1187C86.8165 33.2146 84.1684 32.2396 84.1684 32.2396L81.3391 32.2023L81.174 29.9111Z" fill="white" stroke="#263238" stroke-miterlimit="10"/>
<path d="M81.3234 31.8448L84.3658 33.2195C84.3658 33.2195 84.856 32.5321 84.1686 32.2391L83.1669 31.5518" fill="white"/>
<path d="M81.3234 31.8448L84.3658 33.2195C84.3658 33.2195 84.856 32.5321 84.1686 32.2391L83.1669 31.5518" stroke="#263238" stroke-linejoin="round"/>
<path d="M188.809 83.8066L187.551 80.0449L186.139 78.1107C186.116 78.0754 186.082 78.0488 186.042 78.035C186.002 78.0211 185.959 78.0209 185.919 78.0343C185.878 78.0476 185.844 78.0739 185.82 78.1089C185.797 78.1439 185.785 78.1858 185.788 78.228V83.8013L186.853 85.2026L188.809 83.8066Z" fill="white"/>
<path d="M209.301 100.255L198.751 100.628C198.362 100.641 197.977 100.544 197.641 100.347C197.305 100.149 197.032 99.8607 196.854 99.5142L188.809 83.8066C188.809 83.8066 186.997 84.787 186.859 85.2026C186.72 85.6182 192.816 100.905 194.686 105.599C194.843 105.993 195.119 106.329 195.475 106.56C195.831 106.791 196.249 106.905 196.673 106.888L208.465 106.388" fill="white"/>
<path d="M209.301 100.255L198.751 100.628C198.362 100.641 197.977 100.544 197.641 100.347C197.305 100.149 197.032 99.8607 196.854 99.5142L188.809 83.8066C188.809 83.8066 186.997 84.787 186.859 85.2026C186.72 85.6182 192.816 100.905 194.686 105.599C194.843 105.993 195.119 106.329 195.475 106.56C195.831 106.791 196.249 106.905 196.673 106.888L208.465 106.388" stroke="#263238" stroke-miterlimit="10"/>
<path d="M189.581 85.7627L187.93 86.4447" stroke="#263238" stroke-width="0.75" stroke-miterlimit="10"/>
<g opacity="0.5">
<g opacity="0.5">
<path d="M209.301 100.255L198.751 100.628C198.362 100.641 197.977 100.544 197.641 100.347C197.305 100.149 197.032 99.8607 196.854 99.5142L188.809 83.8066C188.809 83.8066 186.997 84.787 186.859 85.2026C186.72 85.6182 192.816 100.905 194.686 105.599C194.843 105.993 195.119 106.329 195.475 106.56C195.831 106.791 196.249 106.905 196.673 106.888L208.465 106.388" fill="#999999"/>
<path d="M209.301 100.255L198.751 100.628C198.362 100.641 197.977 100.544 197.641 100.347C197.305 100.149 197.032 99.8607 196.854 99.5142L188.809 83.8066C188.809 83.8066 186.997 84.787 186.859 85.2026C186.72 85.6182 192.816 100.905 194.686 105.599C194.843 105.993 195.119 106.329 195.475 106.56C195.831 106.791 196.249 106.905 196.673 106.888L208.465 106.388" stroke="#263238" stroke-miterlimit="10"/>
</g>
<path opacity="0.5" d="M189.581 85.7617L187.93 86.4437" stroke="#263238" stroke-width="0.75" stroke-miterlimit="10"/>
</g>
<path d="M188.809 83.8066L187.551 80.0449L186.139 78.1107C186.116 78.0754 186.082 78.0488 186.042 78.035C186.002 78.0211 185.959 78.0209 185.919 78.0343C185.878 78.0476 185.844 78.0739 185.82 78.1089C185.797 78.1439 185.785 78.1858 185.788 78.228V83.8013L186.853 85.2026L188.809 83.8066Z" fill="#999999"/>
<path opacity="0.5" d="M188.809 83.8066L187.551 80.0449L186.139 78.1107C186.116 78.0754 186.082 78.0488 186.042 78.035C186.002 78.0211 185.959 78.0209 185.919 78.0343C185.878 78.0476 185.844 78.0739 185.82 78.1089C185.797 78.1439 185.785 78.1858 185.788 78.228V83.8013L186.853 85.2026L188.809 83.8066Z" fill="white"/>
<path d="M188.809 83.8066L187.551 80.0449L186.139 78.1107C186.116 78.0754 186.082 78.0488 186.042 78.035C186.002 78.0211 185.959 78.0209 185.919 78.0343C185.878 78.0476 185.844 78.0739 185.82 78.1089C185.797 78.1439 185.785 78.1858 185.788 78.228V83.8013L186.853 85.2026L188.809 83.8066Z" stroke="#263238" stroke-miterlimit="10"/>
<path d="M212.567 90.3282C212.061 90.9703 211.697 91.7133 211.502 92.5074C211.347 93.5304 211.592 97.4679 211.592 97.4679L206.104 98.086C206.104 98.086 206.52 94.0845 206.541 93.4185C206.717 92.5926 207.067 91.8136 207.568 91.1337C208.068 90.4537 208.708 89.8885 209.445 89.4757C211.331 88.5485 212.935 89.0014 212.567 90.3282Z" fill="white"/>
<g style="mix-blend-mode:multiply" opacity="0.5">
<path d="M212.53 90.3713C211.534 90.0996 210.324 89.7959 209.301 89.5508C208.598 89.9694 207.988 90.5285 207.511 91.1931C207.033 91.8578 206.698 92.6137 206.525 93.4137C206.525 93.6695 206.451 94.4154 206.376 95.236C206.909 95.1134 207.756 94.9269 208.385 94.815C208.883 94.7346 209.373 94.6116 209.85 94.4474L209.663 97.6443H209.786L211.576 97.4418C211.576 97.4418 211.331 93.5043 211.486 92.4813C211.68 91.7119 212.036 90.9927 212.53 90.3713Z" fill="#999999"/>
</g>
<path d="M212.567 90.3282C212.061 90.9703 211.697 91.7133 211.502 92.5074C211.347 93.5304 211.592 97.4679 211.592 97.4679L206.104 98.086C206.104 98.086 206.52 94.0845 206.541 93.4185C206.717 92.5926 207.067 91.8136 207.568 91.1337C208.068 90.4537 208.708 89.8885 209.445 89.4757C211.331 88.5485 212.935 89.0014 212.567 90.3282Z" stroke="#263238" stroke-width="1.00396" stroke-miterlimit="10"/>
<path d="M213.708 91.0046C218.258 84.9944 207.287 78.7498 204.404 84.7227C204.003 85.4593 203.685 86.2385 203.456 87.0458C203.019 87.3122 201.858 88.0262 201.644 88.2233C201.431 88.4205 202.177 88.9266 202.588 89.1771C201.804 91.1005 201.922 93.1253 202.145 93.5835C202.534 94.3721 204.452 94.3827 205.715 94.1483C206.978 93.9138 207.479 92.7043 207.846 92.374C208.214 92.0436 210.047 92.4646 210.692 92.6564C211.336 92.8482 212.823 92.1928 213.708 91.0046Z" fill="white"/>
<g style="mix-blend-mode:multiply" opacity="0.5">
<path d="M209.205 90.4287C209.205 90.4287 209.301 90.8816 208.385 91.2492C207.468 91.6169 207.287 91.3398 207.015 91.9792C206.9 92.3996 206.666 92.7782 206.342 93.07C206.018 93.3618 205.618 93.5546 205.188 93.6256C204.32 93.7904 203.442 93.9025 202.561 93.9613C203.285 94.3663 204.724 94.3343 205.758 94.1478C207.015 93.9187 207.521 92.7038 207.889 92.3735C208.257 92.0432 210.09 92.4641 210.734 92.6559C210.886 92.686 211.041 92.686 211.192 92.6559C211.433 92.1205 211.577 91.547 211.619 90.9615L209.205 90.4287Z" fill="#999999"/>
</g>
<path d="M213.708 91.0046C218.258 84.9944 207.287 78.7498 204.404 84.7227C204.003 85.4593 203.685 86.2385 203.456 87.0458C203.019 87.3122 201.858 88.0262 201.644 88.2233C201.431 88.4205 202.177 88.9266 202.588 89.1771C201.804 91.1005 201.922 93.1253 202.145 93.5835C202.534 94.3721 204.452 94.3827 205.715 94.1483C206.978 93.9138 207.479 92.7043 207.846 92.374C208.214 92.0436 210.047 92.4646 210.692 92.6564C211.336 92.8482 212.823 92.1928 213.708 91.0046Z" stroke="#263238" stroke-miterlimit="10"/>
<path d="M204.82 87.5734C204.703 87.8292 204.506 87.989 204.378 87.9304C204.25 87.8718 204.239 87.6161 204.378 87.3603C204.516 87.1046 204.692 86.9447 204.82 87.0033C204.948 87.0619 204.937 87.3177 204.82 87.5734Z" fill="#263238"/>
<path d="M204.714 85.9325C204.714 85.9325 205.246 85.4903 205.353 86.508" stroke="#263238" stroke-width="0.5" stroke-linecap="round" stroke-linejoin="round"/>
<path d="M202.481 90.2109C202.481 90.2109 202.481 90.7438 203.44 90.7438" stroke="#263238" stroke-width="0.5" stroke-linecap="round" stroke-linejoin="round"/>
<path d="M201.181 125.079L200.76 130.29C200.76 130.29 197.846 151.038 197.984 153.42C198.123 155.801 198.437 180.407 198.437 180.407L201.948 180.967L205.891 153.676L211.427 125.942L201.181 125.079Z" fill="#999999" stroke="#263238" stroke-miterlimit="10"/>
<path opacity="0.2" d="M201.181 125.079L200.76 130.29C200.76 130.29 197.846 151.038 197.984 153.42C198.123 155.801 198.437 180.407 198.437 180.407L201.948 180.967L205.891 153.676L211.427 125.942L201.181 125.079Z" fill="#263238"/>
<path d="M205.625 144.031C205.625 144.031 204.277 151.965 203.259 155.855C202.241 159.744 202.247 163.623 202.247 167.843C202.247 172.063 200.728 179.842 200.728 179.842" stroke="#263238" stroke-width="0.75" stroke-miterlimit="10"/>
<path d="M208.305 123.8C210.617 122.585 213.1 121.781 213.809 123.395C215.215 126.624 213.532 131.531 213.532 131.531L214.816 154.165L217.165 181.472L213.654 180.908C213.654 180.908 208.262 157.863 207.42 156.456C206.578 155.05 205.252 135.32 205.252 135.32L202.588 132.895" fill="#999999"/>
<path d="M208.305 123.8C210.617 122.585 213.1 121.781 213.809 123.395C215.215 126.624 213.532 131.531 213.532 131.531L214.816 154.165L217.165 181.472L213.654 180.908C213.654 180.908 208.262 157.863 207.42 156.456C206.578 155.05 205.252 135.32 205.252 135.32L202.588 132.895" stroke="#263238" stroke-miterlimit="10"/>
<g opacity="0.2">
<path opacity="0.2" d="M208.305 123.8C210.617 122.585 213.1 121.781 213.809 123.395C215.215 126.624 213.532 131.531 213.532 131.531L214.816 154.165L217.165 181.472L213.654 180.908C213.654 180.908 208.262 157.863 207.42 156.456C206.578 155.05 205.252 135.32 205.252 135.32L202.588 132.895" fill="#263238"/>
</g>
<path d="M211.043 140.945C211.123 146.194 211.656 148.719 212.072 150.104C212.578 151.794 212.407 155.001 212.407 156.498C212.407 157.996 211.731 156.163 213.255 163.089C214.779 170.016 215.786 179.639 215.786 179.639" stroke="#263238" stroke-width="0.75" stroke-miterlimit="10"/>
<path d="M211.043 129.506C211.043 129.506 211.209 129.165 211.043 137.104C211.043 137.53 211.043 137.941 211.043 138.34" stroke="#263238" stroke-width="0.75" stroke-miterlimit="10"/>
<path d="M203.248 127.998L203.136 130.374L202.588 132.026L203.408 132.985" stroke="#263238" stroke-width="0.75" stroke-linecap="round" stroke-linejoin="round"/>
<path d="M202.172 129.416C202.172 129.416 203.547 130.791 207.117 130.375" stroke="#263238" stroke-width="0.75" stroke-linecap="round" stroke-linejoin="round"/>
<path d="M210.606 128.228C213.271 127.695 213.441 126.959 214.363 126.341C214.38 125.334 214.199 124.333 213.83 123.395C213.132 121.796 210.633 122.585 208.326 123.8L207.207 125.569L201.202 125.079L201.01 127.434C204.093 128.491 207.391 128.764 210.606 128.228Z" fill="#263238"/>
<path d="M201.783 126.709L201.724 127.647L203.248 127.998L203.366 126.768L201.783 126.709Z" fill="white" stroke="#263238" stroke-width="0.75" stroke-miterlimit="10"/>
<path d="M212.418 128.1L212.162 125.767L212.935 125.511L213.324 127.583" fill="#999999"/>
<path d="M212.418 128.1L212.162 125.767L212.935 125.511L213.324 127.583" stroke="#263238" stroke-miterlimit="10"/>
<path d="M206.461 128.877L205.944 126.154H207.239L207.756 128.488" fill="#999999"/>
<path d="M206.461 128.877L205.944 126.154H207.239L207.756 128.488" stroke="#263238" stroke-miterlimit="10"/>
<g opacity="0.2">
<path opacity="0.2" d="M212.418 128.1L212.162 125.767L212.935 125.511L213.324 127.583" fill="#263238"/>
<path opacity="0.2" d="M206.461 128.878L205.944 126.155H207.239L207.756 128.489" fill="#263238"/>
</g>
<path d="M200.494 104.427C200.494 104.427 200.051 107.384 198.725 112.419C197.398 117.454 196.061 123.491 196.061 123.491L196.801 126.592L199.012 123.342L200.494 104.427Z" fill="#263238" stroke="#263238" stroke-miterlimit="10"/>
<path d="M204.186 100.148C204.186 100.148 201.085 100.883 200.792 102.359C200.634 103.039 200.534 103.73 200.494 104.427L205.22 100.59L211.129 98.2246L204.186 100.148Z" fill="#263238" stroke="#263238" stroke-miterlimit="10"/>
<path d="M205.033 99.0076C205.033 99.0076 202.513 101.858 201.511 103.03C200.51 104.203 200.504 116.782 200.504 118.631C200.504 120.48 199.503 125.499 201.176 126.506C202.849 127.513 213.084 127.178 214.091 125.499C215.098 123.821 215.764 103.702 215.599 101.858C215.474 101.031 215.148 100.247 214.65 99.5748C214.152 98.9025 213.498 98.362 212.743 98.0005C211.576 97.4624 205.033 99.0076 205.033 99.0076Z" fill="white"/>
<g style="mix-blend-mode:multiply" opacity="0.5">
<path d="M212.743 98.0012C212.604 97.9449 212.456 97.9125 212.306 97.9053L211.582 98.2836C212.801 99.2829 213.64 100.671 213.958 102.216C214.295 104.46 214.264 106.743 213.867 108.977C213.505 111.444 207.655 108.977 208.752 109.894C209.85 110.81 213.958 112.361 214.144 113.181C214.331 114.002 212.109 115.371 211.31 115.467C210.511 115.563 211.843 117.385 212.679 118.936C213.516 120.486 213.212 122.665 211.31 124.147C209.408 125.628 204.991 126.358 203.083 126.432C202.465 126.432 202.081 126.592 201.964 126.773C204.895 127.429 213.191 127.003 214.091 125.5C215.098 123.822 215.764 103.702 215.599 101.859C215.474 101.032 215.148 100.248 214.65 99.5755C214.152 98.9031 213.498 98.3626 212.743 98.0012Z" fill="#999999"/>
</g>
<path d="M205.033 99.0076C205.033 99.0076 202.513 101.858 201.511 103.03C200.51 104.203 200.504 116.782 200.504 118.631C200.504 120.48 199.503 125.499 201.176 126.506C202.849 127.513 213.084 127.178 214.091 125.499C215.098 123.821 215.764 103.702 215.599 101.858C215.474 101.031 215.148 100.247 214.65 99.5748C214.152 98.9025 213.498 98.362 212.743 98.0005C211.576 97.4624 205.033 99.0076 205.033 99.0076Z" stroke="#263238" stroke-miterlimit="10"/>
<path d="M210.186 111.769C207.484 110.927 205.118 108.572 205.118 108.572C205.718 111.371 207.345 113.843 209.679 115.499" fill="white"/>
<path d="M210.186 111.769C207.484 110.927 205.118 108.572 205.118 108.572C205.718 111.371 207.345 113.843 209.679 115.499" stroke="#263238" stroke-width="0.75" stroke-linecap="round" stroke-linejoin="round"/>
<path d="M212.242 96.1562L204.191 97.9998L203.691 100.35L212.743 97.9998L212.242 96.1562Z" fill="white" stroke="#263238" stroke-miterlimit="10"/>
<path d="M202.417 184.482L201.948 180.944L198.437 180.385L195.512 182.468L192.89 183.907V184.482H202.417Z" fill="#263238" stroke="#263238" stroke-miterlimit="10"/>
<path d="M217.602 184.76L217.165 181.472L213.654 180.907L210.729 182.991L208.108 184.434V184.76H217.602Z" fill="#263238" stroke="#263238" stroke-miterlimit="10"/>
<path d="M187.274 80.7387L185.111 79.4866C185.111 79.4866 184.269 79.3854 184.632 80.3231L186.795 81.9908" fill="white"/>
<path d="M187.274 80.7387L185.111 79.4866C185.111 79.4866 184.269 79.3854 184.632 80.3231L186.795 81.9908" stroke="#263238" stroke-linecap="round" stroke-linejoin="round"/>
<path d="M186.955 83.9937C186.853 83.7366 186.703 83.5015 186.512 83.301L186.107 82.8641L183.907 80.136C183.907 80.136 183.225 79.6778 183.374 80.6689L184.738 83.333L182.314 81.0578C182.314 81.0578 181.856 80.6795 181.856 81.2123C181.856 81.7452 184.056 84.0949 184.056 84.0949L181.626 82.9547C181.626 82.9547 181.094 83.333 181.477 83.7113C181.861 84.0896 183.902 84.8515 183.902 84.8515L182.085 84.7769C182.085 84.7769 181.552 85.2298 181.93 85.3843C182.308 85.5388 184.434 85.9864 184.434 85.9864C184.705 86.216 185.013 86.3964 185.346 86.5192L185.878 87.5049L187.919 86.4766L186.955 83.9937Z" fill="white" stroke="#263238" stroke-linecap="round" stroke-linejoin="round"/>
<path d="M208.742 107.645L196.583 110.496C195.96 110.606 195.319 110.496 194.768 110.186C194.217 109.876 193.791 109.385 193.562 108.796L185.889 87.4834L187.93 86.4551L196.407 102.157C196.599 102.516 196.902 102.804 197.27 102.978C197.639 103.151 198.053 103.202 198.453 103.122L207.751 100.495" fill="white"/>
<path d="M208.742 107.645L196.583 110.496C195.96 110.606 195.319 110.496 194.768 110.186C194.217 109.876 193.791 109.385 193.562 108.796L185.889 87.4834L187.93 86.4551L196.407 102.157C196.599 102.516 196.902 102.804 197.27 102.978C197.639 103.151 198.053 103.202 198.453 103.122L207.751 100.495" stroke="#263238" stroke-miterlimit="10"/>
<path d="M189.075 88.4639L186.709 89.6467" stroke="#263238" stroke-width="0.75" stroke-miterlimit="10"/>
<path d="M207.228 84.7878C207.228 84.7878 205.934 86.0826 206.578 87.0523C206.96 87.6124 207.252 88.2291 207.441 88.8799C207.441 88.8799 206.909 90.1746 207.335 90.1746C207.761 90.1746 207.548 89.2049 208.305 89.4234C209.061 89.6418 209.813 90.9312 209.168 91.3628C208.685 91.6325 208.174 91.8469 207.644 92.0022C207.576 92.0229 207.516 92.0628 207.471 92.1172C207.426 92.1715 207.398 92.2379 207.39 92.3081C207.382 92.3783 207.395 92.4493 207.427 92.5123C207.458 92.5754 207.508 92.6277 207.569 92.6629C208.27 93.1364 209.078 93.4293 209.919 93.5154C210.607 93.5301 211.295 93.4585 211.965 93.3023C211.965 93.3023 214.096 90.3931 215.631 89.6365C217.165 88.8799 216.494 85.4325 216.494 85.001C216.494 84.5694 214.986 83.5996 214.986 83.5996C214.986 83.5996 215.418 82.6299 213.478 80.4773C211.539 78.3247 207.873 77.8878 207.767 78.6444C207.729 78.8447 207.75 79.0516 207.826 79.2404C207.903 79.4293 208.032 79.5923 208.198 79.7101C208.198 79.7101 204.964 78.3087 203.456 79.8166C201.948 81.3245 207.228 84.7878 207.228 84.7878Z" fill="#263238" stroke="#263238" stroke-miterlimit="10"/>
<path d="M207.228 84.7871C207.228 84.7871 209.85 87.984 213.734 88.2931" stroke="white" stroke-width="0.5" stroke-linecap="round" stroke-linejoin="round"/>
<path d="M206.301 85.7627C206.301 85.7627 207.521 89.3113 212.567 90.3236" stroke="white" stroke-width="0.5" stroke-linecap="round" stroke-linejoin="round"/>
</g>
</svg>
