<svg width="220" height="239" viewBox="0 0 220 239" fill="none" xmlns="http://www.w3.org/2000/svg">
<g opacity="0.8">
<path d="M35.1639 33.4699L35.4445 33.2194C61.2778 9.95585 95.5871 8.90889 120.604 33.9458C133.628 46.9952 156.767 44.5005 173.318 49.2194C230.365 65.4949 220.496 142.925 192.308 180.355C166.871 214.133 111.752 221.763 74.723 205.146C42.162 190.539 19.2692 157.918 11.1039 123.809C10.289 120.386 9.62109 116.933 9.10011 113.45C4.8221 84.4103 13.0625 53.5675 35.1639 33.4699Z" fill="#D1BBA4"/>
<path opacity="0.7" d="M35.1639 33.4699L35.4445 33.2194C61.2778 9.95585 95.5871 8.90889 120.604 33.9458C133.628 46.9952 156.767 44.5005 173.318 49.2194C230.365 65.4949 220.496 142.925 192.308 180.355C166.871 214.133 111.752 221.763 74.723 205.146C42.162 190.539 19.2692 157.918 11.1039 123.809C10.289 120.386 9.62109 116.933 9.10011 113.45C4.8221 84.4103 13.0625 53.5675 35.1639 33.4699Z" fill="white"/>
<path opacity="0.5" d="M123.464 57.4003C123.464 57.4003 130.287 49.5806 140.241 49.5806C140.241 49.5806 140.571 43.5042 147.364 42.1918C154.157 40.8793 155.479 46.9457 155.479 46.9457C155.479 46.9457 160.489 44.2857 167.236 46.9457C173.984 49.6057 172.611 57.3802 172.611 57.3802C172.611 57.3802 192.053 56.744 195.389 60.3107H107.985C107.985 60.3107 109.749 55.9475 123.464 57.4003Z" stroke="#263238" stroke-linecap="round" stroke-linejoin="round"/>
<path d="M123.464 57.4003C123.464 57.4003 130.287 49.5806 140.241 49.5806C140.241 49.5806 140.571 43.5042 147.364 42.1918C154.157 40.8793 155.479 46.9457 155.479 46.9457C155.479 46.9457 160.489 44.2857 167.236 46.9457C173.984 49.6057 172.611 57.3802 172.611 57.3802C172.611 57.3802 192.053 56.744 195.389 60.3107H107.985C107.985 60.3107 109.749 55.9475 123.464 57.4003Z" stroke="#263238" stroke-linecap="round" stroke-linejoin="round"/>
<path opacity="0.5" d="M206.715 108.681C206.715 108.681 201.27 102.445 193.335 102.445C193.335 102.445 193.07 97.6005 187.655 96.5536C182.24 95.5066 181.183 100.346 181.183 100.346C181.183 100.346 177.175 98.2217 171.805 100.346C166.435 102.47 167.517 108.666 167.517 108.666C167.517 108.666 151.988 108.165 149.348 111.006H219.048C219.048 111.006 217.641 107.524 206.715 108.681Z" stroke="#263238" stroke-linecap="round" stroke-linejoin="round"/>
<path d="M206.715 108.681C206.715 108.681 201.27 102.445 193.335 102.445C193.335 102.445 193.07 97.6005 187.655 96.5536C182.24 95.5066 181.183 100.346 181.183 100.346C181.183 100.346 177.175 98.2217 171.805 100.346C166.435 102.47 167.517 108.666 167.517 108.666C167.517 108.666 151.988 108.165 149.348 111.006H219.048C219.048 111.006 217.641 107.524 206.715 108.681Z" stroke="#263238" stroke-linecap="round" stroke-linejoin="round"/>
<path opacity="0.5" d="M21.7739 71.8513C21.7739 71.8513 25 68.1444 29.7138 68.1444C29.8035 67.2674 30.1841 66.4456 30.7951 65.8101C31.4061 65.1746 32.2123 64.7619 33.0851 64.6378C36.3061 64.0167 36.9323 66.887 36.9323 66.887C37.8121 66.5086 38.7598 66.3134 39.7175 66.3134C40.6753 66.3134 41.623 66.5086 42.5027 66.887C45.6937 68.1494 45.0475 71.8313 45.0475 71.8313C45.0475 71.8313 54.2598 71.5307 55.8377 73.2189H14.4402C14.4402 73.2189 15.2617 71.15 21.7739 71.8513Z" stroke="#263238" stroke-linecap="round" stroke-linejoin="round"/>
<path d="M21.7739 71.8513C21.7739 71.8513 25 68.1444 29.7138 68.1444C29.8035 67.2674 30.1841 66.4456 30.7951 65.8101C31.4061 65.1746 32.2123 64.7619 33.0851 64.6378C36.3061 64.0167 36.9323 66.887 36.9323 66.887C37.8121 66.5086 38.7598 66.3134 39.7175 66.3134C40.6753 66.3134 41.623 66.5086 42.5027 66.887C45.6937 68.1494 45.0475 71.8313 45.0475 71.8313C45.0475 71.8313 54.2598 71.5307 55.8377 73.2189H14.4402C14.4402 73.2189 15.2617 71.15 21.7739 71.8513Z" stroke="#263238" stroke-linecap="round" stroke-linejoin="round"/>
<path d="M1 212.451C1 212.451 5.35816 203.935 15.2667 205.513C15.7202 204.409 16.5369 203.493 17.5817 202.917C18.6265 202.34 19.8368 202.138 21.0125 202.342C21.0125 202.342 18.4377 195.209 25.1753 189.874C31.9129 184.539 41.055 189.077 41.055 189.077C41.055 189.077 40.4789 185.07 44.221 183.617L101.884 185.531C101.884 185.531 108.211 187.294 109.598 193.24C109.598 193.24 115.149 190.069 122.082 193.24C129.015 196.411 129.02 204.341 129.02 204.341C129.02 204.341 136.89 203.544 137.536 214.305C137.536 214.305 142.515 208.018 149.824 214.305" fill="white"/>
<path d="M1 212.451C1 212.451 5.35816 203.935 15.2667 205.513C15.7202 204.409 16.5369 203.493 17.5817 202.917C18.6265 202.34 19.8368 202.138 21.0125 202.342C21.0125 202.342 18.4377 195.209 25.1753 189.874C31.9129 184.539 41.055 189.077 41.055 189.077C41.055 189.077 40.4789 185.07 44.221 183.617L101.884 185.531C101.884 185.531 108.211 187.294 109.598 193.24C109.598 193.24 115.149 190.069 122.082 193.24C129.015 196.411 129.02 204.341 129.02 204.341C129.02 204.341 136.89 203.544 137.536 214.305C137.536 214.305 142.515 208.018 149.824 214.305" stroke="#263238" stroke-linecap="round" stroke-linejoin="round"/>
<path d="M19.0337 215.817C18.8838 216.144 18.7517 216.478 18.6379 216.819" stroke="#263238" stroke-linecap="round" stroke-linejoin="round"/>
<path d="M42.3974 196.126C40.7343 196.787 39.0862 198.105 37.8589 200.559C37.8589 200.559 34.5277 199.122 32.7043 201.747C30.8809 204.371 33.8965 207.097 33.8965 207.097C33.8965 207.097 29.7337 207.893 29.5333 211.655C29.5333 211.655 25.2804 210.443 21.9141 212.502" stroke="#263238" stroke-linecap="round" stroke-linejoin="round"/>
<path d="M46.1346 195.549C45.465 195.513 44.7936 195.547 44.1309 195.649" stroke="#263238" stroke-linecap="round" stroke-linejoin="round"/>
<path d="M84.4814 188.011L83.1339 183.603H63.2266L59.8052 191.247C59.8052 191.247 51.1389 188.667 49.3506 196.201C49.0891 196.098 48.8214 196.011 48.5491 195.941" stroke="#263238" stroke-linecap="round" stroke-linejoin="round"/>
<path d="M109.724 199.421C107.064 201.039 106.432 204.125 106.432 204.125C104.058 200.163 100.086 202.542 100.086 202.542C100.086 202.542 99.4894 195.604 94.9309 193.024C92.104 191.496 88.7942 191.124 85.6986 191.987L84.8921 189.397" stroke="#263238" stroke-linecap="round" stroke-linejoin="round"/>
<path d="M126.47 212.511C125.017 211.174 122.868 211.259 122.868 211.259C122.868 211.259 125.448 201.551 116.727 198.971C114.122 198.204 112.153 198.355 110.67 198.946" stroke="#263238" stroke-linecap="round" stroke-linejoin="round"/>
<path d="M127.783 215.818C127.783 215.301 127.71 214.787 127.567 214.29" stroke="#263238" stroke-linecap="round" stroke-linejoin="round"/>
<path d="M103.226 185.516H83.1338L88.1432 176.148H98.217L103.226 185.516Z" fill="#757575" stroke="#263238" stroke-linecap="round" stroke-linejoin="round"/>
<path d="M61.1476 185.516H41.0549L46.0643 176.148H56.1382L61.1476 185.516Z" fill="#757575" stroke="#263238" stroke-linecap="round" stroke-linejoin="round"/>
<path d="M85.6934 185.516H58.5876L63.597 176.148H80.684L85.6934 185.516Z" fill="#999999" stroke="#263238" stroke-linecap="round" stroke-linejoin="round"/>
<path d="M101.884 176.819H84.4814V85.1476C84.4802 74.4289 87.4956 63.9263 93.1827 54.8408C98.8699 63.9263 101.885 74.4289 101.884 85.1476V176.819Z" fill="#D1BBA4"/>
<path opacity="0.3" d="M101.824 82.6719C101.859 83.4834 101.884 84.2999 101.884 85.1165V176.818H84.4812V85.1465C84.4812 84.33 84.4812 83.5135 84.5363 82.7019L101.824 82.6719Z" fill="white"/>
<path opacity="0.2" d="M90.1168 85.7772V176.818H84.4812V85.1461C84.4737 78.4001 85.6609 71.706 87.9878 65.374C89.3931 72.0844 90.1065 78.9213 90.1168 85.7772Z" fill="black"/>
<path opacity="0.2" d="M101.884 85.1212V176.818H99.5445V86.1181C99.5447 75.3625 97.3811 64.7168 93.1826 54.8145C98.8698 63.8999 101.885 74.4026 101.884 85.1212Z" fill="black"/>
<path d="M101.884 176.819H84.4814V85.1476C84.4802 74.4289 87.4956 63.9263 93.1827 54.8408V54.8408C98.8699 63.9263 101.885 74.4289 101.884 85.1476V176.819Z" stroke="#263238" stroke-linecap="round" stroke-linejoin="round"/>
<path d="M59.8052 176.819H42.4026V85.1476C42.4013 74.4289 45.4167 63.9263 51.1039 54.8408C56.791 63.9263 59.8064 74.4289 59.8052 85.1476V176.819Z" fill="#D1BBA4"/>
<path opacity="0.3" d="M59.7351 82.4824C59.7751 83.3591 59.8052 84.2407 59.8052 85.1224V176.819H42.4026V85.1474C42.4026 84.2658 42.4326 83.3841 42.4727 82.5075L59.7351 82.4824Z" fill="white"/>
<path opacity="0.2" d="M57.586 69.3531C59.0593 74.48 59.8063 79.7882 59.8051 85.1226V176.819H54.1646V85.7788C54.165 81.7419 54.4092 77.7087 54.8959 73.7012C55.2299 70.8993 55.6891 68.1158 56.2735 65.3506C56.7594 66.6681 57.2002 68.0006 57.586 69.3531Z" fill="black"/>
<path opacity="0.2" d="M51.1039 54.8164C46.9014 64.7177 44.7361 75.3639 44.737 86.12V176.82H42.4026V85.1482C42.3966 74.421 45.4122 63.9091 51.1039 54.8164Z" fill="black"/>
<path d="M59.8052 176.819H42.4026V85.1476C42.4013 74.4289 45.4167 63.9263 51.1039 54.8408C56.791 63.9263 59.8064 74.4289 59.8052 85.1476V176.819Z" stroke="#263238" stroke-linecap="round" stroke-linejoin="round"/>
<path d="M101.824 82.6133H84.6819" stroke="#263238" stroke-linecap="round" stroke-linejoin="round"/>
<path d="M84.4763 102.014H101.879V100.711H84.4763V102.014Z" stroke="#263238" stroke-linecap="round" stroke-linejoin="round"/>
<path d="M84.4812 139.028H101.824V135.727H84.4812V139.028Z" stroke="#263238" stroke-linecap="round" stroke-linejoin="round"/>
<path d="M42.4578 82.6133H59.6049" stroke="#263238" stroke-linecap="round" stroke-linejoin="round"/>
<path d="M59.8052 100.712H42.4026V102.014H59.8052V100.712Z" stroke="#263238" stroke-linecap="round" stroke-linejoin="round"/>
<path d="M59.8002 135.722H42.4578V139.023H59.8002V135.722Z" stroke="#263238" stroke-linecap="round" stroke-linejoin="round"/>
<path d="M84.6817 176.819H59.6047V44.6768C59.599 29.2313 63.9388 14.0957 72.1282 1C80.3147 14.0952 84.6543 29.2283 84.6517 44.6718L84.6817 176.819Z" fill="#D1BBA4"/>
<path opacity="0.2" d="M84.4468 38.4847H59.8457C60.8463 25.1838 65.067 12.3259 72.1437 1.01953C79.225 12.3315 83.4474 25.1966 84.4468 38.5047V38.4847Z" fill="black" fill-opacity="0.7"/>
<g opacity="0.2">
<path opacity="0.2" d="M76.6973 176.818H67.5852V48.7735C67.5852 33.8055 69.1632 19.138 72.1437 6.44922C75.1193 19.138 76.6973 33.8055 76.6973 48.7685V176.818Z" fill="white"/>
</g>
<path opacity="0.2" d="M84.4215 155.544V176.819H59.8054V155.604C60.7101 154.718 61.5194 153.739 62.2199 152.684V123.464C62.2199 113.355 66.2275 107.77 72.1435 107.77C78.0596 107.77 82.0671 113.355 82.0671 123.464V152.684C82.7489 153.717 83.5381 154.676 84.4215 155.544Z" fill="black"/>
<path d="M84.6817 176.819H59.6047V44.6768C59.599 29.2313 63.9388 14.0957 72.1282 1V1C80.3147 14.0952 84.6543 29.2283 84.6517 44.6718L84.6817 176.819Z" stroke="#263238" stroke-linecap="round" stroke-linejoin="round"/>
<path d="M84.6817 60.2861H59.6047V63.6574H84.6817V60.2861Z" stroke="#263238" stroke-linecap="round" stroke-linejoin="round"/>
<path d="M84.6817 89.6162H59.6047V102.014H84.6817V89.6162Z" stroke="#263238" stroke-linecap="round" stroke-linejoin="round"/>
<path d="M84.6817 148.372H59.6047V158.381H84.6817V148.372Z" stroke="#263238" stroke-linecap="round" stroke-linejoin="round"/>
<path d="M81.0701 153.972V140.326H78.2949V173.674H92.0357V167.447C92.0355 166.658 91.849 165.88 91.4912 165.176C91.1334 164.473 90.6145 163.864 89.9768 163.399L83.4396 158.63C82.7059 158.095 82.1089 157.394 81.6972 156.585C81.2855 155.775 81.0706 154.88 81.0701 153.972Z" fill="#D1BBA4" stroke="#263238" stroke-linecap="round" stroke-linejoin="round"/>
<path d="M63.2116 153.972V140.326H65.9868V173.674H52.2461V167.447C52.2462 166.658 52.4327 165.88 52.7905 165.176C53.1483 164.473 53.6672 163.864 54.305 163.399L60.8472 158.63C61.5803 158.095 62.1765 157.394 62.5873 156.584C62.9982 155.775 63.2121 154.88 63.2116 153.972Z" fill="#D1BBA4" stroke="#263238" stroke-linecap="round" stroke-linejoin="round"/>
<path d="M52.2461 170.768H92.0356" stroke="#263238" stroke-linecap="round" stroke-linejoin="round"/>
<path d="M76.5312 176.82H67.7548L66.252 172.462H78.034L76.5312 176.82Z" fill="#D1BBA4" stroke="#263238" stroke-linecap="round" stroke-linejoin="round"/>
<path d="M81.11 123.525V173.673H63.2766V123.525C63.2836 118.575 64.9268 113.767 67.9504 109.849C68.4523 109.202 69.0956 108.678 69.831 108.318C70.5664 107.958 71.3744 107.771 72.1933 107.771C73.0122 107.771 73.8202 107.958 74.5556 108.318C75.291 108.678 75.9343 109.202 76.4363 109.849C77.308 110.977 78.0696 112.187 78.7105 113.461C79.1764 114.376 79.5764 115.324 79.9078 116.296C80.7038 118.623 81.11 121.065 81.11 123.525Z" fill="white"/>
<path opacity="0.3" d="M81.06 123.525V173.673H76.6517V124.832C76.6548 122.471 76.4536 120.115 76.0506 117.789C75.8869 116.844 75.6866 115.924 75.4495 115.029C75.1462 113.837 74.7663 112.665 74.3123 111.522C73.7763 110.17 72.9848 109.518 72.1934 109.518C71.4019 109.518 70.6054 110.195 70.0694 111.522C69.6198 112.667 69.2401 113.838 68.9322 115.029C68.1227 118.233 67.7204 121.527 67.735 124.832V173.673H63.2266V123.525C63.2335 118.575 64.8767 113.767 67.9003 109.849C68.4023 109.202 69.0455 108.678 69.7809 108.318C70.5163 107.958 71.3244 107.771 72.1433 107.771C72.9622 107.771 73.7702 107.958 74.5056 108.318C75.241 108.678 75.8843 109.202 76.3862 109.849C77.258 110.977 78.0196 112.187 78.6605 113.461C79.1263 114.376 79.5264 115.324 79.8577 116.296C80.6537 118.623 81.06 121.065 81.06 123.525Z" fill="#D1BBA4"/>
<path d="M81.11 123.525V173.673H63.2766V123.525C63.2836 118.575 64.9268 113.767 67.9504 109.849C68.4523 109.202 69.0956 108.678 69.831 108.318C70.5664 107.958 71.3744 107.771 72.1933 107.771C73.0122 107.771 73.8202 107.958 74.5556 108.318C75.291 108.678 75.9343 109.202 76.4363 109.849C77.308 110.977 78.0696 112.187 78.7105 113.461C79.1764 114.376 79.5764 115.324 79.9078 116.296C80.7038 118.623 81.11 121.065 81.11 123.525V123.525Z" stroke="#263238" stroke-linecap="round" stroke-linejoin="round"/>
<path d="M75.8752 122.944C74.4174 118.505 69.8339 118.505 68.3611 122.944L66.718 121.942C68.8119 115.565 75.3993 115.565 77.4982 121.942L75.8752 122.944Z" fill="white"/>
<path d="M75.8752 122.944C74.4174 118.505 69.8339 118.505 68.3611 122.944L66.718 121.942C68.8119 115.565 75.3993 115.565 77.4982 121.942L75.8752 122.944Z" fill="#BFBFBF" stroke="#263238" stroke-miterlimit="10"/>
<path d="M78.6604 113.461H65.636C66.2769 112.187 67.0385 110.977 67.9103 109.849C68.4122 109.202 69.0555 108.678 69.7909 108.318C70.5263 107.958 71.3343 107.771 72.1532 107.771C72.9721 107.771 73.7801 107.958 74.5155 108.318C75.2509 108.678 75.8942 109.202 76.3961 109.849C77.2645 110.978 78.0227 112.187 78.6604 113.461Z" fill="#D1BBA4" stroke="#263238" stroke-linecap="round" stroke-linejoin="round"/>
<path d="M145.751 177.45C145.952 185.465 141.989 184.809 141.989 184.809C141.571 183.887 141.068 183.007 140.486 182.179C138.413 178.988 135.237 174.514 136.429 171.864C137.208 170.283 138.093 168.757 139.079 167.296C141.203 164.04 143.642 160.748 143.642 160.748L133.062 158.995C133.062 158.995 125.548 162.111 119.582 162.472H119.121C113.691 162.577 114.568 158.319 114.568 156.961C114.568 156.375 116.036 155.303 117.754 154.246C120.203 152.743 123.174 151.266 123.174 151.266L121.566 147.934C120.642 148.121 119.695 148.172 118.756 148.085C114.638 147.634 115.204 143.576 115.87 141.813C116.061 141.312 117.007 140.541 118.345 139.659C122.578 136.869 130.683 132.981 130.683 132.981H142.57L154.267 164.911C154.267 164.911 145.556 169.445 145.751 177.45Z" fill="white"/>
<path opacity="0.4" d="M145.751 177.45C145.952 185.465 141.989 184.809 141.989 184.809C141.571 183.887 141.068 183.007 140.486 182.179C138.413 178.988 135.237 174.514 136.429 171.864C137.208 170.283 138.093 168.757 139.079 167.296C141.203 164.04 143.642 160.748 143.642 160.748L133.062 158.995C133.062 158.995 125.548 162.111 119.582 162.472H119.121C113.691 162.577 114.568 158.319 114.568 156.961C114.568 156.375 116.036 155.303 117.754 154.246C120.203 152.743 123.174 151.266 123.174 151.266L121.566 147.934C120.642 148.121 119.695 148.172 118.756 148.085C114.638 147.634 115.204 143.576 115.87 141.813C116.061 141.312 117.007 140.541 118.345 139.659C122.578 136.869 130.683 132.981 130.683 132.981H142.57L154.267 164.911C154.267 164.911 145.556 169.445 145.751 177.45Z" fill="#D1BBA4"/>
<path opacity="0.4" d="M145.751 177.45C145.952 185.465 141.989 184.809 141.989 184.809C141.571 183.888 141.068 183.007 140.486 182.179C140.637 181.412 140.709 180.631 140.702 179.85C140.652 177.109 138.403 171.865 138.403 171.865L140.702 168.228C140.229 167.811 139.677 167.495 139.079 167.296C141.203 164.04 143.642 160.749 143.642 160.749L133.063 158.996C133.063 158.996 125.549 162.111 119.582 162.472H119.121C119.467 159.491 118.29 155.734 117.754 154.232C120.203 152.729 123.174 151.251 123.174 151.251L121.566 147.92C120.642 148.106 119.695 148.157 118.756 148.07C119.297 145.47 118.781 141.863 118.345 139.644C122.578 136.854 130.683 132.967 130.683 132.967H142.57L154.267 164.897C154.267 164.897 145.556 169.445 145.751 177.45Z" fill="#D1BBA4"/>
<path d="M142.58 132.981H130.693C130.693 132.981 116.667 139.709 115.88 141.813C115.094 143.917 114.443 149.217 121.576 147.934L123.184 151.266C123.184 151.266 114.578 155.544 114.578 156.961C114.578 158.379 113.651 162.827 119.587 162.472C125.523 162.116 133.067 158.995 133.067 158.995L143.647 160.748C143.647 160.748 138.027 168.333 136.439 171.864C134.851 175.396 140.997 182.144 141.999 184.809C141.999 184.809 145.962 185.455 145.761 177.45C145.561 169.445 154.277 164.926 154.277 164.926" stroke="#263238" stroke-linecap="round" stroke-linejoin="round"/>
<path d="M139.765 170.438C139.765 170.438 142.746 168.77 144.369 171.866" stroke="#263238" stroke-linecap="round" stroke-linejoin="round"/>
<path d="M143.798 84.4814H144.935C145.095 84.4814 145.25 84.5453 145.363 84.659C145.477 84.7727 145.541 84.9268 145.541 85.0876V109.483H143.191V85.0876C143.191 85.008 143.207 84.9292 143.238 84.8556C143.268 84.7821 143.313 84.7153 143.369 84.659C143.425 84.6027 143.492 84.558 143.566 84.5276C143.639 84.4971 143.718 84.4814 143.798 84.4814Z" fill="#263238"/>
<path d="M145.095 58.2275H143.632V85.684H145.095V58.2275Z" fill="#263238"/>
<path d="M145.316 55.5068H143.412V59.2288H145.316V55.5068Z" fill="#757575" stroke="#263238" stroke-linecap="round" stroke-linejoin="round"/>
<path opacity="0.3" d="M143.883 103.091V103.587" stroke="white" stroke-linecap="round" stroke-linejoin="round"/>
<path opacity="0.3" d="M144.849 85.2227H143.883V101.899" stroke="white" stroke-linecap="round" stroke-linejoin="round"/>
<path opacity="0.3" d="M144.268 75.9053V76.832" stroke="white" stroke-linecap="round" stroke-linejoin="round"/>
<path opacity="0.3" d="M144.268 60.0557V73.9918" stroke="white" stroke-linecap="round" stroke-linejoin="round"/>
<path d="M164.927 108.131H123.805C122.3 108.131 121.08 109.351 121.08 110.856V159.687C121.08 161.192 122.3 162.413 123.805 162.413H164.927C166.432 162.413 167.652 161.192 167.652 159.687V110.856C167.652 109.351 166.432 108.131 164.927 108.131Z" fill="#757575"/>
<path opacity="0.2" d="M122.763 152.674V111.417C122.763 111.163 122.812 110.912 122.909 110.677C123.005 110.443 123.147 110.229 123.326 110.05C123.505 109.87 123.718 109.728 123.953 109.63C124.187 109.533 124.438 109.483 124.692 109.483H162.508C162.59 109.484 162.671 109.462 162.743 109.421C162.814 109.379 162.873 109.32 162.913 109.248C162.952 109.177 162.971 109.098 162.969 109.018C162.968 108.938 162.946 108.86 162.905 108.791C162.864 108.723 162.806 108.666 162.736 108.626C162.666 108.587 162.588 108.566 162.508 108.566H123.965C123.376 108.566 122.81 108.801 122.393 109.218C121.976 109.635 121.741 110.201 121.741 110.791V152.804C121.74 152.9 121.769 152.994 121.823 153.072C121.878 153.151 121.956 153.21 122.047 153.241C122.137 153.273 122.235 153.275 122.327 153.248C122.418 153.221 122.499 153.166 122.558 153.09L122.648 152.97C122.721 152.889 122.762 152.783 122.763 152.674Z" fill="white"/>
<path opacity="0.4" d="M167.652 110.856V159.687C167.652 160.41 167.365 161.103 166.854 161.614C166.343 162.125 165.65 162.412 164.927 162.412H123.805C123.165 162.412 122.547 162.187 122.057 161.776C122.756 161.259 123.523 160.839 124.336 160.529H140.005H163.96C164.492 160.529 165.001 160.318 165.377 159.942C165.753 159.566 165.964 159.056 165.964 158.525V111.853C166.349 111.114 166.857 110.446 167.467 109.879C167.59 110.19 167.653 110.521 167.652 110.856Z" fill="black" fill-opacity="0.7"/>
<path opacity="0.2" d="M167.652 148.571V159.687C167.652 160.409 167.365 161.102 166.854 161.614C166.343 162.125 165.65 162.412 164.927 162.412H140.291L140.006 160.538C140.206 159.762 140.006 156.335 140.006 156.335C138.423 152.112 140.006 145.776 140.006 145.776L149.949 139.624C149.949 139.624 156.652 143.286 157.939 144.633C159.227 145.981 160.218 154.477 160.218 154.477C161.546 154.161 163.86 152.213 165.969 150.204C166.545 149.663 167.126 149.102 167.652 148.571Z" fill="black" fill-opacity="0.7"/>
<path d="M164.927 108.131H123.805C122.3 108.131 121.08 109.351 121.08 110.856V159.687C121.08 161.192 122.3 162.413 123.805 162.413H164.927C166.432 162.413 167.652 161.192 167.652 159.687V110.856C167.652 109.351 166.432 108.131 164.927 108.131Z" stroke="#263238" stroke-linecap="round" stroke-linejoin="round"/>
<path d="M165.969 152.088V153.576" stroke="#263238" stroke-linecap="round" stroke-linejoin="round"/>
<path d="M138.412 109.984H164.1C164.596 109.984 165.071 110.181 165.422 110.532C165.772 110.882 165.969 111.357 165.969 111.853V150.11" stroke="#263238" stroke-linecap="round" stroke-linejoin="round"/>
<path d="M122.763 118.58V111.853C122.763 111.357 122.96 110.882 123.311 110.532C123.661 110.181 124.136 109.984 124.632 109.984H132.867" stroke="#263238" stroke-linecap="round" stroke-linejoin="round"/>
<path d="M122.763 123.139V121.852" stroke="#263238" stroke-linecap="round" stroke-linejoin="round"/>
<path d="M130.979 160.558H124.632C124.136 160.558 123.661 160.361 123.311 160.011C122.96 159.661 122.763 159.185 122.763 158.69V125.628" stroke="#263238" stroke-linecap="round" stroke-linejoin="round"/>
<path d="M165.969 158.69C165.969 159.186 165.772 159.661 165.422 160.012C165.072 160.362 164.596 160.559 164.101 160.559H132.867" stroke="#263238" stroke-linecap="round" stroke-linejoin="round"/>
<path d="M144.368 149.047C149.572 149.047 153.791 144.829 153.791 139.625C153.791 134.421 149.572 130.202 144.368 130.202C139.164 130.202 134.946 134.421 134.946 139.625C134.946 144.829 139.164 149.047 144.368 149.047Z" fill="#D1BBA4"/>
<path opacity="0.2" d="M153.791 139.625C153.792 141.46 153.256 143.256 152.25 144.791C151.245 146.326 149.813 147.535 148.13 148.267C146.447 149 144.587 149.225 142.778 148.915C140.969 148.605 139.29 147.774 137.947 146.523C138.276 145.89 138.739 145.336 139.304 144.9C139.304 144.9 144.759 149.569 149.744 144.579C153.476 140.842 150.245 135.272 150.245 135.272C150.245 135.272 150.745 134.731 152.248 134.485C153.251 136.012 153.787 137.798 153.791 139.625Z" fill="black" fill-opacity="0.7"/>
<path opacity="0.2" d="M138.844 141.748C138.74 141.793 138.625 141.797 138.518 141.761C138.412 141.725 138.323 141.651 138.268 141.553C138.157 141.383 138.09 141.189 138.072 140.987C137.431 136.98 139.55 133.192 143.823 132.837C144.619 132.767 146.663 132.837 146.373 134.139C146.25 134.555 145.979 134.911 145.611 135.141C144.352 135.941 143.135 136.805 141.964 137.731C141.386 138.22 140.88 138.788 140.462 139.419C140.246 139.74 139.525 141.468 138.844 141.748Z" fill="black" fill-opacity="0.7"/>
<path d="M144.368 149.047C149.572 149.047 153.791 144.829 153.791 139.625C153.791 134.421 149.572 130.202 144.368 130.202C139.164 130.202 134.946 134.421 134.946 139.625C134.946 144.829 139.164 149.047 144.368 149.047Z" stroke="#263238" stroke-linecap="round" stroke-linejoin="round"/>
<path d="M137.05 139.624C137.05 138.663 137.239 137.712 137.607 136.824C137.975 135.937 138.514 135.13 139.194 134.451C139.873 133.772 140.68 133.233 141.568 132.866C142.456 132.499 143.408 132.31 144.369 132.311" stroke="#263238" stroke-linecap="round" stroke-linejoin="round"/>
<path d="M142.455 146.683C141.148 146.33 139.965 145.621 139.037 144.634C138.109 143.648 137.473 142.424 137.2 141.098" stroke="#263238" stroke-linecap="round" stroke-linejoin="round"/>
<path d="M149.047 134.004C150.203 134.966 151.033 136.26 151.427 137.711C151.82 139.162 151.757 140.699 151.245 142.112C150.734 143.526 149.799 144.748 148.569 145.611C147.339 146.475 145.872 146.938 144.369 146.938" stroke="#263238" stroke-linecap="round" stroke-linejoin="round"/>
<path d="M145.841 132.456C146.448 132.58 147.035 132.782 147.59 133.057" stroke="#263238" stroke-linecap="round" stroke-linejoin="round"/>
<path d="M137.646 118.35C138.618 118.35 139.119 118.931 139.119 119.943V120.143H138.177V119.882C138.177 119.427 137.992 119.256 137.676 119.256C137.36 119.256 137.175 119.427 137.175 119.882C137.175 120.338 137.376 120.689 138.032 121.26C138.863 121.996 139.129 122.522 139.129 123.264C139.129 124.266 138.628 124.857 137.626 124.857C136.624 124.857 136.123 124.276 136.123 123.264V122.873H137.065V123.324C137.065 123.78 137.265 123.94 137.566 123.94C137.866 123.94 138.067 123.78 138.067 123.324C138.067 122.868 137.871 122.517 137.215 121.946C136.384 121.21 136.118 120.684 136.118 119.943C136.178 118.931 136.679 118.35 137.646 118.35Z" fill="white"/>
<path d="M139.409 118.42H142.5V119.327H141.448V124.752H140.446V119.327H139.404L139.409 118.42Z" fill="white"/>
<path d="M145.811 124.751H144.809L144.639 123.599H143.412L143.241 124.751H142.325L143.327 118.399H144.784L145.811 124.751ZM143.537 122.748H144.504L144.033 119.537L143.537 122.748Z" fill="white"/>
<path d="M148.361 124.752C148.279 124.5 148.248 124.234 148.271 123.97V122.968C148.271 122.377 148.071 122.162 147.62 122.162H147.274V124.752H146.272V118.42H147.775C148.812 118.42 149.278 118.921 149.278 119.883V120.384C149.313 120.639 149.269 120.899 149.152 121.128C149.034 121.357 148.849 121.545 148.622 121.666C149.123 121.876 149.283 122.347 149.283 123.009V124.01C149.265 124.272 149.302 124.535 149.393 124.782L148.361 124.752ZM147.274 119.307V121.26H147.665C148.036 121.26 148.261 121.095 148.261 120.589V119.963C148.261 119.507 148.111 119.307 147.76 119.307H147.274Z" fill="white"/>
<path d="M149.633 118.42H152.719V119.327H151.672V124.752H150.67V119.327H149.628L149.633 118.42Z" fill="white"/>
<path d="M173.298 123.083C173.298 123.083 169.335 124.31 167.948 127.752" stroke="#263238" stroke-linecap="round" stroke-linejoin="round"/>
<path d="M191.261 232.267C190.816 224.608 190.525 216.783 190.144 210.486C189.353 197.427 188.757 188.666 187.57 179.749C186.382 170.832 186.568 157.362 185.982 152.658C185.395 147.954 183.617 146.957 182.22 141.367C180.822 135.776 179.56 124.646 177.265 123.083C174.971 121.52 167.948 118.574 167.948 118.574V150.103C163.785 156.5 158.831 158.083 158.831 158.083C155.66 148.906 156.061 145.264 152.89 141.893C149.719 138.522 147.434 134.118 142.455 135.962C140.086 136.838 138.818 137.73 140.005 145.77C141.193 153.81 143.572 156.33 143.572 156.33C143.968 159.075 143.377 167.06 142.385 171.148C141.393 175.235 145.16 186.086 146.943 193.024C148.727 199.962 158.24 214.013 158.24 214.013C158.453 219.306 158.321 224.607 157.844 229.883C157.769 230.629 157.679 231.426 157.573 232.262C157.573 232.262 161.947 239 166.625 239C184.198 239.005 191.261 232.267 191.261 232.267Z" fill="white"/>
<path opacity="0.4" d="M140.712 138.332C140.895 137.874 140.895 137.363 140.712 136.905C141.225 136.48 141.818 136.161 142.455 135.968C147.435 134.124 149.719 138.533 152.89 141.899C153.175 142.201 153.441 142.52 153.686 142.856C150.816 141.774 147.054 141.794 145.541 143.893C143.637 146.523 139.76 141.784 140.712 138.332Z" fill="#D1BBA4"/>
<path opacity="0.4" d="M162.217 224.534L163.785 230.41C163.785 230.41 161.576 228.246 158.275 222.996C158.435 217.872 158.24 214.019 158.24 214.019C158.24 214.019 148.722 199.963 146.944 193.03C145.165 186.097 141.393 175.237 142.385 171.154C143.377 167.071 143.968 159.081 143.572 156.336C143.107 155.764 142.719 155.132 142.42 154.458C142.831 154.032 143.351 153.727 143.923 153.576C145.57 158.033 146.228 162.795 145.852 167.532C145.236 175.457 146.593 176.118 149.218 186.423C151.843 196.727 156.201 208.394 158.235 210.468C160.269 212.542 161.175 222.009 162.217 224.534Z" fill="#D1BBA4"/>
<path opacity="0.4" d="M165.969 155.108C165.969 155.108 169.095 155.608 170.353 156.335C170.353 156.335 164.251 157.928 163.84 159.626C163.43 161.324 162.137 163.087 159.833 161.014C159.833 161.014 159.713 159.716 159.472 157.833C160.945 157.176 164.687 155.118 167.948 150.108V118.579C167.948 118.579 171.415 120.032 174.275 121.434C172.156 121.715 169.987 122.366 169.14 123.799C169.415 124.676 169.877 125.484 170.492 126.167C171.108 126.849 171.863 127.392 172.707 127.756C174.961 128.758 172.707 145.79 172.707 145.79C172.707 145.79 176.404 146.702 177.591 150.123C177.591 150.123 171.515 150.744 169.005 152.673C166.495 154.602 165.969 155.108 165.969 155.108Z" fill="#D1BBA4"/>
<path opacity="0.4" d="M190.144 210.487C190.455 215.587 190.701 221.688 191.016 227.895C190.235 216.098 187.865 195.835 187.865 195.835C187.865 195.835 185.746 203.324 185.586 202.528C185.115 200.183 186.588 186.933 186.448 182.215C186.387 180.076 186.543 174.59 186.733 169.24C186.903 172.917 187.149 176.604 187.57 179.76C188.757 188.667 189.353 197.428 190.144 210.487Z" fill="#D1BBA4"/>
<path d="M191.261 232.267C190.816 224.608 190.525 216.783 190.144 210.486C189.353 197.427 188.757 188.666 187.57 179.749C186.382 170.832 186.568 157.362 185.982 152.658C185.395 147.954 183.617 146.957 182.22 141.367C180.822 135.776 179.56 124.646 177.265 123.083C174.971 121.52 167.948 118.574 167.948 118.574V150.103C163.785 156.5 158.831 158.083 158.831 158.083C155.66 148.906 156.061 145.264 152.89 141.893C149.719 138.522 147.434 134.118 142.455 135.962C140.086 136.838 138.818 137.73 140.005 145.77C141.193 153.81 143.572 156.33 143.572 156.33C143.968 159.075 143.377 167.06 142.385 171.148C141.393 175.235 145.16 186.086 146.943 193.024C148.727 199.962 158.24 214.013 158.24 214.013C158.453 219.306 158.321 224.607 157.844 229.883C157.769 230.629 157.679 231.426 157.573 232.262" stroke="#263238" stroke-linecap="round" stroke-linejoin="round"/>
<path d="M158.831 158.089C158.831 158.089 159.833 162.507 161.806 163.499C163.78 164.491 166.64 163.499 166.64 163.499" stroke="#263238" stroke-linecap="round" stroke-linejoin="round"/>
<path d="M167.948 150.109C167.948 150.109 169.952 145.701 176.273 149.523" stroke="#263238" stroke-linecap="round" stroke-linejoin="round"/>
<path d="M167.948 132.311C167.948 132.311 168.343 129.972 171.615 129.381" stroke="#263238" stroke-linecap="round" stroke-linejoin="round"/>
<path d="M158.24 214.019C162.002 218.792 161.285 223.346 162.748 225.725C164.211 228.105 163.995 236.626 163.995 236.626" stroke="#263238" stroke-linecap="round" stroke-linejoin="round"/>
<path d="M185.581 168.228V184.809C185.529 189.56 185.065 194.299 184.193 198.97" stroke="#263238" stroke-linecap="round" stroke-linejoin="round"/>
<path d="M143.572 156.336C143.572 156.336 143.572 153.506 144.369 152.659" stroke="#263238" stroke-linecap="round" stroke-linejoin="round"/>
<path d="M145.751 147.434C145.751 147.434 147.51 141.523 152.659 144.103" stroke="#263238" stroke-linecap="round" stroke-linejoin="round"/>
<path d="M161.631 156.626C165.458 156.712 169.336 155.013 171.615 157.077" stroke="#263238" stroke-linecap="round" stroke-linejoin="round"/>
</g>
</svg>
