<svg width="270" height="249" viewBox="0 0 270 249" fill="none" xmlns="http://www.w3.org/2000/svg">
<g opacity="0.8">
<path d="M228.75 93.7945L237.075 92.8163L238.338 83.5964L230.519 80.3982C230.36 77.3832 229.834 74.3989 228.951 71.5114L235.327 65.8574L231.074 57.581L222.701 59.5165C219.544 55.4687 215.577 52.1251 211.053 49.7001L211.601 41.0074L202.728 38.1631L198.094 45.6C195.177 45.2464 192.228 45.2464 189.311 45.6L184.739 38.0798L175.845 40.8548L176.317 49.6515C173.726 51.0163 171.307 52.6837 169.109 54.6187L161.041 51.0806L155.338 58.4343L160.743 65.337C159.787 67.1741 158.989 69.0887 158.356 71.0604C158.086 71.8929 157.857 72.7393 157.662 73.5787L149.095 75.2992L148.637 84.5954L156.899 87.1345C157.285 90.0895 158.025 92.9872 159.105 95.7647L153.188 102.008L158.148 109.889L166.237 107.288C168.27 109.524 170.57 111.502 173.084 113.178L171.856 121.503L180.438 125.11L185.509 118.45C188.49 119.125 191.543 119.423 194.597 119.338L198.35 126.789L207.445 124.826L207.785 116.501C210.617 115.324 213.292 113.803 215.75 111.971L223.082 115.911L229.402 109.085L224.914 102.071C226.528 99.4802 227.817 96.7004 228.75 93.7945ZM215.694 89.4308C214.292 93.8061 211.624 97.6674 208.027 100.527C204.431 103.386 200.067 105.114 195.488 105.494C190.909 105.873 186.321 104.886 182.303 102.658C178.284 100.43 175.017 97.0611 172.914 92.9763C170.81 88.8916 169.965 84.2748 170.485 79.7098C171.005 75.1448 172.867 70.8365 175.835 67.3295C178.804 63.8225 182.745 61.2743 187.161 60.0072C191.578 58.74 196.271 58.8107 200.647 60.2103C203.554 61.1401 206.249 62.6336 208.579 64.6056C210.909 66.5775 212.827 68.9892 214.225 71.7028C215.622 74.4164 216.471 77.3788 216.723 80.4206C216.975 83.4625 216.626 86.5242 215.694 89.4308Z" fill="#D1BBA4"/>
<path d="M52.1857 94.516L55.3144 94.1484L55.7862 90.6796L52.8517 89.4795C52.7896 88.3453 52.5916 87.2226 52.262 86.1356L54.6554 84.0128L53.0598 80.9048L49.9102 81.5985C48.7207 80.0791 47.2275 78.8244 45.5257 77.9147L45.7269 74.6472L42.4039 73.5788L40.6556 76.3538C39.5611 76.2221 38.4548 76.2221 37.3603 76.3538L35.6399 73.5303L32.3029 74.564L32.4764 77.8731C31.505 78.3878 30.5969 79.0141 29.7708 79.7393L26.7391 78.4073L24.5954 81.1823L26.6281 83.7769C26.2672 84.467 25.9655 85.1864 25.7262 85.9275C25.6291 86.2397 25.5459 86.5588 25.4626 86.8779L22.2436 87.5231L22.0771 90.9918L25.1296 91.9908C25.2732 93.103 25.5528 94.1935 25.9621 95.2375L23.7421 97.5824L25.6014 100.538L28.6469 99.5665C29.411 100.407 30.2754 101.15 31.2207 101.78L30.7559 104.915L33.9818 106.303L35.8827 103.798C37.0019 104.052 38.1487 104.164 39.2959 104.131L40.6834 106.906L44.0966 106.164L44.2284 103.042C45.2917 102.602 46.2961 102.031 47.2184 101.342L49.9934 102.82L52.373 100.253L50.6802 97.624C51.3068 96.6532 51.8123 95.6095 52.1857 94.516ZM47.2809 92.8788C46.7535 94.524 45.7501 95.9759 44.3976 97.0508C43.045 98.1257 41.404 98.7753 39.6822 98.9175C37.9604 99.0597 36.2351 98.688 34.7246 97.8495C33.214 97.0111 31.986 95.7434 31.196 94.207C30.4059 92.6706 30.0893 90.9343 30.2861 89.2179C30.4829 87.5015 31.1843 85.882 32.3016 84.5642C33.4189 83.2465 34.9019 82.2897 36.5631 81.8149C38.2242 81.3401 39.9889 81.3686 41.6338 81.8968C43.8324 82.6121 45.6581 84.1692 46.7112 86.2274C47.7644 88.2857 47.9592 90.6773 47.2531 92.8788H47.2809Z" fill="#D1BBA4"/>
<path opacity="0.5" d="M228.75 93.7945L237.075 92.8163L238.338 83.5964L230.519 80.3982C230.36 77.3832 229.834 74.3989 228.951 71.5114L235.327 65.8574L231.074 57.581L222.701 59.5165C219.544 55.4687 215.577 52.1251 211.053 49.7001L211.601 41.0074L202.728 38.1631L198.094 45.6C195.177 45.2464 192.228 45.2464 189.311 45.6L184.739 38.0798L175.845 40.8548L176.317 49.6515C173.726 51.0163 171.307 52.6837 169.109 54.6187L161.041 51.0806L155.338 58.4343L160.743 65.337C159.787 67.1741 158.989 69.0887 158.356 71.0604C158.086 71.8929 157.857 72.7393 157.662 73.5787L149.095 75.2992L148.637 84.5954L156.899 87.1345C157.285 90.0895 158.025 92.9872 159.105 95.7647L153.188 102.008L158.148 109.889L166.237 107.288C168.27 109.524 170.57 111.502 173.084 113.178L171.856 121.503L180.438 125.11L185.509 118.45C188.49 119.125 191.543 119.423 194.597 119.338L198.35 126.789L207.445 124.826L207.785 116.501C210.617 115.324 213.292 113.803 215.75 111.971L223.082 115.911L229.402 109.085L224.914 102.071C226.528 99.4802 227.817 96.7004 228.75 93.7945ZM215.694 89.4308C214.292 93.8061 211.624 97.6674 208.027 100.527C204.431 103.386 200.067 105.114 195.488 105.494C190.909 105.873 186.321 104.886 182.303 102.658C178.284 100.43 175.017 97.0611 172.914 92.9763C170.81 88.8916 169.965 84.2748 170.485 79.7098C171.005 75.1448 172.867 70.8365 175.835 67.3295C178.804 63.8225 182.745 61.2743 187.161 60.0072C191.578 58.74 196.271 58.8107 200.647 60.2103C203.554 61.1401 206.249 62.6336 208.579 64.6056C210.909 66.5775 212.827 68.9892 214.225 71.7028C215.622 74.4164 216.471 77.3788 216.723 80.4206C216.975 83.4625 216.626 86.5242 215.694 89.4308Z" fill="white"/>
<path opacity="0.5" d="M52.1857 94.516L55.3144 94.1484L55.7862 90.6796L52.8517 89.4795C52.7896 88.3453 52.5916 87.2226 52.262 86.1356L54.6554 84.0128L53.0598 80.9048L49.9102 81.5985C48.7207 80.0791 47.2275 78.8244 45.5257 77.9147L45.7269 74.6472L42.4039 73.5788L40.6556 76.3538C39.5611 76.2221 38.4548 76.2221 37.3603 76.3538L35.6399 73.5303L32.3029 74.564L32.4764 77.8731C31.505 78.3878 30.5969 79.0141 29.7708 79.7393L26.7391 78.4073L24.5954 81.1823L26.6281 83.7769C26.2672 84.467 25.9655 85.1864 25.7262 85.9275C25.6291 86.2397 25.5459 86.5588 25.4626 86.8779L22.2436 87.5231L22.0771 90.9918L25.1296 91.9908C25.2732 93.103 25.5528 94.1935 25.9621 95.2375L23.7421 97.5824L25.6014 100.538L28.6469 99.5665C29.411 100.407 30.2754 101.15 31.2207 101.78L30.7559 104.915L33.9818 106.303L35.8827 103.798C37.0019 104.052 38.1487 104.164 39.2959 104.131L40.6834 106.906L44.0966 106.164L44.2284 103.042C45.2917 102.602 46.2961 102.031 47.2184 101.342L49.9934 102.82L52.373 100.253L50.6802 97.624C51.3068 96.6532 51.8123 95.6095 52.1857 94.516ZM47.2809 92.8788C46.7535 94.524 45.7501 95.9759 44.3976 97.0508C43.045 98.1257 41.404 98.7753 39.6822 98.9175C37.9604 99.0597 36.2351 98.688 34.7246 97.8495C33.214 97.0111 31.986 95.7434 31.196 94.207C30.4059 92.6706 30.0893 90.9343 30.2861 89.2179C30.4829 87.5015 31.1843 85.882 32.3016 84.5642C33.4189 83.2465 34.9019 82.2897 36.5631 81.8149C38.2242 81.3401 39.9889 81.3686 41.6338 81.8968C43.8324 82.6121 45.6581 84.1692 46.7112 86.2274C47.7644 88.2857 47.9592 90.6773 47.2531 92.8788H47.2809Z" fill="white"/>
<path d="M163.941 29.3526L166.626 28.7143L166.688 25.6549L164.01 24.9057C163.853 23.9249 163.576 22.9672 163.185 22.0544L165.051 19.9731L163.351 17.434L160.687 18.3775C159.507 17.1734 158.09 16.2284 156.525 15.6025L156.372 12.7443L153.368 12.1477L152.085 14.777C151.118 14.7707 150.154 14.8778 149.213 15.0961L147.437 12.8206L144.662 14.0555L145.154 16.9137C144.358 17.4575 143.63 18.0932 142.983 18.8077L140.208 17.9613L138.626 20.5767L140.652 22.6579C140.409 23.293 140.221 23.9474 140.09 24.6143C140.034 24.8987 139.993 25.1832 139.958 25.4676L137.225 26.3556L137.426 29.4081L140.201 29.9214C140.441 30.8739 140.795 31.7939 141.255 32.6617L139.556 34.9233L141.477 37.3098L144.016 36.1513C144.767 36.8039 145.594 37.363 146.479 37.8162L146.396 40.5912L149.337 41.4445L150.725 39.0719C151.724 39.1822 152.734 39.1635 153.729 39.0164L155.241 41.3127L158.134 40.3207L157.933 37.5942C158.813 37.1023 159.628 36.5035 160.361 35.8113L162.907 36.8173L164.711 34.3475L162.976 32.2247C163.414 31.3105 163.738 30.3459 163.941 29.3526ZM159.508 28.4229C159.214 29.9019 158.489 31.2608 157.424 32.3282C156.359 33.3955 155.002 34.1235 153.524 34.4201C152.046 34.7168 150.512 34.5689 149.118 33.9951C147.724 33.4212 146.531 32.4472 145.689 31.1959C144.848 29.9447 144.396 28.4722 144.391 26.9645C144.386 25.4567 144.828 23.9812 145.66 22.7241C146.493 21.4671 147.679 20.4848 149.069 19.9014C150.46 19.3179 151.992 19.1594 153.472 19.4459C154.459 19.6369 155.398 20.0209 156.236 20.5759C157.074 21.131 157.794 21.8461 158.355 22.6803C158.916 23.5144 159.307 24.4511 159.504 25.4366C159.702 26.4221 159.703 27.437 159.508 28.4229Z" fill="#263238"/>
<path d="M57.5549 69.7356C57.5549 69.7356 51.2348 84.1655 52.1853 85.0396C53.1357 85.9137 60.4408 100.108 61.6341 100.156C62.8273 100.205 62.4111 96.4656 62.4111 96.4656L69.4803 89.7848L57.5549 69.7356Z" fill="#263238"/>
<path d="M85.5752 60.9941C85.5752 60.9941 99.3044 68.7225 99.0755 70.0128C98.8465 71.3032 101.538 87.0165 100.609 87.7727C99.679 88.5289 97.7712 85.2891 97.7712 85.2891L88.1074 84.2068L85.5752 60.9941Z" fill="#263238"/>
<path d="M231.866 166.527C224.484 145.478 201.41 177.3 189.672 184.717C177.934 192.133 179.96 152.111 161.471 165.195C142.983 178.279 142.047 215.04 124.606 213.979C117.141 213.521 113 189.628 107.859 175.497L83.1615 76.2913L69.9318 82.0979L102.357 179.916C103.946 188.289 113.208 210.621 112.729 215.332C112.091 221.575 97.0642 220.833 82.2042 216.025C57.2294 207.999 45.8658 164.945 26.0109 159.568C16.5551 157.008 11.1439 162.85 7.27979 169.711C8.14928 171.644 9.09277 173.515 10.1103 175.323C29.2229 209.067 60.6426 225.502 107.276 227.257C153.91 229.012 186.724 232.176 226.531 196.073C227.784 194.935 228.991 193.768 230.152 192.57C232.754 184.439 234.675 174.588 231.866 166.527Z" fill="#D1BBA4"/>
<path opacity="0.5" d="M231.866 166.527C224.484 145.478 201.41 177.3 189.672 184.717C177.934 192.133 179.96 152.111 161.471 165.195C142.983 178.279 142.047 215.04 124.606 213.979C117.141 213.521 113 189.628 107.859 175.497L83.1615 76.2913L69.9318 82.0979L102.357 179.916C103.946 188.289 113.208 210.621 112.729 215.332C112.091 221.575 97.0642 220.833 82.2042 216.025C57.2294 207.999 45.8658 164.945 26.0109 159.568C16.5551 157.008 11.1439 162.85 7.27979 169.711C8.14928 171.644 9.09277 173.515 10.1103 175.323C29.2229 209.067 60.6426 225.502 107.276 227.257C153.91 229.012 186.724 232.176 226.531 196.073C227.784 194.935 228.991 193.768 230.152 192.57C232.754 184.439 234.675 174.588 231.866 166.527Z" fill="white"/>
<path d="M88.7942 82.4587C88.7942 82.4587 84.6317 38.7528 81.274 26.6331C77.9162 14.5134 59.6569 -2.57357 53.0871 0.326279C46.5174 3.22613 43.7216 26.2168 45.3657 38.1562C47.0099 50.0955 65.5468 89.8471 71.3673 93.6557C77.1878 97.4644 88.3085 98.5952 88.7942 82.4587Z" fill="white"/>
<path d="M88.7946 82.4585C88.7946 82.4585 88.7946 82.1741 88.7183 81.6399C84.3407 96.0143 74.6422 93.6555 68.2944 90.166C69.1219 91.4828 70.1602 92.6547 71.3677 93.6347C77.1605 97.4573 88.309 98.595 88.7946 82.4585Z" fill="#263238"/>
<path d="M53.0874 0.32631C46.9547 3.03885 44.1173 23.2199 45.0954 35.5893C47.3776 37.4991 50.0301 38.9163 52.8862 39.7518C64.0555 43.0124 75.9116 36.8034 80.969 25.6549C76.9175 13.5976 59.4837 -2.49723 53.0874 0.32631Z" fill="#263238"/>
<path d="M66.9624 10.3787C71.6626 15.1509 75.6363 20.5878 78.7561 26.5152" stroke="white" stroke-linecap="round" stroke-linejoin="round"/>
<path d="M60.8506 4.71069C60.8506 4.71069 62.0438 5.65419 63.8753 7.3608" stroke="white" stroke-linecap="round" stroke-linejoin="round"/>
<path d="M86.5952 79.9683L86.8658 82.0148" stroke="#263238" stroke-linecap="round" stroke-linejoin="round"/>
<path d="M85.7695 73.7175L86.38 78.3448" stroke="#263238" stroke-linecap="round" stroke-linejoin="round"/>
<path d="M81.0176 37.8232L85.2286 69.6314" stroke="#263238" stroke-linecap="round" stroke-linejoin="round"/>
<path d="M80.1084 30.9897L80.49 33.848" stroke="#263238" stroke-linecap="round" stroke-linejoin="round"/>
<path d="M51.2769 50.7129L59.1023 68.3895" stroke="#263238" stroke-linecap="round" stroke-linejoin="round"/>
<path d="M59.9141 70.5471L61.5166 74.1407" stroke="#263238" stroke-linecap="round" stroke-linejoin="round"/>
<path d="M78.9244 56.3736C80.5346 50.8526 77.6118 45.1438 72.3962 43.6226C67.1805 42.1013 61.647 45.3438 60.0367 50.8647C58.4265 56.3857 61.3492 62.0945 66.5649 63.6157C71.7806 65.137 77.3141 61.8945 78.9244 56.3736Z" fill="#263238"/>
<path d="M75.8282 56.3809C75.4169 57.5394 74.6752 58.552 73.6947 59.2937C72.7143 60.0353 71.5381 60.4735 70.3114 60.5541C69.0847 60.6348 67.8612 60.3543 66.7922 59.7473C65.7231 59.1404 64.8552 58.2336 64.2958 57.1389C63.7363 56.0443 63.5098 54.8097 63.6441 53.5877C63.7785 52.3657 64.2679 51.2099 65.0518 50.2629C65.8358 49.3159 66.8799 48.6194 68.0553 48.2592C69.2307 47.8991 70.4859 47.8911 71.6658 48.2364C73.2959 48.7671 74.6492 49.9223 75.4294 51.4488C76.2096 52.9754 76.353 54.7489 75.8282 56.3809Z" fill="#D1BBA4"/>
<path d="M76.376 80.5509L83.8823 99.8648C83.9167 99.9738 83.9735 100.074 84.0491 100.16C84.1248 100.246 84.2176 100.315 84.3215 100.363C84.4254 100.41 84.5382 100.436 84.6525 100.437C84.7668 100.439 84.8802 100.416 84.9853 100.371C85.2044 100.271 85.3774 100.091 85.47 99.8689C85.5626 99.6464 85.5679 99.3972 85.4848 99.171L79.0746 79.3715C79.007 79.1862 78.9007 79.0174 78.7627 78.8765C78.6248 78.7355 78.4583 78.6256 78.2745 78.554C78.0906 78.4824 77.8937 78.4509 77.6967 78.4615C77.4997 78.4721 77.3073 78.5245 77.1322 78.6154C76.7997 78.7986 76.5419 79.0927 76.4038 79.4463C76.2656 79.7999 76.2558 80.1908 76.376 80.5509Z" fill="#263238"/>
<path d="M197.754 29.9907L199.045 32.3911" stroke="#263238" stroke-linecap="round" stroke-linejoin="round"/>
<path d="M202.388 30.095L202.624 31.42" stroke="#263238" stroke-linecap="round" stroke-linejoin="round"/>
<path d="M206.974 29.1582L206.745 31.2949" stroke="#263238" stroke-linecap="round" stroke-linejoin="round"/>
<path d="M219.788 39.6687L217.151 40.3416" stroke="#263238" stroke-linecap="round" stroke-linejoin="round"/>
<path d="M216.576 36.3247L215.445 37.0531" stroke="#263238" stroke-linecap="round" stroke-linejoin="round"/>
<path d="M214.168 32.3152L212.746 33.9316" stroke="#263238" stroke-linecap="round" stroke-linejoin="round"/>
<path d="M209.714 33.7023H209.652H209.596C203.297 31.073 196.484 33.7786 193.904 39.6685C193.127 41.4223 192.794 43.3401 192.932 45.2531C192.932 46.2244 192.877 48.597 192.565 51.5523C192.371 53.4737 192.002 55.3732 191.462 57.2272L191.406 57.3312C191.355 57.4385 191.326 57.5548 191.321 57.6734C191.316 57.792 191.335 57.9104 191.376 58.0216C191.417 58.1329 191.481 58.2347 191.562 58.321C191.644 58.4074 191.741 58.4766 191.85 58.5245H191.906L196.762 60.6473H196.817L198.122 61.2162H198.184L203.04 63.339H203.096C203.204 63.3866 203.32 63.4119 203.439 63.4135C203.557 63.4151 203.674 63.3929 203.783 63.3482C203.893 63.3036 203.992 63.2374 204.075 63.1535C204.159 63.0697 204.224 62.97 204.268 62.8604C204.268 62.8187 204.303 62.7841 204.317 62.7494C205.314 61.0958 206.461 59.5376 207.744 58.0943C209.714 55.8674 211.421 54.2232 212.128 53.5642C213.699 52.3131 214.924 50.6817 215.687 48.8246C216.451 46.9676 216.728 44.9463 216.491 42.9523C216.255 40.9584 215.514 39.0577 214.337 37.4305C213.161 35.8032 211.589 34.5033 209.769 33.6537L209.714 33.7023Z" fill="#D1BBA4"/>
<path d="M203.295 63.4201L191.658 58.3096L190.473 61.0091L202.109 66.1197L203.295 63.4201Z" fill="#263238"/>
<path d="M200.737 69.2359L201.826 66.7662L190.185 61.6533L189.131 64.0537L200.737 69.2359Z" fill="#263238"/>
<path d="M202.107 66.1213L190.471 61.0107L190.189 61.6523L201.826 66.7628L202.107 66.1213Z" fill="white"/>
<path d="M189.131 64.0537L190.622 67.5086L197.151 70.3529L200.737 69.236L189.131 64.0537Z" fill="#263238"/>
<path d="M204.691 58.3374C205.933 56.421 207.466 54.71 209.235 53.2661C213.682 49.7488 216.783 46.3287 214.23 40.0017" stroke="#263238" stroke-linecap="round" stroke-linejoin="round"/>
<path d="M202.618 62.1114C202.618 62.1114 202.881 61.4662 203.415 60.4741" stroke="#263238" stroke-linecap="round" stroke-linejoin="round"/>
<path d="M195.791 59.8149C195.791 59.8149 197.13 51.2749 196.207 48.8954C195.284 46.5158 194.556 53.5712 197.99 52.593C201.424 51.6148 199.648 47.4454 199.156 49.3324C198.663 51.2194 199.939 53.6753 201.993 52.4959C204.046 51.3165 204.137 49.5336 202.93 50.3175C201.722 51.1015 203.172 54.5494 205.149 53.7308C207.127 52.9121 206.697 51.7813 205.233 52.4196C203.769 53.0578 200.529 59.3987 199.558 61.7504" stroke="#263238" stroke-linecap="round" stroke-linejoin="round"/>
<path d="M247.398 117.23C246.723 118.801 245.734 120.217 244.491 121.392C242.306 123.55 241.397 128.427 247.336 131.104C253.274 133.782 250.902 143.98 243.784 142.745C236.666 141.511 232.628 130.258 225.927 133.075C219.225 135.891 221.071 146.346 216.096 144.292C211.122 142.239 209.041 137.355 205.121 139.249C201.202 141.143 199.447 150.349 214.327 155.705C229.208 161.06 225.864 138.763 230.547 139.547C235.23 140.331 235.584 147.088 243.034 149.086C250.485 151.084 257.901 140.241 256.861 134.136C255.82 128.031 247.648 128.031 246.302 124.993C244.956 121.954 249.611 118.457 249.611 118.457C249.611 118.457 249.354 116.286 247.398 117.23Z" fill="#D1BBA4"/>
<path d="M248.231 112.033L246.434 116.556C246.279 116.941 246.257 117.367 246.37 117.766C246.483 118.165 246.725 118.516 247.059 118.763C247.446 119.048 247.928 119.174 248.406 119.115C248.883 119.055 249.32 118.815 249.626 118.443L253.212 114.087L248.231 112.033Z" fill="#263238" stroke="#263238" stroke-linecap="round" stroke-linejoin="round"/>
<path d="M258.123 84.783L269.619 92.879C269.619 92.879 262.584 103.139 260.017 108.079C257.451 113.018 253.892 116.466 250.943 115.96C247.995 115.453 246.233 111.339 247.107 107.808C247.981 104.277 254.377 96.3338 255.688 92.546C257 88.7581 258.123 84.783 258.123 84.783Z" fill="#D1BBA4"/>
<path d="M258.124 84.783C258.124 84.783 257.007 88.7096 255.689 92.5043C255.073 94.0251 254.306 95.4801 253.399 96.8472C256.144 99.5239 259.157 101.911 262.39 103.972C265.478 98.9353 269.633 92.872 269.633 92.872L258.124 84.783Z" fill="#263238"/>
<path d="M256.147 123.598C255.952 123.907 255.67 124.152 255.336 124.3C255.002 124.449 254.632 124.495 254.271 124.433C253.911 124.371 253.578 124.203 253.313 123.951C253.048 123.7 252.864 123.375 252.784 123.018C252.704 122.661 252.732 122.289 252.864 121.948C252.996 121.608 253.226 121.314 253.525 121.104C253.825 120.894 254.179 120.778 254.545 120.77C254.91 120.762 255.27 120.862 255.578 121.059C255.783 121.188 255.96 121.355 256.1 121.553C256.239 121.751 256.339 121.974 256.391 122.21C256.444 122.446 256.45 122.69 256.408 122.929C256.366 123.167 256.277 123.394 256.147 123.598Z" fill="#D1BBA4"/>
<path d="M240.246 133.685C240.075 133.953 239.828 134.165 239.537 134.293C239.246 134.421 238.924 134.46 238.611 134.405C238.297 134.35 238.008 134.204 237.777 133.985C237.547 133.765 237.387 133.482 237.318 133.172C237.248 132.862 237.272 132.538 237.386 132.241C237.501 131.945 237.7 131.688 237.96 131.505C238.22 131.322 238.528 131.219 238.846 131.211C239.164 131.203 239.477 131.289 239.746 131.458C240.107 131.688 240.362 132.051 240.456 132.468C240.55 132.886 240.474 133.323 240.246 133.685Z" fill="#D1BBA4"/>
<path d="M238.886 159.929C238.829 160.02 238.756 160.099 238.669 160.162C238.582 160.225 238.483 160.269 238.379 160.294C238.274 160.318 238.166 160.322 238.06 160.305C237.955 160.287 237.853 160.249 237.762 160.193C237.671 160.136 237.592 160.063 237.529 159.975C237.467 159.888 237.422 159.79 237.398 159.686C237.373 159.581 237.369 159.473 237.387 159.367C237.404 159.261 237.442 159.16 237.498 159.069C237.613 158.885 237.795 158.754 238.006 158.704C238.217 158.655 238.438 158.691 238.622 158.805C238.806 158.919 238.937 159.102 238.987 159.313C239.036 159.523 239 159.745 238.886 159.929Z" fill="#D1BBA4"/>
<path d="M210.207 150.037C212.08 151.218 214.166 152.024 216.347 152.409C222.59 153.457 223.367 149.939 224.672 144.965" stroke="#263238" stroke-linecap="round" stroke-linejoin="round"/>
<path d="M206.148 146.679C206.579 147.172 207.043 147.636 207.536 148.066" stroke="#263238" stroke-linecap="round" stroke-linejoin="round"/>
<path d="M242.056 146.859C242.056 146.859 248.674 149.877 252.768 142.003" stroke="#263238" stroke-linecap="round" stroke-linejoin="round"/>
<path d="M249.445 113.726C249.137 113.542 248.871 113.296 248.662 113.005C248.453 112.714 248.306 112.383 248.23 112.033" stroke="#263238" stroke-linecap="round" stroke-linejoin="round"/>
<path d="M259.879 105.234C259.879 105.234 255.793 113.095 253.198 114.087C252.612 114.319 251.982 114.418 251.353 114.378" stroke="#263238" stroke-linecap="round" stroke-linejoin="round"/>
<path d="M118.934 43.0861L99.7275 45.2439L101.424 60.3488L120.631 58.191L118.934 43.0861Z" fill="#D1BBA4"/>
<path opacity="0.5" d="M118.934 43.0861L99.7275 45.2439L101.424 60.3488L120.631 58.191L118.934 43.0861Z" fill="white"/>
<path d="M118.102 43.8097L100.653 45.77L102.179 59.3582L119.628 57.398L118.102 43.8097Z" fill="#D1BBA4"/>
<path d="M118.785 48.4999C117.834 47.487 117.036 47.272 116.114 48.3612C114.726 50.0192 113.977 53.7238 112.992 53.5712C112.007 53.4186 111.833 51.9339 110.841 50.9835C109.849 50.0331 108.601 52.2947 106.159 54.9587C105.005 56.2205 103.582 57.2068 101.996 57.8446L102.176 59.4749L119.805 57.4908L118.785 48.4999Z" fill="#263238"/>
<path d="M107.261 48.507C107.312 48.9475 107.231 49.3932 107.028 49.7876C106.826 50.1821 106.51 50.5075 106.123 50.7227C105.735 50.9379 105.292 51.0333 104.85 50.9967C104.408 50.9601 103.987 50.7932 103.64 50.5171C103.293 50.241 103.036 49.8682 102.901 49.4458C102.766 49.0235 102.759 48.5705 102.882 48.1443C103.004 47.7182 103.25 47.3379 103.589 47.0518C103.928 46.7656 104.344 46.5864 104.785 46.5368C105.374 46.4704 105.966 46.6406 106.43 47.0099C106.895 47.3793 107.193 47.9176 107.261 48.507Z" fill="#263238"/>
<path d="M67.9497 121.057L35.8022 110.375L27.4044 135.649L59.5518 146.331L67.9497 121.057Z" fill="#D1BBA4"/>
<path opacity="0.5" d="M67.9497 121.057L35.8022 110.375L27.4044 135.649L59.5518 146.331L67.9497 121.057Z" fill="white"/>
<path d="M65.3901 122.255L36.1543 112.407L28.4865 135.171L57.7223 145.019L65.3901 122.255Z" fill="#263238"/>
<path d="M63.6596 129.536C62.8965 127.226 61.7795 126.297 59.4971 127.351C56.0284 128.961 52.1504 134.289 50.6935 133.345C49.2367 132.402 50.0553 129.876 49.1742 127.649C48.2932 125.422 44.651 128.093 38.8097 130.535C36.0325 131.692 33.0312 132.211 30.0269 132.055L29.125 134.774L58.6369 144.584L63.6596 129.536Z" fill="#D1BBA4"/>
<path d="M45.3725 121.107C45.1273 121.844 44.6693 122.491 44.0562 122.968C43.4432 123.444 42.7027 123.728 41.9283 123.784C41.1539 123.839 40.3804 123.664 39.7055 123.28C39.0306 122.897 38.4847 122.321 38.1367 121.627C37.7887 120.933 37.6543 120.152 37.7504 119.381C37.8465 118.611 38.1689 117.886 38.6767 117.299C39.1846 116.712 39.8551 116.288 40.6036 116.082C41.3521 115.876 42.145 115.896 42.8819 116.14C43.3718 116.302 43.8249 116.56 44.2153 116.897C44.6056 117.235 44.9256 117.646 45.1569 118.107C45.3882 118.569 45.5263 119.071 45.5633 119.586C45.6003 120.101 45.5355 120.618 45.3725 121.107Z" fill="#D1BBA4"/>
<path d="M220.932 181.227C220.998 181.028 221.015 180.816 220.984 180.609C220.952 180.402 220.872 180.205 220.751 180.034C220.629 179.864 220.47 179.724 220.284 179.626C220.099 179.528 219.893 179.476 219.684 179.472L204.955 179.139C204.667 179.139 204.386 179.228 204.152 179.395C203.917 179.561 203.739 179.797 203.644 180.069L198.698 195.49C198.305 195.163 197.853 194.913 197.366 194.755C196.596 194.502 195.77 194.48 194.988 194.69C194.206 194.9 193.502 195.333 192.963 195.937C192.423 196.541 192.072 197.289 191.951 198.09C191.831 198.891 191.946 199.709 192.284 200.445C192.622 201.181 193.167 201.803 193.852 202.234C194.538 202.665 195.334 202.886 196.144 202.872C196.953 202.857 197.741 202.606 198.41 202.15C199.08 201.694 199.602 201.053 199.912 200.305H199.967L203.741 188.553L215.667 188.824L213.482 195.622C212.785 195.071 211.931 194.758 211.044 194.727C210.156 194.696 209.282 194.95 208.55 195.451C207.817 195.952 207.263 196.675 206.97 197.513C206.677 198.351 206.66 199.261 206.92 200.109C207.181 200.958 207.706 201.701 208.419 202.23C209.132 202.759 209.996 203.046 210.884 203.049C211.772 203.053 212.637 202.772 213.354 202.248C214.071 201.725 214.602 200.985 214.869 200.139C214.869 200.139 214.869 200.097 214.869 200.076L220.932 181.227ZM216.52 186.173L204.595 185.903L205.899 181.845L217.824 182.122L216.52 186.173Z" fill="#263238"/>
<path d="M182.991 190.953C183.019 190.865 183.026 190.771 183.012 190.68C182.998 190.588 182.962 190.502 182.908 190.426C182.854 190.352 182.783 190.29 182.701 190.247C182.619 190.204 182.529 190.18 182.436 190.176L175.929 190.031C175.801 190.027 175.675 190.065 175.57 190.139C175.465 190.213 175.387 190.318 175.346 190.44L173.161 197.253C172.987 197.108 172.787 196.997 172.571 196.927C172.232 196.816 171.868 196.806 171.523 196.899C171.178 196.992 170.868 197.184 170.63 197.45C170.392 197.716 170.237 198.046 170.184 198.399C170.13 198.752 170.181 199.113 170.329 199.438C170.477 199.762 170.717 200.037 171.018 200.228C171.32 200.419 171.671 200.518 172.028 200.513C172.385 200.508 172.733 200.399 173.029 200.199C173.325 200 173.556 199.718 173.695 199.389L175.367 194.193L180.64 194.311L179.675 197.322C179.505 197.18 179.31 197.071 179.1 197.003C178.754 196.892 178.382 196.885 178.033 196.985C177.683 197.085 177.371 197.286 177.136 197.563C176.901 197.84 176.753 198.18 176.711 198.541C176.669 198.902 176.735 199.267 176.901 199.591C177.066 199.914 177.324 200.182 177.641 200.359C177.959 200.536 178.321 200.615 178.684 200.586C179.046 200.557 179.391 200.421 179.677 200.196C179.962 199.97 180.174 199.666 180.286 199.32L182.991 190.953ZM181.042 193.139L175.77 193.021L176.345 191.224L181.618 191.349L181.042 193.139Z" fill="#263238"/>
<path d="M55.4321 158.549C55.4593 158.464 55.4666 158.374 55.4534 158.286C55.4401 158.199 55.4068 158.115 55.3558 158.042C55.3023 157.97 55.2335 157.911 55.1543 157.869C55.0751 157.827 54.9875 157.803 54.898 157.799L48.5779 157.654C48.4533 157.651 48.3312 157.689 48.2299 157.761C48.1286 157.834 48.0535 157.937 48.016 158.056L45.8931 164.661C45.7239 164.523 45.5312 164.417 45.3243 164.348C44.9951 164.241 44.6416 164.231 44.3071 164.321C43.9727 164.411 43.6716 164.597 43.4408 164.855C43.21 165.113 43.0594 165.433 43.0075 165.776C42.9555 166.118 43.0044 166.468 43.1482 166.783C43.2921 167.098 43.5245 167.365 43.8173 167.55C44.11 167.735 44.4503 167.831 44.7967 167.826C45.143 167.821 45.4803 167.715 45.7675 167.521C46.0546 167.327 46.279 167.054 46.4134 166.735L48.0299 161.698L53.1428 161.809L52.2062 164.73C52.0418 164.591 51.8505 164.487 51.6443 164.425C51.3085 164.317 50.9482 164.31 50.609 164.407C50.2697 164.504 49.9668 164.699 49.7386 164.968C49.5103 165.237 49.367 165.568 49.3266 165.918C49.2863 166.269 49.3509 166.623 49.5121 166.937C49.6734 167.251 49.9241 167.509 50.2325 167.681C50.5409 167.852 50.8931 167.928 51.2447 167.899C51.5963 167.87 51.9313 167.737 52.2074 167.517C52.4835 167.298 52.6883 167.001 52.7959 166.665L55.4321 158.549ZM53.5729 160.671L48.46 160.56L49.015 158.819L54.1348 158.937L53.5729 160.671Z" fill="#263238"/>
<path d="M99.409 77.9704C132.306 85.2131 196.249 104.624 212.573 105.72C252.484 108.495 254.891 38.2604 202.728 22.561C162.075 10.3233 121.477 41.6251 88.9126 53.4465" stroke="#263238" stroke-width="0.5" stroke-linecap="round" stroke-linejoin="round" stroke-dasharray="3 3"/>
<path d="M5.70508 158.757C20.8842 147.296 55.509 129.085 121.123 130.709C194.251 132.512 220.912 144.029 253.316 144.473" stroke="#263238" stroke-width="0.5" stroke-linecap="round" stroke-linejoin="round" stroke-dasharray="5 3"/>
<path d="M158.849 225.183C158.849 225.183 139.826 229.956 88.6972 214.312C65.9285 207.34 42.5147 195.241 29.944 174.172C10.1792 141.046 19.9402 95.7788 52.7613 79.3787" stroke="#263238" stroke-width="0.5" stroke-linecap="round" stroke-linejoin="round" stroke-dasharray="5 3"/>
<path d="M147.569 218.197L142.609 240.195L201.452 228.769L147.569 218.197Z" fill="#263238" stroke="#D1BBA4" stroke-linecap="round" stroke-linejoin="round"/>
<path d="M147.639 224.538L142.609 240.195L163.865 235.644L147.639 224.538Z" fill="#263238" stroke="#D1BBA4" stroke-linecap="round" stroke-linejoin="round"/>
<path d="M146.486 200.583L147.569 218.197L201.452 228.769L146.486 200.583Z" fill="#263238" stroke="#D1BBA4" stroke-linecap="round" stroke-linejoin="round"/>
<path d="M201.452 228.769L147.256 248L147.638 224.538L201.452 228.769Z" fill="#263238" stroke="#D1BBA4" stroke-linecap="round" stroke-linejoin="round"/>
<path d="M163.635 90.5964C163.635 90.5964 160.597 84.5261 162.012 81.0851C163.427 77.6441 168.894 72.1774 171.724 74.4044C174.555 76.6313 173.542 81.6887 175.97 83.1108C178.398 84.533 186.293 88.1682 186.903 95.0502C187.514 101.932 182.248 107.191 183.664 109.619C185.079 112.047 195.603 111.443 199.856 118.325C204.108 125.207 202.686 134.92 199.654 138.77C196.623 142.62 178.197 148.482 178.197 152.936C178.197 157.39 183.865 162.246 175.366 166.693C166.868 171.14 154.117 168.92 152.903 158.368C151.689 147.816 164.433 137.931 163.628 130.847C162.823 123.764 155.532 118.499 153.506 111.818C151.481 105.137 162.414 103.118 164.031 100.718C165.647 98.3177 163.635 90.5964 163.635 90.5964Z" fill="#263238" stroke="#263238" stroke-linecap="round" stroke-linejoin="round"/>
<path d="M198.08 130.813C197.573 132.394 196.859 133.359 196.574 133.456" stroke="white" stroke-linecap="round" stroke-linejoin="round"/>
<path d="M173.549 97.0481C173.549 97.0481 174.423 101.655 177.933 103.625C181.444 105.595 175.304 110.208 179.029 115.03C182.755 119.851 194.604 115.03 197.455 121.607C198.181 123.254 198.584 125.025 198.642 126.824" stroke="white" stroke-linecap="round" stroke-linejoin="round"/>
<path d="M182.679 102.008C183.328 102.417 184.028 102.738 184.76 102.966" stroke="white" stroke-linecap="round" stroke-linejoin="round"/>
<path d="M174.645 83.0066C174.645 83.0066 174.867 93.7596 178.155 97.9221C178.825 98.7779 179.568 99.574 180.375 100.302" stroke="white" stroke-linecap="round" stroke-linejoin="round"/>
<path d="M116.19 85.4626C116.19 85.4626 117.328 80.8353 117.328 79.4894C117.328 78.1436 116.988 77.8036 116.634 78.5598C116.301 79.4679 116.021 80.3944 115.795 81.3348L116.19 85.4626Z" fill="white" stroke="#263238" stroke-linecap="round" stroke-linejoin="round"/>
<path d="M75.6127 208.311C75.6127 208.311 71.8041 214.596 68.5712 218.023C65.3384 221.45 64.4088 225.065 67.8081 226.015C71.2075 226.966 76.3759 225.634 79.0398 222.97C81.7038 220.306 83.9932 216.31 86.671 214.784C89.3489 213.257 91.0485 213.07 91.0485 208.887C91.0485 204.703 89.1477 203.746 89.1477 203.746C89.1477 203.746 81.5165 208.124 75.6127 208.311Z" fill="#263238" stroke="#263238" stroke-linecap="round" stroke-linejoin="round"/>
<path d="M84.944 214.596C81.3296 217.642 78.2771 223.351 72.3803 224.114C68.9116 224.558 66.8303 223.698 65.6995 222.907C65.4706 224.378 66.0811 225.537 67.7808 226.015C71.2079 226.973 76.3485 225.634 79.0125 222.97C81.6765 220.306 83.9658 216.31 86.6437 214.784C88.9747 213.452 90.5772 213.139 90.9449 210.274C88.8492 211.577 86.8443 213.021 84.944 214.596Z" fill="white" stroke="#263238" stroke-linecap="round" stroke-linejoin="round"/>
<path d="M133.492 148.913C133.492 148.913 113.692 143.585 104.355 141.871C95.0169 140.158 86.2688 139.013 83.2232 142.634C80.1777 146.256 80.9408 174.422 79.6088 181.484C78.2768 188.546 76.7506 202.046 76.369 204.135C75.9875 206.223 74.2878 208.138 75.4186 208.901C76.5494 209.664 83.4105 210.233 85.8872 208.901C88.3639 207.569 90.2647 206.819 90.2647 204.516C90.2647 202.213 90.6463 181.865 92.346 175.58C94.0456 169.295 95.3915 158.639 95.3915 158.639C95.3915 158.639 107.768 161.49 113.477 163.204C119.187 164.917 127.352 171.008 135.185 171.203C143.017 171.397 142.039 159.589 140.513 156.162C138.986 152.735 136.343 149.488 133.492 148.913Z" fill="#D1BBA4"/>
<path opacity="0.39" d="M141.179 158.32C140.265 156.547 139.175 154.872 137.925 153.318C136.482 151.868 134.415 149.932 133.263 148.85L130.738 148.156L122.898 148.809C122.898 148.809 91.7979 141.427 90.9862 144.854C90.1745 148.281 92.0407 151.972 92.0407 151.972C92.0407 151.972 85.4501 145.118 86.241 147.754C87.0319 150.39 92.0407 156.19 92.0407 156.19C92.0407 156.19 86.7683 150.127 86.7683 153.817C86.7683 157.508 88.35 175.164 85.4501 189.136C83.5423 198.307 79.8239 205.21 78.5127 209.539C81.0241 209.775 84.2985 209.692 85.8525 208.845C88.3292 207.506 90.23 206.764 90.23 204.461C90.23 202.158 90.6116 181.81 92.3113 175.525C94.0109 169.239 95.3568 158.583 95.3568 158.583C95.3568 158.583 107.733 161.435 113.443 163.148C119.152 164.862 127.318 170.953 135.15 171.147C141.775 171.348 142.136 163.01 141.179 158.32Z" fill="black"/>
<path d="M95.4116 158.625C95.4116 158.625 96.2511 150.113 91.0063 144.882" stroke="#263238" stroke-linecap="round" stroke-linejoin="round"/>
<path d="M94.7598 145.735C94.7598 145.735 96.7578 147.678 96.0848 153.151" stroke="#263238" stroke-linecap="round" stroke-linejoin="round"/>
<path d="M133.492 148.913C133.492 148.913 113.692 143.585 104.355 141.871C95.0169 140.158 86.2688 139.013 83.2232 142.634C80.1777 146.256 80.9408 174.422 79.6088 181.484C78.2768 188.546 76.7506 202.046 76.369 204.135C75.9875 206.223 74.2878 208.138 75.4186 208.901C76.5494 209.664 83.4105 210.233 85.8872 208.901C88.3639 207.569 90.2647 206.819 90.2647 204.516C90.2647 202.213 90.6463 181.865 92.346 175.58C94.0456 169.295 95.3915 158.639 95.3915 158.639C95.3915 158.639 107.768 161.49 113.477 163.204C119.187 164.917 127.352 171.008 135.185 171.203C143.017 171.397 142.039 159.589 140.513 156.162C138.986 152.735 136.343 149.488 133.492 148.913Z" stroke="#263238" stroke-linecap="round" stroke-linejoin="round"/>
<path d="M162.012 111.645C162.012 111.645 160.194 112.054 154.929 111.041C149.663 110.028 149.871 112.255 142.989 109.418C136.107 106.58 120.727 95.0502 118.299 93.2257L115.871 91.4289C115.871 91.4289 116.19 87.5925 116.19 85.4835C116.19 83.3745 116.072 81.3765 116.072 81.3765C116.072 81.3765 116.662 76.5758 116.19 75.7503C115.718 74.9247 114.9 75.9861 114.9 76.9227C114.652 78.6453 114.219 80.3362 113.609 81.9662C113.609 81.9662 112.791 77.0406 112.555 76.1041C112.319 75.1675 111.736 74.8137 111.167 75.0496C110.598 75.2855 111.285 77.8662 111.285 78.9207C111.285 79.9752 111.167 83.0207 111.167 83.0207C111.167 83.0207 109.086 77.8662 108.469 76.8117C107.851 75.7572 107.178 76.5758 107.296 77.5054C107.414 78.435 109.169 83.5965 109.169 83.5965C109.169 83.5965 108.115 89.1048 108.115 89.4587C108.115 89.8125 105.888 89.1048 104.833 88.1683C103.779 87.2317 103.446 88.1683 104.14 89.3407C104.833 90.5131 106.72 91.6856 108.829 92.6221C110.938 93.5587 113.283 94.4952 113.283 94.4952C113.283 94.4952 125.472 107.621 129.933 111.728C134.394 115.835 139.313 118.402 141.893 119.81C144.474 121.218 150.093 124.146 150.093 124.146C150.093 124.146 147.284 126.227 147.284 129.654C147.284 133.081 147.977 136.099 146.34 138.326C144.703 140.553 139.195 145.007 139.195 145.007C139.195 145.007 131.695 137.376 127.006 134.601C122.316 131.826 117.397 130.73 113.762 136.238C110.127 141.746 109.898 165.417 109.544 173.152C109.19 180.887 107.671 185.931 106.852 186.749C106.1 187.465 105.611 188.413 105.465 189.441C105.465 190.135 105.347 191.786 105.347 191.786C105.347 191.786 106.401 197.766 109.565 200.111C112.728 202.456 114.49 205.501 115.545 203.51C116.599 201.519 119.291 198.12 119.527 195.185C119.669 192.498 119.963 189.82 120.408 187.166C120.762 185.778 120.644 174.859 122.635 169.35C124.626 163.842 125.68 160.561 125.68 160.561C125.68 160.561 127.561 171.459 135.643 173.686C143.725 175.913 151.231 171.605 155.567 165.132C159.903 158.66 165.529 146.616 169.275 141.809C173.022 137.001 178.773 129.037 178.773 129.037L187.098 140.171C186.45 141.587 185.706 142.957 184.871 144.271C183.483 146.498 178.78 150.834 178.78 150.834C178.78 150.834 180.861 152.471 182.526 152.707C184.191 152.943 192.023 149.19 195.887 145.909C199.752 142.627 200.459 141.226 198.933 138.971C197.407 136.717 191.302 128.655 187.687 123.501C184.073 118.346 183.816 114.239 180.181 112.949C176.546 111.658 172.099 112.72 170.691 112.72C169.272 112.626 167.862 112.429 166.473 112.13L162.012 111.645Z" fill="#D1BBA4"/>
<path opacity="0.39" d="M147.922 162.281C147.922 162.281 141.858 149.1 131.577 141.718C121.296 134.337 121.296 136.169 121.823 137.764C122.35 139.36 122.878 141.455 122.878 141.455C122.878 141.455 118.923 137.237 118.923 140.137C118.923 143.037 122.614 151.736 119.978 162.545C117.342 173.353 114.428 183.628 115.233 188.373C116.037 193.118 117.078 197.072 114.178 193.923C111.278 190.773 109.696 193.923 109.96 195.241C110.071 195.775 112.735 198.904 116.023 202.532C117.258 200.513 119.249 197.676 119.451 195.165C119.618 192.482 119.938 189.812 120.408 187.166C120.762 185.778 120.644 174.859 122.635 169.35C124.626 163.842 125.68 160.561 125.68 160.561C125.68 160.561 127.56 171.459 135.642 173.686C143.725 175.913 151.231 171.605 155.567 165.132C157.433 162.357 159.535 158.542 161.623 154.726L151.911 159.104L147.922 162.281Z" fill="black"/>
<path d="M125.792 140.462C125.792 140.462 129.857 147.4 126.194 158.971" stroke="#263238" stroke-linecap="round" stroke-linejoin="round"/>
<path d="M128.115 139.651C128.115 139.651 129.44 144.41 128.115 148.121" stroke="#263238" stroke-linecap="round" stroke-linejoin="round"/>
<path d="M162.012 111.645C162.012 111.645 160.194 112.054 154.929 111.041C149.663 110.028 149.871 112.255 142.989 109.418C136.107 106.58 120.727 95.0502 118.299 93.2257L115.871 91.4289C115.871 91.4289 116.19 87.5925 116.19 85.4835C116.19 83.3745 116.072 81.3765 116.072 81.3765C116.072 81.3765 116.662 76.5758 116.19 75.7503C115.718 74.9247 114.9 75.9861 114.9 76.9227C114.652 78.6453 114.219 80.3362 113.609 81.9662C113.609 81.9662 112.791 77.0406 112.555 76.1041C112.319 75.1675 111.736 74.8137 111.167 75.0496C110.598 75.2855 111.285 77.8662 111.285 78.9207C111.285 79.9752 111.167 83.0207 111.167 83.0207C111.167 83.0207 109.086 77.8662 108.469 76.8117C107.851 75.7572 107.178 76.5758 107.296 77.5054C107.414 78.435 109.169 83.5965 109.169 83.5965C109.169 83.5965 108.115 89.1048 108.115 89.4587C108.115 89.8125 105.888 89.1048 104.833 88.1683C103.779 87.2317 103.446 88.1683 104.14 89.3407C104.833 90.5131 106.72 91.6856 108.829 92.6221C110.938 93.5587 113.283 94.4952 113.283 94.4952C113.283 94.4952 125.472 107.621 129.933 111.728C134.394 115.835 139.313 118.402 141.893 119.81C144.474 121.218 150.093 124.146 150.093 124.146C150.093 124.146 147.284 126.227 147.284 129.654C147.284 133.081 147.977 136.099 146.34 138.326C144.703 140.553 139.195 145.007 139.195 145.007C139.195 145.007 131.695 137.376 127.006 134.601C122.316 131.826 117.397 130.73 113.762 136.238C110.127 141.746 109.898 165.417 109.544 173.152C109.19 180.887 107.671 185.931 106.852 186.749C106.1 187.465 105.611 188.413 105.465 189.441C105.465 190.135 105.347 191.786 105.347 191.786C105.347 191.786 106.401 197.766 109.565 200.111C112.728 202.456 114.49 205.501 115.545 203.51C116.599 201.519 119.291 198.12 119.527 195.185C119.669 192.498 119.963 189.82 120.408 187.166C120.762 185.778 120.644 174.859 122.635 169.35C124.626 163.842 125.68 160.561 125.68 160.561C125.68 160.561 127.561 171.459 135.643 173.686C143.725 175.913 151.231 171.605 155.567 165.132C159.903 158.66 165.529 146.616 169.275 141.809C173.022 137.001 178.773 129.037 178.773 129.037L187.098 140.171C186.45 141.587 185.706 142.957 184.871 144.271C183.483 146.498 178.78 150.834 178.78 150.834C178.78 150.834 180.861 152.471 182.526 152.707C184.191 152.943 192.023 149.19 195.887 145.909C199.752 142.627 200.459 141.226 198.933 138.971C197.407 136.717 191.302 128.655 187.687 123.501C184.073 118.346 183.816 114.239 180.181 112.949C176.546 111.658 172.099 112.72 170.691 112.72C169.272 112.626 167.862 112.429 166.473 112.13L162.012 111.645Z" stroke="#263238" stroke-linecap="round" stroke-linejoin="round"/>
<path d="M187.68 123.549C184.045 118.388 183.809 114.288 180.174 112.997C176.539 111.707 172.092 112.768 170.684 112.768C169.265 112.675 167.855 112.478 166.466 112.179L162.012 111.645C162.012 111.645 160.194 112.054 154.929 111.041C149.663 110.028 149.871 112.255 142.989 109.418C136.107 106.58 120.727 95.0502 118.299 93.2257L115.871 91.4289C115.871 91.4289 116.19 87.5925 116.19 85.4835C116.19 83.3745 116.072 81.3765 116.072 81.3765C116.072 81.3765 116.662 76.5758 116.19 75.7503C115.718 74.9247 114.9 75.9861 114.9 76.9227C114.652 78.6453 114.219 80.3362 113.609 81.9662C113.609 81.9662 112.791 77.0406 112.555 76.1041C112.319 75.1675 111.736 74.8137 111.167 75.0496C110.598 75.2855 111.285 77.8662 111.285 78.9207C111.285 79.9752 111.167 83.0207 111.167 83.0207C111.167 83.0207 109.086 77.8662 108.469 76.8117C107.851 75.7572 107.178 76.5758 107.296 77.5054C107.414 78.435 109.169 83.5965 109.169 83.5965C109.169 83.5965 108.115 89.1048 108.115 89.4587C108.115 89.8125 105.888 89.1048 104.833 88.1683C103.779 87.2317 103.446 88.1683 104.14 89.3407C104.833 90.5131 106.72 91.6856 108.829 92.6221C110.938 93.5587 113.283 94.4952 113.283 94.4952C113.283 94.4952 125.472 107.621 129.933 111.728C134.394 115.835 139.313 118.402 141.893 119.81C144.474 121.218 150.093 124.146 150.093 124.146C150.093 124.146 147.284 126.227 147.284 129.654V130.098L172.154 138.118C175.422 133.761 178.807 129.099 178.807 129.099L187.132 140.234C186.484 141.65 185.74 143.02 184.905 144.334C183.518 146.561 178.814 150.897 178.814 150.897C178.814 150.897 180.896 152.534 182.561 152.77C184.226 153.006 192.058 149.252 195.922 145.971C199.786 142.69 200.494 141.288 198.968 139.034C197.441 136.779 191.309 128.704 187.68 123.549Z" fill="white"/>
<path d="M187.68 123.549C184.045 118.388 183.809 114.288 180.174 112.997C176.539 111.707 172.092 112.768 170.683 112.768C169.576 112.715 168.475 112.578 167.388 112.359C167.388 112.359 167.388 112.415 167.388 112.449C167.388 112.484 169.698 114.177 175.276 116.105C180.854 118.034 188.547 131.881 191.433 134.954C194.319 138.028 195.284 139.769 194.514 140.726C193.744 141.684 192.203 142.655 189.317 145.728C187.43 147.747 184.975 150.092 183.927 152.492C188.238 150.971 192.271 148.754 195.866 145.929C199.737 142.648 200.438 141.247 198.912 138.992C197.386 136.737 191.308 128.704 187.68 123.549Z" fill="#D1BBA4"/>
<path d="M140.659 109.563C137.593 108.612 134.725 107.113 132.195 105.137C127.581 101.668 120.845 96.8607 122.385 100.329C123.925 103.798 134.505 112.449 138.737 114.565C142.969 116.681 145.674 115.522 151.051 115.141C156.427 114.759 155.283 112.061 151.821 112.061C148.359 112.061 143.357 110.715 140.659 109.563Z" fill="#D1BBA4"/>
<path opacity="0.5" d="M140.659 109.563C137.593 108.612 134.725 107.113 132.195 105.137C127.581 101.668 120.845 96.8607 122.385 100.329C123.925 103.798 134.505 112.449 138.737 114.565C142.969 116.681 145.674 115.522 151.051 115.141C156.427 114.759 155.283 112.061 151.821 112.061C148.359 112.061 143.357 110.715 140.659 109.563Z" fill="white"/>
<path opacity="0.5" d="M187.68 123.549C184.045 118.388 183.809 114.288 180.174 112.997C176.539 111.707 172.092 112.768 170.683 112.768C169.576 112.715 168.475 112.578 167.388 112.359C167.388 112.359 167.388 112.415 167.388 112.449C167.388 112.484 169.698 114.177 175.276 116.105C180.854 118.034 188.547 131.881 191.433 134.954C194.319 138.028 195.284 139.769 194.514 140.726C193.744 141.684 192.203 142.655 189.317 145.728C187.43 147.747 184.975 150.092 183.927 152.492C188.238 150.971 192.271 148.754 195.866 145.929C199.737 142.648 200.438 141.247 198.912 138.992C197.386 136.737 191.308 128.704 187.68 123.549Z" fill="white"/>
<path d="M187.68 123.549C184.045 118.388 183.809 114.288 180.174 112.997C176.539 111.707 172.092 112.768 170.684 112.768C169.265 112.675 167.855 112.478 166.466 112.179L162.012 111.645C162.012 111.645 160.194 112.054 154.929 111.041C149.663 110.028 149.871 112.255 142.989 109.418C136.107 106.58 120.727 95.0502 118.299 93.2257L115.871 91.4289C115.871 91.4289 116.19 87.5925 116.19 85.4835C116.19 83.3745 116.072 81.3765 116.072 81.3765C116.072 81.3765 116.662 76.5758 116.19 75.7503C115.718 74.9247 114.9 75.9861 114.9 76.9227C114.652 78.6453 114.219 80.3362 113.609 81.9662C113.609 81.9662 112.791 77.0406 112.555 76.1041C112.319 75.1675 111.736 74.8137 111.167 75.0496C110.598 75.2855 111.285 77.8662 111.285 78.9207C111.285 79.9752 111.167 83.0207 111.167 83.0207C111.167 83.0207 109.086 77.8662 108.469 76.8117C107.851 75.7572 107.178 76.5758 107.296 77.5054C107.414 78.435 109.169 83.5965 109.169 83.5965C109.169 83.5965 108.115 89.1048 108.115 89.4587C108.115 89.8125 105.888 89.1048 104.833 88.1683C103.779 87.2317 103.446 88.1683 104.14 89.3407C104.833 90.5131 106.72 91.6856 108.829 92.6221C110.938 93.5587 113.283 94.4952 113.283 94.4952C113.283 94.4952 125.472 107.621 129.933 111.728C134.394 115.835 139.313 118.402 141.893 119.81C144.474 121.218 150.093 124.146 150.093 124.146C150.093 124.146 147.284 126.227 147.284 129.654V130.098L172.154 138.118C175.422 133.761 178.807 129.099 178.807 129.099L187.132 140.234C186.484 141.65 185.74 143.019 184.905 144.334C183.518 146.561 178.814 150.897 178.814 150.897C178.814 150.897 180.896 152.534 182.561 152.77C184.226 153.006 192.058 149.252 195.922 145.971C199.786 142.69 200.494 141.288 198.968 139.034C197.441 136.779 191.309 128.704 187.68 123.549Z" stroke="#263238" stroke-linecap="round" stroke-linejoin="round"/>
<path d="M187.68 123.549C184.045 118.388 183.809 114.288 180.174 112.997C176.539 111.707 172.092 112.768 170.684 112.768C169.265 112.675 167.855 112.478 166.466 112.179L162.012 111.645C162.012 111.645 160.194 112.054 154.929 111.041C149.663 110.028 149.871 112.255 142.989 109.418C142.573 109.244 142.122 109.043 141.643 108.807C139.784 110.195 137.752 112.637 136.579 116.764C138.66 118.096 140.568 119.095 141.859 119.796C144.432 121.184 150.059 124.132 150.059 124.132C150.059 124.132 147.249 126.213 147.249 129.64C147.249 133.067 147.943 136.085 146.305 138.312C145.05 140.019 141.532 143.03 139.951 144.341C142.726 146.901 151.051 155.212 154.519 166.541C154.873 166.09 155.213 165.625 155.539 165.153C159.875 158.708 165.501 146.637 169.248 141.829C172.994 137.022 178.745 129.058 178.745 129.058L181.839 133.22C184.038 130.605 186.827 128.232 190.247 127.191C189.345 125.887 188.45 124.645 187.68 123.549Z" fill="white" stroke="#263238" stroke-linecap="round" stroke-linejoin="round"/>
<path opacity="0.14" d="M171.238 130.424C170.73 130.76 170.242 131.123 169.774 131.513C168.606 132.564 167.231 133.357 165.738 133.844C164.244 134.33 162.665 134.498 161.103 134.337C152.93 133.81 148.712 127.483 148.449 129.592C148.185 131.701 148.449 137.5 153.194 139.346C157.939 141.191 164.003 138.819 162.157 140.928C160.312 143.036 151.397 147.865 153.506 150.765C155.615 153.665 161.297 152.922 168.332 140.442C169.365 138.61 174.325 133.602 174.36 131.264C174.416 128.815 172.647 129.508 171.238 130.424Z" fill="black"/>
<path opacity="0.14" d="M169.99 115.155C171.128 115.675 172.564 116.265 174.326 116.875C177.15 117.846 180.5 121.856 183.504 125.991C184.474 125.274 185.521 124.669 186.626 124.187C183.081 119.088 182.818 115.051 179.217 113.781C176.477 112.81 173.272 113.171 171.26 113.406L169.99 115.155Z" fill="black"/>
<path d="M188.27 124.382C186.541 124.842 184.923 125.645 183.512 126.744C182.101 127.843 180.925 129.215 180.056 130.778L181.867 133.199C184.066 130.584 186.855 128.211 190.275 127.171L188.27 124.382Z" fill="#263238" stroke="#263238" stroke-linecap="round" stroke-linejoin="round"/>
<path d="M166.466 112.179L162.012 111.645C160.877 111.785 159.729 111.769 158.599 111.596C157.995 114.232 156.975 118.707 156.441 121.385C155.65 125.353 159.91 124.291 164.121 121.385C166.84 119.512 169.13 115.557 170.621 112.761C169.224 112.665 167.836 112.47 166.466 112.179Z" fill="#263238" stroke="#263238" stroke-linecap="round" stroke-linejoin="round"/>
<path d="M138.625 117.999C139.527 115.786 141.331 112.269 144.397 109.966C143.96 109.806 143.495 109.626 143.01 109.418C142.524 109.209 142.143 109.043 141.664 108.807C139.805 110.195 137.772 112.637 136.6 116.764C137.293 117.215 137.98 117.625 138.625 117.999Z" fill="#263238" stroke="#263238" stroke-linecap="round" stroke-linejoin="round"/>
<path d="M169.907 86.3438C169.907 86.3438 164.849 87.7659 163.434 88.98C162.019 90.194 159.965 94.0374 157.565 94.4397C155.165 94.8421 155.13 96.2643 155.13 97.2772C155.115 97.8434 155.256 98.4029 155.539 98.8936C155.539 98.8936 155.338 103.549 155.338 105.977C155.338 108.405 155.942 109.015 157.156 109.015H159.993C159.993 109.015 159.383 117.514 158.779 119.539C158.176 121.565 161.811 119.338 162.824 118.325L168.492 112.657C168.492 112.657 167.277 106.788 169.095 102.744C170.913 98.6993 167.708 97.2772 167.278 92.8233C167.115 91.6079 167.272 90.3711 167.733 89.2349C168.194 88.0986 168.943 87.1022 169.907 86.3438Z" fill="white"/>
<path d="M168.491 112.657C168.491 112.657 167.277 106.788 169.095 102.744C170.913 98.6991 167.708 97.2769 167.277 92.823C167.264 92.5665 167.264 92.3095 167.277 92.053C166.079 93.6339 165.447 95.5711 165.481 97.5544C165.744 101.259 164.683 105.498 162.303 106.573C160.604 107.322 156.899 107.808 155.761 108.314C155.907 108.555 156.12 108.749 156.374 108.872C156.627 108.995 156.911 109.042 157.19 109.008H160.028C160.028 109.008 159.945 110.153 159.806 111.707C161.499 113.15 163.372 114.898 164.856 116.32L168.491 112.657Z" fill="#D1BBA4"/>
<path opacity="0.5" d="M168.491 112.657C168.491 112.657 167.277 106.788 169.095 102.744C170.913 98.6991 167.708 97.2769 167.277 92.823C167.264 92.5665 167.264 92.3095 167.277 92.053C166.079 93.6339 165.447 95.5711 165.481 97.5544C165.744 101.259 164.683 105.498 162.303 106.573C160.604 107.322 156.899 107.808 155.761 108.314C155.907 108.555 156.12 108.749 156.374 108.872C156.627 108.995 156.911 109.042 157.19 109.008H160.028C160.028 109.008 159.945 110.153 159.806 111.707C161.499 113.15 163.372 114.898 164.856 116.32L168.491 112.657Z" fill="white"/>
<path d="M169.907 86.3438C169.907 86.3438 164.849 87.7659 163.434 88.98C162.019 90.194 159.965 94.0374 157.565 94.4397C155.165 94.8421 155.13 96.2643 155.13 97.2772C155.115 97.8434 155.256 98.4029 155.539 98.8936C155.539 98.8936 155.338 103.549 155.338 105.977C155.338 108.405 155.942 109.015 157.156 109.015H159.993C159.993 109.015 159.383 117.514 158.779 119.539C158.176 121.565 161.811 119.338 162.824 118.325L168.492 112.657C168.492 112.657 167.277 106.788 169.095 102.744C170.913 98.6993 167.708 97.2772 167.278 92.8233C167.115 91.6079 167.272 90.3711 167.733 89.2349C168.194 88.0986 168.943 87.1022 169.907 86.3438V86.3438Z" stroke="#263238" stroke-linecap="round" stroke-linejoin="round"/>
<path d="M162.525 94.7449C162.102 95.4387 161.519 95.8272 161.221 95.6399C160.923 95.4525 161.013 94.7519 161.429 94.072C161.845 93.3921 162.435 92.9898 162.74 93.1771C163.045 93.3644 162.941 94.0651 162.525 94.7449Z" fill="#263238"/>
<path d="M162.782 91.512C162.782 91.512 165.356 90.3881 164.863 93.5932" stroke="#263238" stroke-linecap="round" stroke-linejoin="round"/>
<path d="M160.368 99.9065C157.96 100.711 156.996 99.9065 156.996 99.9065" stroke="#263238" stroke-linecap="round" stroke-linejoin="round"/>
<path d="M157.87 100.191V102.203C157.87 102.203 158.876 103.125 159.882 100.024C159.231 100.222 158.545 100.279 157.87 100.191Z" stroke="#263238" stroke-linecap="round" stroke-linejoin="round"/>
<path d="M168.29 100.919C168.29 100.919 174.159 99.3029 173.347 101.932C172.536 104.561 167.679 106.386 167.104 104.36" fill="white"/>
<path d="M168.29 100.919C168.29 100.919 174.159 99.3029 173.347 101.932C172.536 104.561 167.679 106.386 167.104 104.36" stroke="#263238" stroke-linecap="round" stroke-linejoin="round"/>
<path d="M139.16 144.993C139.16 144.993 147.755 155.718 148.775 164.868" stroke="#263238" stroke-linecap="round" stroke-linejoin="round"/>
<path d="M150.059 124.132C150.059 124.132 151.821 120.733 151.821 118.291" stroke="#263238" stroke-linecap="round" stroke-linejoin="round"/>
<path d="M178.773 129.057L174.402 123.785" stroke="#263238" stroke-linecap="round" stroke-linejoin="round"/>
<path d="M187.09 140.192C187.989 139.493 189.034 139.005 190.148 138.765C191.261 138.525 192.414 138.538 193.521 138.804" stroke="#263238" stroke-linecap="round" stroke-linejoin="round"/>
<path d="M180.701 146.748C179.841 145.211 178.817 143.771 177.648 142.454C176.178 140.983 172.223 141.212 171.772 142.232C171.321 143.251 174.034 143.023 175.727 144.715C177.419 146.408 177.197 147.879 177.197 147.879C175.685 148.462 174.061 148.699 172.445 148.572C170.302 148.233 167.471 147.671 167.249 148.461C167.027 149.252 167.811 150.154 169.622 150.605C171.432 151.056 173.576 150.945 174.256 151.056C174.936 151.167 176.629 152.978 177.988 152.978C179.348 152.978 181.041 152.645 181.492 152.978C181.943 153.311 183.184 154.899 184.544 154.899C185.904 154.899 187.146 153.512 187.257 151.965C187.368 150.418 186.466 148.912 184.544 148.122C182.623 147.331 180.701 146.748 180.701 146.748Z" fill="white" stroke="#263238" stroke-linecap="round" stroke-linejoin="round"/>
<path d="M183.927 146.866C183.927 146.866 179.418 143.009 178.315 142.898C177.212 142.787 173.951 144.833 174.701 145.673C175.45 146.512 176.594 145.277 177.6 145.423C178.606 145.569 181.284 147.886 181.763 147.962" fill="white"/>
<path d="M183.927 146.866C183.927 146.866 179.418 143.009 178.315 142.898C177.212 142.787 173.951 144.833 174.701 145.673C175.45 146.512 176.594 145.277 177.6 145.423C178.606 145.569 181.284 147.886 181.763 147.962" stroke="#263238" stroke-linecap="round" stroke-linejoin="round"/>
<path d="M184.094 148.67L182.706 146.408C182.706 146.408 181.235 148.899 179.543 148.559C177.85 148.219 181.464 144.486 182.255 144.264C183.046 144.042 184.066 143.571 184.968 145.277C185.616 146.652 186.109 148.095 186.439 149.579" fill="white"/>
<path d="M184.094 148.67L182.706 146.408C182.706 146.408 181.235 148.899 179.543 148.559C177.85 148.219 181.464 144.486 182.255 144.264C183.046 144.042 184.066 143.571 184.968 145.277C185.616 146.652 186.109 148.095 186.439 149.579" stroke="#263238" stroke-linecap="round" stroke-linejoin="round"/>
<path d="M187.146 150.709C187.146 150.709 186.577 147.088 185.898 146.637C185.218 146.186 183.074 146.977 182.172 148.025C181.27 149.072 181.832 149.266 182.963 149.266C183.579 149.296 184.183 149.093 184.656 148.697L185.447 150.397" fill="white"/>
<path d="M187.146 150.709C187.146 150.709 186.577 147.088 185.898 146.637C185.218 146.186 183.074 146.977 182.172 148.025C181.27 149.072 181.832 149.266 182.963 149.266C183.579 149.296 184.183 149.093 184.656 148.697L185.447 150.397" stroke="#263238" stroke-linecap="round" stroke-linejoin="round"/>
<path d="M116.01 202.935C114.667 199.753 112.921 196.757 110.814 194.02C107.574 189.941 102.135 188.352 98.6662 186.125C95.1974 183.898 90.1678 180.867 87.9409 183.496C85.714 186.125 87.7397 189.74 91.4096 193.819C95.0795 197.898 101.524 201.103 102.135 201.915C102.745 202.726 108.49 209.49 110.717 209.692C112.943 209.893 115.198 206.979 116.01 202.935Z" fill="#263238" stroke="#263238" stroke-linecap="round" stroke-linejoin="round"/>
<path d="M114.331 207.284C113.172 203.17 108.961 199.688 106.075 197.488C102.607 194.873 100.366 191.203 94.0805 186.444C91.3472 184.363 89.4394 183.565 88.1629 183.315C88.0839 183.379 88.0097 183.449 87.9409 183.523C85.714 186.153 87.7397 189.767 91.4096 193.846C95.0795 197.925 101.524 201.131 102.135 201.942C102.745 202.754 108.49 209.518 110.717 209.719C111.986 209.809 113.297 208.859 114.331 207.284Z" fill="white" stroke="#263238" stroke-linecap="round" stroke-linejoin="round"/>
<path d="M104.369 198.834C100.38 195.511 91.5209 185.535 89.5229 184.654C87.8579 183.912 87.1988 185.715 87.0254 186.333C87.1919 188.518 88.9124 191.071 91.3821 193.818C95.0243 197.863 101.497 201.103 102.107 201.914C102.718 202.726 108.462 209.49 110.689 209.691C110.957 209.762 111.241 209.729 111.486 209.601C111.731 209.473 111.919 209.258 112.014 208.998C113.124 207.36 108.379 202.157 104.369 198.834Z" fill="white" stroke="#263238" stroke-linecap="round" stroke-linejoin="round"/>
</g>
</svg>
