<svg width="289" height="244" viewBox="0 0 289 244" fill="none" xmlns="http://www.w3.org/2000/svg">
<g opacity="0.8">
<path d="M280.609 99.4352C276.994 80.004 267.288 61.2864 256.652 45.1243C240.85 21.1257 216.552 -1.35034 186.09 0.0633324C168.508 0.872118 152.617 9.21145 140.751 21.9957C129.339 34.2906 121.618 48.3186 105.348 54.952C88.8796 61.6602 71.1542 65.4119 54.0202 69.9587C9.97197 81.6351 -13.51 137.387 8.20488 183.229C29.9198 229.072 80.9208 251.351 116.671 241.836C148.798 233.32 170.118 207.038 199.255 193.771C213.711 187.199 229.71 186.206 243.663 178.39C259.88 169.31 273.419 154.304 278.971 136.306C282.75 124.045 282.873 111.601 280.609 99.4352Z" fill="#D1BBA4"/>
<path opacity="0.7" d="M280.609 99.4352C276.994 80.004 267.288 61.2864 256.652 45.1243C240.85 21.1257 216.552 -1.35034 186.09 0.0633324C168.508 0.872118 152.617 9.21145 140.751 21.9957C129.339 34.2906 121.618 48.3186 105.348 54.952C88.8796 61.6602 71.1542 65.4119 54.0202 69.9587C9.97197 81.6351 -13.51 137.387 8.20488 183.229C29.9198 229.072 80.9208 251.351 116.671 241.836C148.798 233.32 170.118 207.038 199.255 193.771C213.711 187.199 229.71 186.206 243.663 178.39C259.88 169.31 273.419 154.304 278.971 136.306C282.75 124.045 282.873 111.601 280.609 99.4352Z" fill="white"/>
<path d="M49.3782 137.849C49.3782 137.849 49.3782 135.09 45.5178 131.236C41.6574 127.383 39.1834 125.174 39.1834 125.174C39.1834 125.174 37.2532 131.508 40.835 135.369C43.4706 138.081 46.3283 140.568 49.3782 142.804V137.849Z" fill="#D1BBA4"/>
<path d="M43.7779 155.024C43.7779 155.024 43.7779 152.306 39.9175 148.411C36.057 144.517 33.5831 142.355 33.5831 142.355C33.5831 142.355 31.6529 148.724 35.2551 152.55C37.8907 155.262 40.7484 157.749 43.7983 159.986L43.7779 155.024Z" fill="#D1BBA4"/>
<path d="M49.1335 142.511C49.1335 142.511 49.4258 139.793 53.6668 136.34C57.9078 132.887 60.6129 130.984 60.6129 130.984C60.6129 130.984 61.8566 137.489 57.8942 140.948C54.9887 143.369 51.8854 145.543 48.617 147.446L49.1335 142.511Z" fill="#D1BBA4"/>
<path d="M42.371 162.833C42.371 162.833 42.9487 160.114 47.5296 157.178C52.1104 154.242 55.0057 152.577 55.0057 152.577C55.0057 152.577 55.563 159.177 51.2541 162.201C48.1089 164.301 44.7944 166.136 41.3447 167.686L42.371 162.833Z" fill="#D1BBA4"/>
<path d="M43.6419 184.99C43.6419 184.99 43.6419 182.237 47.5024 178.377C51.3628 174.517 53.8367 172.314 53.8367 172.314C53.8367 172.314 55.7669 178.656 52.1852 182.509C49.5521 185.236 46.6943 187.737 43.6419 189.985V184.99Z" fill="#D1BBA4"/>
<path d="M43.5808 190.399C43.5808 190.399 43.9682 187.681 40.699 183.304C37.4299 178.927 35.2618 176.405 35.2618 176.405C35.2618 176.405 32.4481 182.4 35.4453 186.729C37.6676 189.791 40.1434 192.66 42.8467 195.306L43.5808 190.399Z" fill="#D1BBA4"/>
<path d="M39.7747 206.426C39.7747 206.426 39.7747 203.708 43.6284 199.813C47.482 195.919 49.9695 193.751 49.9695 193.751C49.9695 193.751 51.8997 200.092 48.318 203.946C45.6835 206.661 42.8258 209.151 39.7747 211.388V206.426Z" fill="#D1BBA4"/>
<path d="M42.3506 220.957C42.3506 220.957 41.671 218.293 44.3896 213.583C47.1082 208.873 48.9908 206.106 48.9908 206.106C48.9908 206.106 52.457 211.754 49.9695 216.39C48.11 219.682 45.9775 222.813 43.5944 225.748L42.3506 220.957Z" fill="#D1BBA4"/>
<path d="M49.7248 137.115C49.5311 139.982 49.1794 142.837 48.6714 145.665C47.1422 153.549 43.3293 158.626 41.8069 165.742C40.2845 172.858 44.6614 182.054 43.4856 191.168C42.3098 200.282 38.7281 205.393 39.7747 211.49C40.8214 217.586 46.279 234.455 46.279 234.455" stroke="#263238" stroke-width="1.09196" stroke-linecap="round" stroke-linejoin="round"/>
<path d="M49.0928 144.34L53.2522 141.152" stroke="#263238" stroke-width="1.09196" stroke-linecap="round" stroke-linejoin="round"/>
<path d="M49.2899 140.671L47.55 137.578" stroke="#263238" stroke-width="1.09196" stroke-linecap="round" stroke-linejoin="round"/>
<path d="M42.0516 165.416C42.0516 165.416 45.5314 162.806 49.1063 160.196" stroke="#263238" stroke-width="1.09196" stroke-linecap="round" stroke-linejoin="round"/>
<path d="M43.7779 159.986C43.7779 159.986 40.8758 154.304 37.593 150.532" stroke="#263238" stroke-width="1.09196" stroke-linecap="round" stroke-linejoin="round"/>
<path d="M43.7779 188.912C45.764 185.251 48.2708 181.897 51.2201 178.955" stroke="#263238" stroke-width="1.09196" stroke-linecap="round" stroke-linejoin="round"/>
<path d="M43.105 192.78C42.0459 190.295 40.7843 187.901 39.333 185.623C37.294 182.626 37.0086 182.225 37.0086 182.225" stroke="#263238" stroke-width="1.09196" stroke-linecap="round" stroke-linejoin="round"/>
<path d="M39.7747 211.489C40.6544 209.293 41.7019 207.169 42.9079 205.134C44.1182 203.251 45.4822 201.471 46.9858 199.812" stroke="#263238" stroke-width="1.09196" stroke-linecap="round" stroke-linejoin="round"/>
<path d="M43.608 225.755C43.404 223.66 43.763 221.549 44.6478 219.639C46.0955 216.838 47.7403 213.162 48.4199 211.714" stroke="#263238" stroke-width="1.09196" stroke-linecap="round" stroke-linejoin="round"/>
<path d="M17.8967 174.631C17.8967 174.631 17.5841 172.898 19.6231 170.064C21.662 167.23 22.9398 165.571 22.9398 165.571C22.9398 165.571 24.836 169.337 23.0077 172.144C21.6522 174.133 20.1312 176.004 18.4608 177.737L17.8967 174.631Z" fill="#D1BBA4"/>
<path d="M23.2728 184.813C23.2728 184.813 22.9737 183.086 24.9787 180.245C26.9837 177.405 28.2954 175.76 28.2954 175.76C28.2954 175.76 30.1916 179.518 28.3634 182.332C27.0064 184.318 25.4854 186.187 23.8165 187.919L23.2728 184.813Z" fill="#D1BBA4"/>
<path d="M18.556 177.548C18.556 177.548 18.0802 175.863 15.0422 174.15C12.0042 172.437 10.1079 171.561 10.1079 171.561C10.1079 171.561 10.0332 175.781 12.8945 177.514C14.9797 178.717 17.1623 179.742 19.4192 180.58L18.556 177.548Z" fill="#D1BBA4"/>
<path d="M25.0059 189.557C25.0059 189.557 24.3262 187.925 21.1591 186.566C17.9919 185.207 15.9733 184.493 15.9733 184.493C15.9733 184.493 16.3403 188.693 19.3716 190.121C21.5673 191.097 23.8407 191.888 26.1681 192.486L25.0059 189.557Z" fill="#D1BBA4"/>
<path d="M26.6167 203.584C26.6167 203.584 26.3108 201.858 23.4767 199.86C20.6425 197.862 18.8415 196.747 18.8415 196.747C18.8415 196.747 18.3249 200.927 20.9892 202.959C22.9354 204.376 24.9975 205.626 27.1536 206.697L26.6167 203.584Z" fill="#D1BBA4"/>
<path d="M27.2419 206.97C27.2419 206.97 26.6982 205.305 28.275 202.213C29.8518 199.12 30.9189 197.299 30.9189 197.299C30.9189 197.299 33.3316 200.751 31.9247 203.789C30.8627 205.951 29.6214 208.02 28.2139 209.974L27.2419 206.97Z" fill="#D1BBA4"/>
<path d="M32.0811 220.91C32.0811 220.91 32.285 219.17 35.0036 217.009C37.7222 214.847 39.4485 213.61 39.4485 213.61C39.4485 213.61 40.2097 217.756 37.661 219.931C35.7993 221.455 33.8122 222.819 31.7208 224.009L32.0811 220.91Z" fill="#D1BBA4"/>
<path d="M31.3674 216.608C31.3674 216.608 31.0684 214.881 28.2274 212.883C25.3865 210.885 23.599 209.771 23.599 209.771C23.599 209.771 23.0757 213.971 25.7399 216.01C27.6861 217.427 29.7482 218.677 31.9044 219.748L31.3674 216.608Z" fill="#D1BBA4"/>
<path d="M31.3267 226C31.3267 226 31.4762 224.253 29.2401 221.603C27.0041 218.952 25.5428 217.416 25.5428 217.416C25.5428 217.416 23.9796 221.331 26.0458 223.968C27.5698 225.832 29.2476 227.564 31.0616 229.147L31.3267 226Z" fill="#D1BBA4"/>
<path d="M17.5841 174.224C18.019 176.001 18.5522 177.752 19.1813 179.471C20.9891 184.228 23.9388 187.021 25.6584 191.317C27.3779 195.612 25.6584 201.838 27.3643 207.445C29.0702 213.052 31.8772 215.852 31.9044 219.787C31.9315 223.723 30.4975 234.359 30.4975 234.359" stroke="#263238" stroke-width="1.09196" stroke-linecap="round" stroke-linejoin="round"/>
<path d="M18.7803 178.69L15.8306 177.141" stroke="#263238" stroke-width="1.09196" stroke-linecap="round" stroke-linejoin="round"/>
<path d="M18.2638 176.407L19.0182 174.279" stroke="#263238" stroke-width="1.09196" stroke-linecap="round" stroke-linejoin="round"/>
<path d="M25.4953 191.141C25.4953 191.141 23.0281 189.883 20.4998 188.633" stroke="#263238" stroke-width="1.09196" stroke-linecap="round" stroke-linejoin="round"/>
<path d="M23.8165 187.919C24.5403 185.637 25.4944 183.435 26.6643 181.347" stroke="#263238" stroke-width="1.09196" stroke-linecap="round" stroke-linejoin="round"/>
<path d="M26.9565 206.059C25.3115 203.98 23.3749 202.148 21.2066 200.622" stroke="#263238" stroke-width="1.09196" stroke-linecap="round" stroke-linejoin="round"/>
<path d="M27.7789 208.411C28.1708 206.739 28.7005 205.102 29.3625 203.517C30.314 201.417 30.4499 201.146 30.4499 201.146" stroke="#263238" stroke-width="1.09196" stroke-linecap="round" stroke-linejoin="round"/>
<path d="M31.782 222.805C32.7406 221.615 33.8028 220.512 34.956 219.509C35.6818 218.966 36.3636 218.366 36.995 217.715" stroke="#263238" stroke-width="1.09196" stroke-linecap="round" stroke-linejoin="round"/>
<path d="M31.9179 219.788C31.1272 218.509 30.2387 217.293 29.2605 216.151C28.3009 215.114 27.2575 214.157 26.1409 213.29" stroke="#263238" stroke-width="1.09196" stroke-linecap="round" stroke-linejoin="round"/>
<path d="M31.0616 229.147C30.9616 227.815 30.5063 226.533 29.7431 225.436C28.5333 223.832 27.0992 221.705 26.5215 220.869" stroke="#263238" stroke-width="1.09196" stroke-linecap="round" stroke-linejoin="round"/>
<path d="M281.595 182.788H217.769V188.232H281.595V182.788Z" stroke="#263238" stroke-width="1.09196" stroke-linecap="round" stroke-linejoin="round"/>
<path d="M278.638 188.301H220.732V234.673H278.638V188.301Z" stroke="#263238" stroke-width="1.09196" stroke-linecap="round" stroke-linejoin="round"/>
<path d="M276.552 191.324H222.744V205.427H276.552V191.324Z" stroke="#263238" stroke-width="1.09196" stroke-linecap="round" stroke-linejoin="round"/>
<path d="M252.247 197.074H246.865V199.67H252.247V197.074Z" stroke="#263238" stroke-width="1.09196" stroke-linecap="round" stroke-linejoin="round"/>
<path d="M276.552 209.138H222.744V223.24H276.552V209.138Z" stroke="#263238" stroke-width="1.09196" stroke-linecap="round" stroke-linejoin="round"/>
<path d="M252.247 214.889H246.865V217.485H252.247V214.889Z" stroke="#263238" stroke-width="1.09196" stroke-linecap="round" stroke-linejoin="round"/>
<path d="M251.69 145.102H224.973V171.323H251.69V145.102Z" fill="#263238" stroke="#263238" stroke-width="1.09196" stroke-linecap="round" stroke-linejoin="round"/>
<path d="M240.061 181.491V170.338H236.602V181.491H231.654V182.708H236.602H240.061H245.009V181.491H240.061Z" stroke="#263238" stroke-width="1.09196" stroke-linecap="round" stroke-linejoin="round"/>
<path d="M226.645 146.053V169.8" stroke="#5C5C5C" stroke-width="1.09196" stroke-linecap="round" stroke-linejoin="round"/>
<path d="M231.097 146.053V169.8" stroke="#5C5C5C" stroke-width="1.09196" stroke-linecap="round" stroke-linejoin="round"/>
<path d="M238.335 146.053V169.8" stroke="#5C5C5C" stroke-width="1.09196" stroke-linecap="round" stroke-linejoin="round"/>
<path d="M246.865 146.053V169.8" stroke="#5C5C5C" stroke-width="1.09196" stroke-linecap="round" stroke-linejoin="round"/>
<path d="M264.005 71.8887H220.426V130.407H264.005V71.8887Z" stroke="#263238" stroke-width="1.09196" stroke-linecap="round" stroke-linejoin="round"/>
<path d="M259.832 77.4893H224.599V124.807H259.832V77.4893Z" stroke="#263238" stroke-width="1.09196" stroke-linecap="round" stroke-linejoin="round"/>
<path d="M211.924 56.6104H126.763V234.672H211.924V56.6104Z" stroke="#263238" stroke-width="1.09196" stroke-linecap="round" stroke-linejoin="round"/>
<path d="M165.47 65.0254H134.505V111.48H165.47V65.0254Z" stroke="#263238" stroke-width="1.09196" stroke-linecap="round" stroke-linejoin="round"/>
<path d="M161.025 71.7051H138.956V104.804H161.025V71.7051Z" stroke="#263238" stroke-width="1.09196" stroke-linecap="round" stroke-linejoin="round"/>
<path d="M138.956 71.7064L134.505 65.0254" stroke="#263238" stroke-width="1.09196" stroke-linecap="round" stroke-linejoin="round"/>
<path d="M161.018 71.7064L165.47 65.0254" stroke="#263238" stroke-width="1.09196" stroke-linecap="round" stroke-linejoin="round"/>
<path d="M161.018 104.805L165.47 111.479" stroke="#263238" stroke-width="1.09196" stroke-linecap="round" stroke-linejoin="round"/>
<path d="M138.956 104.805L134.505 111.479" stroke="#263238" stroke-width="1.09196" stroke-linecap="round" stroke-linejoin="round"/>
<path d="M202.687 65.0254H171.722V111.48H202.687V65.0254Z" stroke="#263238" stroke-width="1.09196" stroke-linecap="round" stroke-linejoin="round"/>
<path d="M198.242 71.7051H176.174V104.804H198.242V71.7051Z" stroke="#263238" stroke-width="1.09196" stroke-linecap="round" stroke-linejoin="round"/>
<path d="M176.174 71.7064L171.722 65.0254" stroke="#263238" stroke-width="1.09196" stroke-linecap="round" stroke-linejoin="round"/>
<path d="M198.236 71.7064L202.687 65.0254" stroke="#263238" stroke-width="1.09196" stroke-linecap="round" stroke-linejoin="round"/>
<path d="M198.236 104.805L202.687 111.479" stroke="#263238" stroke-width="1.09196" stroke-linecap="round" stroke-linejoin="round"/>
<path d="M176.174 104.805L171.722 111.479" stroke="#263238" stroke-width="1.09196" stroke-linecap="round" stroke-linejoin="round"/>
<path d="M165.47 123.454H134.505V169.908H165.47V123.454Z" stroke="#263238" stroke-width="1.09196" stroke-linecap="round" stroke-linejoin="round"/>
<path d="M161.025 130.128H138.956V163.227H161.025V130.128Z" stroke="#263238" stroke-width="1.09196" stroke-linecap="round" stroke-linejoin="round"/>
<path d="M138.956 130.128L134.505 123.454" stroke="#263238" stroke-width="1.09196" stroke-linecap="round" stroke-linejoin="round"/>
<path d="M161.018 130.128L165.47 123.454" stroke="#263238" stroke-width="1.09196" stroke-linecap="round" stroke-linejoin="round"/>
<path d="M161.018 163.228L165.47 169.909" stroke="#263238" stroke-width="1.09196" stroke-linecap="round" stroke-linejoin="round"/>
<path d="M138.956 163.228L134.505 169.909" stroke="#263238" stroke-width="1.09196" stroke-linecap="round" stroke-linejoin="round"/>
<path d="M202.687 123.454H171.722V169.908H202.687V123.454Z" stroke="#263238" stroke-width="1.09196" stroke-linecap="round" stroke-linejoin="round"/>
<path d="M198.242 130.128H176.174V163.227H198.242V130.128Z" stroke="#263238" stroke-width="1.09196" stroke-linecap="round" stroke-linejoin="round"/>
<path d="M176.174 130.128L171.722 123.454" stroke="#263238" stroke-width="1.09196" stroke-linecap="round" stroke-linejoin="round"/>
<path d="M198.236 130.128L202.687 123.454" stroke="#263238" stroke-width="1.09196" stroke-linecap="round" stroke-linejoin="round"/>
<path d="M198.236 163.228L202.687 169.909" stroke="#263238" stroke-width="1.09196" stroke-linecap="round" stroke-linejoin="round"/>
<path d="M176.174 163.228L171.722 169.909" stroke="#263238" stroke-width="1.09196" stroke-linecap="round" stroke-linejoin="round"/>
<path d="M165.47 182.774H134.505V229.229H165.47V182.774Z" stroke="#263238" stroke-width="1.09196" stroke-linecap="round" stroke-linejoin="round"/>
<path d="M161.025 189.448H138.956V222.547H161.025V189.448Z" stroke="#263238" stroke-width="1.09196" stroke-linecap="round" stroke-linejoin="round"/>
<path d="M138.956 189.449L134.505 182.774" stroke="#263238" stroke-width="1.09196" stroke-linecap="round" stroke-linejoin="round"/>
<path d="M161.018 189.449L165.47 182.774" stroke="#263238" stroke-width="1.09196" stroke-linecap="round" stroke-linejoin="round"/>
<path d="M161.018 222.547L165.47 229.221" stroke="#263238" stroke-width="1.09196" stroke-linecap="round" stroke-linejoin="round"/>
<path d="M138.956 222.547L134.505 229.221" stroke="#263238" stroke-width="1.09196" stroke-linecap="round" stroke-linejoin="round"/>
<path d="M202.687 182.774H171.722V229.229H202.687V182.774Z" stroke="#263238" stroke-width="1.09196" stroke-linecap="round" stroke-linejoin="round"/>
<path d="M198.242 189.448H176.174V222.547H198.242V189.448Z" stroke="#263238" stroke-width="1.09196" stroke-linecap="round" stroke-linejoin="round"/>
<path d="M176.174 189.449L171.722 182.774" stroke="#263238" stroke-width="1.09196" stroke-linecap="round" stroke-linejoin="round"/>
<path d="M198.236 189.449L202.687 182.774" stroke="#263238" stroke-width="1.09196" stroke-linecap="round" stroke-linejoin="round"/>
<path d="M198.236 222.547L202.687 229.221" stroke="#263238" stroke-width="1.09196" stroke-linecap="round" stroke-linejoin="round"/>
<path d="M176.174 222.547L171.722 229.221" stroke="#263238" stroke-width="1.09196" stroke-linecap="round" stroke-linejoin="round"/>
<path d="M206.255 150.756C207.945 150.756 209.314 149.386 209.314 147.697C209.314 146.008 207.945 144.639 206.255 144.639C204.566 144.639 203.197 146.008 203.197 147.697C203.197 149.386 204.566 150.756 206.255 150.756Z" stroke="#263238" stroke-width="1.09196" stroke-linecap="round" stroke-linejoin="round"/>
<path d="M95.1935 159.638H165.639C168.316 159.638 170.883 160.701 172.776 162.594C174.669 164.487 175.732 167.054 175.732 169.731V234.678H85.1075V169.724C85.1093 167.049 86.1725 164.485 88.0636 162.594C89.9547 160.703 92.5191 159.639 95.1935 159.638Z" fill="#263238" stroke="#263238" stroke-width="1.09196" stroke-miterlimit="10"/>
<path d="M89.6272 159.638H160.046C162.723 159.638 165.29 160.701 167.183 162.594C169.075 164.487 170.139 167.054 170.139 169.731V234.678H79.5139V169.724C79.5148 168.397 79.7772 167.084 80.2861 165.859C80.795 164.634 81.5404 163.521 82.4797 162.584C83.419 161.647 84.5337 160.905 85.7601 160.399C86.9865 159.894 88.3006 159.635 89.6272 159.638Z" fill="#787878" stroke="#263238" stroke-width="1.09196" stroke-miterlimit="10"/>
<path d="M109.147 107.053C109.147 107.053 100.556 104.81 101.487 96.0288C102.418 87.2477 109.147 84.2572 114.197 83.3193C119.246 82.3814 126.532 82.3882 126.532 82.3882C126.532 82.3882 125.037 79.3977 130.828 78.8336C136.618 78.2695 152.692 83.8834 159.047 95.2812C165.402 106.679 164.09 125.553 161.29 131.724C158.49 137.895 155.852 150.598 161.099 154.893C166.346 159.189 176.242 163.865 174.747 175.827C173.252 187.789 160.168 188.142 160.726 194.51C161.283 200.879 173.809 205.541 170.635 216.565C167.461 227.589 148.77 229.275 136.061 222.172C123.352 215.07 126.342 192.084 122.42 179.354C118.499 166.624 103.54 164.612 101.297 154.159C99.0539 143.706 106.734 138.459 110.458 129.692C114.183 120.924 109.147 107.053 109.147 107.053Z" fill="#263238" stroke="#263238" stroke-width="1.09196" stroke-linecap="round" stroke-linejoin="round"/>
<path d="M126.532 82.3877C126.532 82.3877 102.507 80.7701 93.909 92.6369" stroke="#263238" stroke-width="1.09196" stroke-linecap="round" stroke-linejoin="round"/>
<path d="M154.133 89.375C154.133 89.375 168.97 100.65 169.561 117.859C170.152 135.068 162.765 140.967 161.548 148.715C160.331 156.463 166.598 160.874 166.598 160.874" stroke="#263238" stroke-width="1.09196" stroke-linecap="round" stroke-linejoin="round"/>
<path d="M156.804 93.2285C156.804 93.2285 169.561 104.783 171.641 120.822C173.72 136.862 171.641 138.921 171.641 138.921" stroke="#263238" stroke-width="1.09196" stroke-linecap="round" stroke-linejoin="round"/>
<path d="M65.7918 192.458C65.7918 192.458 57.9418 204.42 56.0727 209.089C54.2037 213.758 54.394 217.496 59.2535 218.604C64.113 219.712 71.5892 213.969 73.9952 211.332C76.4011 208.695 80.9072 200.491 80.9072 200.491L65.7918 192.458Z" fill="white" stroke="#263238" stroke-width="1.09196" stroke-linecap="round" stroke-linejoin="round"/>
<path d="M116.813 151.902C116.813 151.902 97.3752 151.719 92.3458 153.398C87.3164 155.076 63.1887 192.267 63.1887 192.267L80.0101 203.298L87.296 195.257C87.296 195.257 89.3349 205.541 89.3349 208.905C89.3349 212.269 86.9018 234.732 86.9018 234.732H142.966C142.966 234.732 143.904 213.764 147.044 207.974C150.184 202.183 154.52 194.333 154.52 194.333L170.404 204.609L180.347 180.665C180.347 180.665 155.118 160.69 148.757 157.883C142.395 155.076 116.813 151.902 116.813 151.902Z" fill="#D1BBA4" stroke="#263238" stroke-width="1.09196" stroke-linecap="round" stroke-linejoin="round"/>
<path d="M87.2824 195.258C87.2824 195.258 87.962 189.243 88.8116 183.635C89.6611 178.028 93.1206 171.13 93.1206 171.13" stroke="#263238" stroke-width="1.09196" stroke-linecap="round" stroke-linejoin="round"/>
<path d="M154.561 194.326L144.883 188.814" stroke="#263238" stroke-width="1.09196" stroke-linecap="round" stroke-linejoin="round"/>
<path d="M152.644 193.993C152.644 193.993 143.999 193.13 140.601 191.832" stroke="#263238" stroke-width="1.09196" stroke-linecap="round" stroke-linejoin="round"/>
<path d="M92.3933 186.26L125.513 242.603L126.845 241.842L129.326 190.446L92.3933 186.26Z" fill="#263238" stroke="#263238" stroke-width="1.09196" stroke-linecap="round" stroke-linejoin="round"/>
<path d="M91.0612 186.26L88.397 236.513L125.513 242.603L127.987 190.446L91.0612 186.26Z" fill="#575757" stroke="#263238" stroke-width="1.09196" stroke-linecap="round" stroke-linejoin="round"/>
<path d="M104.763 202.625L112.382 203.577L111.05 235.18L97.3412 232.897L104.763 202.625Z" fill="#263238" stroke="#263238" stroke-width="1.09196" stroke-linecap="round" stroke-linejoin="round"/>
<path d="M116.813 151.903C116.813 151.903 111.825 151.855 106.251 152.025C105.582 157.501 105.425 163.028 105.782 168.534C106.53 177.505 108.399 178.817 113.449 177.322C118.499 175.826 128.768 163.117 131.759 158.631C132.669 157.306 133.476 155.914 134.172 154.465C125.608 152.997 116.813 151.903 116.813 151.903Z" fill="white" stroke="#263238" stroke-width="1.09196" stroke-linecap="round" stroke-linejoin="round"/>
<path d="M109.894 142.374C109.894 142.374 108.895 165.55 109.079 168.541C109.262 171.531 113.449 174.705 116.439 172.462C119.43 170.219 128.422 156.742 129.353 154.309C130.284 151.876 131.392 140.879 131.392 140.879C131.392 140.879 123.358 145.738 117.941 145.174C112.525 144.61 109.894 142.374 109.894 142.374Z" fill="white" stroke="#263238" stroke-width="1.09196" stroke-linecap="round" stroke-linejoin="round"/>
<path d="M59.437 204.793C56.6369 208.341 53.6464 212.827 54.5775 216.191C55.5086 219.555 60.0147 221.051 69.9037 220.86C79.7926 220.67 107.285 221.424 107.842 221.608C108.399 221.791 128.021 223.647 128.768 223.647C129.516 223.647 133.628 221.961 134.749 220.466C135.871 218.971 136.788 213.18 136.788 213.18C136.788 213.18 139.588 210.38 139.779 208.137C139.807 207.452 139.669 206.771 139.375 206.152C139.082 205.532 138.642 204.994 138.093 204.583C138.051 203.382 137.863 202.191 137.536 201.035C136.972 198.996 132.86 199.913 130.617 199.54C128.374 199.166 125.017 198.418 123.705 199.723C122.393 201.028 111.56 210.38 111.56 210.38C111.56 210.38 94.7382 209.068 84.088 205.147C73.4379 201.225 67.4569 200.471 63.1547 204.583" fill="white"/>
<path d="M59.437 204.793C56.6369 208.341 53.6464 212.827 54.5775 216.191C55.5086 219.555 60.0147 221.051 69.9037 220.86C79.7926 220.67 107.285 221.424 107.842 221.608C108.399 221.791 128.021 223.647 128.768 223.647C129.516 223.647 133.628 221.961 134.749 220.466C135.871 218.971 136.788 213.18 136.788 213.18C136.788 213.18 139.588 210.38 139.779 208.137C139.807 207.452 139.669 206.771 139.375 206.152C139.082 205.532 138.642 204.994 138.093 204.583C138.051 203.382 137.863 202.191 137.536 201.035C136.972 198.996 132.86 199.913 130.617 199.54C128.374 199.166 125.017 198.418 123.705 199.723C122.393 201.028 111.56 210.38 111.56 210.38C111.56 210.38 94.7382 209.068 84.088 205.147C73.4379 201.225 67.4569 200.471 63.1547 204.583" stroke="#263238" stroke-width="1.09196" stroke-linecap="round" stroke-linejoin="round"/>
<path d="M138.114 204.603L128.211 202.36" stroke="#263238" stroke-width="1.09196" stroke-linecap="round" stroke-linejoin="round"/>
<path d="M102.282 110.527C102.282 110.527 96.8451 107.36 95.9479 110.527C95.0508 113.694 102.282 110.527 102.282 110.527Z" fill="white" stroke="#263238" stroke-width="1.09196" stroke-linecap="round" stroke-linejoin="round"/>
<path d="M101.603 113.244C101.603 113.244 96.845 116.86 99.5636 117.091C102.282 117.322 101.603 113.244 101.603 113.244Z" fill="white" stroke="#263238" stroke-width="1.09196" stroke-linecap="round" stroke-linejoin="round"/>
<path d="M131.507 95.3359C131.507 95.3359 108.562 102.873 108.236 104.851C107.91 106.829 101.684 121.897 102.996 132.384C104.308 142.871 112.402 147.193 119.613 147.805C128.395 148.553 137.74 136.781 137.74 136.781C137.74 136.781 142.592 134.912 145.216 133.607C147.839 132.302 148.166 128.686 148.166 128.686C148.166 128.686 141.668 123.861 136.095 114.359C132.75 108.599 131.155 101.988 131.507 95.3359Z" fill="white" stroke="#263238" stroke-width="1.09196" stroke-linecap="round" stroke-linejoin="round"/>
<path d="M120.035 109.098C120.169 111.397 119.597 113.683 118.397 115.649C117.239 117.397 115.497 118.677 113.483 119.258C113.483 119.258 113.809 122.861 116.433 122.861" stroke="#263238" stroke-width="1.09196" stroke-linecap="round" stroke-linejoin="round"/>
<path d="M110.085 113.381C110.085 113.381 112.701 110.764 116.439 113.938" stroke="#263238" stroke-width="2.18392" stroke-linecap="round" stroke-linejoin="round"/>
<path d="M125.221 116.398C125.221 116.398 130.454 115.834 131.759 119.388" stroke="#263238" stroke-width="2.18392" stroke-linecap="round" stroke-linejoin="round"/>
<path d="M117.935 127.422C117.935 127.422 113.823 125.927 110.458 128.169C107.094 130.412 106.347 133.967 108.216 135.088C110.085 136.21 113.259 131.534 115.502 134.341C117.744 137.148 121.482 141.627 122.978 137.324C124.473 133.022 120.925 128.169 117.935 127.422Z" fill="#263238" stroke="#263238" stroke-width="1.09196" stroke-linecap="round" stroke-linejoin="round"/>
<path d="M115.998 134.953C118.261 137.733 121.591 141.321 122.978 137.325C123.119 136.913 123.214 136.487 123.263 136.054C120.932 135.809 118.404 135.422 115.998 134.953Z" fill="white" stroke="#263238" stroke-width="1.09196" stroke-linecap="round" stroke-linejoin="round"/>
<path d="M121.299 129.835C120.456 128.701 119.28 127.857 117.935 127.423C117.935 127.423 114.163 126.063 110.887 127.919C114.303 128.823 117.784 129.464 121.299 129.835Z" fill="white" stroke="#263238" stroke-width="1.09196" stroke-linecap="round" stroke-linejoin="round"/>
<path d="M107.223 132.914C107.168 133.333 107.231 133.76 107.407 134.144C107.582 134.529 107.863 134.856 108.216 135.089C109.167 135.653 110.452 134.729 111.784 134.049C109.928 133.621 108.331 133.206 107.223 132.914Z" fill="white" stroke="#263238" stroke-width="1.09196" stroke-linecap="round" stroke-linejoin="round"/>
<path d="M119.253 107.406C119.253 107.406 119.042 106.121 116.27 106.121C113.497 106.121 109.011 109.519 109.011 109.519" stroke="#263238" stroke-width="1.09196" stroke-linecap="round" stroke-linejoin="round"/>
<path d="M125.452 108.684C125.452 108.684 127.586 106.55 129.72 109.112C131.111 110.869 132.255 112.808 133.118 114.876" stroke="#263238" stroke-width="1.09196" stroke-linecap="round" stroke-linejoin="round"/>
<path d="M138.304 119.199C123.956 110.159 131.507 95.3359 131.507 95.3359C131.507 95.3359 117.235 107.57 108.236 104.851" stroke="#263238" stroke-width="1.09196" stroke-linecap="round" stroke-linejoin="round"/>
<path d="M134.94 128.917C134.94 128.917 132.901 131.35 132.901 132.655C132.901 133.96 137.012 139.383 138.698 137.141C140.384 134.898 138.134 133.219 137.386 130.976C136.639 128.733 134.94 128.917 134.94 128.917Z" fill="white" stroke="#263238" stroke-width="1.09196" stroke-linecap="round" stroke-linejoin="round"/>
<path d="M162.037 128.17C162.037 128.17 149.124 122.006 144.842 119.763C140.56 117.52 138.304 119.199 138.304 119.199C138.304 119.199 130.637 125.744 131.011 126.866C131.385 127.987 135.687 131.535 135.687 131.535C135.687 131.535 138.304 135.273 141.478 136.211C144.652 137.149 149.328 138.447 150.266 136.952C151.204 135.456 150.266 133.22 150.266 133.22C150.266 133.22 152.876 135.463 154.561 135.837C156.247 136.211 159.794 135.837 159.794 135.837C159.794 135.837 166.897 181.618 166.897 188.53C166.897 195.442 169.887 202.735 175.121 204.421C180.354 206.106 186.328 202.178 187.449 196.571C188.571 190.964 188.014 184.799 184.649 177.88C181.285 170.961 168.766 139.208 166.333 134.716C163.9 130.223 163.533 129.292 162.037 128.17Z" fill="white" stroke="#263238" stroke-width="1.09196" stroke-linecap="round" stroke-linejoin="round"/>
<path d="M143.163 136.767C143.163 136.767 145.59 130.229 146.528 128.733" stroke="#263238" stroke-width="1.09196" stroke-linecap="round" stroke-linejoin="round"/>
<path d="M139.051 134.715C139.051 134.715 142.225 126.294 143.32 124.806" stroke="#263238" stroke-width="1.09196" stroke-linecap="round" stroke-linejoin="round"/>
<path d="M135.687 131.534C135.687 131.534 138.114 124.996 139.425 122.753" stroke="#263238" stroke-width="1.09196" stroke-linecap="round" stroke-linejoin="round"/>
<path d="M69.7881 76.904L63.2907 74.7359L68.3473 60.3001H62.2304L64.5616 50.982C62.1924 47.5384 58.5864 45.1411 54.4941 44.2891C50.4019 43.4372 46.1388 44.1962 42.5921 46.4083C39.0455 48.6204 36.4885 52.115 35.4535 56.1648C34.4186 60.2146 34.9853 64.5075 37.0357 68.15C42.6021 79.8604 57.6767 92.502 63.5421 97.1304L69.7881 76.904Z" fill="#263238"/>
<path d="M80.6218 43.9072C76.4871 43.9053 72.5086 45.486 69.5027 48.325L66.8996 56.6915L74.1243 56.3313L67.2666 72.6021L74.4845 74.4032L67.8783 97.4502C73.4107 93.1004 89.0427 80.1395 94.7381 68.1504C96.1362 65.6797 96.8623 62.8858 96.8441 60.0471C96.826 57.2083 96.0642 54.4239 94.6347 51.9713C93.2052 49.5187 91.158 47.4836 88.6969 46.0687C86.2359 44.6538 83.447 43.9085 80.6082 43.9072H80.6218Z" fill="#263238"/>
</g>
</svg>
