<svg width="288" height="249" viewBox="0 0 288 249" fill="none" xmlns="http://www.w3.org/2000/svg">
<g opacity="0.8">
<path d="M20.9481 148.971C20.9481 148.971 25.5571 188.319 59.1945 205.188C92.8319 222.056 125.719 205.772 155.929 201.9C171.755 199.868 186.445 207.638 201.966 209.285C251.588 214.565 290.413 156.488 283.34 113.653C277.223 76.6087 253.375 50.416 209.982 31.6813C166.588 12.9467 136.743 -1.92284 86.4165 15.5168C36.09 32.9564 17.2557 98.0529 20.9481 148.971Z" fill="#D1BBA4"/>
<path opacity="0.7" d="M20.9481 148.971C20.9481 148.971 25.5571 188.319 59.1945 205.188C92.8319 222.056 125.719 205.772 155.929 201.9C171.755 199.868 186.445 207.638 201.966 209.285C251.588 214.565 290.413 156.488 283.34 113.653C277.223 76.6087 253.375 50.416 209.982 31.6813C166.588 12.9467 136.743 -1.92284 86.4165 15.5168C36.09 32.9564 17.2557 98.0529 20.9481 148.971Z" fill="white"/>
<path d="M186.518 29.7611C188.399 30.0649 190.153 30.9015 191.572 32.1718C193.903 34.2704 196.055 28.911 192.196 27.8152C191.168 27.4724 190.055 27.4771 189.029 27.8287C188.003 28.1803 187.121 28.8592 186.518 29.7611Z" fill="white" stroke="#263238" stroke-miterlimit="10"/>
<path d="M183.928 29.5162C185.233 28.1288 186.909 27.1446 188.756 26.6804C191.805 25.93 188.564 21.1417 185.496 23.7185C184.636 24.3799 184.016 25.3054 183.733 26.3528C183.45 27.4001 183.519 28.5115 183.928 29.5162Z" fill="white" stroke="#263238" stroke-miterlimit="10"/>
<path d="M148.352 41.982C147.102 43.4193 146.291 45.1848 146.014 47.0691C145.576 50.1838 140.482 47.441 142.74 44.127C143.311 43.2041 144.17 42.4944 145.184 42.1068C146.198 41.7193 147.311 41.6754 148.352 41.982Z" fill="white" stroke="#263238" stroke-miterlimit="10"/>
<path d="M150.205 40.1286C148.313 39.9015 146.395 40.2218 144.679 41.0517C141.857 42.4265 141.272 36.6752 145.284 36.6885C146.367 36.6453 147.435 36.9583 148.324 37.5796C149.212 38.2008 149.873 39.0962 150.205 40.1286Z" fill="white" stroke="#263238" stroke-miterlimit="10"/>
<path d="M189.455 58.2885C195.363 48.5565 192.263 35.8778 182.531 29.97C172.799 24.0621 160.12 27.1622 154.213 36.8942C148.305 46.6263 151.405 59.3049 161.137 65.2127C170.869 71.1206 183.548 68.0205 189.455 58.2885Z" fill="white" stroke="#263238" stroke-miterlimit="10"/>
<path d="M155.87 44.0793C155.697 44.128 155.512 44.1164 155.347 44.0464C155.182 43.9764 155.045 43.8521 154.96 43.6941C154.861 43.5072 154.839 43.2886 154.9 43.086C154.961 42.8833 155.099 42.7128 155.285 42.6116L160.419 39.8422L156.985 39.7227C156.875 39.7284 156.765 39.7111 156.662 39.672C156.559 39.6329 156.465 39.5727 156.386 39.4954C156.307 39.4181 156.245 39.3252 156.204 39.2228C156.163 39.1203 156.144 39.0105 156.148 38.9002C156.151 38.7899 156.178 38.6815 156.226 38.582C156.274 38.4825 156.341 38.3941 156.425 38.3222C156.509 38.2503 156.607 38.1966 156.712 38.1644C156.818 38.1323 156.929 38.1224 157.038 38.1355L163.414 38.3546C163.588 38.3617 163.755 38.4256 163.889 38.5364C164.023 38.6471 164.117 38.7988 164.157 38.9682C164.197 39.1375 164.18 39.3153 164.11 39.4743C164.039 39.6334 163.918 39.7649 163.766 39.8489L156.042 44.0129C155.988 44.0436 155.93 44.0659 155.87 44.0793Z" fill="#263238"/>
<path d="M183.351 36.5233C183.29 36.5413 183.228 36.5525 183.165 36.5565L174.777 36.8221C174.601 36.8278 174.429 36.7754 174.286 36.673C174.144 36.5706 174.039 36.424 173.988 36.2559C173.937 36.0878 173.944 35.9076 174.006 35.7434C174.068 35.5792 174.183 35.4401 174.332 35.3478L179.997 31.8147C180.083 31.7366 180.185 31.6783 180.296 31.644C180.408 31.6096 180.525 31.6 180.64 31.6158C180.755 31.6316 180.866 31.6724 180.964 31.7354C181.061 31.7985 181.144 31.8821 181.206 31.9805C181.268 32.079 181.308 32.1898 181.322 32.3052C181.337 32.4206 181.326 32.5378 181.291 32.6486C181.255 32.7593 181.196 32.861 181.117 32.9464C181.038 33.0318 180.941 33.0989 180.834 33.1429L177.686 35.1353L183.111 34.9626C183.304 34.9598 183.491 35.0267 183.638 35.151C183.785 35.2753 183.882 35.4485 183.911 35.6388C183.94 35.829 183.899 36.0234 183.796 36.186C183.693 36.3486 183.535 36.4684 183.351 36.5233Z" fill="#263238"/>
<path d="M155.531 47.6663C159.901 55.722 167.658 60.3177 174.79 58.3519C181.923 56.3861 186.253 48.4699 185.888 39.3184L183.131 39.5973C174.315 40.5102 165.715 42.8965 157.689 46.6568L155.531 47.6663Z" fill="#263238"/>
<path d="M183.55 49.6518C179.918 48.6469 176.08 48.654 172.451 49.6723C168.822 50.6907 165.541 52.6815 162.962 55.4296C166.588 57.7739 170.679 58.6705 174.584 57.5946C178.489 56.5188 181.631 53.59 183.55 49.6518Z" fill="#B5B5B5"/>
<path d="M46.5478 128.109C49.7049 117.171 43.3971 105.744 32.4588 102.587C21.5204 99.4296 10.0938 105.738 6.93656 116.676C3.77938 127.614 10.0872 139.041 21.0256 142.198C31.9639 145.355 43.3906 139.047 46.5478 128.109Z" fill="white" stroke="#263238" stroke-miterlimit="10"/>
<path d="M16.1932 109.875C16.0276 109.806 15.8899 109.683 15.802 109.527C15.7141 109.37 15.6812 109.189 15.7084 109.011C15.7237 108.907 15.7597 108.807 15.8144 108.717C15.869 108.626 15.9412 108.548 16.0266 108.486C16.112 108.424 16.2089 108.38 16.3117 108.356C16.4144 108.332 16.5209 108.329 16.6249 108.347L22.3827 109.27L19.7263 107.086C19.5794 106.947 19.4907 106.758 19.4779 106.556C19.4651 106.355 19.5293 106.156 19.6575 106C19.7856 105.844 19.9682 105.742 20.1684 105.716C20.3685 105.689 20.5713 105.74 20.7357 105.857L25.6635 109.915C25.8003 110.025 25.8963 110.177 25.9361 110.348C25.9758 110.519 25.957 110.699 25.8826 110.858C25.8097 111.016 25.6874 111.146 25.5341 111.229C25.3808 111.311 25.2048 111.342 25.0325 111.316L16.3991 109.915C16.3289 109.911 16.2596 109.898 16.1932 109.875Z" fill="#263238"/>
<path d="M42.6116 120.632C42.5528 120.608 42.4971 120.577 42.4456 120.539L35.6251 115.651C35.4821 115.549 35.3769 115.402 35.3259 115.234C35.2749 115.066 35.2809 114.886 35.3431 114.721C35.4052 114.557 35.52 114.418 35.6695 114.325C35.819 114.233 35.9948 114.192 36.1697 114.21L42.8108 114.874C43.0213 114.895 43.2151 114.998 43.3496 115.161C43.4842 115.324 43.5483 115.534 43.5281 115.744C43.5078 115.955 43.4048 116.149 43.2416 116.283C43.0785 116.418 42.8686 116.482 42.6581 116.462L38.959 116.103L43.3753 119.264C43.5461 119.389 43.6607 119.576 43.6942 119.785C43.7278 119.994 43.6776 120.208 43.5546 120.38C43.4477 120.52 43.297 120.622 43.1263 120.667C42.9556 120.713 42.7745 120.701 42.6116 120.632Z" fill="#263238"/>
<path d="M29.3358 131.047C26.5246 131.1 23.7502 130.401 21.3001 129.021C15.1437 125.461 13.7225 118.575 13.6627 118.282C13.6117 118.018 13.6676 117.745 13.8183 117.522C13.969 117.299 14.2021 117.145 14.4663 117.094C14.7305 117.043 15.0042 117.099 15.2271 117.249C15.4501 117.4 15.604 117.633 15.6551 117.897C15.6551 117.957 16.9833 124.213 22.3494 127.308C26.2743 129.559 31.4012 129.632 37.624 127.527C37.8741 127.439 38.1489 127.454 38.3881 127.568C38.6272 127.683 38.811 127.888 38.8991 128.138C38.9871 128.388 38.9723 128.663 38.8577 128.902C38.7431 129.141 38.5382 129.325 38.2881 129.413C35.4143 130.447 32.3895 130.999 29.3358 131.047Z" fill="#263238"/>
<path d="M151.118 186.387C159.97 177.535 159.97 163.184 151.118 154.332C142.267 145.48 127.915 145.48 119.064 154.332C110.212 163.184 110.212 177.535 119.064 186.387C127.915 195.239 142.267 195.239 151.118 186.387Z" fill="white" stroke="#263238" stroke-miterlimit="10"/>
<path d="M122.318 177.78C122.318 177.78 136.889 169.459 150.935 167.446C150.935 167.446 154.966 180.729 141.538 185.869C129.903 190.325 122.318 177.78 122.318 177.78Z" fill="#263238"/>
<path d="M125.188 171.371C124.944 171.371 124.704 171.305 124.496 171.178C124.287 171.052 124.118 170.87 124.005 170.654L120.685 164.265C120.605 164.11 120.556 163.94 120.541 163.766C120.526 163.592 120.546 163.417 120.599 163.25C120.652 163.084 120.737 162.929 120.85 162.796C120.963 162.662 121.101 162.552 121.256 162.472C121.411 162.392 121.581 162.343 121.755 162.328C121.929 162.313 122.104 162.333 122.271 162.386C122.437 162.439 122.592 162.524 122.725 162.637C122.859 162.75 122.969 162.888 123.049 163.043L126.37 169.432C126.45 169.587 126.5 169.756 126.515 169.93C126.531 170.104 126.512 170.279 126.459 170.445C126.407 170.612 126.322 170.766 126.21 170.9C126.098 171.034 125.96 171.144 125.805 171.225C125.614 171.323 125.402 171.373 125.188 171.371Z" fill="#263238"/>
<path d="M142.813 164.982C142.504 164.989 142.203 164.888 141.96 164.697C141.718 164.505 141.55 164.235 141.485 163.933L139.944 156.661C139.886 156.323 139.96 155.974 140.153 155.69C140.346 155.406 140.641 155.207 140.977 155.135C141.313 155.064 141.664 155.126 141.955 155.307C142.247 155.489 142.457 155.777 142.541 156.11L144.088 163.382C144.129 163.578 144.126 163.78 144.077 163.974C144.029 164.168 143.938 164.349 143.81 164.503C143.683 164.657 143.522 164.78 143.34 164.863C143.158 164.946 142.96 164.987 142.76 164.982H142.813Z" fill="#263238"/>
<path d="M145.104 183.218C143.882 180.203 139.612 178.975 135.441 180.482C133.329 181.191 131.531 182.617 130.361 184.513C132.061 185.402 133.933 185.912 135.848 186.009C137.764 186.105 139.678 185.785 141.458 185.071C142.736 184.586 143.959 183.965 145.104 183.218Z" fill="#B5B5B5"/>
<path d="M266.216 111.59C277.717 106.649 283.035 93.3192 278.094 81.8175C273.153 70.3159 259.823 64.9979 248.321 69.9394C236.82 74.8809 231.501 88.2106 236.443 99.7122C241.384 111.214 254.714 116.532 266.216 111.59Z" fill="white" stroke="#263238" stroke-miterlimit="10"/>
<path d="M246.707 90.6807C246.707 90.6807 258.774 100.138 271.166 91.6636" stroke="#263238" stroke-width="2" stroke-linecap="round" stroke-linejoin="round"/>
<path d="M266.624 83.8008C266.624 85.1954 266.073 86.3311 265.402 86.3311C264.731 86.3311 264.173 85.1954 264.173 83.8008C264.173 82.4061 264.725 81.2705 265.402 81.2705C266.079 81.2705 266.624 82.4061 266.624 83.8008Z" fill="#263238"/>
<path d="M254.882 83.3107C254.882 84.7054 254.338 85.841 253.66 85.841C252.983 85.841 252.438 84.7054 252.438 83.3107C252.438 81.9161 252.983 80.7871 253.66 80.7871C254.338 80.7871 254.882 81.9161 254.882 83.3107Z" fill="#263238"/>
<path d="M202.125 248.688C231.467 248.688 255.254 243.092 255.254 236.189C255.254 229.286 231.467 223.69 202.125 223.69C172.783 223.69 148.996 229.286 148.996 236.189C148.996 243.092 172.783 248.688 202.125 248.688Z" fill="#D1BBA4"/>
<path opacity="0.5" d="M202.125 248.688C231.467 248.688 255.254 243.092 255.254 236.189C255.254 229.286 231.467 223.69 202.125 223.69C172.783 223.69 148.996 229.286 148.996 236.189C148.996 243.092 172.783 248.688 202.125 248.688Z" fill="white"/>
<path d="M195.663 70.9575C195.663 70.9575 191.426 70.5723 191.014 66.7204C190.603 62.8686 200.651 58.0471 207.006 57.8545C213.362 57.6619 219.531 64.6019 219.531 70.1871C219.531 75.7723 220.494 83.6753 225.316 85.2226C230.137 86.77 233.405 96.2005 230.516 99.6738C227.627 103.147 227.82 103.14 230.709 106.222C233.597 109.303 231.094 114.703 229.168 115.858C227.242 117.014 221.457 118.747 208.547 117.592C195.637 116.436 187.959 104.681 187.348 99.8664C186.738 95.0515 191.207 91.7708 192.748 89.6523C194.288 87.5338 191.592 85.8004 191.785 83.4827C191.977 81.1649 194.866 79.2456 195.637 77.3197C196.407 75.3938 195.663 70.9575 195.663 70.9575Z" fill="#263238" stroke="#263238" stroke-linecap="round" stroke-linejoin="round"/>
<path d="M204.801 65.5127C205.784 71.0136 208.5 76.0562 212.552 79.904C219.412 86.5452 229.579 92.7414 228.915 97.3902C228.251 102.039 226.259 101.594 226.259 101.594" stroke="white" stroke-linecap="round" stroke-linejoin="round"/>
<path d="M205.466 62.4102C205.466 62.4102 201.043 65.9565 196.613 67.059C192.183 68.1614 191.061 66.7203 191.061 66.7203" stroke="white" stroke-linecap="round" stroke-linejoin="round"/>
<path d="M175.428 229.435C175.428 229.435 178.297 233.201 181.511 234.974C184.725 236.747 190.476 235.525 188.816 231.321C187.156 227.118 184.499 224.899 182.507 224.122C180.515 223.345 175.328 225.338 175.428 229.435Z" fill="#D1BBA4" stroke="#263238" stroke-linecap="round" stroke-linejoin="round"/>
<path d="M179.519 233.532V233.632C180.144 234.13 180.811 234.574 181.511 234.96C184.719 236.727 190.476 235.511 188.816 231.308C183.609 228.107 179.519 233.532 179.519 233.532Z" fill="white" stroke="#263238" stroke-linecap="round" stroke-linejoin="round"/>
<path d="M181.511 234.975C184.519 236.635 189.759 235.639 189.042 232.079C188.284 232.931 187.281 233.527 186.171 233.788C185.06 234.048 183.897 233.959 182.839 233.534C179.638 232.358 176.895 229.137 175.76 227.656C175.528 228.22 175.415 228.826 175.428 229.436C175.428 229.436 178.297 233.202 181.511 234.975Z" fill="white" stroke="#263238" stroke-linecap="round" stroke-linejoin="round"/>
<path d="M223.536 229.288C223.536 229.288 220.667 233.054 217.46 234.827C214.252 236.6 208.494 235.378 210.154 231.174C211.815 226.971 214.471 224.752 216.463 223.982C218.456 223.212 223.636 225.191 223.536 229.288Z" fill="#D1BBA4" stroke="#263238" stroke-linecap="round" stroke-linejoin="round"/>
<path d="M219.452 233.387L219.419 233.493C218.804 233.99 218.149 234.435 217.459 234.821C214.245 236.595 208.494 235.373 210.154 231.169C215.354 227.968 219.452 233.387 219.452 233.387Z" fill="white" stroke="#263238" stroke-linecap="round" stroke-linejoin="round"/>
<path d="M217.459 234.861C214.451 236.521 209.204 235.558 209.928 231.965C210.686 232.817 211.689 233.415 212.799 233.675C213.91 233.935 215.073 233.846 216.131 233.42C219.326 232.244 222.075 229.023 223.211 227.549C223.437 228.112 223.548 228.715 223.536 229.322C223.536 229.322 220.667 233.054 217.459 234.861Z" fill="white" stroke="#263238" stroke-linecap="round" stroke-linejoin="round"/>
<path d="M201.062 84.9569C201.062 84.9569 200.292 91.3192 199.734 92.6673C199.176 94.0155 192.024 94.4006 188.942 95.5562C185.861 96.7118 179.306 102.297 175.255 106.182C171.204 110.067 167.551 120.248 167.551 121.596C167.551 122.944 171.596 117.744 175.255 114.085C178.914 110.426 187.01 105.797 187.01 105.797C187.01 105.797 189.912 120.135 190.297 121.676C190.682 123.217 190.297 125.787 190.297 126.364C190.297 126.942 182.202 140.975 180.853 152.763C179.505 164.551 182.009 186.872 182.009 186.872C182.009 186.872 177.579 195.545 177.194 205.182C176.809 214.818 174.684 226.187 174.876 226.958C175.069 227.728 174.491 229.269 175.454 229.462C176.417 229.654 177.194 226.958 179.505 226.38C181.816 225.802 184.898 227.343 185.283 225.802C185.668 224.262 185.283 221.153 185.668 217.129C186.053 213.104 192.416 196.508 192.801 190.923C193.186 185.338 197.808 157.97 198.778 156.621L199.748 155.293C199.748 155.293 200.71 152.976 201.288 155.486C201.866 157.996 201.288 182.847 202.444 186.507C203.599 190.166 212.704 214.751 213.86 217.647C215.016 220.542 212.532 224.003 213.282 225.543C214.033 227.084 216.171 226.506 218.097 226.506C220.023 226.506 222.029 229.335 223.569 229.335C225.11 229.335 225.615 227.084 225.615 224.58C225.615 222.077 218.788 197.67 218.402 191.693C218.177 188.103 217.596 184.544 216.669 181.068C216.669 181.068 219.173 153.507 218.595 147.536C218.017 141.566 213.01 126.338 213.01 126.338L216.477 107.311C216.477 107.311 227.102 113.288 230.735 118.103C234.368 122.918 236.905 122.752 236.52 118.873C236.134 114.995 227.076 103.652 222.254 98.6377C217.433 93.6236 210.885 94.5932 208.972 93.2451C207.059 91.8969 208.202 78.5947 208.202 78.5947L201.062 84.9569Z" fill="white" stroke="#263238" stroke-linecap="round" stroke-linejoin="round"/>
<path d="M213.249 225.497C214.019 227.038 216.138 226.46 218.064 226.46C219.99 226.46 221.995 229.289 223.536 229.289C225.077 229.289 225.582 227.038 225.582 224.534C225.582 222.03 218.788 197.67 218.402 191.693C218.177 188.103 217.596 184.544 216.669 181.068C216.669 181.068 219.173 153.507 218.595 147.536C218.463 146.374 218.272 145.22 218.024 144.076L183.888 140.756C182.419 144.612 181.392 148.622 180.827 152.71C179.499 164.465 181.982 186.819 181.982 186.819C181.982 186.819 177.553 195.492 177.168 205.128C176.782 214.765 174.657 226.134 174.85 226.905C175.042 227.675 174.465 229.216 175.428 229.408C176.391 229.601 177.168 226.905 179.479 226.327C181.79 225.749 184.871 227.29 185.257 225.749C185.642 224.208 185.257 221.1 185.642 217.076C186.027 213.051 192.389 196.455 192.774 190.87C193.159 185.285 197.782 157.917 198.751 156.568L199.721 155.24C199.721 155.24 200.684 152.922 201.262 155.433C201.839 157.943 201.262 182.794 202.417 186.454C203.573 190.113 212.678 214.698 213.833 217.594C214.989 220.489 212.479 223.956 213.249 225.497Z" fill="#263238" stroke="#263238" stroke-linecap="round" stroke-linejoin="round"/>
<path d="M222.254 98.6376C217.439 93.6302 210.885 94.5931 208.972 93.245C207.571 92.2621 207.803 84.9236 208.036 81.0253L206.794 79.8564L201.076 84.9568C201.076 84.9568 200.305 91.3191 199.747 92.6672C199.19 94.0154 192.037 94.4005 188.956 95.5561C185.874 96.7117 179.538 102.111 175.481 105.956L179.465 110.605C183.085 108.002 187.016 105.757 187.016 105.757C187.016 105.757 189.919 120.095 190.304 121.636C190.689 123.177 190.304 125.747 190.304 126.325C190.304 126.75 185.887 134.54 183.038 143.313C188.564 145.856 199.442 148.745 218.495 146.454C217.512 139.919 213.043 126.325 213.043 126.325L216.51 107.298C216.51 107.298 219.83 109.177 223.416 111.674L228.922 106.361C226.538 103.366 224.094 100.544 222.254 98.6376Z" fill="white" stroke="#263238" stroke-linecap="round" stroke-linejoin="round"/>
<path d="M212.87 94.2478C211.124 93.9423 209.703 93.763 208.959 93.245C207.557 92.2621 207.79 84.9236 208.022 81.0253L206.794 79.8564L201.076 84.9568C201.076 84.9568 200.305 91.3191 199.747 92.6672C199.522 93.1852 198.32 93.5638 196.752 93.8958C198.034 97.7477 200.85 104.641 204.549 104.641C208.248 104.641 211.29 98.1461 212.87 94.2478Z" fill="white"/>
<path d="M207.983 81.7295C207.289 81.7926 206.603 81.9148 205.93 82.0948C204.598 82.5952 203.322 83.2364 202.125 84.0074L201.062 84.9571C201.062 84.9571 200.744 87.5471 200.398 89.7719C201.727 89.2938 205.585 87.7796 207.876 85.5946C207.87 84.2199 207.923 82.8718 207.983 81.7295Z" fill="#D1BBA4"/>
<path opacity="0.5" d="M207.983 81.7295C207.289 81.7926 206.603 81.9148 205.93 82.0948C204.598 82.5952 203.322 83.2364 202.125 84.0074L201.062 84.9571C201.062 84.9571 200.744 87.5471 200.398 89.7719C201.727 89.2938 205.585 87.7796 207.876 85.5946C207.87 84.2199 207.923 82.8718 207.983 81.7295Z" fill="white"/>
<path d="M212.87 94.2478C211.124 93.9423 209.703 93.763 208.959 93.245C207.557 92.2621 207.79 84.9236 208.022 81.0253L206.794 79.8564L201.076 84.9568C201.076 84.9568 200.305 91.3191 199.747 92.6672C199.522 93.1852 198.32 93.5638 196.752 93.8958C198.034 97.7477 200.85 104.641 204.549 104.641C208.248 104.641 211.29 98.1461 212.87 94.2478Z" stroke="#263238" stroke-linecap="round" stroke-linejoin="round"/>
<path d="M207.606 180.092C228.489 176.717 242.681 157.052 239.306 136.17C235.931 115.287 216.267 101.094 195.384 104.469C174.502 107.844 160.309 127.509 163.684 148.391C167.059 169.274 186.724 183.467 207.606 180.092Z" fill="#D1BBA4"/>
<path opacity="0.3" d="M213.03 174.161C205.059 174.168 197.285 171.681 190.799 167.048C184.313 162.415 179.439 155.869 176.861 148.326C174.282 140.784 174.129 132.624 176.422 124.99C178.715 117.356 183.339 110.63 189.646 105.757C184.259 107.344 179.288 110.1 175.087 113.828C170.886 117.556 167.56 122.165 165.344 127.326C163.128 132.486 162.078 138.072 162.268 143.686C162.458 149.299 163.884 154.801 166.443 159.8C169.003 164.799 172.634 169.172 177.077 172.608C181.52 176.043 186.666 178.457 192.149 179.676C197.631 180.895 203.315 180.89 208.796 179.661C214.276 178.432 219.418 176.01 223.855 172.567C220.342 173.617 216.696 174.154 213.03 174.161Z" fill="black"/>
<path d="M207.606 180.092C228.489 176.717 242.681 157.052 239.306 136.17C235.931 115.287 216.267 101.094 195.384 104.469C174.502 107.844 160.309 127.509 163.684 148.391C167.059 169.274 186.724 183.467 207.606 180.092Z" stroke="#263238" stroke-width="1.00285" stroke-linecap="round" stroke-linejoin="round"/>
<path d="M173.674 128.277C173.314 128.273 172.968 128.138 172.701 127.896C172.434 127.655 172.264 127.324 172.224 126.966C172.184 126.608 172.276 126.248 172.483 125.954C172.691 125.659 172.999 125.451 173.349 125.368L183.882 122.944L177.798 121.038C177.614 120.98 177.442 120.887 177.293 120.763C177.144 120.639 177.021 120.487 176.931 120.315C176.841 120.144 176.786 119.957 176.768 119.764C176.751 119.571 176.771 119.376 176.829 119.192C176.886 119.007 176.98 118.835 177.104 118.686C177.228 118.537 177.38 118.414 177.551 118.324C177.723 118.234 177.91 118.179 178.103 118.161C178.296 118.144 178.49 118.164 178.675 118.222L189.965 121.748C190.276 121.843 190.548 122.038 190.737 122.303C190.926 122.568 191.021 122.889 191.009 123.214C190.997 123.539 190.878 123.851 190.67 124.101C190.461 124.352 190.176 124.526 189.859 124.597L174.013 128.237C173.902 128.263 173.788 128.277 173.674 128.277Z" fill="#263238"/>
<path d="M226.471 128.277C226.355 128.277 226.239 128.263 226.126 128.237L211.011 124.618C210.695 124.542 210.414 124.364 210.21 124.112C210.006 123.86 209.89 123.547 209.882 123.223C209.875 122.899 209.975 122.581 210.165 122.318C210.356 122.056 210.627 121.863 210.938 121.769L222.792 118.242C223.167 118.131 223.571 118.174 223.915 118.361C224.259 118.548 224.514 118.863 224.625 119.238C224.736 119.614 224.693 120.017 224.507 120.361C224.32 120.705 224.004 120.96 223.629 121.071L217.034 123.064L226.817 125.421C227.169 125.505 227.478 125.715 227.685 126.011C227.892 126.308 227.983 126.67 227.94 127.03C227.898 127.389 227.724 127.72 227.454 127.96C227.183 128.199 226.833 128.331 226.471 128.33V128.277Z" fill="#263238"/>
<path d="M171.297 134.514C175.149 151.051 186.751 163.071 200.471 163.071C214.192 163.071 225.801 151.057 229.653 134.514L224.585 133.671C208.389 130.961 191.852 130.995 175.667 133.77L171.297 134.514Z" fill="#263238"/>
<path d="M220.362 151.846C215.328 148.526 208.408 146.44 200.711 146.44C192.887 146.44 185.834 148.592 180.787 152.052C186.1 158.029 192.967 161.642 200.478 161.642C207.989 161.642 215.016 157.923 220.362 151.846Z" fill="#B5B5B5"/>
<path d="M195.504 68.8329C194.784 70.9972 193.949 73.121 193 75.1951C191.844 77.5062 193.578 84.6322 194.926 86.7573C196.274 88.8825 198.778 88.4907 199.747 88.2981C200.717 88.1055 204.947 85.4092 206.488 83.8618L208.799 81.5507C208.799 81.5507 209.57 81.5507 210.34 80.0099C211.11 78.4692 208.029 75.0025 205.333 70.7588C202.636 66.5151 201.481 66.7144 201.481 66.7144L195.504 68.8329Z" fill="white" stroke="#263238" stroke-linecap="round" stroke-linejoin="round"/>
<path d="M197.357 73.7607C197.357 73.7607 195.364 76.6629 195.245 77.0813C195.125 77.4997 196.832 78.1306 196.832 78.1306" stroke="#263238" stroke-linecap="round" stroke-linejoin="round"/>
<path d="M200.651 73.7597C200.651 73.7597 202.497 72.8365 203.553 75.0879" stroke="#263238" stroke-linecap="round" stroke-linejoin="round"/>
<path d="M196.434 73.2282C196.311 73.0489 196.149 72.9 195.96 72.793C195.771 72.686 195.561 72.6237 195.344 72.6109C195.127 72.5981 194.91 72.6351 194.71 72.719C194.51 72.803 194.332 72.9318 194.189 73.0954" stroke="#263238" stroke-linecap="round" stroke-linejoin="round"/>
<path d="M201.574 70.4585C201.574 70.4585 203.566 69.9338 204.609 72.9688" stroke="#263238" stroke-linecap="round" stroke-linejoin="round"/>
<path d="M197.616 70.8579C197.397 70.6772 197.138 70.5523 196.861 70.4942C196.583 70.436 196.296 70.4463 196.023 70.5241C195.75 70.6019 195.501 70.7449 195.296 70.9407C195.091 71.1366 194.936 71.3794 194.846 71.6482" stroke="#263238" stroke-linecap="round" stroke-linejoin="round"/>
<path d="M195.643 79.9573C195.643 79.9573 198.014 80.8804 201.049 79.167C201.049 79.167 199.468 81.5445 197.616 81.8234C195.763 82.1024 195.643 79.9573 195.643 79.9573Z" fill="#263238"/>
<path d="M174.179 107.385C174.179 107.385 165.838 114.391 164.503 118.901C163.168 123.41 164.164 133.757 163.998 136.925C163.832 140.092 165.991 143.599 167.007 144.27C168.023 144.94 168.176 143.765 168.003 142.596C167.83 141.427 167.837 135.424 167.837 135.424C167.837 135.424 169.338 139.76 169.51 138.93C169.683 138.1 169.676 136.592 169.006 134.281C168.335 131.97 166.668 128.61 166.834 127.939C167 127.268 172.346 117.26 173.176 114.086" fill="white"/>
<path d="M174.179 107.385C174.179 107.385 165.838 114.391 164.503 118.901C163.168 123.41 164.164 133.757 163.998 136.925C163.832 140.092 165.991 143.599 167.007 144.27C168.023 144.94 168.176 143.765 168.003 142.596C167.83 141.427 167.837 135.424 167.837 135.424C167.837 135.424 169.338 139.76 169.51 138.93C169.683 138.1 169.676 136.592 169.006 134.281C168.335 131.97 166.668 128.61 166.834 127.939C167 127.268 172.346 117.26 173.176 114.086" stroke="#263238" stroke-linecap="round" stroke-linejoin="round"/>
<path d="M167.452 144.209C166.721 142.059 166.189 139.847 165.865 137.601" stroke="#263238" stroke-linecap="round" stroke-linejoin="round"/>
<path d="M166.283 143.412C165.482 141.64 164.904 139.775 164.563 137.86" stroke="#263238" stroke-linecap="round" stroke-linejoin="round"/>
<path d="M229.214 107.385C229.214 107.385 237.562 114.391 238.897 118.901C240.232 123.41 239.229 133.757 239.395 136.925C239.561 140.092 237.403 143.599 236.393 144.27C235.384 144.94 235.225 143.765 235.391 142.596C235.557 141.427 235.557 135.424 235.557 135.424C235.557 135.424 234.056 139.76 233.89 138.93C233.724 138.1 233.724 136.592 234.388 134.281C235.052 131.97 236.725 128.61 236.559 127.939C236.393 127.268 231.054 117.26 230.217 114.086" fill="white"/>
<path d="M229.214 107.385C229.214 107.385 237.562 114.391 238.897 118.901C240.232 123.41 239.229 133.757 239.395 136.925C239.561 140.092 237.403 143.599 236.393 144.27C235.384 144.94 235.225 143.765 235.391 142.596C235.557 141.427 235.557 135.424 235.557 135.424C235.557 135.424 234.056 139.76 233.89 138.93C233.724 138.1 233.724 136.592 234.388 134.281C235.052 131.97 236.725 128.61 236.559 127.939C236.393 127.268 231.054 117.26 230.217 114.086" stroke="#263238" stroke-linecap="round" stroke-linejoin="round"/>
<path d="M235.895 143.943C236.474 141.692 236.828 139.39 236.951 137.069" stroke="#263238" stroke-linecap="round" stroke-linejoin="round"/>
<path d="M237.084 143.811C237.084 143.811 238.671 139.448 238.671 137.734" stroke="#263238" stroke-linecap="round" stroke-linejoin="round"/>
<path d="M83.8464 249C113.922 249 138.304 243.265 138.304 236.19C138.304 229.114 113.922 223.379 83.8464 223.379C53.7704 223.379 29.389 229.114 29.389 236.19C29.389 243.265 53.7704 249 83.8464 249Z" fill="#D1BBA4"/>
<path opacity="0.5" d="M83.8464 249C113.922 249 138.304 243.265 138.304 236.19C138.304 229.114 113.922 223.379 83.8464 223.379C53.7704 223.379 29.389 229.114 29.389 236.19C29.389 243.265 53.7704 249 83.8464 249Z" fill="white"/>
<path d="M60.961 227.277C60.961 227.277 52.8854 231.541 51.3912 233.719C49.8969 235.897 51.8959 237.664 54.9309 237.876C57.9659 238.089 70.4579 233.892 71.5869 233.34C72.7159 232.789 71.899 229.489 71.0755 227.795C70.252 226.102 60.961 227.277 60.961 227.277Z" fill="#D1BBA4" stroke="#263238" stroke-linecap="round" stroke-linejoin="round"/>
<path d="M71.9787 230.649C68.7777 232.051 59.9384 235.83 56.8967 236.215C54.8028 236.402 52.7012 235.953 50.8666 234.926C50.6607 236.533 52.4538 237.702 54.9044 237.875C57.9394 238.087 70.4314 233.89 71.5604 233.339C72.1846 233.034 72.2178 231.898 71.9787 230.649Z" fill="white" stroke="#263238" stroke-linecap="round" stroke-linejoin="round"/>
<path d="M100.077 227.277C100.077 227.277 108.153 231.521 109.674 233.719C111.195 235.917 109.169 237.664 106.134 237.876C103.099 238.089 90.607 233.892 89.478 233.34C88.349 232.789 89.1658 229.489 89.9827 227.795C90.7996 226.102 100.077 227.277 100.077 227.277Z" fill="#D1BBA4" stroke="#263238" stroke-linecap="round" stroke-linejoin="round"/>
<path d="M89.0596 230.649C92.2606 232.051 101.093 235.83 104.142 236.215C106.236 236.402 108.337 235.953 110.172 234.926C110.378 236.533 108.585 237.702 106.134 237.875C103.099 238.087 90.607 233.89 89.478 233.339C88.8537 233.034 88.8205 231.898 89.0596 230.649Z" fill="white" stroke="#263238" stroke-linecap="round" stroke-linejoin="round"/>
<path d="M64.9589 144.176C64.9589 144.176 57.6072 175.987 56.5845 180.529C55.5617 185.072 54.8113 190.179 56.0067 193.234C57.2021 196.289 61.034 226.267 61.034 226.267L72.045 229.269C72.045 229.269 72.1845 210.009 71.8126 202.439C71.4407 194.868 71.0223 185.298 71.0223 185.298L82.7306 156.136L84.6566 158.693L93.4162 184.839L88.2627 228.671L98.7358 225.928C98.7358 225.928 107.735 198.035 109.196 192.264C110.657 186.493 111.367 182.568 110.225 179.905C109.083 177.242 101.665 147.523 101.665 147.523L64.9589 144.176Z" fill="#263238" stroke="#263238" stroke-linecap="round" stroke-linejoin="round"/>
<path d="M88.3823 164.306C88.3823 164.306 94.1402 183.884 95.9599 184.681C97.7795 185.478 101.565 184.09 98.696 186.009C95.827 187.928 96.0396 186.142 95.8337 187.935C95.6278 189.728 91.7959 221.645 91.7959 221.645" stroke="white" stroke-linecap="round" stroke-linejoin="round"/>
<path d="M71.1288 212.348L71.4077 214.719" stroke="white" stroke-linecap="round" stroke-linejoin="round"/>
<path d="M77.2917 166.404C74.8876 172.873 70.9361 182.894 69.2027 183.977C66.6127 185.597 63.3785 186.062 65.1782 186.56C66.978 187.058 68.1866 187.297 68.1866 187.297L70.6904 208.808" stroke="white" stroke-linecap="round" stroke-linejoin="round"/>
<path d="M79.2839 160.919C79.2839 160.919 79.0182 161.683 78.5667 162.911" stroke="white" stroke-linecap="round" stroke-linejoin="round"/>
<path d="M87.2002 92.422C87.2002 92.422 69.3821 89.4866 62.203 88.2049C55.0239 86.9231 48.8543 85.7012 48.8543 85.7012L45.7263 95.7227C45.7263 95.7227 59.9716 100.518 63.7238 101.64C67.4761 102.762 68.957 103.373 68.957 103.373C68.957 103.373 69.4485 127.567 67.9077 132.774C66.367 137.98 62.9003 148.453 62.9003 148.453L81.2763 158.734L84.9555 153.049L85.2477 158.422C88.9642 158.159 92.6408 157.491 96.2123 156.429C99.1146 155.525 101.902 154.289 104.52 152.743L100.396 134.626L106.021 111.256C106.021 111.256 134.366 105.625 134.538 103.798C134.711 101.972 130.64 95.2777 130.64 95.2777L92.2276 92.774L87.2002 92.422Z" fill="white" stroke="#263238" stroke-linecap="round" stroke-linejoin="round"/>
<path d="M80.9707 91.1729L80.187 102.642L89.5975 98.9563L99.5991 106.667L99.2803 91.5979L80.9707 91.1729Z" fill="white" stroke="#263238" stroke-linecap="round" stroke-linejoin="round"/>
<path d="M89 108.028L85.3075 151.953" stroke="#263238" stroke-linecap="round" stroke-linejoin="round"/>
<path d="M110.491 101.879L106.048 111.256L115.564 101.068" stroke="#263238" stroke-linecap="round" stroke-linejoin="round"/>
<path d="M65.9883 96.1338L68.9569 103.373L61.6649 93.8027" stroke="#263238" stroke-linecap="round" stroke-linejoin="round"/>
<path d="M85.261 92.0771L88.98 108.016L95.6212 92.9803L92.2209 92.7612L87.167 92.4092L85.261 92.0771Z" fill="white"/>
<path d="M85.261 92.0771L88.98 108.016L95.6212 92.9803L92.2209 92.7612L87.167 92.4092L85.261 92.0771Z" fill="#D1BBA4"/>
<path opacity="0.5" d="M85.261 92.0771L88.98 108.016L95.6212 92.9803L92.2209 92.7612L87.167 92.4092L85.261 92.0771Z" fill="white"/>
<path d="M85.261 92.0771L88.98 108.016L95.6212 92.9803L92.2209 92.7612L87.167 92.4092L85.261 92.0771Z" stroke="#263238" stroke-linecap="round" stroke-linejoin="round"/>
<path d="M141.584 100.152C141.584 100.152 141.903 102.809 140.436 103.971C138.968 105.133 132.758 107.145 131.018 106.103C129.278 105.06 126.815 99.5347 127.778 95.6563C128.74 91.7778 134.558 93.219 134.558 93.219C134.558 93.219 140.243 95.032 141.584 100.152Z" fill="white" stroke="#263238" stroke-linecap="round" stroke-linejoin="round"/>
<path d="M136.325 102.968C134.994 103.005 133.69 102.584 132.632 101.776C131.575 100.967 130.827 99.8194 130.514 98.5252C128.78 91.884 124.537 76.1644 122.949 75.0952C120.904 73.7338 119.337 73.3818 119.363 72.1266L119.496 65.8375C119.496 65.8375 120.406 64.476 121.003 65.7445C121.361 66.448 121.519 67.2355 121.462 68.0224C121.462 68.0224 122.465 65.2065 122.358 64.3299C122.252 63.4533 122.046 61.0492 122.059 60.4249C122.073 59.8006 122.903 59.2428 124.131 60.5245C125.36 61.8063 127.758 64.5623 127.293 65.8773C126.828 67.1922 125.998 73.6474 125.998 73.6474C125.998 73.6474 141.385 96.2273 141.093 98.2197C140.88 99.6674 139.645 102.782 136.325 102.968Z" fill="white" stroke="#263238" stroke-linecap="round" stroke-linejoin="round"/>
<path d="M125.911 62.7105C125.911 62.7105 124.816 62.0464 124.869 63.1223C124.962 63.9112 125.186 64.6789 125.533 65.3936L124.776 67.9172" stroke="#263238" stroke-linecap="round" stroke-linejoin="round"/>
<path d="M125.108 61.8658C125.108 61.8658 124.138 61.3278 123.846 62.6428C123.7 63.5217 123.83 64.4242 124.218 65.2262L123.634 67.617" stroke="#263238" stroke-linecap="round" stroke-linejoin="round"/>
<path d="M124.132 60.5243C124.132 60.5243 122.657 60.3384 122.717 61.5205C122.813 62.5082 122.984 63.4873 123.228 64.4492L122.677 67.5507" stroke="#263238" stroke-linecap="round" stroke-linejoin="round"/>
<path d="M133.184 70.1426C141.741 49.0696 131.595 25.0499 110.522 16.493C89.4488 7.93614 65.4291 18.0825 56.8722 39.1555C48.3154 60.2285 58.4617 84.2482 79.5347 92.8051C100.608 101.362 124.627 91.2156 133.184 70.1426Z" fill="#D1BBA4"/>
<path opacity="0.3" d="M66.6191 52.9873C67.0121 43.4552 70.703 34.3554 77.0611 27.2427C83.4192 20.13 92.0499 15.4458 101.478 13.9906C95.9419 13.1186 90.2857 13.3862 84.8562 14.7769C79.4267 16.1676 74.3383 18.6522 69.9027 22.0784C65.4671 25.5045 61.7776 29.8002 59.0604 34.7023C56.3431 39.6043 54.6553 45.0095 54.1002 50.5867C53.5452 56.1639 54.1346 61.7957 55.8324 67.1371C57.5302 72.4786 60.3007 77.4172 63.974 81.6504C67.6473 85.8835 72.1463 89.3222 77.1952 91.7557C82.244 94.1893 87.7366 95.5664 93.3364 95.8028C96.001 95.9093 98.6696 95.7603 101.306 95.3578C91.3352 93.7757 82.2934 88.5857 75.8985 80.7742C69.5035 72.9626 66.2012 63.074 66.6191 52.9873Z" fill="black"/>
<path d="M133.184 70.1426C141.741 49.0696 131.595 25.0499 110.522 16.493C89.4488 7.93614 65.4291 18.0825 56.8722 39.1555C48.3154 60.2285 58.4617 84.2482 79.5347 92.8051C100.608 101.362 124.627 91.2156 133.184 70.1426Z" stroke="#263238" stroke-linecap="round" stroke-linejoin="round"/>
<path d="M70.0792 58.3596C70.0792 58.3596 100.303 54.3749 125.314 60.6441C125.314 60.6441 122.969 85.7477 96.8563 85.1699C74.2167 84.6718 70.0792 58.3596 70.0792 58.3596Z" fill="#263238"/>
<path d="M98.1182 45.3093C97.6308 45.3132 97.1588 45.1383 96.7916 44.8177C96.4245 44.497 96.1876 44.0529 96.1259 43.5693C95.495 38.6615 91.0255 34.9359 85.7391 34.9359C81.0239 34.9359 76.8732 37.9111 75.6446 42.1614C75.5718 42.413 75.4501 42.6478 75.2865 42.8524C75.123 43.057 74.9207 43.2274 74.6913 43.3538C74.4619 43.4802 74.2098 43.5602 73.9495 43.5892C73.6892 43.6182 73.4257 43.5957 73.1741 43.5229C72.9225 43.45 72.6877 43.3284 72.4831 43.1648C72.2785 43.0012 72.1081 42.799 71.9817 42.5696C71.8553 42.3402 71.7753 42.0881 71.7463 41.8278C71.7173 41.5674 71.7398 41.304 71.8126 41.0523C73.5393 35.1085 79.264 30.9512 85.759 30.9512C93.0643 30.9512 99.2074 36.1445 100.097 43.0381C100.131 43.298 100.113 43.562 100.044 43.8149C99.9753 44.0679 99.8574 44.3048 99.697 44.5121C99.5366 44.7194 99.3368 44.893 99.1092 45.0229C98.8816 45.1529 98.6306 45.2367 98.3706 45.2695L98.1182 45.3093Z" fill="#263238"/>
<path d="M127.1 50.0388C126.582 50.039 126.084 49.8373 125.712 49.4765C125.34 49.1157 125.123 48.6242 125.108 48.1062C124.988 43.7297 121.382 40.077 116.72 39.6122C114.755 39.3766 112.766 39.7812 111.049 40.7659C109.333 41.7506 107.979 43.2627 107.19 45.0778C107.092 45.3207 106.948 45.542 106.765 45.729C106.581 45.916 106.363 46.0651 106.122 46.1678C105.882 46.2705 105.623 46.3247 105.361 46.3274C105.099 46.3301 104.84 46.2813 104.597 46.1836C104.354 46.0859 104.132 45.9413 103.945 45.7581C103.758 45.575 103.609 45.3567 103.507 45.1159C103.404 44.8751 103.35 44.6164 103.347 44.3546C103.344 44.0928 103.393 43.8331 103.491 43.5902C105.609 38.3171 111.208 35.0563 117.119 35.6208C123.76 36.285 128.913 41.5979 129.073 47.9667C129.087 48.4941 128.891 49.0055 128.529 49.389C128.167 49.7724 127.667 49.9966 127.14 50.0122L127.1 50.0388Z" fill="#263238"/>
<path d="M74.0176 59.1294C74.2567 60.119 76.083 65.578 86.7553 66.0163C98.4968 66.5011 110.218 67.4242 116.328 67.2383C119.981 67.132 121.728 63.9907 122.544 61.4738C104.055 57.25 83.2687 58.3259 74.0176 59.1294Z" fill="white"/>
<path d="M104.673 83.1576C104.673 77.2536 98.344 72.2595 90.3015 71.9274C86.2669 71.6905 82.2755 72.8645 79.0116 75.248C81.2586 77.9118 84.057 80.0562 87.2136 81.533C90.3702 83.0098 93.8097 83.7839 97.2947 83.8018C99.7704 83.8605 102.245 83.6444 104.673 83.1576Z" fill="#B5B5B5"/>
<path d="M59.7788 227.43L72.935 231.561L73.0412 226.135L59.2476 223.286L59.7788 227.43Z" fill="white" stroke="#263238" stroke-linecap="round" stroke-linejoin="round"/>
<path d="M86.8016 228.234L88.4221 233.035L101.379 227.769L100.403 223.286L86.8016 228.234Z" fill="white" stroke="#263238" stroke-linecap="round" stroke-linejoin="round"/>
<path d="M38.5074 89.4189C38.5074 89.4189 37.6241 91.9359 38.8129 93.4035C40.0016 94.8712 45.6333 98.1453 47.5593 97.5011C49.4852 96.8569 53.0648 91.9823 52.9585 87.991C52.8522 83.9997 46.8553 84.1591 46.8553 84.1591C46.8553 84.1591 40.9115 84.7103 38.5074 89.4189Z" fill="white" stroke="#263238" stroke-linecap="round" stroke-linejoin="round"/>
<path d="M41.6818 92.9258C42.9758 93.252 44.3427 93.1224 45.5524 92.5587C46.762 91.995 47.7404 91.0317 48.3229 89.831C51.4376 83.6813 58.9089 69.2435 60.7087 68.5462C62.9999 67.6563 64.607 67.6496 64.8461 66.4144C65.0852 65.1791 66.0614 60.2448 66.0614 60.2448C66.0614 60.2448 65.4637 58.7173 64.607 59.833C64.1069 60.442 63.7852 61.1776 63.6773 61.9582C63.6773 61.9582 63.2987 58.9962 63.5909 58.1594C63.8831 57.3226 64.5937 55.0248 64.7133 54.4072C64.8328 53.7896 64.1421 53.079 62.6678 54.0685C61.1935 55.058 58.2581 57.2363 58.4374 58.6177C58.6167 59.999 58.0389 66.4874 58.0389 66.4874C58.0389 66.4874 38.1952 85.2619 38.0491 87.2875C37.9296 88.7552 38.4741 92.0359 41.6818 92.9258Z" fill="white" stroke="#263238" stroke-linecap="round" stroke-linejoin="round"/>
<path d="M62.6811 54.0684C62.6811 54.0684 61.1204 57.8405 61.1736 58.7172C61.2267 59.5938 61.1271 61.4599 61.1271 61.4599" stroke="#263238" stroke-linecap="round" stroke-linejoin="round"/>
<path d="M60.5758 55.6104C60.2228 56.6521 59.9431 57.7173 59.739 58.7981C59.739 59.5153 59.6593 61.4546 59.6593 61.4546" stroke="#263238" stroke-linecap="round" stroke-linejoin="round"/>
</g>
</svg>
