<svg width="12" height="12" viewBox="0 0 12 12" fill="none" xmlns="http://www.w3.org/2000/svg">
<path fill-rule="evenodd" clip-rule="evenodd" d="M3.6 0C3.93137 0 4.2 0.268629 4.2 0.6V2.4C4.2 2.87739 4.01036 3.33523 3.67279 3.67279C3.33523 4.01036 2.87739 4.2 2.4 4.2H0.6C0.268629 4.2 0 3.93137 0 3.6C0 3.26863 0.268629 3 0.6 3H2.4C2.55913 3 2.71174 2.93679 2.82426 2.82426C2.93679 2.71174 3 2.55913 3 2.4V0.6C3 0.268629 3.26863 0 3.6 0ZM8.4 0C8.73137 0 9 0.268629 9 0.6V2.4C9 2.55913 9.06321 2.71174 9.17574 2.82426C9.28826 2.93679 9.44087 3 9.6 3H11.4C11.7314 3 12 3.26863 12 3.6C12 3.93137 11.7314 4.2 11.4 4.2H9.6C9.12261 4.2 8.66477 4.01036 8.32721 3.67279C7.98964 3.33523 7.8 2.87739 7.8 2.4V0.6C7.8 0.268629 8.06863 0 8.4 0ZM0 8.4C0 8.06863 0.268629 7.8 0.6 7.8H2.4C2.87739 7.8 3.33523 7.98964 3.67279 8.32721C4.01036 8.66477 4.2 9.12261 4.2 9.6V11.4C4.2 11.7314 3.93137 12 3.6 12C3.26863 12 3 11.7314 3 11.4V9.6C3 9.44087 2.93679 9.28826 2.82426 9.17574C2.71174 9.06321 2.55913 9 2.4 9H0.6C0.268629 9 0 8.73137 0 8.4ZM9.6 9C9.44087 9 9.28826 9.06321 9.17574 9.17574C9.06321 9.28826 9 9.44087 9 9.6V11.4C9 11.7314 8.73137 12 8.4 12C8.06863 12 7.8 11.7314 7.8 11.4V9.6C7.8 9.12261 7.98964 8.66477 8.32721 8.32721C8.66477 7.98964 9.12261 7.8 9.6 7.8H11.4C11.7314 7.8 12 8.06863 12 8.4C12 8.73137 11.7314 9 11.4 9H9.6Z" fill="#94633E"/>
</svg>
