<svg width="241" height="207" viewBox="0 0 241 207" fill="none" xmlns="http://www.w3.org/2000/svg">
<g opacity="0.8">
<path opacity="0.75" d="M208.629 15.8713C208.629 15.8713 186.179 -5.13046 153.566 1.18384C120.953 7.49813 105.003 33.0366 84.9586 49.9506C74.4667 58.8085 60.0306 61.3223 47.9646 67.864C9.38454 88.764 9.41446 141.858 35.33 163.71C57.7622 182.629 87.7836 186.555 128.375 176.62C168.966 166.684 197.862 161.058 225.932 126.38C254.002 91.7027 236.047 44.1689 208.629 15.8713Z" fill="white"/>
<path d="M220.126 69.1031C217.044 67.4212 215.637 68.8277 214.518 67.4212C213.399 66.0147 217.601 62.3758 209.185 58.7249C209.185 58.7249 208.629 50.8724 197.125 50.5911C185.622 50.3098 188.71 58.4555 185.64 60.4127C182.57 62.3698 181.708 59.2875 178.625 61.2506C175.543 63.2137 176.944 67.1399 174.436 67.7025C171.928 68.2651 168.547 65.1768 165.458 67.1399C162.37 69.1031 162.376 70.7909 160.969 70.7909C159.563 70.7909 156.78 69.6657 155.08 70.7909C153.38 71.9161 151.435 73.3106 151.435 73.3106H222.371C222.371 73.3106 223.215 70.7909 220.126 69.1031Z" fill="#D1BBA4"/>
<g opacity="0.5">
<path opacity="0.5" d="M220.126 69.1031C217.044 67.4212 215.637 68.8277 214.518 67.4212C213.399 66.0147 217.601 62.3758 209.185 58.7249C209.185 58.7249 208.629 50.8724 197.125 50.5911C185.622 50.3098 188.71 58.4555 185.64 60.4127C182.57 62.3698 181.708 59.2875 178.625 61.2506C175.543 63.2137 176.944 67.1399 174.436 67.7025C171.928 68.2651 168.547 65.1768 165.458 67.1399C162.37 69.1031 162.376 70.7909 160.969 70.7909C159.563 70.7909 156.78 69.6657 155.08 70.7909C153.38 71.9161 151.435 73.3106 151.435 73.3106H222.371C222.371 73.3106 223.215 70.7909 220.126 69.1031Z" fill="white"/>
</g>
<path d="M173.903 153.499C168.917 150.776 166.649 153.044 164.842 150.776C163.034 148.508 169.821 142.618 156.229 136.729C156.229 136.729 155.319 124.04 136.741 123.562C118.164 123.083 123.143 136.25 118.158 139.422C113.172 142.594 111.813 137.627 106.834 140.787C101.854 143.947 104.111 150.327 100.053 151.225C95.9948 152.123 90.5364 147.149 85.5508 150.321C80.5652 153.493 80.5652 156.21 78.2968 156.21C76.0284 156.21 71.4977 154.415 68.7805 156.21C66.0632 158.006 62.8911 160.292 62.8911 160.292H177.53C177.53 160.292 178.889 156.216 173.903 153.499Z" fill="#D1BBA4"/>
<g opacity="0.5">
<path opacity="0.5" d="M173.903 153.499C168.917 150.776 166.649 153.044 164.842 150.776C163.034 148.508 169.821 142.618 156.229 136.729C156.229 136.729 155.319 124.04 136.741 123.562C118.164 123.083 123.143 136.25 118.158 139.422C113.172 142.594 111.813 137.627 106.834 140.787C101.854 143.947 104.111 150.327 100.053 151.225C95.9948 152.123 90.5364 147.149 85.5508 150.321C80.5652 153.493 80.5652 156.21 78.2968 156.21C76.0284 156.21 71.4977 154.415 68.7805 156.21C66.0632 158.006 62.8911 160.292 62.8911 160.292H177.53C177.53 160.292 178.889 156.216 173.903 153.499Z" fill="white"/>
</g>
<path d="M63.418 100.74C61.7122 99.8066 60.9342 100.585 60.3117 99.8066C59.6893 99.0286 62.0175 97.0116 57.3611 95.0185C57.3611 95.0185 57.0498 90.6674 50.6817 90.5117C44.3135 90.3561 46.0253 94.8629 44.3195 95.9462C42.6137 97.0295 42.1409 95.3477 40.4352 96.4131C38.7294 97.4784 39.5015 99.675 38.1069 100.004C36.7124 100.333 34.8451 98.6096 33.1393 99.6929C31.4335 100.776 31.4276 101.668 30.6256 101.668C29.8235 101.668 28.2973 101.069 27.3696 101.668C26.442 102.267 25.3467 103.069 25.3467 103.069H64.639C64.639 103.069 65.1238 101.668 63.418 100.74Z" fill="#D1BBA4"/>
<g opacity="0.5">
<path opacity="0.5" d="M63.418 100.74C61.7122 99.8066 60.9342 100.585 60.3117 99.8066C59.6893 99.0286 62.0175 97.0116 57.3611 95.0185C57.3611 95.0185 57.0498 90.6674 50.6817 90.5117C44.3135 90.3561 46.0253 94.8629 44.3195 95.9462C42.6137 97.0295 42.1409 95.3477 40.4352 96.4131C38.7294 97.4784 39.5015 99.675 38.1069 100.004C36.7124 100.333 34.8451 98.6096 33.1393 99.6929C31.4335 100.776 31.4276 101.668 30.6256 101.668C29.8235 101.668 28.2973 101.069 27.3696 101.668C26.442 102.267 25.3467 103.069 25.3467 103.069H64.639C64.639 103.069 65.1238 101.668 63.418 100.74Z" fill="white"/>
</g>
<path d="M72.5872 192.037C72.5872 192.037 77.0162 182.891 73.7842 176.822C70.5522 170.754 66.5003 176.415 60.8384 169.132C55.1765 161.848 55.1765 153.762 50.3166 152.972C45.4566 152.182 42.6317 154.169 38.9927 152.972C35.3538 151.775 39.8007 141.241 32.1098 138.811C24.419 136.381 19.5411 142.456 14.3101 136.788C9.07911 131.12 1.36429 128.696 0.957307 131.533C0.550319 134.37 7.02622 133.957 9.45617 138.003C11.8861 142.049 19.164 149.333 19.164 157.018C19.164 164.703 26.0409 161.064 30.9008 163.087C35.7608 165.11 35.3478 169.563 35.7548 175.655C36.1618 181.748 46.6776 175.655 48.3235 178.486C49.9694 181.317 46.3005 182.131 47.5155 188.601C48.7305 195.071 60.6229 195.388 60.6229 195.388" fill="#263238"/>
<path d="M72.5872 192.037C72.5872 192.037 77.0162 182.891 73.7842 176.822C70.5522 170.754 66.5003 176.415 60.8384 169.132C55.1765 161.848 55.1765 153.762 50.3166 152.972C45.4566 152.182 42.6317 154.169 38.9927 152.972C35.3538 151.775 39.8007 141.241 32.1098 138.811C24.419 136.381 19.5411 142.456 14.3101 136.788C9.07911 131.12 1.36429 128.696 0.957307 131.533C0.550319 134.37 7.02622 133.957 9.45617 138.003C11.8861 142.049 19.164 149.333 19.164 157.018C19.164 164.703 26.0409 161.064 30.9008 163.087C35.7608 165.11 35.3478 169.563 35.7548 175.655C36.1618 181.748 46.6776 175.655 48.3235 178.486C49.9694 181.317 46.3005 182.131 47.5155 188.601C48.7305 195.071 60.6229 195.388 60.6229 195.388" stroke="#263238" stroke-linecap="round" stroke-linejoin="round"/>
<path d="M64.8783 193.407C64.8783 193.407 56.3615 173.585 43.8406 161.04C31.3197 148.495 22.8029 147.687 17.542 143.24" stroke="white" stroke-linecap="round" stroke-linejoin="round"/>
<path d="M24.8379 155.803L34.5817 153.666L30.5417 144.401" stroke="white" stroke-linecap="round" stroke-linejoin="round"/>
<path d="M41.9492 169.587L50.4601 169.036L49.7897 161.746" stroke="white" stroke-linecap="round" stroke-linejoin="round"/>
<path d="M55.0146 185.985L61.9095 187.171L63.0946 177.193" stroke="white" stroke-linecap="round" stroke-linejoin="round"/>
<path d="M39.0048 128.75C39.0048 128.75 35.725 129.187 32.2177 120.868C29.3329 114.015 33.2711 108.503 34.7554 106.761C34.8131 106.694 34.8862 106.642 34.9684 106.609C35.0506 106.576 35.1396 106.563 35.2277 106.572C35.3158 106.581 35.4004 106.611 35.4745 106.659C35.5486 106.708 35.6099 106.773 35.6532 106.851C36.7963 108.904 40.1779 115.26 40.543 118.893C40.9799 123.274 39.0048 128.75 39.0048 128.75Z" fill="#D1BBA4"/>
<path d="M72.0845 157.443C72.0845 157.443 70.1094 155.695 69.6905 151.972C69.2715 148.249 72.3179 141.019 74.0716 142.115C75.8252 143.21 76.4656 151.314 75.8252 154.157C75.1848 157 72.0845 157.443 72.0845 157.443Z" fill="#D1BBA4"/>
<path d="M82.6001 170.15C82.6001 170.15 80.6251 168.396 80.2061 164.673C79.7871 160.951 82.8336 153.721 84.5872 154.816C86.3409 155.911 86.9813 164.015 86.3408 166.864C85.7004 169.713 82.6001 170.15 82.6001 170.15Z" fill="#D1BBA4"/>
<path d="M88.1247 178.786C88.1247 178.786 87.2688 176.29 88.7232 172.831C90.1776 169.371 96.3961 164.589 97.3836 166.402C98.3712 168.216 94.9896 175.596 92.9906 177.774C90.9915 179.953 88.1247 178.786 88.1247 178.786Z" fill="#D1BBA4"/>
<path d="M73.7184 166.188C73.7184 166.188 71.8571 168.055 68.1164 168.288C64.3757 168.522 57.3432 165.05 58.5402 163.363C59.7372 161.675 67.859 161.471 70.666 162.285C73.473 163.099 73.7184 166.188 73.7184 166.188Z" fill="#D1BBA4"/>
<path d="M82.6003 179.791C82.6003 179.791 80.7389 181.658 76.9982 181.886C73.2575 182.113 66.225 178.654 67.422 176.966C68.619 175.278 76.7408 175.075 79.5479 175.889C82.3549 176.703 82.6003 179.791 82.6003 179.791Z" fill="#D1BBA4"/>
<path d="M58.7198 142.767C58.7198 142.767 56.5293 142.767 55.2185 137.513C53.9078 132.258 56.5293 126.56 57.846 127.655C59.1627 128.75 61.7902 135.543 61.3533 138.829C60.9163 142.115 58.7198 142.767 58.7198 142.767Z" fill="#D1BBA4"/>
<path d="M45.7976 141.457C45.5681 140.368 45.0662 139.354 44.3387 138.512C43.6113 137.669 42.682 137.025 41.6379 136.639C37.9092 135.101 31.1221 137.076 31.1221 137.95C31.1221 138.823 33.971 141.457 39.0045 142.552C44.038 143.647 45.7976 141.457 45.7976 141.457Z" fill="#D1BBA4"/>
<path d="M61.5684 155.253C61.5684 155.253 61.353 153.505 56.9719 151.063C52.5908 148.621 47.7368 150.051 47.9942 150.997C48.2515 151.943 52.6147 154.127 56.3374 155.666C60.0602 157.204 61.5684 155.253 61.5684 155.253Z" fill="#D1BBA4"/>
<path d="M45.1392 133.131C45.1392 133.131 43.1701 131.377 42.7452 127.655C42.3202 123.932 45.3727 116.702 47.1263 117.797C48.8799 118.893 49.5203 126.996 48.8739 129.845C48.2276 132.694 45.1392 133.131 45.1392 133.131Z" fill="#D1BBA4"/>
<path d="M87.4422 188.817C87.4422 188.817 89.6806 183.221 78.4645 168.306C67.2484 153.391 39.3039 138.47 35.9702 120.568" stroke="#263238" stroke-linecap="round" stroke-linejoin="round"/>
<path d="M50.8373 142.33L38.1309 139.481" stroke="#263238" stroke-linecap="round" stroke-linejoin="round"/>
<path d="M59.3781 150.219L57.6245 135.98" stroke="#263238" stroke-linecap="round" stroke-linejoin="round"/>
<path d="M68.14 157.664L54.7812 153.067" stroke="#263238" stroke-linecap="round" stroke-linejoin="round"/>
<path d="M44.9238 136.417L45.5762 125.901" stroke="#263238" stroke-linecap="round" stroke-linejoin="round"/>
<path d="M71.8628 160.729L72.5212 150.219" stroke="#263238" stroke-linecap="round" stroke-linejoin="round"/>
<path d="M82.3784 173.435L83.0368 162.919" stroke="#263238" stroke-linecap="round" stroke-linejoin="round"/>
<path d="M86.3228 181.539L92.0625 172.705" stroke="#263238" stroke-linecap="round" stroke-linejoin="round"/>
<path d="M76.9981 166.606L66.5361 165.361" stroke="#263238" stroke-linecap="round" stroke-linejoin="round"/>
<path d="M85.8682 180.192L75.4062 178.947" stroke="#263238" stroke-linecap="round" stroke-linejoin="round"/>
<path d="M202.464 193.222C202.464 193.222 209.084 188.051 208.898 182.365C208.713 176.679 203.637 179.409 202.093 171.939C200.549 164.47 203.5 158.467 200.19 156.091C196.88 153.715 194.043 154.187 191.811 151.961C189.578 149.734 196.688 143.552 191.87 138.943C187.052 134.335 181.235 137.07 179.397 130.947C177.56 124.824 172.742 120.222 171.407 122.179C170.073 124.136 175.028 126.189 175.352 130.079C175.675 133.97 178.428 142.05 175.621 147.729C172.814 153.409 179.248 153.242 182.115 156.516C184.982 159.789 183.054 162.944 181.139 167.594C179.224 172.244 189.231 171.574 189.393 174.267C189.554 176.961 186.562 176.231 185.101 181.479C183.641 186.728 192.349 191.325 192.349 191.325" fill="#263238"/>
<path d="M202.464 193.222C202.464 193.222 209.084 188.051 208.898 182.365C208.713 176.679 203.637 179.409 202.093 171.939C200.549 164.47 203.5 158.467 200.19 156.091C196.88 153.715 194.043 154.187 191.811 151.961C189.578 149.734 196.688 143.552 191.87 138.943C187.052 134.335 181.235 137.07 179.397 130.947C177.56 124.824 172.742 120.222 171.407 122.179C170.073 124.136 175.028 126.189 175.352 130.079C175.675 133.97 178.428 142.05 175.621 147.729C172.814 153.409 179.248 153.242 182.115 156.516C184.982 159.789 183.054 162.944 181.139 167.594C179.224 172.244 189.231 171.574 189.393 174.267C189.554 176.961 186.562 176.231 185.101 181.479C183.641 186.728 192.349 191.325 192.349 191.325" stroke="#263238" stroke-linecap="round" stroke-linejoin="round"/>
<path d="M196.24 191.426C196.24 191.426 197.167 173.62 192.433 159.735C187.699 145.849 181.696 142.157 179.416 136.932" stroke="white" stroke-linecap="round" stroke-linejoin="round"/>
<path d="M180.248 148.92L188.256 150.883L188.639 142.534" stroke="white" stroke-linecap="round" stroke-linejoin="round"/>
<path d="M187.914 165.385L194.432 168.085L196.592 162.429" stroke="white" stroke-linecap="round" stroke-linejoin="round"/>
<path d="M191.631 182.323L196.311 185.717L200.83 178.744" stroke="white" stroke-linecap="round" stroke-linejoin="round"/>
<path d="M211.161 137.422C209.072 134.968 209.533 132.006 210.454 128.481C211.209 125.572 214.77 121.035 218.618 120.532C219.265 120.449 219.277 120.532 219.217 121.017C218.989 124.094 218.247 128.714 216.894 131.246C215.284 134.292 213.507 135.292 211.161 137.422Z" fill="#D1BBA4"/>
<path d="M221.12 170.126C220.635 168.492 221.156 166.78 221.718 165.284C222.281 163.787 227.23 157.946 228.751 160.16C230.271 162.375 226.494 167.642 225.16 169.168C223.825 170.694 222.652 170.377 221.12 170.126Z" fill="#D1BBA4"/>
<path d="M223.167 183.544C222.73 181.886 223.268 180.108 223.855 178.606C224.441 177.104 229.391 171.424 230.881 173.662C232.372 175.901 228.589 181.168 227.254 182.682C225.92 184.196 224.693 183.861 223.167 183.544Z" fill="#D1BBA4"/>
<path d="M223.161 192.085C223.627 190.415 225.004 189.164 226.273 188.153C227.542 187.141 234.652 184.777 234.826 187.458C234.999 190.14 229.074 192.749 227.153 193.384C225.231 194.018 224.34 193.12 223.161 192.085Z" fill="#D1BBA4"/>
<path d="M218.63 176.961C216.942 177.362 215.248 176.733 213.758 176.105C212.268 175.476 206.923 170.275 209.179 168.923C211.436 167.57 216.463 171.574 217.96 172.897C219.456 174.219 218.971 175.494 218.63 176.961Z" fill="#D1BBA4"/>
<path d="M218.887 190.325C217.199 190.66 215.506 190.002 214.051 189.302C212.597 188.602 207.366 183.221 209.688 181.91C212.01 180.599 216.936 184.759 218.337 186.196C219.737 187.632 219.3 188.829 218.887 190.325Z" fill="#D1BBA4"/>
<path d="M217.906 155.133C216.422 154.6 217.595 151.231 217.876 150.13C218.157 149.028 222.634 142.397 223.957 144.743C225.28 147.089 222.688 152.129 221.563 153.619C220.438 155.109 219.39 155.666 217.906 155.133Z" fill="#D1BBA4"/>
<path d="M209.742 149.075C210.562 147.399 210.131 145.484 209.179 143.934C208.228 142.384 203.326 138.547 201.734 140.056C200.142 141.564 203.607 145.442 204.679 146.639C205.75 147.836 207.899 149.596 209.742 149.075Z" fill="#D1BBA4"/>
<path d="M214.44 164.566C215.069 163.111 213.5 161.07 212.992 159.939C212.483 158.808 208.012 154.397 207.007 156.157C206.001 157.916 209.628 161.382 210.508 162.704C211.388 164.027 212.956 164.931 214.44 164.566Z" fill="#D1BBA4"/>
<path d="M213.267 143.228C212.92 141.546 213.555 139.84 214.243 138.374C214.931 136.908 220.228 131.647 221.605 133.957C222.981 136.267 218.822 141.205 217.415 142.618C216.009 144.03 214.77 143.611 213.267 143.228Z" fill="#D1BBA4"/>
<path d="M218.133 199.285C221.82 190.906 222.281 190.768 220.827 179.055C219.372 167.342 206.325 144.988 213.106 130.929" stroke="#263238" stroke-linecap="round" stroke-linejoin="round"/>
<path d="M212.716 151.763C210.215 149.327 207.857 146.765 205.504 144.191" stroke="#263238" stroke-linecap="round" stroke-linejoin="round"/>
<path d="M215.057 160.334C216.738 156.929 218.528 153.583 220.24 150.195" stroke="#263238" stroke-linecap="round" stroke-linejoin="round"/>
<path d="M218.211 168.665C215.727 165.84 213.064 163.183 210.586 160.346" stroke="#263238" stroke-linecap="round" stroke-linejoin="round"/>
<path d="M211.562 145.329L216.99 138.536" stroke="#263238" stroke-linecap="round" stroke-linejoin="round"/>
<path d="M219.587 172.328C221.215 169.934 222.861 167.57 224.477 165.176" stroke="#263238" stroke-linecap="round" stroke-linejoin="round"/>
<path d="M221.551 185.777C223.269 183.383 224.926 180.989 226.584 178.595" stroke="#263238" stroke-linecap="round" stroke-linejoin="round"/>
<path d="M220.671 193.204C223.336 192.007 225.996 190.78 228.649 189.523" stroke="#263238" stroke-linecap="round" stroke-linejoin="round"/>
<path d="M220.76 178.63C218.482 176.863 216.178 175.123 213.848 173.411" stroke="#263238" stroke-linecap="round" stroke-linejoin="round"/>
<path d="M220.952 192.055C218.722 190.211 216.479 188.382 214.225 186.566" stroke="#263238" stroke-linecap="round" stroke-linejoin="round"/>
<path d="M168.17 189.08C168.17 191.444 154.691 193.366 138.064 193.366C121.438 193.366 107.965 191.444 107.965 189.08C107.965 186.716 121.444 184.795 138.064 184.795C154.685 184.795 168.17 186.716 168.17 189.08Z" fill="#D1BBA4"/>
<path opacity="0.5" d="M168.17 189.08C168.17 191.444 154.691 193.366 138.064 193.366C121.438 193.366 107.965 191.444 107.965 189.08C107.965 186.716 121.444 184.795 138.064 184.795C154.685 184.795 168.17 186.716 168.17 189.08Z" fill="white"/>
<path d="M144.223 54.4214C147.378 53.7511 149.682 52.7336 149.371 49.8428C149.059 46.952 145.546 45.0248 145.181 43.5465C144.816 42.0681 147.24 39.8477 146.713 37.0227C146.187 34.1977 143.374 31.0376 140.549 31.5403C140.549 31.5403 140.082 32.474 139.621 30.469C139.16 28.464 137.652 25.9801 134.875 26.9437C131.96 27.9552 131.96 29.649 131.104 29.9363C128.734 30.9411 126.419 32.0699 124.167 33.3179C121.923 34.5568 121.558 38.4412 121.223 39.7998C120.887 41.1584 119.816 41.4816 118.23 41.2123C116.644 40.9429 114.986 40.6497 114.639 42.2058C114.292 43.7619 114.112 45.2582 113.011 45.1684C111.91 45.0786 110.677 43.4447 109.827 44.8213C108.977 46.1979 107.313 48.8433 105.53 48.0293C103.746 47.2153 101.681 43.9175 98.8144 45.2462C95.9475 46.5749 95.4029 50.3336 96.5161 50.9261C97.6293 51.5186 98.18 52.4344 97.9106 53.398C97.6413 54.3616 94.2537 53.4758 93.1884 55.5227C92.123 57.5696 94.6428 59.419 94.6547 60.5322C94.6667 61.6455 94.0562 62.6629 92.0572 63.2255C90.0582 63.7881 88.6517 65.3742 89.9863 66.4156C91.321 67.457 91.1415 66.2061 91.4706 65.458C91.7998 64.7098 92.8412 64.5782 94.0502 65.1886C95.2592 65.7991 95.9894 64.5123 95.9894 64.5123C95.9894 64.5123 95.8158 66.1044 97.1864 66.5413C98.557 66.9782 98.7785 68.4386 97.1864 68.8695C95.5944 69.3004 94.4931 71.5448 95.6842 72.8675C96.8752 74.1903 98.7605 75.0162 101.945 74.1484C105.129 73.2805 111.994 68.1632 116.411 70.7728C120.828 73.3823 128.734 73.3104 132.618 71.9698C136.503 70.6291 137.508 66.5293 140.567 65.847C143.625 65.1647 142.811 63.3991 142.296 61.6574C141.782 59.9158 141.069 55.0917 144.223 54.4214ZM146.444 51.5605C146.885 51.1014 147.165 50.511 147.24 49.8787C147.399 49.97 147.537 50.0923 147.648 50.2383C147.758 50.3844 147.838 50.5512 147.883 50.7288C147.928 50.9064 147.936 51.0911 147.908 51.2721C147.88 51.453 147.815 51.6264 147.719 51.782C147.09 53.0927 145.45 52.6079 145.45 52.6079L146.444 51.5605ZM101.31 48.9271C100.622 48.8074 99.1795 51.3211 98.8024 50.5191C98.4254 49.7171 99.2872 46.551 100.831 46.4133C102.376 46.2757 103.997 49.1904 103.997 49.1904C103.794 50.3695 101.998 49.0468 101.31 48.9271ZM134.563 29.8944C134.301 29.8209 134.026 29.8042 133.757 29.8455C133.487 29.8868 133.23 29.9851 133.001 30.1338C133.016 29.8746 133.083 29.6211 133.2 29.3893C133.317 29.1575 133.481 28.9525 133.681 28.7872C133.881 28.6219 134.114 28.4998 134.363 28.4287C134.613 28.3576 134.875 28.3391 135.132 28.3742C136.407 28.5956 136.694 30.469 136.694 30.469C136.001 30.2201 135.288 30.028 134.563 29.8944Z" fill="#263238"/>
<path d="M66.9614 114.446L75.8792 110.148C76.1506 111.329 76.1629 112.554 75.9152 113.74C75.5321 115.972 74.9216 118.42 72.9226 118.378C70.9236 118.336 66.9614 114.446 66.9614 114.446Z" fill="#263238" stroke="#263238" stroke-linecap="round" stroke-linejoin="round"/>
<path d="M97.168 130.05C97.168 130.05 100.466 122.078 101.16 120.863C101.854 119.648 106.9 119.306 106.032 123.43C105.164 127.554 102.321 129.727 100.52 130.014C99.4108 130.196 98.2805 130.209 97.168 130.05Z" fill="#263238" stroke="#263238" stroke-linecap="round" stroke-linejoin="round"/>
<path d="M55.2963 80.8754C54.1874 81.9028 53.2694 83.1186 52.5851 84.4665C51.7591 86.3518 50.7896 88.6561 50.7896 88.6561C50.7896 88.6561 60.4795 80.1333 65.7523 79.7921C71.0252 79.451 72.336 79.4869 72.336 79.4869C72.336 79.4869 65.8002 76.4405 62.3109 77.3741C59.9191 78.1057 57.6659 79.2303 55.6435 80.7019L55.2963 80.8754Z" fill="#263238" stroke="#263238" stroke-linecap="round" stroke-linejoin="round"/>
<path d="M124.64 66.7684C124.64 66.7684 111.999 69.8986 99.3768 72.4243C86.7542 74.95 74.6403 72.1071 67.6138 73.9505C60.5872 75.7939 55.2964 80.8753 55.2964 80.8753C55.2964 80.8753 61.9698 76.8294 66.0696 80.2768C70.1694 83.7242 69.7385 85.9387 66.8596 90.0684C63.9808 94.1982 61.473 100.333 65.8003 102.637C70.1275 104.941 74.359 112.991 74.3231 114.787C74.2872 116.582 73.6886 116.582 73.6886 116.582L66.9434 114.446C66.9434 114.446 70.7619 122.909 79.3147 124.088C87.8674 125.267 92.1288 121.963 97.5094 122.292C102.89 122.621 102.591 127.386 102.591 127.386C102.591 127.386 97.3717 128.876 97.1503 130.067C96.9289 131.258 98.497 132.287 104.721 130.624C110.946 128.96 114.04 124.04 116.967 127.092C119.894 130.145 121.629 132.976 124.825 133.042C128.022 133.107 130.086 129.361 134.078 120.066C138.071 110.771 152.489 98.5194 153.111 87.9437C153.734 77.368 147.826 64.0811 147.826 64.0811L124.64 66.7684Z" fill="#D1BBA4" stroke="#263238" stroke-linecap="round" stroke-linejoin="round"/>
<path d="M120.552 71.2754C120.552 71.2754 111.126 73.4719 103.644 78.1044C96.1628 82.7369 81.7686 84.0297 77.7407 85.7414C75.6859 86.5538 73.7236 87.5831 71.8872 88.8118" stroke="#263238" stroke-linecap="round" stroke-linejoin="round"/>
<path d="M73.7188 116.583C76.7686 113.563 79.2716 110.038 81.1164 106.163C84.6211 98.8065 90.2498 92.6692 97.2762 88.5426C104.955 84.1136 108.75 83.9939 115.83 79.3555" stroke="#263238" stroke-linecap="round" stroke-linejoin="round"/>
<path d="M102.609 127.368C102.609 127.368 107.995 109.521 112.293 103.428" stroke="#263238" stroke-linecap="round" stroke-linejoin="round"/>
<path d="M117.703 168.791C117.015 172.412 115.729 175.893 113.896 179.091C110.784 184.61 109.952 186.19 109.144 186.77C108.336 187.351 106.714 188.32 108.306 188.751C109.898 189.182 114.292 189.272 115.89 188.709C117.488 188.147 117.32 186.944 117.966 184.765C118.095 184.176 118.396 183.639 118.83 183.221C119.265 182.803 119.814 182.524 120.408 182.419L120.271 189.003H121.468L121.982 183.425C121.982 183.425 122.826 181.252 122.659 179.834C122.491 178.415 120.917 177.2 120.917 177.2L122.886 169.06L117.703 168.791Z" fill="#D9D9D9" stroke="#263238" stroke-linecap="round" stroke-linejoin="round"/>
<path d="M121.468 189.026L121.982 183.448C121.982 183.448 122.826 181.276 122.659 179.857C122.527 178.768 121.557 177.786 121.127 177.403C119.828 179.019 118.242 183.257 115.961 185.1C115.147 185.724 114.196 186.146 113.187 186.333C112.179 186.52 111.14 186.467 110.156 186.178L109.827 186.034C109.636 186.306 109.406 186.548 109.144 186.752C108.336 187.351 106.714 188.302 108.306 188.733C109.898 189.164 114.292 189.254 115.89 188.691C117.488 188.129 117.32 186.926 117.966 184.747C118.095 184.158 118.396 183.62 118.83 183.203C119.265 182.785 119.814 182.506 120.408 182.401L120.271 188.985L121.468 189.026Z" fill="#263238" stroke="#263238" stroke-linecap="round" stroke-linejoin="round"/>
<path d="M162.328 169.73C162.862 173.378 164.003 176.91 165.704 180.18C168.576 185.824 169.342 187.44 170.127 188.057C170.911 188.673 172.485 189.703 170.881 190.068C169.277 190.433 164.896 190.337 163.309 189.709C161.723 189.08 161.951 187.883 161.394 185.675C161.29 185.082 161.012 184.533 160.595 184.098C160.178 183.664 159.642 183.362 159.054 183.233L158.916 189.817L157.719 189.787L157.438 184.196C157.438 184.196 156.684 181.988 156.911 180.605C157.139 179.223 158.761 178.05 158.761 178.05L157.139 169.832L162.328 169.73Z" fill="#D9D9D9" stroke="#263238" stroke-linecap="round" stroke-linejoin="round"/>
<path d="M157.719 189.787L157.438 184.197C157.438 184.197 156.684 181.989 156.911 180.606C157.091 179.529 158.108 178.589 158.551 178.212C159.778 179.888 161.185 184.197 163.381 186.124C164.17 186.781 165.102 187.243 166.103 187.472C167.103 187.7 168.143 187.69 169.139 187.441L169.474 187.315C169.653 187.596 169.873 187.848 170.127 188.063C170.911 188.662 172.485 189.709 170.881 190.074C169.277 190.44 164.896 190.344 163.309 189.715C161.723 189.087 161.951 187.89 161.394 185.681C161.29 185.088 161.012 184.54 160.595 184.105C160.178 183.67 159.642 183.369 159.054 183.239L158.916 189.823L157.719 189.787Z" fill="#263238" stroke="#263238" stroke-linecap="round" stroke-linejoin="round"/>
<path d="M130.362 92.6064C130.362 92.6064 122.096 111.615 120.947 118.977C119.798 126.338 116.075 170.377 116.075 170.377L124.047 170.748L135.892 120.102L138.082 110.765L156.529 172.813L163.328 172.358C163.328 172.358 156.146 125.513 153.374 114.302C151.449 106.814 148.995 99.4721 146.031 92.3311L130.362 92.6064Z" fill="#263238" stroke="#263238" stroke-linecap="round" stroke-linejoin="round"/>
<path d="M133.905 51.7041C133.905 51.7041 133.935 60.5022 133.905 61.5736C133.875 62.6449 123.994 65.5477 123.994 65.5477L130.392 92.6064C130.392 92.6064 138.771 93.3186 146.061 92.2952L150.849 63.4349L141.871 61.6394L142.23 54.571C142.23 54.571 136.562 54.4453 133.905 51.7041Z" fill="#D9D9D9" stroke="#263238" stroke-linecap="round" stroke-linejoin="round"/>
<path d="M144.941 62.2559C144.289 64.7038 142.158 70.8505 137.257 70.228C133.019 69.6894 130.434 65.5118 129.524 63.7521C126.854 64.7038 123.952 65.5477 123.952 65.5477L130.35 92.6064C130.35 92.6064 138.729 93.3186 146.019 92.2952L150.807 63.4349L144.941 62.2559Z" fill="white" stroke="#263238" stroke-linecap="round" stroke-linejoin="round"/>
<path d="M131.319 62.3818C131.319 62.3818 133.713 75.4114 134.312 82.7312C134.91 90.051 134.91 95.0785 134.779 96.0421C134.647 97.0057 128.105 122.61 128.105 122.61L116.733 117.648L128.207 92.2536C128.207 92.2536 121.623 67.553 121.665 66.6911C121.707 65.8293 131.319 62.3818 131.319 62.3818Z" fill="#707070" stroke="#263238" stroke-linecap="round" stroke-linejoin="round"/>
<path d="M129.159 63.2978L128.093 73.1433L130.487 75.0227L128.692 78.2008L134.677 93.7621C134.677 93.7621 134.623 86.143 134.192 81.0916C133.761 76.0401 131.259 62.3701 131.259 62.3701L129.159 63.2978Z" stroke="#263238" stroke-linecap="round" stroke-linejoin="round"/>
<path d="M143.242 61.7715C143.242 61.7715 141.59 94.5639 141.578 94.8812C141.566 95.1984 150.555 122.532 150.555 122.532L159.413 119.713L147.676 91.2602C147.676 91.2602 153.279 64.5546 153.183 64.0219C153.087 63.4892 143.242 61.7715 143.242 61.7715Z" fill="#707070" stroke="#263238" stroke-linecap="round" stroke-linejoin="round"/>
<path d="M145.809 62.4718L146.994 73.7716L144.014 75.4355L146.809 77.8355L141.578 94.8811L143.241 61.7715L145.809 62.4718Z" fill="#707070" stroke="#263238" stroke-linecap="round" stroke-linejoin="round"/>
<path d="M143.254 39.7636C143.231 39.65 143.201 39.538 143.164 39.4284C142.954 38.782 142.332 37.4833 140.77 38.2314C138.753 39.189 137.61 41.3616 136.107 41.6309C135.48 41.762 134.844 41.848 134.204 41.8883C134.204 41.8883 131.9 46.9338 130.781 47.8076C130 48.3709 129.108 48.7606 128.165 48.9507C128.165 48.9507 128.488 52.452 129.476 52.9727C129.796 53.1144 130.146 53.1743 130.495 53.1472C130.844 53.12 131.181 53.0066 131.475 52.8171C131.475 52.8171 134.3 56.2705 136.179 57.2042C138.058 58.1379 140.147 58.4012 141.254 57.8027C142.362 57.2042 145.54 53.6132 145.582 51.6022C145.624 49.5912 144.732 44.5936 144.57 42.6245C144.566 42.0816 144.446 41.5459 144.219 41.0527C143.992 40.5595 143.663 40.1201 143.254 39.7636Z" fill="#D9D9D9" stroke="#263238" stroke-linecap="round" stroke-linejoin="round"/>
<path d="M136.796 38.1064C136.796 38.1064 137.089 38.3099 136.676 39.0042C136.332 39.5151 135.919 39.9763 135.449 40.3747C135.449 40.3747 137.448 40.2191 138.28 38.7348C139.112 37.2505 138.017 37.059 136.796 38.1064Z" fill="white"/>
<path d="M137.334 45.1747C137.424 45.6895 137.257 46.1503 136.957 46.2042C136.658 46.2581 136.359 45.881 136.257 45.3663C136.155 44.8516 136.335 44.3907 136.634 44.3368C136.933 44.283 137.245 44.69 137.334 45.1747Z" fill="#263238"/>
<path d="M142.445 44.4857C142.535 45.0005 142.362 45.4613 142.062 45.5152C141.763 45.5691 141.464 45.186 141.362 44.6713C141.26 44.1566 141.44 43.6957 141.739 43.6418C142.038 43.588 142.35 43.965 142.445 44.4857Z" fill="#263238"/>
<path d="M135.084 43.5887L137.993 42.9482" stroke="#263238" stroke-linecap="round" stroke-linejoin="round"/>
<path d="M140.506 42.1037C140.506 42.1037 141.44 40.5236 142.727 40.9485" stroke="#263238" stroke-linecap="round" stroke-linejoin="round"/>
<path d="M140.423 50.7888C140.423 50.7888 137.113 51.4172 136.233 49.502" stroke="#263238" stroke-linecap="round" stroke-linejoin="round"/>
<path d="M140.931 46.2754C140.931 46.2754 141.464 48.1308 139.782 48.3103" stroke="#263238" stroke-linecap="round" stroke-linejoin="round"/>
<path d="M154.948 96.8799C154.948 96.8799 149.933 100.639 149.915 101.602C149.897 102.566 150.831 103.996 151.142 104.307C151.453 104.619 152.405 105.504 152.405 105.504C152.405 105.504 154.99 104.906 154.906 103.841C154.823 102.775 154.517 102.745 154.517 102.745L156.63 99.1542L154.948 96.8799Z" fill="#D9D9D9" stroke="#263238" stroke-linecap="round" stroke-linejoin="round"/>
<path d="M154.5 102.77L153.297 103.925" stroke="#263238" stroke-linecap="round" stroke-linejoin="round"/>
<path d="M150.412 72.7599L162.705 85.1371L154.2 96.5448L156.923 99.7109C156.923 99.7109 170.522 85.6219 170.546 84.4429C170.569 83.2638 155.397 65.2486 154.446 64.5843C153.494 63.9199 151.357 63.5488 151.357 63.5488" fill="#707070"/>
<path d="M150.412 72.7599L162.705 85.1371L154.2 96.5448L156.923 99.7109C156.923 99.7109 170.522 85.6219 170.546 84.4429C170.569 83.2638 155.397 65.2486 154.446 64.5843C153.494 63.9199 151.357 63.5488 151.357 63.5488" stroke="#263238" stroke-linecap="round" stroke-linejoin="round"/>
<path d="M121.821 96.3115C121.821 96.3115 127.172 99.5674 127.285 100.501C127.399 101.435 126.609 102.961 126.328 103.314C126.046 103.667 125.19 104.661 125.19 104.661C125.19 104.661 122.563 104.326 122.539 103.248C122.515 102.171 122.838 102.135 122.838 102.135L120.402 98.7535L121.821 96.3115Z" fill="#D9D9D9" stroke="#263238" stroke-linecap="round" stroke-linejoin="round"/>
<path d="M122.833 102.135L124.143 103.164" stroke="#263238" stroke-linecap="round" stroke-linejoin="round"/>
<path d="M125.825 73.8487L113.466 85.1725L122.527 95.9039L120.133 99.3214C120.133 99.3214 105.733 86.4174 105.595 85.2444C105.457 84.0713 121.156 66.1339 122.144 65.4935C123.132 64.8531 125.274 64.5957 125.274 64.5957" fill="#707070"/>
<path d="M125.825 73.8487L113.466 85.1725L122.527 95.9039L120.133 99.3214C120.133 99.3214 105.733 86.4174 105.595 85.2444C105.457 84.0713 121.156 66.1339 122.144 65.4935C123.132 64.8531 125.274 64.5957 125.274 64.5957" stroke="#263238" stroke-linecap="round" stroke-linejoin="round"/>
<path d="M132.235 67.9598C132.235 67.9598 133.983 63.5787 133.737 62.1901C133.492 60.8016 131.134 61.1667 129.739 61.6933C128.345 62.22 126.37 64.249 126.37 64.249C126.37 64.249 130.104 64.0455 130.661 63.7821C131.218 63.5188 132.109 67.4331 132.235 67.9598Z" fill="#D1BBA4" stroke="#263238" stroke-linecap="round" stroke-linejoin="round"/>
<path d="M141.853 61.634L142.853 68.7383C142.853 68.7383 143.882 65.7458 145.157 64.2256C145.736 63.4695 146.453 62.8298 147.27 62.3403C147.27 62.3403 144.301 61.1013 141.853 61.634Z" fill="#D1BBA4" stroke="#263238" stroke-linecap="round" stroke-linejoin="round"/>
</g>
</svg>
