<svg width="21" height="22" viewBox="0 0 21 22" fill="none" xmlns="http://www.w3.org/2000/svg">
<g clip-path="url(#clip0)">
<path d="M20.989 10.946C20.989 10.0656 20.9175 9.4231 20.7629 8.75684H10.7092V12.7307H16.6105C16.4916 13.7182 15.8491 15.2054 14.4213 16.2048L14.4013 16.3378L17.5801 18.8004L17.8003 18.8224C19.8229 16.9544 20.989 14.206 20.989 10.946Z" fill="#4285F4"/>
<path d="M10.7092 21.4163C13.6003 21.4163 16.0274 20.4644 17.8003 18.8225L14.4213 16.2049C13.5171 16.8355 12.3035 17.2757 10.7092 17.2757C7.87752 17.2757 5.47418 15.4078 4.61745 12.8259L4.49188 12.8366L1.18654 15.3947L1.14331 15.5148C2.90417 19.0128 6.52111 21.4163 10.7092 21.4163Z" fill="#34A853"/>
<path d="M4.6173 12.8259C4.39125 12.1597 4.26042 11.4457 4.26042 10.7081C4.26042 9.9704 4.39125 9.25655 4.60541 8.59028L4.59942 8.44838L1.25264 5.84924L1.14314 5.90133C0.417406 7.35288 0.000976562 8.98292 0.000976562 10.7081C0.000976562 12.4333 0.417406 14.0632 1.14314 15.5148L4.6173 12.8259Z" fill="#FBBC05"/>
<path d="M10.7093 4.14043C12.72 4.14043 14.0763 5.00897 14.8497 5.73479L17.8718 2.7841C16.0157 1.05891 13.6004 0 10.7093 0C6.52116 0 2.90418 2.40335 1.14331 5.90129L4.60559 8.59025C5.47421 6.00842 7.87757 4.14043 10.7093 4.14043Z" fill="#EB4335"/>
</g>
<defs>
<clipPath id="clip0">
<rect width="21" height="21.49" fill="white"/>
</clipPath>
</defs>
</svg>
