<svg width="78" height="24" viewBox="0 0 78 24" fill="none" xmlns="http://www.w3.org/2000/svg">
<path d="M62.006 8.82238C66.0577 6.23398 74.0223 -4.87268 76.5702 2.47364C77.5401 5.28723 78.2203 8.81394 75.9788 11.5633C75.5469 12.093 75.1614 12.389 74.7288 12.7861C60.9883 25.3867 49.6616 24.2826 33.5648 23.67C17.468 23.0574 7.62261 20.3424 1.02535 8.56506C0.67414 7.9339 0.201053 7.44833 0.0483387 6.6062C-0.467976 3.75901 3.24998 0.158626 6.51389 1.0521C13.3674 2.92863 16.2898 13.9272 24.9105 16.7287C30.0399 18.4067 33.947 20.444 36.0483 19.9718C38.1497 19.4997 39.5466 19.0356 39.5466 19.0356C47.0483 16.9507 43.89 10.6036 50.2718 6.03696C55.2514 2.47364 57.9543 11.4108 62.006 8.82238Z" fill="#E7DFD6"/>
</svg>
