<svg width="31" height="49" viewBox="0 0 31 49" fill="none" xmlns="http://www.w3.org/2000/svg">
<path d="M9.15303 31.7529C9.15303 31.7529 4.83563 37.1511 5.13919 37.6295C5.44274 38.1079 6.92695 44.9535 7.42718 45.1096C7.9274 45.2657 8.17564 43.6336 8.17564 43.6336L11.9306 41.6049L9.15303 31.7529Z" fill="#263238"/>
<path d="M22.022 31.2302C22.022 31.2302 26.9632 36.0649 26.7197 36.5858C26.4761 37.1067 25.8324 44.0723 25.3525 44.2872C24.8727 44.5022 24.432 42.9124 24.432 42.9124L20.459 41.3562L22.022 31.2302Z" fill="#263238"/>
<path d="M20.9488 40.6936C20.9488 40.6936 24.1482 21.6968 24.1014 16.1787C24.0547 10.6606 18.2562 1.34486 15.1424 1.82782C12.0286 2.31078 8.23264 11.7376 7.57359 16.9846C6.91454 22.2316 10.2567 41.185 12.2911 43.4602C14.3255 45.7355 18.9104 47.4777 20.9488 40.6936Z" fill="white"/>
<path d="M20.9488 40.6932C20.9488 40.6932 20.9811 40.5726 21.0094 40.3375C17.5216 45.9328 13.6789 43.8316 11.3847 41.6317C11.5859 42.2838 11.8929 42.8984 12.2934 43.4509C14.3145 45.7289 18.9104 47.4772 20.9488 40.6932Z" fill="#263238"/>
<path d="M15.1428 1.82766C12.2355 2.28086 8.741 10.5121 7.75083 15.8658C8.50122 16.9344 9.46448 17.8363 10.5801 18.5148C14.9438 21.1652 20.6739 19.88 24.0835 15.7293C23.7357 10.1588 18.1745 1.35735 15.1428 1.82766Z" fill="#263238"/>
<path fill-rule="evenodd" clip-rule="evenodd" d="M19.6347 7.22899C19.8749 7.09274 20.18 7.177 20.3163 7.41719C21.7906 10.0162 22.8751 12.8178 23.535 15.7321C23.596 16.0014 23.4271 16.2691 23.1578 16.3301C22.8885 16.3911 22.6207 16.2222 22.5597 15.9529C21.9214 13.1341 20.8725 10.4244 19.4465 7.91059C19.3102 7.6704 19.3945 7.36523 19.6347 7.22899Z" fill="white"/>
<path fill-rule="evenodd" clip-rule="evenodd" d="M17.6363 4.16634C17.8578 4.00144 18.171 4.04732 18.3359 4.26882L18.3377 4.27123L18.3418 4.27675L18.3567 4.29707C18.3696 4.3147 18.3883 4.34046 18.4124 4.37407C18.4607 4.44128 18.5305 4.53992 18.6186 4.66781C18.7949 4.92354 19.0442 5.29643 19.3398 5.769C19.4862 6.00313 19.4151 6.31162 19.181 6.45804C18.9468 6.60446 18.6384 6.53336 18.4919 6.29924C18.205 5.84048 17.9639 5.48001 17.7952 5.23522C17.7109 5.11284 17.6447 5.01942 17.6 4.95715C17.5777 4.92601 17.5607 4.90266 17.5495 4.88738L17.5371 4.87053L17.5343 4.8667C17.3694 4.64521 17.4148 4.33123 17.6363 4.16634Z" fill="white"/>
<path fill-rule="evenodd" clip-rule="evenodd" d="M20.3644 38.8923C20.6382 38.9282 20.831 39.1793 20.7952 39.4531L20.6774 40.3512C20.6415 40.625 20.3905 40.8179 20.1167 40.782C19.8429 40.7461 19.65 40.495 19.6859 40.2212L19.8036 39.3231C19.8395 39.0493 20.0906 38.8564 20.3644 38.8923Z" fill="#263238"/>
<path fill-rule="evenodd" clip-rule="evenodd" d="M20.7244 36.1492C20.9982 36.1851 21.191 36.4362 21.155 36.71L20.8882 38.7406C20.8523 39.0144 20.6012 39.2072 20.3274 39.1712C20.0536 39.1352 19.8608 38.8841 19.8968 38.6103L20.1635 36.5798C20.1995 36.306 20.4506 36.1132 20.7244 36.1492Z" fill="#263238"/>
<path fill-rule="evenodd" clip-rule="evenodd" d="M22.7867 20.3962C23.0605 20.4321 23.2534 20.6831 23.2175 20.9569L21.39 34.9166C21.3541 35.1904 21.1031 35.3833 20.8293 35.3474C20.5555 35.3116 20.3626 35.0606 20.3984 34.7868L22.226 20.8271C22.2618 20.5533 22.5129 20.3604 22.7867 20.3962Z" fill="#263238"/>
<path fill-rule="evenodd" clip-rule="evenodd" d="M23.1767 17.3966C23.4506 17.4322 23.6438 17.683 23.6082 17.9568L23.4453 19.2116C23.4098 19.4854 23.159 19.6786 22.8851 19.6431C22.6113 19.6075 22.4181 19.3567 22.4537 19.0829L22.6165 17.8281C22.6521 17.5543 22.9029 17.3611 23.1767 17.3966Z" fill="#263238"/>
<path fill-rule="evenodd" clip-rule="evenodd" d="M8.5753 22.4835C8.84813 22.4409 9.10386 22.6275 9.14648 22.9003L10.4557 31.281C10.4983 31.5539 10.3117 31.8096 10.0389 31.8522C9.76604 31.8948 9.51032 31.7082 9.46769 31.4354L8.15846 23.0547C8.11584 22.7819 8.30246 22.5261 8.5753 22.4835Z" fill="#263238"/>
<path fill-rule="evenodd" clip-rule="evenodd" d="M9.98216 31.8712C10.2549 31.8278 10.5111 32.0137 10.5545 32.2865L10.8256 33.9915C10.8689 34.2643 10.683 34.5205 10.4103 34.5639C10.1376 34.6072 9.88134 34.4213 9.83798 34.1486L9.56688 32.4435C9.52351 32.1708 9.70944 31.9145 9.98216 31.8712Z" fill="#263238"/>
<path d="M19.7277 28.5167C21.0372 26.3596 20.4468 23.608 18.4089 22.371C16.3711 21.1339 13.6576 21.8797 12.3481 24.0368C11.0386 26.1939 11.629 28.9455 13.6669 30.1825C15.7047 31.4196 18.4182 30.6738 19.7277 28.5167Z" fill="#263238"/>
<path d="M18.4153 28.1682C18.1094 28.6125 17.68 28.9574 17.1803 29.1604C16.6805 29.3634 16.1322 29.4156 15.6031 29.3104C15.074 29.2053 14.5874 28.9475 14.2032 28.5688C13.819 28.1902 13.5541 27.7073 13.4413 27.1798C13.3285 26.6523 13.3727 26.1033 13.5685 25.6006C13.7642 25.098 14.1029 24.6637 14.5427 24.3513C14.9825 24.039 15.5041 23.8624 16.0432 23.8432C16.5823 23.824 17.1152 23.9632 17.576 24.2435C18.2067 24.6536 18.6491 25.2969 18.8064 26.0325C18.9637 26.7681 18.8231 27.5361 18.4153 28.1682Z" fill="#D1BBA4"/>
<path d="M15.9024 38.4745L16.8904 47.5129C16.8926 47.563 16.9052 47.6121 16.9276 47.6571C16.9499 47.702 16.9814 47.7418 17.02 47.7738C17.0586 47.8058 17.1035 47.8294 17.1518 47.843C17.2001 47.8566 17.2507 47.86 17.3004 47.8528C17.4046 47.8351 17.4984 47.7787 17.5629 47.695C17.6274 47.6112 17.6579 47.5062 17.6484 47.4009L17.1801 38.2811C17.1725 38.1949 17.1466 38.1113 17.1041 38.0359C17.0616 37.9605 17.0036 37.895 16.9338 37.8438C16.864 37.7926 16.7841 37.7568 16.6994 37.7389C16.6147 37.721 16.5272 37.7214 16.4427 37.74C16.2809 37.78 16.1383 37.8753 16.0396 38.0095C15.9409 38.1437 15.8923 38.3082 15.9024 38.4745Z" fill="#263238"/>
</svg>
