<svg width="105" height="21" viewBox="0 0 105 21" fill="none" xmlns="http://www.w3.org/2000/svg">
<path d="M0 12.5H105" stroke="white"/>
<path d="M4.31543 13.454C4.31543 13.454 14.8065 -7.37502 21.9767 4.05397C29.1469 15.483 29.6692 24.9359 35.0659 18.023C40.4626 11.11 41.5758 2.31201 48.0455 12.362C54.5153 22.412 58.0941 18.298 59.3656 13.456C60.6371 8.614 60.2283 2.85597 64.2917 3.32497C68.355 3.79397 68.6441 13.025 70.7643 14.996C72.8844 16.967 75.0511 15.614 75.835 10.496C76.6189 5.37798 80.36 3.22597 83.3316 7.48097C86.3033 11.736 84.8832 16.113 88.7121 16.401C92.541 16.689 92.3342 10.718 93.3151 9.037C94.2961 7.356 98.847 5.89799 99.8811 13.454" stroke="#94633E"/>
</svg>
