<svg width="21" height="21" viewBox="0 0 21 21" fill="none" xmlns="http://www.w3.org/2000/svg">
<path fill-rule="evenodd" clip-rule="evenodd" d="M16.2691 9.17321C16.2691 9.43971 16.2534 9.70306 16.2266 9.96167H17.8114C17.9732 8.18645 17.5841 6.40448 16.697 4.85829C15.8099 3.3121 14.468 2.0768 12.8538 1.32051C11.2396 0.564221 9.43157 0.32368 7.67579 0.631625C5.92 0.93957 4.30175 1.78104 3.04128 3.04152C1.7808 4.302 0.939326 5.92025 0.631381 7.67603C0.323436 9.43181 0.563977 11.2398 1.32027 12.854C2.07656 14.4682 3.31186 15.8102 4.85805 16.6973C6.40424 17.5843 8.18621 17.9734 9.96143 17.8116V16.2268C8.53323 16.3865 7.09021 16.1088 5.8233 15.4304C4.55639 14.752 3.5253 13.705 2.86646 12.4278C2.20762 11.1507 1.95209 9.70354 2.13366 8.27796C2.31524 6.85239 2.92538 5.51554 3.88334 4.4443C4.8413 3.37306 6.10193 2.61792 7.49844 2.2788C8.89495 1.93968 10.3615 2.03256 11.7041 2.54516C13.0466 3.05775 14.2019 3.9659 15.0171 5.14943C15.8323 6.33297 16.2689 7.73611 16.2691 9.17321ZM6.01911 8.38475C6.43734 8.38475 6.83843 8.2186 7.13417 7.92287C7.4299 7.62714 7.59604 7.22605 7.59604 6.80782C7.59604 6.38959 7.4299 5.98849 7.13417 5.69276C6.83843 5.39703 6.43734 5.23089 6.01911 5.23089C5.60088 5.23089 5.19979 5.39703 4.90405 5.69276C4.60832 5.98849 4.44218 6.38959 4.44218 6.80782C4.44218 7.22605 4.60832 7.62714 4.90405 7.92287C5.19979 8.2186 5.60088 8.38475 6.01911 8.38475ZM9.17297 12.3271C10.2957 12.3271 11.3097 11.8571 12.0272 11.1034L13.1421 12.2198C12.6279 12.7533 12.0114 13.1774 11.3293 13.4668C10.6473 13.7562 9.91385 13.9049 9.17297 13.904C8.41742 13.9049 7.66978 13.7503 6.97661 13.4497C6.28344 13.1491 5.65959 12.709 5.14392 12.1568L6.2588 11.0403C6.62793 11.4462 7.07789 11.7703 7.57977 11.9919C8.08165 12.2136 8.62434 12.3277 9.17297 12.3271ZM12.3268 8.38475C12.745 8.38475 13.1461 8.2186 13.4419 7.92287C13.7376 7.62714 13.9037 7.22605 13.9037 6.80782C13.9037 6.38959 13.7376 5.98849 13.4419 5.69276C13.1461 5.39703 12.745 5.23089 12.3268 5.23089C11.9086 5.23089 11.5075 5.39703 11.2118 5.69276C10.916 5.98849 10.7499 6.38959 10.7499 6.80782C10.7499 7.22605 10.916 7.62714 11.2118 7.92287C11.5075 8.2186 11.9086 8.38475 12.3268 8.38475ZM16.2691 13.1155H17.8461V16.2694H20.9999V17.8463H17.8461V21.0002H16.2691V17.8463H13.1153V16.2694H16.2691V13.1155Z" fill="#94633E"/>
</svg>
