<svg width="48" height="40" viewBox="0 0 48 40" fill="none" xmlns="http://www.w3.org/2000/svg">
<path d="M34.7322 0.749509C34.3274 0.8363 33.9663 1.0635 33.7129 1.3909C33.4595 1.7183 33.3301 2.12479 33.3476 2.53843V37.6154C33.3065 37.8663 33.3204 38.1232 33.3885 38.3683C33.4565 38.6133 33.5771 38.8406 33.7417 39.0344C33.9063 39.2282 34.1112 39.3839 34.342 39.4907C34.5728 39.5975 34.8241 39.6528 35.0784 39.6528C35.3327 39.6528 35.5839 39.5975 35.8147 39.4907C36.0456 39.3839 36.2504 39.2282 36.415 39.0344C36.5797 38.8406 36.7002 38.6133 36.7682 38.3683C36.8363 38.1232 36.8503 37.8663 36.8091 37.6154V2.53843C36.815 2.29187 36.7688 2.04684 36.6735 1.81935C36.5783 1.59186 36.4361 1.38702 36.2563 1.2182C36.0765 1.04938 35.8631 0.920376 35.6301 0.839616C35.3971 0.758855 35.1496 0.728151 34.9039 0.749509C34.8467 0.746706 34.7894 0.746706 34.7322 0.749509ZM12.5784 2.59566C12.1736 2.68245 11.8125 2.90965 11.5591 3.23705C11.3057 3.56445 11.1763 3.97094 11.1938 4.38459V35.7692C11.1526 36.0202 11.1666 36.2771 11.2346 36.5221C11.3027 36.7671 11.4232 36.9944 11.5879 37.1883C11.7525 37.3821 11.9573 37.5378 12.1881 37.6445C12.4189 37.7513 12.6702 37.8066 12.9245 37.8066C13.1788 37.8066 13.4301 37.7513 13.6609 37.6445C13.8917 37.5378 14.0965 37.3821 14.2612 37.1883C14.4258 36.9944 14.5464 36.7671 14.6144 36.5221C14.6825 36.2771 14.6964 36.0202 14.6553 35.7692V4.38459C14.6611 4.13802 14.6149 3.893 14.5197 3.66551C14.4244 3.43802 14.2823 3.23317 14.1025 3.06435C13.9227 2.89553 13.7093 2.76653 13.4762 2.68577C13.2432 2.60501 12.9958 2.5743 12.7501 2.59566C12.6929 2.59286 12.6356 2.59286 12.5784 2.59566ZM29.1938 8.13412C28.7889 8.22092 28.4279 8.44812 28.1745 8.77552C27.9211 9.10292 27.7917 9.50941 27.8091 9.92305V30.2307C27.7671 30.482 27.7804 30.7395 27.848 30.9851C27.9156 31.2308 28.0359 31.4588 28.2005 31.6532C28.3651 31.8477 28.5702 32.0039 28.8013 32.1111C29.0325 32.2182 29.2842 32.2737 29.539 32.2737C29.7938 32.2737 30.0455 32.2182 30.2766 32.1111C30.5078 32.0039 30.7128 31.8477 30.8775 31.6532C31.0421 31.4588 31.1624 31.2308 31.23 30.9851C31.2976 30.7395 31.3108 30.482 31.2688 30.2307V9.92305C31.2746 9.67682 31.2285 9.43214 31.1335 9.20492C31.0384 8.97771 30.8966 8.77306 30.7172 8.60429C30.5378 8.43553 30.3249 8.30644 30.0923 8.22544C29.8597 8.14443 29.6127 8.11332 29.3673 8.13412C29.3089 8.1312 29.2503 8.1312 29.1919 8.13412H29.1938ZM7.0399 9.98028C6.63509 10.0671 6.27403 10.2943 6.02063 10.6217C5.76722 10.9491 5.63781 11.3556 5.65529 11.7692V28.3846C5.61328 28.6359 5.62653 28.8933 5.69412 29.139C5.76171 29.3846 5.88201 29.6126 6.04665 29.8071C6.21129 30.0015 6.41632 30.1578 6.64747 30.2649C6.87862 30.3721 7.13035 30.4276 7.38513 30.4276C7.63992 30.4276 7.89165 30.3721 8.1228 30.2649C8.35395 30.1578 8.55898 30.0015 8.72362 29.8071C8.88826 29.6126 9.00856 29.3846 9.07615 29.139C9.14373 28.8933 9.15699 28.6359 9.11498 28.3846V11.7692C9.12079 11.523 9.07467 11.2783 8.97963 11.0511C8.88459 10.8239 8.74276 10.6192 8.56338 10.4504C8.38399 10.2817 8.17107 10.1526 7.93848 10.0716C7.7059 9.99058 7.45885 9.95947 7.21344 9.98028C7.15502 9.97735 7.09648 9.97735 7.03806 9.98028H7.0399ZM18.1168 11.8264C17.712 11.9132 17.351 12.1404 17.0976 12.4678C16.8441 12.7952 16.7147 13.2017 16.7322 13.6154V26.5384C16.6902 26.7897 16.7035 27.0472 16.771 27.2928C16.8386 27.5385 16.9589 27.7665 17.1236 27.9609C17.2882 28.1554 17.4932 28.3116 17.7244 28.4188C17.9555 28.5259 18.2073 28.5814 18.4621 28.5814C18.7168 28.5814 18.9686 28.5259 19.1997 28.4188C19.4309 28.3116 19.6359 28.1554 19.8005 27.9609C19.9652 27.7665 20.0855 27.5385 20.1531 27.2928C20.2207 27.0472 20.2339 26.7897 20.1919 26.5384V13.6154C20.1977 13.3691 20.1516 13.1244 20.0566 12.8972C19.9615 12.67 19.8197 12.4654 19.6403 12.2966C19.4609 12.1278 19.248 11.9988 19.0154 11.9177C18.7828 11.8367 18.5358 11.8056 18.2904 11.8264C18.2319 11.8235 18.1734 11.8235 18.115 11.8264H18.1168ZM40.2707 11.8264C39.8659 11.9132 39.5048 12.1404 39.2514 12.4678C38.998 12.7952 38.8686 13.2017 38.8861 13.6154V26.5384C38.8449 26.7894 38.8589 27.0463 38.9269 27.2913C38.995 27.5364 39.1155 27.7637 39.2802 27.9575C39.4448 28.1513 39.6496 28.307 39.8804 28.4138C40.1112 28.5205 40.3625 28.5759 40.6168 28.5759C40.8711 28.5759 41.1224 28.5205 41.3532 28.4138C41.584 28.307 41.7888 28.1513 41.9535 27.9575C42.1181 27.7637 42.2387 27.5364 42.3067 27.2913C42.3748 27.0463 42.3887 26.7894 42.3476 26.5384V13.6154C42.3535 13.3688 42.3072 13.1238 42.212 12.8963C42.1167 12.6688 41.9746 12.4639 41.7948 12.2951C41.615 12.1263 41.4016 11.9973 41.1685 11.9165C40.9355 11.8358 40.6881 11.8051 40.4424 11.8264C40.3852 11.8236 40.3279 11.8236 40.2707 11.8264ZM1.50144 15.5187C1.09663 15.6055 0.735573 15.8327 0.482167 16.1601C0.228762 16.4875 0.0993474 16.894 0.116827 17.3077V22.8461C0.0757086 23.0971 0.0896592 23.354 0.157712 23.599C0.225764 23.8441 0.346291 24.0714 0.510936 24.2652C0.675581 24.459 0.880407 24.6147 1.11121 24.7215C1.34202 24.8282 1.59329 24.8835 1.8476 24.8835C2.1019 24.8835 2.35317 24.8282 2.58398 24.7215C2.81479 24.6147 3.01961 24.459 3.18426 24.2652C3.3489 24.0714 3.46943 23.8441 3.53748 23.599C3.60553 23.354 3.61948 23.0971 3.57837 22.8461V17.3077C3.58422 17.0611 3.53802 16.8161 3.44276 16.5886C3.3475 16.3611 3.20533 16.1563 3.02553 15.9874C2.84573 15.8186 2.63235 15.6896 2.39932 15.6088C2.16629 15.5281 1.91884 15.4974 1.67313 15.5187C1.61532 15.5159 1.55741 15.5159 1.4996 15.5187H1.50144ZM23.6553 15.5187C23.2505 15.6055 22.8894 15.8327 22.636 16.1601C22.3826 16.4875 22.2532 16.894 22.2707 17.3077V22.8461C22.2287 23.0974 22.2419 23.3549 22.3095 23.6005C22.3771 23.8462 22.4974 24.0742 22.662 24.2686C22.8267 24.463 23.0317 24.6193 23.2629 24.7264C23.494 24.8336 23.7457 24.8891 24.0005 24.8891C24.2553 24.8891 24.507 24.8336 24.7382 24.7264C24.9693 24.6193 25.1744 24.463 25.339 24.2686C25.5036 24.0742 25.6239 23.8462 25.6915 23.6005C25.7591 23.3549 25.7724 23.0974 25.7304 22.8461V17.3077C25.7362 17.0614 25.6901 16.8168 25.595 16.5895C25.5 16.3623 25.3581 16.1577 25.1788 15.9889C24.9994 15.8201 24.7865 15.6911 24.5539 15.6101C24.3213 15.529 24.0742 15.4979 23.8288 15.5187C23.7704 15.5158 23.7119 15.5158 23.6534 15.5187H23.6553ZM45.8091 15.5187C45.4043 15.6055 45.0433 15.8327 44.7899 16.1601C44.5365 16.4875 44.407 16.894 44.4245 17.3077V22.8461C44.3834 23.0971 44.3974 23.354 44.4654 23.599C44.5335 23.8441 44.654 24.0714 44.8186 24.2652C44.9833 24.459 45.1881 24.6147 45.4189 24.7215C45.6497 24.8282 45.901 24.8835 46.1553 24.8835C46.4096 24.8835 46.6609 24.8282 46.8917 24.7215C47.1225 24.6147 47.3273 24.459 47.4919 24.2652C47.6566 24.0714 47.7771 23.8441 47.8452 23.599C47.9132 23.354 47.9272 23.0971 47.8861 22.8461V17.3077C47.8919 17.0611 47.8457 16.8161 47.7504 16.5886C47.6552 16.3611 47.513 16.1563 47.3332 15.9874C47.1534 15.8186 46.94 15.6896 46.707 15.6088C46.474 15.5281 46.2265 15.4974 45.9808 15.5187C45.9236 15.5159 45.8663 15.5159 45.8091 15.5187Z" fill="#674029"/>
</svg>
