<svg width="24" height="24" viewBox="0 0 24 24" fill="none" xmlns="http://www.w3.org/2000/svg">
<path fill-rule="evenodd" clip-rule="evenodd" d="M20.2378 7.57237C20.2378 7.17174 19.7902 6.93381 19.4581 7.15793L13.3937 11.2508C13.1 11.449 13.1 11.8815 13.3937 12.0797L19.4581 16.1726C19.7902 16.3967 20.2378 16.1588 20.2378 15.7581V7.57237ZM18.3393 5.50016C19.9997 4.37955 22.2378 5.56919 22.2378 7.57237V15.7581C22.2378 17.7613 19.9996 18.9509 18.3392 17.8303L12.2748 13.7375C12.1734 13.669 12.079 13.595 11.9916 13.5162V15.7581C11.9916 17.7613 9.75348 18.9509 8.09308 17.8303L2.02868 13.7375C0.560062 12.7463 0.560068 10.5842 2.02868 9.59303L8.09308 5.50016C9.75348 4.37955 11.9916 5.56919 11.9916 7.57237V9.81433C12.079 9.7355 12.1734 9.66147 12.2748 9.59303L18.3393 5.50016ZM9.99162 7.57237C9.99162 7.17174 9.544 6.93381 9.21191 7.15793L3.14751 11.2508C2.85379 11.449 2.85379 11.8815 3.14751 12.0797L9.21191 16.1726C9.54399 16.3967 9.99162 16.1588 9.99162 15.7581V7.57237Z" fill="#14142B"/>
</svg>
