<svg width="155" height="34" viewBox="0 0 155 34" fill="none" xmlns="http://www.w3.org/2000/svg">
<g clip-path="url(#clip0)">
<path d="M20.9961 7.90911L20.9729 7.8954L20.9189 7.87891C20.9407 7.89727 20.9678 7.90788 20.9961 7.90911Z" fill="#0D0C22"/>
<path d="M21.3356 10.3379L21.3096 10.3452L21.3356 10.3379Z" fill="#0D0C22"/>
<path d="M21.0066 7.90577C21.0031 7.90533 20.9996 7.9045 20.9962 7.90332C20.996 7.90561 20.996 7.90789 20.9962 7.91018C21 7.90971 21.0036 7.90817 21.0066 7.90577Z" fill="#0D0C22"/>
<path d="M20.9961 7.90946H20.9997V7.90723L20.9961 7.90946Z" fill="#0D0C22"/>
<path d="M21.3145 10.3339L21.3537 10.3115L21.3683 10.3033L21.3816 10.2891C21.3567 10.2998 21.3339 10.315 21.3145 10.3339Z" fill="#0D0C22"/>
<path d="M21.0639 7.96189L21.0255 7.92532L20.9995 7.91113C21.0135 7.93586 21.0366 7.95407 21.0639 7.96189Z" fill="#0D0C22"/>
<path d="M11.4125 31.5332C11.3819 31.5465 11.3551 31.5672 11.3345 31.5936L11.3587 31.578C11.3751 31.5629 11.3984 31.5451 11.4125 31.5332Z" fill="#0D0C22"/>
<path d="M17.0168 30.4284C17.0168 30.3936 16.9999 30.4 17.0041 30.5236C17.0041 30.5135 17.0082 30.5034 17.01 30.4938C17.0123 30.4719 17.0141 30.4503 17.0168 30.4284Z" fill="#0D0C22"/>
<path d="M16.436 31.5332C16.4054 31.5465 16.3785 31.5672 16.3579 31.5936L16.3821 31.578C16.3985 31.5629 16.4218 31.5451 16.436 31.5332Z" fill="#0D0C22"/>
<path d="M7.4655 31.7953C7.44223 31.775 7.41375 31.7617 7.3833 31.7568C7.40795 31.7688 7.4326 31.7806 7.44903 31.7898L7.4655 31.7953Z" fill="#0D0C22"/>
<path d="M6.57783 30.9433C6.57422 30.9072 6.56318 30.8724 6.54541 30.8408C6.55801 30.8737 6.56854 30.9073 6.57694 30.9414L6.57783 30.9433Z" fill="#0D0C22"/>
<path d="M12.5433 15.7065C11.3241 16.2293 9.94037 16.8221 8.14711 16.8221C7.39691 16.8206 6.65035 16.7175 5.92773 16.5157L7.16803 29.2704C7.2119 29.8034 7.45439 30.3005 7.84726 30.6629C8.24013 31.0252 8.75469 31.2263 9.28873 31.2262C9.28873 31.2262 11.0473 31.3177 11.6341 31.3177C12.2657 31.3177 14.1595 31.2262 14.1595 31.2262C14.6934 31.2262 15.2079 31.025 15.6006 30.6627C15.9934 30.3004 16.2358 29.8034 16.2797 29.2704L17.6081 15.1759C17.0145 14.9728 16.4154 14.8379 15.74 14.8379C14.5718 14.8374 13.6306 15.2404 12.5433 15.7065Z" fill="white"/>
<path d="M2.08838 10.2646L2.10939 10.2843L2.12309 10.2926C2.11253 10.2821 2.1009 10.2727 2.08838 10.2646Z" fill="#0D0C22"/>
<path d="M23.3437 9.08746L23.1569 8.14384C22.9893 7.29719 22.6089 6.4972 21.7413 6.19117C21.4632 6.0933 21.1476 6.05122 20.9343 5.8486C20.7211 5.64597 20.6581 5.33126 20.6088 5.03945C20.5174 4.50383 20.4316 3.96776 20.338 3.43304C20.2571 2.97335 20.1932 2.45694 19.9827 2.03521C19.7087 1.46895 19.1402 1.13779 18.5748 0.918693C18.2851 0.810373 17.9895 0.718744 17.6893 0.64425C16.2769 0.271008 14.7918 0.133788 13.3387 0.0555715C11.5946 -0.0408257 9.84587 -0.0117827 8.10589 0.142478C6.81082 0.260488 5.44679 0.4032 4.21609 0.85191C3.76629 1.01612 3.30277 1.21326 2.96073 1.56134C2.54107 1.98901 2.40407 2.65042 2.71049 3.18375C2.92831 3.56248 3.29729 3.83005 3.68865 4.00708C4.19839 4.23518 4.73076 4.40872 5.27692 4.52487C6.79759 4.86152 8.37261 4.99372 9.92614 5.04995C11.648 5.11955 13.3727 5.06317 15.0864 4.88118C15.5102 4.83452 15.9332 4.77858 16.3554 4.7133C16.8527 4.63692 17.172 3.9856 17.0254 3.53184C16.85 2.98936 16.3787 2.77895 15.8458 2.86083C15.7673 2.87318 15.6892 2.88461 15.6106 2.89605L15.554 2.90428C15.3735 2.92715 15.1929 2.9485 15.0124 2.96832C14.6395 3.00857 14.2656 3.0415 13.8909 3.06712C13.0515 3.12566 12.2099 3.15265 11.3687 3.15402C10.5422 3.15402 9.71519 3.13069 8.89044 3.07626C8.51415 3.05156 8.13879 3.02015 7.76432 2.98204C7.594 2.9642 7.42413 2.94545 7.25422 2.92441L7.09257 2.90382L7.05743 2.89879L6.88983 2.87455C6.54733 2.82286 6.20484 2.7634 5.86599 2.69159C5.83182 2.68399 5.80122 2.66493 5.77928 2.63757C5.75739 2.61021 5.74541 2.57618 5.74541 2.5411C5.74541 2.50602 5.75739 2.47199 5.77928 2.44463C5.80122 2.41727 5.83182 2.39821 5.86599 2.39062H5.87238C6.16602 2.32795 6.46193 2.27444 6.75877 2.22778C6.85771 2.21223 6.95694 2.19698 7.0565 2.18204H7.05925C7.24511 2.16969 7.43186 2.1363 7.61683 2.11434C9.22595 1.9467 10.8446 1.88954 12.4615 1.94328C13.2465 1.96615 14.0311 2.01234 14.8124 2.09193C14.9804 2.10931 15.1476 2.12761 15.3147 2.14819C15.3787 2.15597 15.443 2.16511 15.5074 2.17289L15.6371 2.19164C16.0152 2.24806 16.3913 2.31652 16.7655 2.39702C17.3199 2.51778 18.0318 2.55711 18.2784 3.16546C18.357 3.35848 18.3926 3.57301 18.436 3.77564L18.4912 4.03408C18.4927 4.0387 18.4938 4.04343 18.4944 4.04823C18.625 4.65811 18.7558 5.26799 18.8867 5.87787C18.8963 5.92293 18.8965 5.96948 18.8874 6.01461C18.8782 6.05975 18.8599 6.10253 18.8335 6.14026C18.8071 6.17798 18.7732 6.20986 18.7339 6.23388C18.6947 6.2579 18.6509 6.27358 18.6054 6.27991H18.6017L18.5218 6.29089L18.4428 6.30143C18.1926 6.33405 17.942 6.36455 17.6912 6.39289C17.1971 6.44931 16.7022 6.4981 16.2066 6.53928C15.2217 6.62129 14.2349 6.6751 13.2461 6.70072C12.7422 6.71416 12.2385 6.72038 11.735 6.71949C9.73069 6.71789 7.72814 6.60121 5.7372 6.37003C5.52167 6.34441 5.30614 6.31696 5.09058 6.28907C5.25773 6.31056 4.96911 6.27261 4.91067 6.26438C4.77366 6.24516 4.63666 6.22517 4.49969 6.20446C4.03982 6.13538 3.5827 6.05029 3.12376 5.97573C2.56892 5.88427 2.03828 5.93 1.53642 6.20446C1.12446 6.43025 0.791036 6.7765 0.580631 7.19701C0.364174 7.64527 0.299786 8.1333 0.202974 8.61496C0.106162 9.09662 -0.0445355 9.61485 0.0125468 10.1093C0.135388 11.1764 0.880199 12.0437 1.95152 12.2376C2.95936 12.4206 3.97267 12.5688 4.98874 12.695C8.98008 13.1846 13.0124 13.2432 17.0162 12.8697C17.3423 12.8392 17.6679 12.806 17.993 12.77C18.0946 12.7588 18.1973 12.7706 18.2938 12.8043C18.3902 12.8381 18.4779 12.893 18.5504 12.9651C18.6229 13.0372 18.6784 13.1246 18.7128 13.221C18.7472 13.3173 18.7597 13.4202 18.7493 13.522L18.6479 14.5091C18.4436 16.5037 18.2393 18.4981 18.035 20.4924C17.8219 22.5867 17.6074 24.6808 17.3916 26.7748C17.3307 27.3645 17.2698 27.9541 17.2089 28.5436C17.1505 29.124 17.1423 29.7228 17.0322 30.2963C16.8587 31.1983 16.249 31.7523 15.3595 31.9549C14.5445 32.1407 13.712 32.2382 12.8762 32.2458C11.9496 32.2508 11.0235 32.2097 10.0969 32.2147C9.10783 32.2202 7.89631 32.1287 7.13276 31.3914C6.46193 30.7437 6.36924 29.7296 6.2779 28.8528C6.15613 27.6919 6.03541 26.5311 5.91577 25.3706L5.2445 18.9171L4.81021 14.7414C4.80288 14.6724 4.7956 14.6042 4.78876 14.5347C4.73667 14.0366 4.38458 13.549 3.82976 13.5741C3.35483 13.5952 2.81506 13.9995 2.87077 14.5347L3.19272 17.6304L3.85853 24.0341C4.04818 25.853 4.23739 27.6722 4.42615 29.4918C4.4627 29.8403 4.49694 30.1898 4.53531 30.5383C4.74399 32.4429 6.19618 33.4694 7.9945 33.7584C9.04481 33.9277 10.1207 33.9624 11.1865 33.9798C12.5529 34.0018 13.9329 34.0544 15.2768 33.8065C17.2683 33.4405 18.7625 32.1086 18.9757 30.0425C19.0366 29.446 19.0975 28.8494 19.1584 28.2527C19.3609 26.2791 19.563 24.3054 19.7648 22.3316L20.4252 15.8822L20.7279 12.9264C20.743 12.7799 20.8048 12.6421 20.9042 12.5334C21.0035 12.4248 21.1352 12.351 21.2796 12.3231C21.849 12.212 22.3934 12.0221 22.7984 11.5881C23.4432 10.8969 23.5715 9.99585 23.3437 9.08746ZM1.92229 9.72508C1.93097 9.72095 1.91499 9.79554 1.90814 9.83028C1.90677 9.7777 1.90951 9.73104 1.92229 9.72508ZM1.97755 10.1532C1.98212 10.15 1.99581 10.1683 2.00997 10.1902C1.98851 10.1701 1.97481 10.1551 1.97709 10.1532H1.97755ZM2.03189 10.225C2.05153 10.2584 2.06203 10.2795 2.03189 10.225V10.225ZM2.14103 10.3138H2.14377C2.14377 10.317 2.14879 10.3202 2.15062 10.3234C2.14759 10.3198 2.14423 10.3166 2.14058 10.3138H2.14103ZM21.2531 10.1811C21.0485 10.376 20.7403 10.4665 20.4357 10.5118C17.0199 11.0195 13.5543 11.2766 10.101 11.1632C7.62962 11.0785 5.18419 10.8036 2.73743 10.4574C2.49768 10.4236 2.23784 10.3796 2.07299 10.2026C1.76246 9.86871 1.91499 9.19631 1.99581 8.79289C2.06979 8.42332 2.21136 7.93068 2.6502 7.87809C3.33519 7.79758 4.13068 8.08712 4.80839 8.19005C5.62428 8.31477 6.44319 8.41461 7.26519 8.48965C10.7732 8.8098 14.3402 8.75997 17.8327 8.29157C18.4693 8.20588 19.1036 8.10634 19.7356 7.9929C20.2987 7.8918 20.9229 7.70199 21.2632 8.28609C21.4965 8.68404 21.5275 9.21646 21.4915 9.66609C21.4804 9.86197 21.3949 10.0462 21.2526 10.1811H21.2531Z" fill="#0D0C22"/>
<path fill-rule="evenodd" clip-rule="evenodd" d="M41.9711 19.6869C41.7719 20.0683 41.4975 20.4003 41.1487 20.6821C40.7996 20.9641 40.3925 21.1937 39.927 21.3704C39.4619 21.5476 38.9935 21.6665 38.5228 21.7271C38.0517 21.7879 37.5944 21.7827 37.1515 21.7105C36.7083 21.6387 36.3312 21.4923 36.0213 21.2709L36.3704 17.6384C36.6916 17.5279 37.0958 17.4145 37.5836 17.2983C38.0711 17.1824 38.5722 17.0993 39.0875 17.0496C39.6028 16.9997 40.0903 17.0056 40.5505 17.0662C41.0097 17.127 41.3729 17.2735 41.6388 17.5058C41.7826 17.6384 41.905 17.7821 42.0046 17.937C42.1043 18.0918 42.1652 18.2522 42.1875 18.418C42.2426 18.8824 42.1708 19.3054 41.9711 19.6869ZM36.902 11.9491C37.1348 11.8053 37.4145 11.678 37.7413 11.5673C38.0681 11.4571 38.4034 11.3794 38.747 11.3352C39.0901 11.2913 39.4255 11.2854 39.7527 11.3186C40.0791 11.3518 40.3676 11.443 40.6167 11.5921C40.8662 11.7416 41.0517 11.9573 41.1733 12.239C41.2952 12.5212 41.3287 12.8779 41.2733 13.3091C41.2291 13.6519 41.093 13.9423 40.8662 14.1799C40.639 14.4179 40.3617 14.6167 40.0352 14.7771C39.7081 14.9377 39.3619 15.0648 38.9964 15.1584C38.6306 15.2527 38.2785 15.3219 37.9409 15.3659C37.603 15.4103 37.3093 15.4381 37.0602 15.4488C36.8107 15.46 36.6471 15.4654 36.5697 15.4654L36.902 11.9491ZM43.7662 17.3397C43.5888 16.953 43.3509 16.6129 43.0516 16.3196C42.7527 16.0267 42.3976 15.8139 41.9879 15.6811C42.1652 15.5374 42.3396 15.3108 42.5114 15.001C42.6831 14.6917 42.83 14.3541 42.9519 13.9892C43.0735 13.6241 43.1568 13.2567 43.201 12.8861C43.2453 12.5158 43.2285 12.1978 43.1516 11.9322C42.9627 11.2689 42.6664 10.7492 42.2619 10.3731C41.8574 9.99728 41.3867 9.73738 40.8495 9.59345C40.3118 9.45015 39.7192 9.41943 39.0712 9.50232C38.4228 9.58526 37.7606 9.74833 37.085 9.99162C37.085 9.93647 37.0905 9.87837 37.1017 9.81756C37.1124 9.75697 37.1181 9.69321 37.1181 9.6267C37.1181 9.46087 37.0351 9.31735 36.8689 9.19554C36.7028 9.07388 36.5115 9.00215 36.2956 8.97985C36.0795 8.95795 35.8688 9.00465 35.6639 9.12084C35.4587 9.23699 35.3175 9.45015 35.2401 9.75928C35.1513 10.7546 35.0627 11.7887 34.9742 12.8611C34.8854 13.9339 34.7914 15.0176 34.6917 16.1125C34.5919 17.2072 34.4922 18.2936 34.3924 19.3717C34.2927 20.45 34.193 21.4866 34.0933 22.4817C34.1266 22.7803 34.2097 23.0126 34.3427 23.1785C34.4755 23.3445 34.6307 23.4441 34.808 23.4771C34.9852 23.5104 35.1709 23.4796 35.3647 23.3858C35.5585 23.2921 35.7276 23.1286 35.8718 22.8965C36.3148 23.1397 36.8135 23.2974 37.3676 23.3693C37.9216 23.4411 38.4837 23.4411 39.0544 23.3693C39.6248 23.2974 40.1873 23.1621 40.7413 22.9628C41.2952 22.7639 41.7994 22.515 42.2537 22.2166C42.708 21.918 43.0902 21.5777 43.4007 21.1964C43.7108 20.8147 43.9156 20.4028 44.0156 19.9607C44.1153 19.5073 44.1428 19.054 44.0985 18.6005C44.0543 18.1472 43.9435 17.7272 43.7662 17.3397Z" fill="#0D0C23"/>
<path fill-rule="evenodd" clip-rule="evenodd" d="M59.9801 26.0975C59.9191 26.4624 59.8329 26.8466 59.7224 27.2504C59.6113 27.6538 59.4812 28.0217 59.3317 28.3535C59.1822 28.6852 59.016 28.9531 58.8335 29.1578C58.6502 29.3624 58.4535 29.4482 58.2431 29.4152C58.0769 29.3927 57.9717 29.2877 57.9274 29.1C57.8832 28.9116 57.8832 28.6795 57.9274 28.4032C57.9717 28.1267 58.0576 27.8142 58.1851 27.4659C58.3122 27.1177 58.4677 26.7719 58.6502 26.4293C58.8335 26.0863 59.041 25.7576 59.2737 25.4424C59.5064 25.1274 59.75 24.8645 60.005 24.6545C60.0604 24.7208 60.0853 24.8866 60.0797 25.1522C60.0738 25.4175 60.0407 25.7328 59.9801 26.0975ZM65.6142 18.8987C65.4648 18.7329 65.2818 18.639 65.0658 18.6167C64.8498 18.5946 64.6308 18.7163 64.4093 18.9816C64.265 19.247 64.0824 19.5014 63.8609 19.7446C63.6389 19.9881 63.4091 20.2091 63.1708 20.4081C62.9329 20.607 62.7057 20.7787 62.4897 20.9222C62.2737 21.0662 62.1045 21.1712 61.9826 21.2375C61.9383 20.8837 61.9134 20.5022 61.9078 20.0929C61.9019 19.6838 61.9104 19.2693 61.9327 18.8491C61.9658 18.2518 62.035 17.6494 62.1406 17.041C62.2458 16.4328 62.3982 15.8356 62.5975 15.2493C62.5975 14.94 62.5254 14.6883 62.3815 14.4948C62.2372 14.3013 62.0629 14.1795 61.858 14.1298C61.6528 14.0802 61.4427 14.1078 61.2263 14.2127C61.0103 14.318 60.8248 14.5088 60.6698 14.7849C60.5367 15.15 60.3842 15.5591 60.2128 16.0124C60.0407 16.4659 59.847 16.9276 59.631 17.3975C59.415 17.8678 59.1737 18.3238 58.9079 18.7659C58.642 19.2085 58.3513 19.6012 58.0353 19.9437C57.7196 20.2865 57.3761 20.5548 57.005 20.7482C56.6336 20.9418 56.2324 21.0275 55.8 21.0054C55.6004 20.95 55.4565 20.8008 55.3677 20.5574C55.2792 20.3143 55.2264 20.01 55.21 19.6451C55.1933 19.2802 55.21 18.8793 55.2598 18.4425C55.3097 18.0058 55.3762 17.5717 55.4591 17.1405C55.5424 16.7091 55.6339 16.3001 55.7335 15.9131C55.8331 15.5261 55.9272 15.1997 56.0161 14.9343C56.1492 14.6138 56.1492 14.3453 56.0161 14.1298C55.883 13.9141 55.7004 13.7706 55.4677 13.6985C55.2349 13.6267 54.991 13.6296 54.7364 13.7069C54.4813 13.7843 54.2984 13.9556 54.188 14.221C53.9995 14.6747 53.8277 15.1831 53.6727 15.747C53.5173 16.311 53.3927 16.8945 53.2986 17.497C53.2042 18.0999 53.1514 18.6971 53.1406 19.2886C53.1399 19.3271 53.1417 19.3638 53.1417 19.4021C52.9001 20.0449 52.6696 20.5309 52.451 20.856C52.1684 21.2764 51.8498 21.4589 51.4955 21.4033C51.34 21.337 51.2378 21.1824 51.188 20.9389C51.1378 20.6958 51.1211 20.3972 51.1378 20.043C51.1549 19.6895 51.1962 19.2886 51.2623 18.8406C51.3293 18.3928 51.4122 17.9284 51.5118 17.4474C51.6118 16.9661 51.717 16.4827 51.8275 15.996C51.9383 15.5095 52.0379 15.0505 52.1271 14.6191C52.116 14.2321 52.0022 13.9365 51.7862 13.7317C51.5702 13.5274 51.2679 13.4472 50.8805 13.4912C50.6147 13.6019 50.4176 13.7458 50.2901 13.9226C50.1626 14.0993 50.0603 14.3262 49.983 14.6025C49.9384 14.7464 49.8718 15.0339 49.7833 15.4653C49.6945 15.8962 49.5811 16.3914 49.4428 16.9497C49.3041 17.5084 49.1409 18.0915 48.9524 18.6997C48.7639 19.3078 48.5535 19.8583 48.3211 20.3501C48.088 20.8421 47.8333 21.2375 47.5563 21.5361C47.2793 21.8345 46.98 21.9563 46.6588 21.901C46.4815 21.8677 46.3681 21.6853 46.3183 21.3536C46.2684 21.0218 46.2599 20.6129 46.2933 20.1262C46.3264 19.6397 46.393 19.106 46.4926 18.5256C46.5923 17.945 46.6945 17.395 46.8001 16.875C46.9053 16.3554 47.0023 15.8962 47.0912 15.4983C47.1797 15.1002 47.2407 14.8348 47.2738 14.7022C47.2738 14.3815 47.2016 14.1246 47.0577 13.9308C46.9135 13.7376 46.7391 13.6157 46.5343 13.5659C46.329 13.5162 46.1186 13.5438 45.9026 13.6488C45.6866 13.754 45.5011 13.9449 45.3456 14.221C45.2903 14.5196 45.2181 14.8653 45.1296 15.2578C45.0408 15.6502 44.9553 16.0538 44.8724 16.4686C44.7891 16.8834 44.7114 17.2897 44.6396 17.6879C44.5675 18.086 44.5147 18.4343 44.4816 18.7329C44.4593 18.965 44.4344 19.2499 44.4069 19.587C44.379 19.9246 44.3652 20.281 44.3652 20.6569C44.3652 21.0331 44.3927 21.4062 44.4485 21.7766C44.5035 22.1472 44.6036 22.4872 44.7474 22.7966C44.8913 23.1064 45.0936 23.3606 45.3542 23.5596C45.6145 23.7587 45.9442 23.8692 46.3432 23.8915C46.7529 23.9134 47.1102 23.8833 47.415 23.8001C47.7199 23.7172 47.9965 23.5872 48.246 23.4102C48.4955 23.2336 48.7223 23.0234 48.9275 22.78C49.1323 22.5369 49.3346 22.2716 49.5343 21.9839C49.7224 22.4044 49.9663 22.7303 50.2656 22.9626C50.5645 23.1947 50.8805 23.3332 51.2129 23.3772C51.5449 23.4211 51.8832 23.3747 52.2268 23.2362C52.5699 23.0981 52.88 22.8631 53.1574 22.5312C53.3399 22.3278 53.512 22.0965 53.6734 21.8408C53.7418 21.9605 53.8147 22.0761 53.8968 22.1827C54.1686 22.5369 54.5371 22.78 55.0026 22.9128C55.5008 23.0455 55.9882 23.0679 56.4648 22.9793C56.9411 22.8909 57.3954 22.7303 57.8274 22.4982C58.2598 22.2659 58.6614 21.9869 59.0328 21.6604C59.4038 21.3343 59.7277 20.9944 60.005 20.6403C59.9935 20.8947 59.9883 21.1354 59.9883 21.3619C59.9883 21.5887 59.9827 21.8345 59.9715 22.1001C59.4176 22.4872 58.8941 22.9517 58.4011 23.4934C57.9077 24.035 57.4757 24.6129 57.1047 25.2267C56.7336 25.8403 56.4425 26.4624 56.2324 27.0926C56.0216 27.7233 55.919 28.3119 55.9246 28.8594C55.9302 29.4067 56.0603 29.8849 56.315 30.294C56.57 30.7033 56.9853 30.9962 57.5616 31.1731C58.1602 31.3613 58.6863 31.3665 59.1406 31.1898C59.5949 31.0128 59.9909 30.7197 60.3288 30.3106C60.6668 29.9015 60.9438 29.4067 61.1602 28.8262C61.3762 28.2456 61.5479 27.6402 61.6751 27.0099C61.8026 26.3797 61.8829 25.7599 61.916 25.1522C61.9495 24.5438 61.9495 24.0018 61.916 23.5264C62.8689 23.1284 63.6501 22.6253 64.2594 22.0169C64.8688 21.4092 65.3729 20.7676 65.7719 20.0929C65.8938 19.9271 65.9355 19.728 65.8968 19.4959C65.8578 19.2636 65.7637 19.0645 65.6142 18.8987Z" fill="#0D0C23"/>
<path fill-rule="evenodd" clip-rule="evenodd" d="M86.5799 17.8378C86.613 17.5836 86.6628 17.3153 86.7293 17.0333C86.7955 16.7513 86.8788 16.4776 86.9788 16.2122C87.0781 15.9469 87.1944 15.7175 87.3275 15.5239C87.4606 15.3305 87.6019 15.1923 87.7514 15.1091C87.9012 15.0264 88.0533 15.0346 88.2087 15.1339C88.3749 15.2337 88.4771 15.4437 88.5162 15.7642C88.5545 16.0854 88.5162 16.4279 88.3998 16.7928C88.283 17.1579 88.0756 17.5005 87.7763 17.8212C87.4774 18.1421 87.0729 18.3519 86.5631 18.4515C86.5408 18.297 86.5464 18.0922 86.5799 17.8378ZM92.3386 18.5178C92.1556 18.4628 91.9813 18.4572 91.8151 18.5013C91.6489 18.5455 91.5433 18.6617 91.4994 18.8498C91.4102 19.2036 91.2693 19.5657 91.0752 19.9361C90.8815 20.3066 90.6432 20.6577 90.361 20.9895C90.0784 21.3212 89.7594 21.6143 89.4051 21.8685C89.0504 22.1229 88.6794 22.3054 88.2916 22.4158C87.9035 22.5377 87.5822 22.5514 87.3275 22.4573C87.0729 22.3637 86.8706 22.2031 86.7212 21.9764C86.5717 21.7498 86.4635 21.4761 86.397 21.1553C86.3304 20.8346 86.2914 20.503 86.2806 20.16C86.9119 20.2044 87.4744 20.0912 87.9678 19.8199C88.4604 19.5493 88.8787 19.1897 89.2222 18.7419C89.5657 18.2941 89.826 17.7909 90.0033 17.2324C90.1803 16.6741 90.2803 16.1184 90.3026 15.5653C90.3134 15.0456 90.2361 14.6062 90.0699 14.2468C89.9037 13.8876 89.6791 13.6079 89.3966 13.409C89.1144 13.2099 88.7902 13.0938 88.4243 13.0608C88.0592 13.0275 87.6874 13.0774 87.3108 13.2099C86.8565 13.3648 86.4717 13.6163 86.156 13.9648C85.84 14.3131 85.5768 14.7169 85.3663 15.1756C85.1559 15.6346 84.9897 16.1293 84.8678 16.66C84.7458 17.191 84.6573 17.7135 84.6019 18.2278C84.5521 18.6892 84.5253 19.1305 84.5161 19.5564C84.4923 19.6106 84.4692 19.6625 84.4439 19.7204C84.2722 20.1133 84.0725 20.4975 83.8457 20.8734C83.6185 21.2494 83.3665 21.5646 83.0895 21.8188C82.8125 22.0733 82.5244 22.1616 82.2251 22.0842C82.0481 22.0402 81.9511 21.8353 81.9343 21.4706C81.918 21.1055 81.9369 20.6522 81.9923 20.1103C82.0481 19.5687 82.1117 18.9822 82.1838 18.3519C82.2556 17.7217 82.2916 17.1192 82.2916 16.5441C82.2916 16.0464 82.1976 15.5683 82.0091 15.1091C81.8206 14.6506 81.5629 14.2689 81.2365 13.9648C80.9093 13.6605 80.5301 13.4587 80.098 13.3594C79.6656 13.2596 79.2005 13.3261 78.702 13.5582C78.203 13.7906 77.8071 14.1167 77.5137 14.537C77.2196 14.9574 76.9508 15.3995 76.7073 15.864C76.6184 15.51 76.4887 15.1813 76.3169 14.877C76.1448 14.5729 75.9347 14.3076 75.6852 14.0807C75.4358 13.8543 75.1558 13.6773 74.8461 13.55C74.5357 13.4231 74.2085 13.3594 73.8653 13.3594C73.5329 13.3594 73.2255 13.4231 72.9429 13.55C72.6603 13.6773 72.4027 13.8402 72.17 14.0393C71.9372 14.2385 71.7268 14.4622 71.5383 14.7112C71.3501 14.9599 71.1836 15.2062 71.0401 15.4492C71.0174 15.1617 70.9925 14.9103 70.965 14.6944C70.9375 14.4789 70.8873 14.2964 70.8155 14.1472C70.7434 13.9978 70.6411 13.8846 70.508 13.8072C70.3749 13.7299 70.1868 13.691 69.9433 13.691C69.821 13.691 69.699 13.7159 69.5774 13.7655C69.4551 13.8154 69.3469 13.8846 69.2532 13.973C69.1588 14.0618 69.087 14.1693 69.0372 14.2964C68.987 14.4235 68.9737 14.5702 68.9956 14.736C69.0064 14.8579 69.0372 15.0041 69.087 15.1756C69.1369 15.3471 69.1837 15.5713 69.2283 15.8473C69.2726 16.1239 69.3086 16.4584 69.3362 16.8509C69.364 17.2435 69.3722 17.7246 69.3611 18.2941C69.3499 18.8637 69.3086 19.5297 69.2365 20.2928C69.1644 21.0558 69.0506 21.9405 68.8959 22.9466C68.8736 23.1789 68.9621 23.367 69.1618 23.5107C69.3611 23.6542 69.5882 23.7371 69.8433 23.7595C70.098 23.7816 70.3392 23.7371 70.566 23.6269C70.7932 23.516 70.9237 23.3226 70.9568 23.0463C70.9899 22.5265 71.0538 21.9737 71.1479 21.3875C71.242 20.8016 71.3583 20.221 71.497 19.6459C71.6353 19.071 71.793 18.5236 71.9707 18.0037C72.1476 17.4839 72.3447 17.0251 72.5607 16.627C72.7767 16.2288 73.0013 15.9111 73.2336 15.6733C73.4664 15.4355 73.7099 15.3166 73.965 15.3166C74.2754 15.3166 74.516 15.4574 74.6881 15.7394C74.8595 16.0216 74.9814 16.3839 75.0536 16.8259C75.1257 17.2684 75.1588 17.7524 75.1536 18.2774C75.1476 18.8027 75.1257 19.3086 75.087 19.7951C75.048 20.2818 75.0038 20.7157 74.9539 21.0972C74.9041 21.4788 74.868 21.7416 74.8461 21.8851C74.8461 22.1396 74.9428 22.3411 75.1365 22.4905C75.3306 22.6398 75.5466 22.7284 75.7849 22.7559C76.0232 22.7837 76.2474 22.7393 76.4582 22.6231C76.6686 22.507 76.7902 22.311 76.8237 22.0343C76.9345 21.2382 77.0869 20.4394 77.2806 19.6377C77.4743 18.8359 77.6963 18.1173 77.9457 17.4814C78.1948 16.8454 78.4718 16.3257 78.7767 15.9221C79.0812 15.5186 79.4054 15.3166 79.7489 15.3166C79.9259 15.3166 80.062 15.4385 80.156 15.6815C80.2501 15.9248 80.2973 16.2564 80.2973 16.6766C80.2973 16.9864 80.2724 17.3044 80.2226 17.6305C80.1728 17.9567 80.1148 18.2941 80.0479 18.6423C79.9817 18.9908 79.9233 19.3473 79.8735 19.7122C79.8237 20.0773 79.7988 20.4586 79.7988 20.8567C79.7988 21.1333 79.8263 21.4539 79.8817 21.8188C79.9371 22.1835 80.0423 22.5295 80.1973 22.8555C80.3527 23.1818 80.5658 23.4581 80.8375 23.6847C81.1089 23.9114 81.4551 24.0248 81.876 24.0248C82.5076 24.0248 83.0672 23.8893 83.555 23.6185C84.0424 23.3477 84.4607 22.9939 84.8098 22.557C84.8276 22.5341 84.8443 22.5097 84.8618 22.487C84.8886 22.5516 84.9124 22.6199 84.9425 22.6814C85.1808 23.1679 85.505 23.5438 85.9151 23.8094C86.3245 24.0747 86.8067 24.2212 87.361 24.2489C87.915 24.2763 88.5184 24.174 89.1727 23.9419C89.6598 23.7649 90.0836 23.5438 90.4439 23.2784C90.8038 23.0131 91.128 22.6896 91.4161 22.3081C91.7043 21.9266 91.9671 21.487 92.2058 20.9895C92.4441 20.4916 92.6847 19.9224 92.9286 19.2808C92.9728 19.1042 92.9312 18.9466 92.804 18.8081C92.6765 18.6701 92.5215 18.5733 92.3386 18.5178Z" fill="#0D0C23"/>
<path fill-rule="evenodd" clip-rule="evenodd" d="M101.371 16.667C101.316 16.9934 101.241 17.353 101.147 17.7453C101.052 18.138 100.933 18.5443 100.79 18.9645C100.645 19.3848 100.468 19.7636 100.258 20.1007C100.047 20.4382 99.8062 20.7061 99.5348 20.9052C99.263 21.1042 98.9503 21.1872 98.5956 21.1539C98.4183 21.132 98.2826 21.0104 98.1885 20.789C98.0941 20.5681 98.0443 20.2859 98.0387 19.9431C98.0331 19.6005 98.0636 19.2244 98.1301 18.8151C98.1967 18.4062 98.2993 18.0052 98.438 17.6125C98.5763 17.2203 98.7455 16.8579 98.9444 16.526C99.144 16.1944 99.3738 15.9372 99.6344 15.7548C99.8947 15.5723 100.18 15.4869 100.49 15.4976C100.8 15.5088 101.133 15.6635 101.488 15.9621C101.465 16.106 101.427 16.3411 101.371 16.667ZM107.28 17.9359C107.108 17.8476 106.93 17.8284 106.748 17.8781C106.565 17.9277 106.434 18.0965 106.357 18.3839C106.313 18.6937 106.213 19.0584 106.058 19.4786C105.903 19.8989 105.712 20.2972 105.485 20.6728C105.257 21.0489 104.997 21.3614 104.703 21.6101C104.41 21.8591 104.097 21.9725 103.765 21.95C103.487 21.9281 103.293 21.7871 103.183 21.5272C103.072 21.2673 103.014 20.9414 103.008 20.5485C103.002 20.1562 103.042 19.7139 103.124 19.2217C103.208 18.7297 103.307 18.2405 103.424 17.7535C103.54 17.2672 103.659 16.7998 103.781 16.352C103.903 15.9042 104.003 15.5254 104.08 15.2159C104.169 14.9394 104.141 14.7045 103.997 14.5107C103.853 14.3175 103.673 14.179 103.457 14.0961C103.241 14.0132 103.022 13.9911 102.8 14.0299C102.579 14.0686 102.435 14.1875 102.368 14.3863C101.715 13.8224 101.086 13.5183 100.482 13.4741C99.8779 13.4299 99.321 13.5627 98.8116 13.8723C98.3019 14.1818 97.8506 14.6296 97.4572 15.2159C97.0639 15.8021 96.7452 16.4406 96.5013 17.1317C96.2578 17.8227 96.1054 18.5279 96.0444 19.2465C95.9834 19.9654 96.0303 20.6207 96.1857 21.2122C96.3411 21.8037 96.6147 22.2877 97.0085 22.6634C97.4014 23.0394 97.9364 23.2275 98.6124 23.2275C98.9113 23.2275 99.1994 23.1667 99.4764 23.0451C99.7534 22.9233 100.008 22.7795 100.241 22.6137C100.474 22.4479 100.679 22.2736 100.856 22.0912C101.033 21.9087 101.172 21.7568 101.271 21.635C101.349 22.0331 101.477 22.3706 101.654 22.6469C101.831 22.9232 102.033 23.1503 102.26 23.3269C102.487 23.5036 102.726 23.6337 102.975 23.7168C103.224 23.7997 103.465 23.8411 103.698 23.8411C104.219 23.8411 104.706 23.6642 105.161 23.3102C105.615 22.9567 106.022 22.5224 106.382 22.0083C106.742 21.4939 107.039 20.9523 107.271 20.3827C107.504 19.8132 107.659 19.3073 107.736 18.8648C107.814 18.699 107.8 18.525 107.695 18.3425C107.59 18.1601 107.451 18.0248 107.28 17.9359Z" fill="#0D0C23"/>
<path fill-rule="evenodd" clip-rule="evenodd" d="M137.197 27.0938C137.103 27.4696 136.956 27.7878 136.756 28.0475C136.557 28.3074 136.308 28.4429 136.008 28.454C135.82 28.465 135.676 28.3654 135.576 28.1554C135.477 27.9452 135.408 27.6744 135.369 27.3427C135.33 27.0109 135.313 26.6403 135.319 26.2312C135.324 25.8221 135.341 25.4185 135.369 25.0204C135.396 24.6225 135.43 24.2517 135.469 23.9091C135.507 23.5661 135.537 23.3011 135.56 23.113C135.936 23.1572 136.25 23.3201 136.499 23.6023C136.748 23.8843 136.939 24.2186 137.072 24.6058C137.205 24.9928 137.283 25.4103 137.305 25.8581C137.327 26.3059 137.291 26.7178 137.197 27.0938ZM131.18 27.0938C131.086 27.4696 130.939 27.7878 130.74 28.0475C130.541 28.3074 130.291 28.4429 129.992 28.454C129.804 28.465 129.66 28.3654 129.56 28.1554C129.46 27.9452 129.391 27.6744 129.352 27.3427C129.313 27.0109 129.296 26.6403 129.302 26.2312C129.308 25.8221 129.324 25.4185 129.352 25.0204C129.38 24.6225 129.413 24.2517 129.452 23.9091C129.491 23.5661 129.521 23.3011 129.543 23.113C129.92 23.1572 130.233 23.3201 130.482 23.6023C130.732 23.8843 130.923 24.2186 131.056 24.6058C131.189 24.9928 131.266 25.4103 131.289 25.8581C131.31 26.3059 131.274 26.7178 131.18 27.0938ZM125.006 17.6724C124.995 17.9376 124.97 18.1726 124.931 18.3772C124.892 18.5821 124.84 18.7118 124.773 18.7671C124.651 18.7006 124.502 18.5295 124.325 18.2528C124.147 17.9765 124.009 17.6638 123.909 17.3155C123.81 16.9673 123.779 16.6247 123.818 16.2871C123.856 15.95 124.031 15.6876 124.341 15.4993C124.463 15.433 124.568 15.4578 124.657 15.574C124.746 15.6901 124.818 15.8587 124.873 16.0799C124.928 16.3012 124.967 16.5555 124.989 16.8429C125.012 17.1305 125.017 17.4069 125.006 17.6724ZM123.535 20.9815C123.363 21.1637 123.172 21.3214 122.962 21.4541C122.751 21.5869 122.535 21.6865 122.314 21.7528C122.092 21.8192 121.892 21.8357 121.715 21.8024C121.217 21.7031 120.834 21.4872 120.569 21.1555C120.302 20.8239 120.133 20.4342 120.062 19.9864C119.989 19.5384 119.998 19.06 120.086 18.5514C120.175 18.0428 120.324 17.5702 120.535 17.1333C120.746 16.6964 121.001 16.3204 121.3 16.0053C121.599 15.6901 121.925 15.494 122.28 15.4164C122.147 15.9803 122.103 16.5639 122.147 17.1663C122.192 17.769 122.336 18.3357 122.58 18.8664C122.734 19.1876 122.92 19.4803 123.136 19.7456C123.352 20.0112 123.616 20.2378 123.926 20.4258C123.837 20.6139 123.707 20.799 123.535 20.9815ZM141.926 17.8383C141.959 17.5841 142.008 17.3155 142.075 17.0335C142.141 16.7518 142.224 16.478 142.324 16.2126C142.424 15.9471 142.54 15.7177 142.673 15.5243C142.806 15.3309 142.948 15.1924 143.097 15.1095C143.246 15.0266 143.399 15.0348 143.554 15.1344C143.72 15.2341 143.823 15.4441 143.861 15.7646C143.9 16.0855 143.861 16.4281 143.745 16.7932C143.629 17.1581 143.421 17.5009 143.122 17.8214C142.823 18.1425 142.418 18.3524 141.909 18.4519C141.886 18.2972 141.892 18.0927 141.926 17.8383ZM148.623 17.8383C148.656 17.5841 148.706 17.3155 148.773 17.0335C148.839 16.7518 148.923 16.478 149.022 16.2126C149.122 15.9471 149.238 15.7177 149.371 15.5243C149.504 15.3309 149.645 15.1924 149.795 15.1095C149.945 15.0266 150.097 15.0348 150.252 15.1344C150.418 15.2341 150.521 15.4441 150.56 15.7646C150.598 16.0855 150.56 16.4281 150.443 16.7932C150.327 17.1581 150.119 17.5009 149.82 17.8214C149.521 18.1425 149.116 18.3524 148.607 18.4519C148.585 18.2972 148.59 18.0927 148.623 17.8383ZM154.847 18.8086C154.72 18.6705 154.565 18.5737 154.382 18.5182C154.199 18.463 154.025 18.4576 153.859 18.5018C153.692 18.5459 153.587 18.6621 153.543 18.85C153.454 19.204 153.313 19.5661 153.119 19.9363C152.925 20.3071 152.687 20.6581 152.404 20.9897C152.122 21.3214 151.803 21.6147 151.449 21.8689C151.094 22.1233 150.723 22.3058 150.335 22.416C149.947 22.5381 149.626 22.5518 149.371 22.4577C149.116 22.3639 148.914 22.2035 148.765 21.9769C148.615 21.75 148.507 21.4764 148.44 21.1555C148.374 20.8351 148.335 20.5034 148.324 20.1604C148.956 20.2048 149.518 20.0916 150.011 19.8203C150.504 19.5495 150.922 19.1899 151.266 18.7421C151.609 18.2945 151.87 17.7913 152.047 17.2328C152.224 16.6743 152.324 16.1188 152.346 15.5658C152.357 15.046 152.28 14.6064 152.113 14.247C151.948 13.8878 151.723 13.6083 151.44 13.4094C151.158 13.2102 150.834 13.0942 150.468 13.061C150.103 13.0277 149.731 13.0778 149.355 13.2102C148.9 13.3653 148.516 13.6167 148.2 13.965C147.884 14.3135 147.621 14.7173 147.41 15.1758C147.199 15.635 147.033 16.1295 146.911 16.6604C146.789 17.1912 146.701 17.7139 146.646 18.228C146.592 18.7269 146.562 19.2044 146.556 19.6614C146.514 19.7526 146.469 19.8441 146.421 19.9363C146.227 20.3071 145.989 20.6581 145.706 20.9897C145.424 21.3214 145.105 21.6147 144.751 21.8689C144.396 22.1233 144.025 22.3058 143.637 22.416C143.249 22.5381 142.928 22.5518 142.673 22.4577C142.418 22.3639 142.216 22.2035 142.067 21.9769C141.917 21.75 141.809 21.4764 141.743 21.1555C141.676 20.8351 141.637 20.5034 141.626 20.1604C142.258 20.2048 142.82 20.0916 143.313 19.8203C143.806 19.5495 144.224 19.1899 144.568 18.7421C144.911 18.2945 145.172 17.7913 145.349 17.2328C145.526 16.6743 145.626 16.1188 145.648 15.5658C145.659 15.046 145.582 14.6064 145.416 14.247C145.249 13.8878 145.025 13.6083 144.742 13.4094C144.46 13.2102 144.136 13.0942 143.77 13.061C143.404 13.0277 143.033 13.0778 142.656 13.2102C142.202 13.3653 141.817 13.6167 141.502 13.965C141.186 14.3135 140.922 14.7173 140.712 15.1758C140.502 15.635 140.335 16.1295 140.213 16.6604C140.091 17.1912 140.003 17.7139 139.948 18.228C139.916 18.518 139.895 18.7991 139.88 19.0752C139.772 19.1661 139.668 19.2576 139.557 19.3475C139.175 19.6572 138.773 19.9363 138.352 20.1852C137.931 20.4342 137.493 20.6387 137.039 20.799C136.584 20.9594 136.119 21.0562 135.643 21.0893L136.674 10.0753C136.74 9.84301 136.707 9.63867 136.574 9.46171C136.441 9.28471 136.269 9.16308 136.058 9.09679C135.848 9.03028 135.623 9.03598 135.385 9.11322C135.147 9.19086 134.95 9.36783 134.795 9.64392C134.718 10.0644 134.637 10.6393 134.554 11.3691C134.471 12.0988 134.388 12.8951 134.305 13.7577C134.222 14.6203 134.139 15.5104 134.056 16.4281C133.973 17.3462 133.9 18.2031 133.84 18.9992C133.837 19.0346 133.835 19.0665 133.832 19.1015C133.735 19.1835 133.641 19.2663 133.54 19.3475C133.158 19.6572 132.756 19.9363 132.336 20.1852C131.914 20.4342 131.477 20.6387 131.023 20.799C130.568 20.9594 130.103 21.0562 129.626 21.0893L130.657 10.0753C130.723 9.84301 130.69 9.63867 130.557 9.46171C130.424 9.28471 130.252 9.16308 130.042 9.09679C129.832 9.03028 129.607 9.03598 129.369 9.11322C129.13 9.19086 128.934 9.36783 128.779 9.64392C128.701 10.0644 128.621 10.6393 128.538 11.3691C128.455 12.0988 128.371 12.8951 128.289 13.7577C128.205 14.6203 128.122 15.5104 128.039 16.4281C127.956 17.3462 127.884 18.2031 127.823 18.9992C127.822 19.0152 127.821 19.0297 127.82 19.0457C127.645 19.1263 127.456 19.197 127.25 19.2564C127.039 19.3174 126.801 19.3534 126.535 19.3643C126.579 19.165 126.615 18.9439 126.643 18.7006C126.671 18.4576 126.693 18.2031 126.71 17.9376C126.726 17.6724 126.732 17.4069 126.726 17.1415C126.72 16.8759 126.707 16.6329 126.685 16.4115C126.629 15.9363 126.527 15.4856 126.378 15.0597C126.228 14.6342 126.025 14.2777 125.771 13.9898C125.516 13.7024 125.197 13.5088 124.815 13.4094C124.433 13.3099 123.987 13.343 123.477 13.5088C122.723 13.4094 122.045 13.4787 121.441 13.7162C120.837 13.9542 120.314 14.2996 119.87 14.7529C119.427 15.2066 119.064 15.7398 118.782 16.3536C118.499 16.9673 118.311 17.5977 118.217 18.2444C118.177 18.5186 118.157 18.7915 118.151 19.0638C117.98 19.4144 117.792 19.7208 117.585 19.9779C117.292 20.3429 116.987 20.6414 116.671 20.8736C116.355 21.1059 116.042 21.2829 115.732 21.4045C115.422 21.5263 115.145 21.6092 114.901 21.6532C114.613 21.7086 114.336 21.7143 114.07 21.6698C113.804 21.6258 113.56 21.4986 113.339 21.2883C113.161 21.1336 113.026 20.8847 112.932 20.5419C112.837 20.1991 112.782 19.8096 112.766 19.3725C112.749 18.9357 112.766 18.4795 112.815 18.0041C112.865 17.5287 112.951 17.078 113.073 16.6522C113.195 16.2265 113.35 15.845 113.538 15.5075C113.726 15.1706 113.948 14.9298 114.203 14.7861C114.347 14.8084 114.436 14.8938 114.469 15.043C114.502 15.1924 114.51 15.3694 114.494 15.574C114.477 15.7787 114.452 15.9887 114.419 16.2042C114.386 16.4199 114.369 16.5998 114.369 16.7434C114.425 17.042 114.533 17.2743 114.693 17.4401C114.854 17.6059 115.034 17.7029 115.233 17.7303C115.433 17.7581 115.629 17.7112 115.824 17.5893C116.017 17.4679 116.175 17.2743 116.297 17.0087C116.308 17.0199 116.325 17.0253 116.347 17.0253L116.58 14.9189C116.646 14.6312 116.602 14.377 116.447 14.1559C116.292 13.9347 116.087 13.8074 115.832 13.7743C115.51 13.3099 115.075 13.0639 114.527 13.0361C113.979 13.0086 113.416 13.1883 112.84 13.5753C112.486 13.8299 112.173 14.1807 111.901 14.6285C111.629 15.0765 111.408 15.574 111.236 16.1213C111.064 16.6687 110.943 17.2467 110.871 17.8549C110.799 18.463 110.785 19.0548 110.829 19.6295C110.873 20.2048 110.976 20.7467 111.137 21.2551C111.297 21.7639 111.522 22.1896 111.81 22.5322C112.054 22.8308 112.33 23.0495 112.641 23.1877C112.951 23.326 113.275 23.4114 113.613 23.4446C113.951 23.4777 114.286 23.4638 114.619 23.4032C114.951 23.3426 115.267 23.257 115.566 23.1461C115.954 23.0025 116.353 22.8199 116.763 22.5987C117.172 22.3778 117.566 22.1122 117.943 21.8024C118.141 21.6395 118.332 21.4619 118.516 21.2715C118.6 21.4794 118.694 21.6806 118.807 21.8689C119.106 22.3664 119.51 22.7702 120.02 23.0798C120.529 23.3893 121.156 23.5383 121.898 23.5276C122.696 23.5164 123.433 23.3148 124.109 22.9221C124.784 22.5299 125.338 21.9516 125.771 21.1888C126.418 21.1888 127.055 21.0823 127.681 20.8708C127.675 20.9377 127.67 21.0082 127.665 21.0728C127.621 21.6589 127.599 22.0568 127.599 22.267C127.588 22.632 127.563 23.0825 127.524 23.6187C127.485 24.1551 127.46 24.719 127.449 25.3106C127.438 25.9021 127.46 26.4993 127.516 27.1022C127.571 27.7047 127.687 28.2522 127.865 28.7444C128.042 29.2362 128.294 29.6537 128.621 29.9967C128.948 30.3393 129.377 30.5441 129.909 30.6104C130.474 30.6876 130.961 30.5881 131.371 30.3117C131.781 30.0352 132.114 29.6567 132.369 29.1756C132.624 28.6943 132.804 28.1388 132.909 27.5086C133.014 26.8783 133.045 26.2451 133 25.6092C132.956 24.9733 132.84 24.3735 132.651 23.8097C132.463 23.2456 132.202 22.7811 131.87 22.416C132.07 22.3611 132.308 22.2561 132.585 22.101C132.862 21.9464 133.147 21.7721 133.441 21.5785C133.513 21.531 133.584 21.4809 133.656 21.4321C133.629 21.8239 133.615 22.1033 133.615 22.267C133.604 22.632 133.58 23.0825 133.54 23.6187C133.502 24.1551 133.477 24.719 133.466 25.3106C133.455 25.9021 133.477 26.4993 133.532 27.1022C133.588 27.7047 133.704 28.2522 133.881 28.7444C134.058 29.2362 134.31 29.6537 134.637 29.9967C134.964 30.3393 135.393 30.5441 135.926 30.6104C136.49 30.6876 136.978 30.5881 137.388 30.3117C137.798 30.0352 138.13 29.6567 138.385 29.1756C138.64 28.6943 138.82 28.1388 138.926 27.5086C139.031 26.8783 139.061 26.2451 139.017 25.6092C138.972 24.9733 138.856 24.3735 138.668 23.8097C138.479 23.2456 138.219 22.7811 137.886 22.416C138.086 22.3611 138.324 22.2561 138.601 22.101C138.878 21.9464 139.163 21.7721 139.457 21.5785C139.61 21.4779 139.762 21.3742 139.913 21.2675C139.97 21.8083 140.093 22.2826 140.288 22.6816C140.526 23.1684 140.85 23.5442 141.26 23.8097C141.67 24.0749 142.152 24.2216 142.707 24.2491C143.261 24.2765 143.864 24.1744 144.518 23.9421C145.005 23.7653 145.429 23.5442 145.79 23.2788C146.149 23.0133 146.474 22.6898 146.762 22.3085C146.778 22.2864 146.794 22.2624 146.81 22.2401C146.862 22.395 146.919 22.5438 146.986 22.6816C147.225 23.1684 147.548 23.5442 147.959 23.8097C148.368 24.0749 148.85 24.2216 149.404 24.2491C149.958 24.2765 150.562 24.1744 151.216 23.9421C151.704 23.7653 152.127 23.5442 152.488 23.2788C152.848 23.0133 153.171 22.6898 153.46 22.3085C153.748 21.9268 154.011 21.4872 154.249 20.9897C154.488 20.492 154.728 19.9228 154.972 19.2812C155.017 19.1044 154.975 18.9468 154.847 18.8086Z" fill="#0D0C23"/>
</g>
<defs>
<clipPath id="clip0">
<rect width="155" height="34" fill="white"/>
</clipPath>
</defs>
</svg>
