<svg width="24" height="24" viewBox="0 0 24 24" fill="none" xmlns="http://www.w3.org/2000/svg">
<path d="M5.67969 3L21.6797 19" stroke="#14142B" stroke-width="2" stroke-linecap="round"/>
<path fill-rule="evenodd" clip-rule="evenodd" d="M14.0546 4.79037C14.2347 4.26826 14.8039 3.99097 15.326 4.17103C18.4478 5.24762 21.0835 7.6528 22.8918 10.8025C23.3668 11.6298 23.4799 12.6015 23.2316 13.4974C23.084 14.0296 22.5329 14.3415 22.0007 14.1939C21.4685 14.0464 21.1567 13.4953 21.3042 12.9631C21.4117 12.5757 21.3626 12.1558 21.1573 11.7983C19.5394 8.98028 17.2514 6.9506 14.674 6.06175C14.1519 5.8817 13.8746 5.31248 14.0546 4.79037ZM8.7503 4.94115C8.95814 5.45284 8.71183 6.03613 8.20014 6.24397C5.82167 7.21009 3.71737 9.1593 2.2022 11.7984C1.9326 12.2679 1.9326 12.845 2.2022 13.3145C4.42466 17.1854 7.89339 19.5564 11.6798 19.5564C14.367 19.5564 16.8801 18.3689 18.9146 16.299C19.3017 15.9051 19.9349 15.8997 20.3288 16.2868C20.7226 16.6739 20.7281 17.3071 20.341 17.701C17.9956 20.0871 14.9897 21.5564 11.6798 21.5564C6.99415 21.5564 2.94527 18.6255 0.467746 14.3104C-0.155911 13.2241 -0.155916 11.8888 0.467735 10.8025C2.16221 7.85119 4.58162 5.55509 7.44748 4.391C7.95917 4.18316 8.54246 4.42947 8.7503 4.94115Z" fill="#14142B"/>
<path d="M14.5892 11.8251C14.748 12.457 14.6968 13.1233 14.4434 13.7235C14.1899 14.3236 13.748 14.825 13.1844 15.1517C12.6208 15.4785 11.9662 15.6129 11.3194 15.5347C10.6726 15.4564 10.0689 15.1698 9.59949 14.7181C9.13007 14.2663 8.82045 13.6741 8.71743 13.0308C8.61441 12.3875 8.7236 11.7282 9.02848 11.1524C9.33337 10.5767 9.81738 10.1159 10.4074 9.83956C10.9973 9.56327 11.6612 9.48653 12.2987 9.62095" stroke="#14142B" stroke-width="2"/>
</svg>
